G04 #@! TF.GenerationSoftware,KiCad,Pcbnew,5.1.6-c6e7f7d~87~ubuntu20.04.1*
G04 #@! TF.CreationDate,2020-08-13T12:44:14+03:00*
G04 #@! TF.ProjectId,LED_test,4c45445f-7465-4737-942e-6b696361645f,rev?*
G04 #@! TF.SameCoordinates,Original*
G04 #@! TF.FileFunction,Legend,Top*
G04 #@! TF.FilePolarity,Positive*
%FSLAX46Y46*%
G04 Gerber Fmt 4.6, Leading zero omitted, Abs format (unit mm)*
G04 Created by KiCad (PCBNEW 5.1.6-c6e7f7d~87~ubuntu20.04.1) date 2020-08-13 12:44:14*
%MOMM*%
%LPD*%
G01*
G04 APERTURE LIST*
%ADD10C,0.150000*%
%ADD11C,0.120000*%
G04 APERTURE END LIST*
D10*
X148590000Y-129561904D02*
X148542380Y-129657142D01*
X148542380Y-129800000D01*
X148590000Y-129942857D01*
X148685238Y-130038095D01*
X148780476Y-130085714D01*
X148970952Y-130133333D01*
X149113809Y-130133333D01*
X149304285Y-130085714D01*
X149399523Y-130038095D01*
X149494761Y-129942857D01*
X149542380Y-129800000D01*
X149542380Y-129704761D01*
X149494761Y-129561904D01*
X149447142Y-129514285D01*
X149113809Y-129514285D01*
X149113809Y-129704761D01*
X149542380Y-129085714D02*
X148542380Y-129085714D01*
X149542380Y-128514285D01*
X148542380Y-128514285D01*
X149542380Y-128038095D02*
X148542380Y-128038095D01*
X148542380Y-127800000D01*
X148590000Y-127657142D01*
X148685238Y-127561904D01*
X148780476Y-127514285D01*
X148970952Y-127466666D01*
X149113809Y-127466666D01*
X149304285Y-127514285D01*
X149399523Y-127561904D01*
X149494761Y-127657142D01*
X149542380Y-127800000D01*
X149542380Y-128038095D01*
X142250000Y-127941904D02*
X142202380Y-128037142D01*
X142202380Y-128180000D01*
X142250000Y-128322857D01*
X142345238Y-128418095D01*
X142440476Y-128465714D01*
X142630952Y-128513333D01*
X142773809Y-128513333D01*
X142964285Y-128465714D01*
X143059523Y-128418095D01*
X143154761Y-128322857D01*
X143202380Y-128180000D01*
X143202380Y-128084761D01*
X143154761Y-127941904D01*
X143107142Y-127894285D01*
X142773809Y-127894285D01*
X142773809Y-128084761D01*
X143202380Y-127465714D02*
X142202380Y-127465714D01*
X143202380Y-126894285D01*
X142202380Y-126894285D01*
X143202380Y-126418095D02*
X142202380Y-126418095D01*
X142202380Y-126180000D01*
X142250000Y-126037142D01*
X142345238Y-125941904D01*
X142440476Y-125894285D01*
X142630952Y-125846666D01*
X142773809Y-125846666D01*
X142964285Y-125894285D01*
X143059523Y-125941904D01*
X143154761Y-126037142D01*
X143202380Y-126180000D01*
X143202380Y-126418095D01*
X138890000Y-128011904D02*
X138842380Y-128107142D01*
X138842380Y-128250000D01*
X138890000Y-128392857D01*
X138985238Y-128488095D01*
X139080476Y-128535714D01*
X139270952Y-128583333D01*
X139413809Y-128583333D01*
X139604285Y-128535714D01*
X139699523Y-128488095D01*
X139794761Y-128392857D01*
X139842380Y-128250000D01*
X139842380Y-128154761D01*
X139794761Y-128011904D01*
X139747142Y-127964285D01*
X139413809Y-127964285D01*
X139413809Y-128154761D01*
X139842380Y-127535714D02*
X138842380Y-127535714D01*
X139842380Y-126964285D01*
X138842380Y-126964285D01*
X139842380Y-126488095D02*
X138842380Y-126488095D01*
X138842380Y-126250000D01*
X138890000Y-126107142D01*
X138985238Y-126011904D01*
X139080476Y-125964285D01*
X139270952Y-125916666D01*
X139413809Y-125916666D01*
X139604285Y-125964285D01*
X139699523Y-126011904D01*
X139794761Y-126107142D01*
X139842380Y-126250000D01*
X139842380Y-126488095D01*
X134890000Y-128041904D02*
X134842380Y-128137142D01*
X134842380Y-128280000D01*
X134890000Y-128422857D01*
X134985238Y-128518095D01*
X135080476Y-128565714D01*
X135270952Y-128613333D01*
X135413809Y-128613333D01*
X135604285Y-128565714D01*
X135699523Y-128518095D01*
X135794761Y-128422857D01*
X135842380Y-128280000D01*
X135842380Y-128184761D01*
X135794761Y-128041904D01*
X135747142Y-127994285D01*
X135413809Y-127994285D01*
X135413809Y-128184761D01*
X135842380Y-127565714D02*
X134842380Y-127565714D01*
X135842380Y-126994285D01*
X134842380Y-126994285D01*
X135842380Y-126518095D02*
X134842380Y-126518095D01*
X134842380Y-126280000D01*
X134890000Y-126137142D01*
X134985238Y-126041904D01*
X135080476Y-125994285D01*
X135270952Y-125946666D01*
X135413809Y-125946666D01*
X135604285Y-125994285D01*
X135699523Y-126041904D01*
X135794761Y-126137142D01*
X135842380Y-126280000D01*
X135842380Y-126518095D01*
X128950000Y-128041904D02*
X128902380Y-128137142D01*
X128902380Y-128280000D01*
X128950000Y-128422857D01*
X129045238Y-128518095D01*
X129140476Y-128565714D01*
X129330952Y-128613333D01*
X129473809Y-128613333D01*
X129664285Y-128565714D01*
X129759523Y-128518095D01*
X129854761Y-128422857D01*
X129902380Y-128280000D01*
X129902380Y-128184761D01*
X129854761Y-128041904D01*
X129807142Y-127994285D01*
X129473809Y-127994285D01*
X129473809Y-128184761D01*
X129902380Y-127565714D02*
X128902380Y-127565714D01*
X129902380Y-126994285D01*
X128902380Y-126994285D01*
X129902380Y-126518095D02*
X128902380Y-126518095D01*
X128902380Y-126280000D01*
X128950000Y-126137142D01*
X129045238Y-126041904D01*
X129140476Y-125994285D01*
X129330952Y-125946666D01*
X129473809Y-125946666D01*
X129664285Y-125994285D01*
X129759523Y-126041904D01*
X129854761Y-126137142D01*
X129902380Y-126280000D01*
X129902380Y-126518095D01*
X124400000Y-128111904D02*
X124352380Y-128207142D01*
X124352380Y-128350000D01*
X124400000Y-128492857D01*
X124495238Y-128588095D01*
X124590476Y-128635714D01*
X124780952Y-128683333D01*
X124923809Y-128683333D01*
X125114285Y-128635714D01*
X125209523Y-128588095D01*
X125304761Y-128492857D01*
X125352380Y-128350000D01*
X125352380Y-128254761D01*
X125304761Y-128111904D01*
X125257142Y-128064285D01*
X124923809Y-128064285D01*
X124923809Y-128254761D01*
X125352380Y-127635714D02*
X124352380Y-127635714D01*
X125352380Y-127064285D01*
X124352380Y-127064285D01*
X125352380Y-126588095D02*
X124352380Y-126588095D01*
X124352380Y-126350000D01*
X124400000Y-126207142D01*
X124495238Y-126111904D01*
X124590476Y-126064285D01*
X124780952Y-126016666D01*
X124923809Y-126016666D01*
X125114285Y-126064285D01*
X125209523Y-126111904D01*
X125304761Y-126207142D01*
X125352380Y-126350000D01*
X125352380Y-126588095D01*
X132102380Y-128613333D02*
X131102380Y-128613333D01*
X131102380Y-128375238D01*
X131150000Y-128232380D01*
X131245238Y-128137142D01*
X131340476Y-128089523D01*
X131530952Y-128041904D01*
X131673809Y-128041904D01*
X131864285Y-128089523D01*
X131959523Y-128137142D01*
X132054761Y-128232380D01*
X132102380Y-128375238D01*
X132102380Y-128613333D01*
X132007142Y-127041904D02*
X132054761Y-127089523D01*
X132102380Y-127232380D01*
X132102380Y-127327619D01*
X132054761Y-127470476D01*
X131959523Y-127565714D01*
X131864285Y-127613333D01*
X131673809Y-127660952D01*
X131530952Y-127660952D01*
X131340476Y-127613333D01*
X131245238Y-127565714D01*
X131150000Y-127470476D01*
X131102380Y-127327619D01*
X131102380Y-127232380D01*
X131150000Y-127089523D01*
X131197619Y-127041904D01*
X132102380Y-126613333D02*
X131102380Y-126613333D01*
X131816666Y-126280000D01*
X131102380Y-125946666D01*
X132102380Y-125946666D01*
X134282380Y-128025238D02*
X134282380Y-128501428D01*
X133282380Y-128501428D01*
X133758571Y-127691904D02*
X133758571Y-127358571D01*
X134282380Y-127215714D02*
X134282380Y-127691904D01*
X133282380Y-127691904D01*
X133282380Y-127215714D01*
X134282380Y-126787142D02*
X133282380Y-126787142D01*
X133282380Y-126549047D01*
X133330000Y-126406190D01*
X133425238Y-126310952D01*
X133520476Y-126263333D01*
X133710952Y-126215714D01*
X133853809Y-126215714D01*
X134044285Y-126263333D01*
X134139523Y-126310952D01*
X134234761Y-126406190D01*
X134282380Y-126549047D01*
X134282380Y-126787142D01*
X134377619Y-126025238D02*
X134377619Y-125263333D01*
X134282380Y-125025238D02*
X133282380Y-125025238D01*
X133282380Y-124644285D01*
X133330000Y-124549047D01*
X133377619Y-124501428D01*
X133472857Y-124453809D01*
X133615714Y-124453809D01*
X133710952Y-124501428D01*
X133758571Y-124549047D01*
X133806190Y-124644285D01*
X133806190Y-125025238D01*
X133282380Y-124120476D02*
X134282380Y-123882380D01*
X133568095Y-123691904D01*
X134282380Y-123501428D01*
X133282380Y-123263333D01*
X134282380Y-122310952D02*
X133806190Y-122644285D01*
X134282380Y-122882380D02*
X133282380Y-122882380D01*
X133282380Y-122501428D01*
X133330000Y-122406190D01*
X133377619Y-122358571D01*
X133472857Y-122310952D01*
X133615714Y-122310952D01*
X133710952Y-122358571D01*
X133758571Y-122406190D01*
X133806190Y-122501428D01*
X133806190Y-122882380D01*
X119440000Y-128151904D02*
X119392380Y-128247142D01*
X119392380Y-128390000D01*
X119440000Y-128532857D01*
X119535238Y-128628095D01*
X119630476Y-128675714D01*
X119820952Y-128723333D01*
X119963809Y-128723333D01*
X120154285Y-128675714D01*
X120249523Y-128628095D01*
X120344761Y-128532857D01*
X120392380Y-128390000D01*
X120392380Y-128294761D01*
X120344761Y-128151904D01*
X120297142Y-128104285D01*
X119963809Y-128104285D01*
X119963809Y-128294761D01*
X120392380Y-127675714D02*
X119392380Y-127675714D01*
X120392380Y-127104285D01*
X119392380Y-127104285D01*
X120392380Y-126628095D02*
X119392380Y-126628095D01*
X119392380Y-126390000D01*
X119440000Y-126247142D01*
X119535238Y-126151904D01*
X119630476Y-126104285D01*
X119820952Y-126056666D01*
X119963809Y-126056666D01*
X120154285Y-126104285D01*
X120249523Y-126151904D01*
X120344761Y-126247142D01*
X120392380Y-126390000D01*
X120392380Y-126628095D01*
X122537142Y-128019047D02*
X122584761Y-128066666D01*
X122632380Y-128209523D01*
X122632380Y-128304761D01*
X122584761Y-128447619D01*
X122489523Y-128542857D01*
X122394285Y-128590476D01*
X122203809Y-128638095D01*
X122060952Y-128638095D01*
X121870476Y-128590476D01*
X121775238Y-128542857D01*
X121680000Y-128447619D01*
X121632380Y-128304761D01*
X121632380Y-128209523D01*
X121680000Y-128066666D01*
X121727619Y-128019047D01*
X122632380Y-127114285D02*
X122632380Y-127590476D01*
X121632380Y-127590476D01*
X121632380Y-126590476D02*
X121632380Y-126400000D01*
X121680000Y-126304761D01*
X121775238Y-126209523D01*
X121965714Y-126161904D01*
X122299047Y-126161904D01*
X122489523Y-126209523D01*
X122584761Y-126304761D01*
X122632380Y-126400000D01*
X122632380Y-126590476D01*
X122584761Y-126685714D01*
X122489523Y-126780952D01*
X122299047Y-126828571D01*
X121965714Y-126828571D01*
X121775238Y-126780952D01*
X121680000Y-126685714D01*
X121632380Y-126590476D01*
X122537142Y-125161904D02*
X122584761Y-125209523D01*
X122632380Y-125352380D01*
X122632380Y-125447619D01*
X122584761Y-125590476D01*
X122489523Y-125685714D01*
X122394285Y-125733333D01*
X122203809Y-125780952D01*
X122060952Y-125780952D01*
X121870476Y-125733333D01*
X121775238Y-125685714D01*
X121680000Y-125590476D01*
X121632380Y-125447619D01*
X121632380Y-125352380D01*
X121680000Y-125209523D01*
X121727619Y-125161904D01*
X122632380Y-124733333D02*
X121632380Y-124733333D01*
X122632380Y-124161904D02*
X122060952Y-124590476D01*
X121632380Y-124161904D02*
X122203809Y-124733333D01*
X128172380Y-128610000D02*
X127172380Y-128610000D01*
X127172380Y-128371904D01*
X127220000Y-128229047D01*
X127315238Y-128133809D01*
X127410476Y-128086190D01*
X127600952Y-128038571D01*
X127743809Y-128038571D01*
X127934285Y-128086190D01*
X128029523Y-128133809D01*
X128124761Y-128229047D01*
X128172380Y-128371904D01*
X128172380Y-128610000D01*
X127886666Y-127657619D02*
X127886666Y-127181428D01*
X128172380Y-127752857D02*
X127172380Y-127419523D01*
X128172380Y-127086190D01*
X127172380Y-126895714D02*
X127172380Y-126324285D01*
X128172380Y-126610000D02*
X127172380Y-126610000D01*
X127886666Y-126038571D02*
X127886666Y-125562380D01*
X128172380Y-126133809D02*
X127172380Y-125800476D01*
X128172380Y-125467142D01*
X138452380Y-127859047D02*
X138452380Y-128430476D01*
X138452380Y-128144761D02*
X137452380Y-128144761D01*
X137595238Y-128240000D01*
X137690476Y-128335238D01*
X137738095Y-128430476D01*
X137547619Y-127478095D02*
X137500000Y-127430476D01*
X137452380Y-127335238D01*
X137452380Y-127097142D01*
X137500000Y-127001904D01*
X137547619Y-126954285D01*
X137642857Y-126906666D01*
X137738095Y-126906666D01*
X137880952Y-126954285D01*
X138452380Y-127525714D01*
X138452380Y-126906666D01*
X137452380Y-126620952D02*
X138452380Y-126287619D01*
X137452380Y-125954285D01*
X140472380Y-127780476D02*
X140472380Y-128256666D01*
X140948571Y-128304285D01*
X140900952Y-128256666D01*
X140853333Y-128161428D01*
X140853333Y-127923333D01*
X140900952Y-127828095D01*
X140948571Y-127780476D01*
X141043809Y-127732857D01*
X141281904Y-127732857D01*
X141377142Y-127780476D01*
X141424761Y-127828095D01*
X141472380Y-127923333D01*
X141472380Y-128161428D01*
X141424761Y-128256666D01*
X141377142Y-128304285D01*
X140472380Y-127447142D02*
X141472380Y-127113809D01*
X140472380Y-126780476D01*
X144442380Y-128476190D02*
X144442380Y-127857142D01*
X144823333Y-128190476D01*
X144823333Y-128047619D01*
X144870952Y-127952380D01*
X144918571Y-127904761D01*
X145013809Y-127857142D01*
X145251904Y-127857142D01*
X145347142Y-127904761D01*
X145394761Y-127952380D01*
X145442380Y-128047619D01*
X145442380Y-128333333D01*
X145394761Y-128428571D01*
X145347142Y-128476190D01*
X145347142Y-127428571D02*
X145394761Y-127380952D01*
X145442380Y-127428571D01*
X145394761Y-127476190D01*
X145347142Y-127428571D01*
X145442380Y-127428571D01*
X144442380Y-127047619D02*
X144442380Y-126428571D01*
X144823333Y-126761904D01*
X144823333Y-126619047D01*
X144870952Y-126523809D01*
X144918571Y-126476190D01*
X145013809Y-126428571D01*
X145251904Y-126428571D01*
X145347142Y-126476190D01*
X145394761Y-126523809D01*
X145442380Y-126619047D01*
X145442380Y-126904761D01*
X145394761Y-127000000D01*
X145347142Y-127047619D01*
X144442380Y-126142857D02*
X145442380Y-125809523D01*
X144442380Y-125476190D01*
X115958952Y-110839238D02*
X115911333Y-110934476D01*
X115863714Y-110982095D01*
X115768476Y-111029714D01*
X115720857Y-111029714D01*
X115625619Y-110982095D01*
X115578000Y-110934476D01*
X115530380Y-110839238D01*
X115530380Y-110648761D01*
X115578000Y-110553523D01*
X115625619Y-110505904D01*
X115720857Y-110458285D01*
X115768476Y-110458285D01*
X115863714Y-110505904D01*
X115911333Y-110553523D01*
X115958952Y-110648761D01*
X115958952Y-110839238D01*
X116006571Y-110934476D01*
X116054190Y-110982095D01*
X116149428Y-111029714D01*
X116339904Y-111029714D01*
X116435142Y-110982095D01*
X116482761Y-110934476D01*
X116530380Y-110839238D01*
X116530380Y-110648761D01*
X116482761Y-110553523D01*
X116435142Y-110505904D01*
X116339904Y-110458285D01*
X116149428Y-110458285D01*
X116054190Y-110505904D01*
X116006571Y-110553523D01*
X115958952Y-110648761D01*
X115530380Y-113109333D02*
X115530380Y-112442666D01*
X116530380Y-112871238D01*
X115530380Y-114617523D02*
X115530380Y-114808000D01*
X115578000Y-114903238D01*
X115625619Y-114950857D01*
X115768476Y-115046095D01*
X115958952Y-115093714D01*
X116339904Y-115093714D01*
X116435142Y-115046095D01*
X116482761Y-114998476D01*
X116530380Y-114903238D01*
X116530380Y-114712761D01*
X116482761Y-114617523D01*
X116435142Y-114569904D01*
X116339904Y-114522285D01*
X116101809Y-114522285D01*
X116006571Y-114569904D01*
X115958952Y-114617523D01*
X115911333Y-114712761D01*
X115911333Y-114903238D01*
X115958952Y-114998476D01*
X116006571Y-115046095D01*
X116101809Y-115093714D01*
X115530380Y-116601904D02*
X115530380Y-117078095D01*
X116006571Y-117125714D01*
X115958952Y-117078095D01*
X115911333Y-116982857D01*
X115911333Y-116744761D01*
X115958952Y-116649523D01*
X116006571Y-116601904D01*
X116101809Y-116554285D01*
X116339904Y-116554285D01*
X116435142Y-116601904D01*
X116482761Y-116649523D01*
X116530380Y-116744761D01*
X116530380Y-116982857D01*
X116482761Y-117078095D01*
X116435142Y-117125714D01*
X115863714Y-118681523D02*
X116530380Y-118681523D01*
X115482761Y-118919619D02*
X116197047Y-119157714D01*
X116197047Y-118538666D01*
X115530380Y-121491333D02*
X115530380Y-120872285D01*
X115911333Y-121205619D01*
X115911333Y-121062761D01*
X115958952Y-120967523D01*
X116006571Y-120919904D01*
X116101809Y-120872285D01*
X116339904Y-120872285D01*
X116435142Y-120919904D01*
X116482761Y-120967523D01*
X116530380Y-121062761D01*
X116530380Y-121348476D01*
X116482761Y-121443714D01*
X116435142Y-121491333D01*
X115625619Y-123475714D02*
X115578000Y-123428095D01*
X115530380Y-123332857D01*
X115530380Y-123094761D01*
X115578000Y-122999523D01*
X115625619Y-122951904D01*
X115720857Y-122904285D01*
X115816095Y-122904285D01*
X115958952Y-122951904D01*
X116530380Y-123523333D01*
X116530380Y-122904285D01*
X116530380Y-124936285D02*
X116530380Y-125507714D01*
X116530380Y-125222000D02*
X115530380Y-125222000D01*
X115673238Y-125317238D01*
X115768476Y-125412476D01*
X115816095Y-125507714D01*
D11*
X128360000Y-85185000D02*
X128360000Y-85660000D01*
X135580000Y-78440000D02*
X135105000Y-78440000D01*
X135580000Y-78915000D02*
X135580000Y-78440000D01*
X135580000Y-85660000D02*
X135105000Y-85660000D01*
X135580000Y-85185000D02*
X135580000Y-85660000D01*
X128360000Y-78440000D02*
X128835000Y-78440000D01*
X128360000Y-78915000D02*
X128360000Y-78440000D01*
X114344000Y-125900000D02*
X113284000Y-125900000D01*
X114344000Y-124840000D02*
X114344000Y-125900000D01*
X114344000Y-123840000D02*
X112224000Y-123840000D01*
X112224000Y-123840000D02*
X112224000Y-109780000D01*
X114344000Y-123840000D02*
X114344000Y-109780000D01*
X114344000Y-109780000D02*
X112224000Y-109780000D01*
X105120000Y-116000000D02*
X104570000Y-116000000D01*
X108790000Y-120220000D02*
X108790000Y-119670000D01*
X108240000Y-120220000D02*
X108790000Y-120220000D01*
X104570000Y-120220000D02*
X104570000Y-119670000D01*
X105120000Y-120220000D02*
X104570000Y-120220000D01*
X108790000Y-116000000D02*
X108790000Y-116550000D01*
X108240000Y-116000000D02*
X108790000Y-116000000D01*
X177026000Y-85046000D02*
X177026000Y-87166000D01*
X179086000Y-85046000D02*
X177026000Y-85046000D01*
X179086000Y-87166000D02*
X177026000Y-87166000D01*
X179086000Y-85046000D02*
X179086000Y-87166000D01*
X180086000Y-85046000D02*
X181146000Y-85046000D01*
X181146000Y-85046000D02*
X181146000Y-86106000D01*
X147964000Y-131362000D02*
X147964000Y-129242000D01*
X121904000Y-131362000D02*
X147964000Y-131362000D01*
X121904000Y-129242000D02*
X147964000Y-129242000D01*
X121904000Y-131362000D02*
X121904000Y-129242000D01*
X120904000Y-131362000D02*
X119844000Y-131362000D01*
X119844000Y-131362000D02*
X119844000Y-130302000D01*
X114072000Y-81775000D02*
X114072000Y-90010000D01*
X118592000Y-81775000D02*
X114072000Y-81775000D01*
X118592000Y-90010000D02*
X118592000Y-81775000D01*
X105780000Y-112728733D02*
X105780000Y-113071267D01*
X106800000Y-112728733D02*
X106800000Y-113071267D01*
X120388748Y-52630000D02*
X120911252Y-52630000D01*
X120388748Y-54050000D02*
X120911252Y-54050000D01*
X111767252Y-46430000D02*
X111244748Y-46430000D01*
X111767252Y-45010000D02*
X111244748Y-45010000D01*
X111244748Y-51510000D02*
X111767252Y-51510000D01*
X111244748Y-50090000D02*
X111767252Y-50090000D01*
X110322000Y-56388000D02*
X110322000Y-54888000D01*
X110322000Y-56388000D02*
X110322000Y-57888000D01*
X107102000Y-56388000D02*
X107102000Y-54888000D01*
X107102000Y-56388000D02*
X107102000Y-59313000D01*
X180342000Y-111423267D02*
X180342000Y-111080733D01*
X179322000Y-111423267D02*
X179322000Y-111080733D01*
X175004000Y-118700733D02*
X175004000Y-119043267D01*
X176024000Y-118700733D02*
X176024000Y-119043267D01*
X115518000Y-57157252D02*
X115518000Y-56634748D01*
X114098000Y-57157252D02*
X114098000Y-56634748D01*
X119372748Y-64210000D02*
X119895252Y-64210000D01*
X119372748Y-62790000D02*
X119895252Y-62790000D01*
X172380000Y-124714000D02*
X172380000Y-127639000D01*
X172380000Y-124714000D02*
X172380000Y-123214000D01*
X175600000Y-124714000D02*
X175600000Y-126214000D01*
X175600000Y-124714000D02*
X175600000Y-123214000D01*
X106748733Y-48610000D02*
X107091267Y-48610000D01*
X106748733Y-49630000D02*
X107091267Y-49630000D01*
X106738733Y-50230000D02*
X107081267Y-50230000D01*
X106738733Y-51250000D02*
X107081267Y-51250000D01*
X105058733Y-63560000D02*
X105401267Y-63560000D01*
X105058733Y-64580000D02*
X105401267Y-64580000D01*
X105028733Y-65210000D02*
X105371267Y-65210000D01*
X105028733Y-66230000D02*
X105371267Y-66230000D01*
X166198733Y-128522000D02*
X166541267Y-128522000D01*
X166198733Y-129542000D02*
X166541267Y-129542000D01*
X160953267Y-129542000D02*
X160610733Y-129542000D01*
X160953267Y-128522000D02*
X160610733Y-128522000D01*
X166198733Y-124204000D02*
X166541267Y-124204000D01*
X166198733Y-125224000D02*
X166541267Y-125224000D01*
X160953267Y-125224000D02*
X160610733Y-125224000D01*
X160953267Y-124204000D02*
X160610733Y-124204000D01*
X166198733Y-119124000D02*
X166541267Y-119124000D01*
X166198733Y-120144000D02*
X166541267Y-120144000D01*
X160953267Y-120144000D02*
X160610733Y-120144000D01*
X160953267Y-119124000D02*
X160610733Y-119124000D01*
X139707252Y-75998000D02*
X139184748Y-75998000D01*
X139707252Y-77418000D02*
X139184748Y-77418000D01*
X125528000Y-77208748D02*
X125528000Y-77731252D01*
X126948000Y-77208748D02*
X126948000Y-77731252D01*
X124213252Y-82094000D02*
X123690748Y-82094000D01*
X124213252Y-83514000D02*
X123690748Y-83514000D01*
X146506000Y-88399252D02*
X146506000Y-87876748D01*
X145086000Y-88399252D02*
X145086000Y-87876748D01*
X142486748Y-86666000D02*
X143009252Y-86666000D01*
X142486748Y-88086000D02*
X143009252Y-88086000D01*
X123690748Y-84126000D02*
X124213252Y-84126000D01*
X123690748Y-85546000D02*
X124213252Y-85546000D01*
X143009252Y-85038000D02*
X142486748Y-85038000D01*
X143009252Y-83618000D02*
X142486748Y-83618000D01*
X128068000Y-89415252D02*
X128068000Y-88892748D01*
X129488000Y-89415252D02*
X129488000Y-88892748D01*
X155694748Y-87070000D02*
X156217252Y-87070000D01*
X155694748Y-85650000D02*
X156217252Y-85650000D01*
X153468000Y-66301252D02*
X153468000Y-65778748D01*
X154888000Y-66301252D02*
X154888000Y-65778748D01*
X167666000Y-101333000D02*
X167666000Y-109568000D01*
X172186000Y-101333000D02*
X167666000Y-101333000D01*
X172186000Y-109568000D02*
X172186000Y-101333000D01*
X181916000Y-110736748D02*
X181916000Y-111259252D01*
X183336000Y-110736748D02*
X183336000Y-111259252D01*
X181838733Y-126930000D02*
X182181267Y-126930000D01*
X181838733Y-127950000D02*
X182181267Y-127950000D01*
X185926000Y-121748733D02*
X185926000Y-122091267D01*
X186946000Y-121748733D02*
X186946000Y-122091267D01*
X132600000Y-97624000D02*
X139070000Y-97624000D01*
X132600000Y-90844000D02*
X139070000Y-90844000D01*
X132600000Y-90844000D02*
X132600000Y-97624000D01*
X130568000Y-61380000D02*
X130568000Y-68160000D01*
X130568000Y-61380000D02*
X137038000Y-61380000D01*
X130568000Y-68160000D02*
X137038000Y-68160000D01*
X177786000Y-99940000D02*
X177786000Y-97510000D01*
X174716000Y-98180000D02*
X174716000Y-99940000D01*
X184460000Y-98046000D02*
X183530000Y-98046000D01*
X181300000Y-98046000D02*
X182230000Y-98046000D01*
X181300000Y-98046000D02*
X181300000Y-100206000D01*
X184460000Y-98046000D02*
X184460000Y-99506000D01*
X139617267Y-75440000D02*
X139274733Y-75440000D01*
X139617267Y-74420000D02*
X139274733Y-74420000D01*
X146814000Y-76790733D02*
X146814000Y-77133267D01*
X145794000Y-76790733D02*
X145794000Y-77133267D01*
X144270000Y-76790733D02*
X144270000Y-77133267D01*
X145290000Y-76790733D02*
X145290000Y-77133267D01*
X139528733Y-80012000D02*
X139871267Y-80012000D01*
X139528733Y-78992000D02*
X139871267Y-78992000D01*
X142919267Y-88644000D02*
X142576733Y-88644000D01*
X142919267Y-89664000D02*
X142576733Y-89664000D01*
X113874733Y-74420000D02*
X114217267Y-74420000D01*
X113874733Y-75440000D02*
X114217267Y-75440000D01*
X117418733Y-75440000D02*
X117761267Y-75440000D01*
X117418733Y-74420000D02*
X117761267Y-74420000D01*
X146052000Y-83737267D02*
X146052000Y-83394733D01*
X145032000Y-83737267D02*
X145032000Y-83394733D01*
X113874733Y-73662000D02*
X114217267Y-73662000D01*
X113874733Y-72642000D02*
X114217267Y-72642000D01*
X117430733Y-73662000D02*
X117773267Y-73662000D01*
X117430733Y-72642000D02*
X117773267Y-72642000D01*
X142576733Y-82040000D02*
X142919267Y-82040000D01*
X142576733Y-83060000D02*
X142919267Y-83060000D01*
X113874733Y-71984000D02*
X114217267Y-71984000D01*
X113874733Y-70964000D02*
X114217267Y-70964000D01*
X117394733Y-70964000D02*
X117737267Y-70964000D01*
X117394733Y-71984000D02*
X117737267Y-71984000D01*
X153922000Y-69678733D02*
X153922000Y-70021267D01*
X154942000Y-69678733D02*
X154942000Y-70021267D01*
X146894733Y-78992000D02*
X147237267Y-78992000D01*
X146894733Y-80012000D02*
X147237267Y-80012000D01*
X174496000Y-102952733D02*
X174496000Y-103295267D01*
X175516000Y-102952733D02*
X175516000Y-103295267D01*
X178052000Y-94151267D02*
X178052000Y-93808733D01*
X179072000Y-94151267D02*
X179072000Y-93808733D01*
X187280733Y-100332000D02*
X187623267Y-100332000D01*
X187280733Y-99312000D02*
X187623267Y-99312000D01*
X185845267Y-132336000D02*
X185502733Y-132336000D01*
X185845267Y-131316000D02*
X185502733Y-131316000D01*
X113284000Y-61372000D02*
X110284000Y-61372000D01*
X114284000Y-64612000D02*
X112284000Y-64612000D01*
X117546000Y-58418000D02*
X117546000Y-56958000D01*
X120706000Y-58418000D02*
X120706000Y-56258000D01*
X120706000Y-58418000D02*
X119776000Y-58418000D01*
X117546000Y-58418000D02*
X118476000Y-58418000D01*
X178294000Y-111878000D02*
X178294000Y-109448000D01*
X175224000Y-110118000D02*
X175224000Y-111878000D01*
D10*
X189627000Y-125587000D02*
X188827000Y-125587000D01*
X189627000Y-129937000D02*
X188827000Y-129937000D01*
X185277000Y-129937000D02*
X186077000Y-129937000D01*
X185277000Y-125587000D02*
X186077000Y-125587000D01*
X189627000Y-129937000D02*
X189627000Y-129137000D01*
X185277000Y-129937000D02*
X185277000Y-129137000D01*
X189627000Y-125587000D02*
X189627000Y-126387000D01*
X128288095Y-75742380D02*
X128288095Y-76551904D01*
X128335714Y-76647142D01*
X128383333Y-76694761D01*
X128478571Y-76742380D01*
X128669047Y-76742380D01*
X128764285Y-76694761D01*
X128811904Y-76647142D01*
X128859523Y-76551904D01*
X128859523Y-75742380D01*
X129288095Y-75837619D02*
X129335714Y-75790000D01*
X129430952Y-75742380D01*
X129669047Y-75742380D01*
X129764285Y-75790000D01*
X129811904Y-75837619D01*
X129859523Y-75932857D01*
X129859523Y-76028095D01*
X129811904Y-76170952D01*
X129240476Y-76742380D01*
X129859523Y-76742380D01*
X112950666Y-126352380D02*
X112950666Y-127066666D01*
X112903047Y-127209523D01*
X112807809Y-127304761D01*
X112664952Y-127352380D01*
X112569714Y-127352380D01*
X113950666Y-127352380D02*
X113379238Y-127352380D01*
X113664952Y-127352380D02*
X113664952Y-126352380D01*
X113569714Y-126495238D01*
X113474476Y-126590476D01*
X113379238Y-126638095D01*
X107138095Y-121142380D02*
X107138095Y-121951904D01*
X107185714Y-122047142D01*
X107233333Y-122094761D01*
X107328571Y-122142380D01*
X107519047Y-122142380D01*
X107614285Y-122094761D01*
X107661904Y-122047142D01*
X107709523Y-121951904D01*
X107709523Y-121142380D01*
X108709523Y-122142380D02*
X108138095Y-122142380D01*
X108423809Y-122142380D02*
X108423809Y-121142380D01*
X108328571Y-121285238D01*
X108233333Y-121380476D01*
X108138095Y-121428095D01*
X134928095Y-42842380D02*
X134928095Y-41842380D01*
X134928095Y-42318571D02*
X135499523Y-42318571D01*
X135499523Y-42842380D02*
X135499523Y-41842380D01*
X135880476Y-41842380D02*
X136499523Y-41842380D01*
X136166190Y-42223333D01*
X136309047Y-42223333D01*
X136404285Y-42270952D01*
X136451904Y-42318571D01*
X136499523Y-42413809D01*
X136499523Y-42651904D01*
X136451904Y-42747142D01*
X136404285Y-42794761D01*
X136309047Y-42842380D01*
X136023333Y-42842380D01*
X135928095Y-42794761D01*
X135880476Y-42747142D01*
X193248095Y-130432380D02*
X193248095Y-129432380D01*
X193248095Y-129908571D02*
X193819523Y-129908571D01*
X193819523Y-130432380D02*
X193819523Y-129432380D01*
X194248095Y-129527619D02*
X194295714Y-129480000D01*
X194390952Y-129432380D01*
X194629047Y-129432380D01*
X194724285Y-129480000D01*
X194771904Y-129527619D01*
X194819523Y-129622857D01*
X194819523Y-129718095D01*
X194771904Y-129860952D01*
X194200476Y-130432380D01*
X194819523Y-130432380D01*
X105168095Y-129732380D02*
X105168095Y-128732380D01*
X105168095Y-129208571D02*
X105739523Y-129208571D01*
X105739523Y-129732380D02*
X105739523Y-128732380D01*
X106739523Y-129732380D02*
X106168095Y-129732380D01*
X106453809Y-129732380D02*
X106453809Y-128732380D01*
X106358571Y-128875238D01*
X106263333Y-128970476D01*
X106168095Y-129018095D01*
X183447619Y-85878571D02*
X183780952Y-85878571D01*
X183923809Y-86402380D02*
X183447619Y-86402380D01*
X183447619Y-85402380D01*
X183923809Y-85402380D01*
X184257142Y-86402380D02*
X184780952Y-85735714D01*
X184257142Y-85735714D02*
X184780952Y-86402380D01*
X185019047Y-85735714D02*
X185400000Y-85735714D01*
X185161904Y-85402380D02*
X185161904Y-86259523D01*
X185209523Y-86354761D01*
X185304761Y-86402380D01*
X185400000Y-86402380D01*
X185733333Y-86402380D02*
X185733333Y-85735714D01*
X185733333Y-85926190D02*
X185780952Y-85830952D01*
X185828571Y-85783333D01*
X185923809Y-85735714D01*
X186019047Y-85735714D01*
X186780952Y-86402380D02*
X186780952Y-85878571D01*
X186733333Y-85783333D01*
X186638095Y-85735714D01*
X186447619Y-85735714D01*
X186352380Y-85783333D01*
X186780952Y-86354761D02*
X186685714Y-86402380D01*
X186447619Y-86402380D01*
X186352380Y-86354761D01*
X186304761Y-86259523D01*
X186304761Y-86164285D01*
X186352380Y-86069047D01*
X186447619Y-86021428D01*
X186685714Y-86021428D01*
X186780952Y-85973809D01*
X187019047Y-86497619D02*
X187780952Y-86497619D01*
X188352380Y-85878571D02*
X188019047Y-85878571D01*
X188019047Y-86402380D02*
X188019047Y-85402380D01*
X188495238Y-85402380D01*
X188876190Y-86402380D02*
X188876190Y-85402380D01*
X189257142Y-85402380D01*
X189352380Y-85450000D01*
X189400000Y-85497619D01*
X189447619Y-85592857D01*
X189447619Y-85735714D01*
X189400000Y-85830952D01*
X189352380Y-85878571D01*
X189257142Y-85926190D01*
X188876190Y-85926190D01*
X190400000Y-86402380D02*
X189828571Y-86402380D01*
X190114285Y-86402380D02*
X190114285Y-85402380D01*
X190019047Y-85545238D01*
X189923809Y-85640476D01*
X189828571Y-85688095D01*
X118296380Y-130635333D02*
X119010666Y-130635333D01*
X119153523Y-130682952D01*
X119248761Y-130778190D01*
X119296380Y-130921047D01*
X119296380Y-131016285D01*
X118391619Y-130206761D02*
X118344000Y-130159142D01*
X118296380Y-130063904D01*
X118296380Y-129825809D01*
X118344000Y-129730571D01*
X118391619Y-129682952D01*
X118486857Y-129635333D01*
X118582095Y-129635333D01*
X118724952Y-129682952D01*
X119296380Y-130254380D01*
X119296380Y-129635333D01*
X113387142Y-89066666D02*
X113434761Y-89114285D01*
X113482380Y-89257142D01*
X113482380Y-89352380D01*
X113434761Y-89495238D01*
X113339523Y-89590476D01*
X113244285Y-89638095D01*
X113053809Y-89685714D01*
X112910952Y-89685714D01*
X112720476Y-89638095D01*
X112625238Y-89590476D01*
X112530000Y-89495238D01*
X112482380Y-89352380D01*
X112482380Y-89257142D01*
X112530000Y-89114285D01*
X112577619Y-89066666D01*
X112482380Y-88161904D02*
X112482380Y-88638095D01*
X112958571Y-88685714D01*
X112910952Y-88638095D01*
X112863333Y-88542857D01*
X112863333Y-88304761D01*
X112910952Y-88209523D01*
X112958571Y-88161904D01*
X113053809Y-88114285D01*
X113291904Y-88114285D01*
X113387142Y-88161904D01*
X113434761Y-88209523D01*
X113482380Y-88304761D01*
X113482380Y-88542857D01*
X113434761Y-88638095D01*
X113387142Y-88685714D01*
X106767142Y-110276666D02*
X106814761Y-110324285D01*
X106862380Y-110467142D01*
X106862380Y-110562380D01*
X106814761Y-110705238D01*
X106719523Y-110800476D01*
X106624285Y-110848095D01*
X106433809Y-110895714D01*
X106290952Y-110895714D01*
X106100476Y-110848095D01*
X106005238Y-110800476D01*
X105910000Y-110705238D01*
X105862380Y-110562380D01*
X105862380Y-110467142D01*
X105910000Y-110324285D01*
X105957619Y-110276666D01*
X106862380Y-109324285D02*
X106862380Y-109895714D01*
X106862380Y-109610000D02*
X105862380Y-109610000D01*
X106005238Y-109705238D01*
X106100476Y-109800476D01*
X106148095Y-109895714D01*
X178007904Y-60166380D02*
X178007904Y-59166380D01*
X178246000Y-59166380D01*
X178388857Y-59214000D01*
X178484095Y-59309238D01*
X178531714Y-59404476D01*
X178579333Y-59594952D01*
X178579333Y-59737809D01*
X178531714Y-59928285D01*
X178484095Y-60023523D01*
X178388857Y-60118761D01*
X178246000Y-60166380D01*
X178007904Y-60166380D01*
X179531714Y-60166380D02*
X178960285Y-60166380D01*
X179246000Y-60166380D02*
X179246000Y-59166380D01*
X179150761Y-59309238D01*
X179055523Y-59404476D01*
X178960285Y-59452095D01*
X120007142Y-52047142D02*
X119959523Y-52094761D01*
X119816666Y-52142380D01*
X119721428Y-52142380D01*
X119578571Y-52094761D01*
X119483333Y-51999523D01*
X119435714Y-51904285D01*
X119388095Y-51713809D01*
X119388095Y-51570952D01*
X119435714Y-51380476D01*
X119483333Y-51285238D01*
X119578571Y-51190000D01*
X119721428Y-51142380D01*
X119816666Y-51142380D01*
X119959523Y-51190000D01*
X120007142Y-51237619D01*
X120959523Y-52142380D02*
X120388095Y-52142380D01*
X120673809Y-52142380D02*
X120673809Y-51142380D01*
X120578571Y-51285238D01*
X120483333Y-51380476D01*
X120388095Y-51428095D01*
X121864285Y-51142380D02*
X121388095Y-51142380D01*
X121340476Y-51618571D01*
X121388095Y-51570952D01*
X121483333Y-51523333D01*
X121721428Y-51523333D01*
X121816666Y-51570952D01*
X121864285Y-51618571D01*
X121911904Y-51713809D01*
X121911904Y-51951904D01*
X121864285Y-52047142D01*
X121816666Y-52094761D01*
X121721428Y-52142380D01*
X121483333Y-52142380D01*
X121388095Y-52094761D01*
X121340476Y-52047142D01*
X110609142Y-44299142D02*
X110561523Y-44346761D01*
X110418666Y-44394380D01*
X110323428Y-44394380D01*
X110180571Y-44346761D01*
X110085333Y-44251523D01*
X110037714Y-44156285D01*
X109990095Y-43965809D01*
X109990095Y-43822952D01*
X110037714Y-43632476D01*
X110085333Y-43537238D01*
X110180571Y-43442000D01*
X110323428Y-43394380D01*
X110418666Y-43394380D01*
X110561523Y-43442000D01*
X110609142Y-43489619D01*
X111561523Y-44394380D02*
X110990095Y-44394380D01*
X111275809Y-44394380D02*
X111275809Y-43394380D01*
X111180571Y-43537238D01*
X111085333Y-43632476D01*
X110990095Y-43680095D01*
X112132952Y-43822952D02*
X112037714Y-43775333D01*
X111990095Y-43727714D01*
X111942476Y-43632476D01*
X111942476Y-43584857D01*
X111990095Y-43489619D01*
X112037714Y-43442000D01*
X112132952Y-43394380D01*
X112323428Y-43394380D01*
X112418666Y-43442000D01*
X112466285Y-43489619D01*
X112513904Y-43584857D01*
X112513904Y-43632476D01*
X112466285Y-43727714D01*
X112418666Y-43775333D01*
X112323428Y-43822952D01*
X112132952Y-43822952D01*
X112037714Y-43870571D01*
X111990095Y-43918190D01*
X111942476Y-44013428D01*
X111942476Y-44203904D01*
X111990095Y-44299142D01*
X112037714Y-44346761D01*
X112132952Y-44394380D01*
X112323428Y-44394380D01*
X112418666Y-44346761D01*
X112466285Y-44299142D01*
X112513904Y-44203904D01*
X112513904Y-44013428D01*
X112466285Y-43918190D01*
X112418666Y-43870571D01*
X112323428Y-43822952D01*
X111087142Y-52927142D02*
X111039523Y-52974761D01*
X110896666Y-53022380D01*
X110801428Y-53022380D01*
X110658571Y-52974761D01*
X110563333Y-52879523D01*
X110515714Y-52784285D01*
X110468095Y-52593809D01*
X110468095Y-52450952D01*
X110515714Y-52260476D01*
X110563333Y-52165238D01*
X110658571Y-52070000D01*
X110801428Y-52022380D01*
X110896666Y-52022380D01*
X111039523Y-52070000D01*
X111087142Y-52117619D01*
X111468095Y-52117619D02*
X111515714Y-52070000D01*
X111610952Y-52022380D01*
X111849047Y-52022380D01*
X111944285Y-52070000D01*
X111991904Y-52117619D01*
X112039523Y-52212857D01*
X112039523Y-52308095D01*
X111991904Y-52450952D01*
X111420476Y-53022380D01*
X112039523Y-53022380D01*
X112420476Y-52117619D02*
X112468095Y-52070000D01*
X112563333Y-52022380D01*
X112801428Y-52022380D01*
X112896666Y-52070000D01*
X112944285Y-52117619D01*
X112991904Y-52212857D01*
X112991904Y-52308095D01*
X112944285Y-52450952D01*
X112372857Y-53022380D01*
X112991904Y-53022380D01*
X105242380Y-57781904D02*
X106051904Y-57781904D01*
X106147142Y-57734285D01*
X106194761Y-57686666D01*
X106242380Y-57591428D01*
X106242380Y-57400952D01*
X106194761Y-57305714D01*
X106147142Y-57258095D01*
X106051904Y-57210476D01*
X105242380Y-57210476D01*
X105575714Y-56305714D02*
X106242380Y-56305714D01*
X105194761Y-56543809D02*
X105909047Y-56781904D01*
X105909047Y-56162857D01*
X180107142Y-107592857D02*
X180154761Y-107640476D01*
X180202380Y-107783333D01*
X180202380Y-107878571D01*
X180154761Y-108021428D01*
X180059523Y-108116666D01*
X179964285Y-108164285D01*
X179773809Y-108211904D01*
X179630952Y-108211904D01*
X179440476Y-108164285D01*
X179345238Y-108116666D01*
X179250000Y-108021428D01*
X179202380Y-107878571D01*
X179202380Y-107783333D01*
X179250000Y-107640476D01*
X179297619Y-107592857D01*
X179297619Y-107211904D02*
X179250000Y-107164285D01*
X179202380Y-107069047D01*
X179202380Y-106830952D01*
X179250000Y-106735714D01*
X179297619Y-106688095D01*
X179392857Y-106640476D01*
X179488095Y-106640476D01*
X179630952Y-106688095D01*
X180202380Y-107259523D01*
X180202380Y-106640476D01*
X179202380Y-106307142D02*
X179202380Y-105688095D01*
X179583333Y-106021428D01*
X179583333Y-105878571D01*
X179630952Y-105783333D01*
X179678571Y-105735714D01*
X179773809Y-105688095D01*
X180011904Y-105688095D01*
X180107142Y-105735714D01*
X180154761Y-105783333D01*
X180202380Y-105878571D01*
X180202380Y-106164285D01*
X180154761Y-106259523D01*
X180107142Y-106307142D01*
X174347142Y-118602857D02*
X174394761Y-118650476D01*
X174442380Y-118793333D01*
X174442380Y-118888571D01*
X174394761Y-119031428D01*
X174299523Y-119126666D01*
X174204285Y-119174285D01*
X174013809Y-119221904D01*
X173870952Y-119221904D01*
X173680476Y-119174285D01*
X173585238Y-119126666D01*
X173490000Y-119031428D01*
X173442380Y-118888571D01*
X173442380Y-118793333D01*
X173490000Y-118650476D01*
X173537619Y-118602857D01*
X173537619Y-118221904D02*
X173490000Y-118174285D01*
X173442380Y-118079047D01*
X173442380Y-117840952D01*
X173490000Y-117745714D01*
X173537619Y-117698095D01*
X173632857Y-117650476D01*
X173728095Y-117650476D01*
X173870952Y-117698095D01*
X174442380Y-118269523D01*
X174442380Y-117650476D01*
X174442380Y-116698095D02*
X174442380Y-117269523D01*
X174442380Y-116983809D02*
X173442380Y-116983809D01*
X173585238Y-117079047D01*
X173680476Y-117174285D01*
X173728095Y-117269523D01*
X113515142Y-57538857D02*
X113562761Y-57586476D01*
X113610380Y-57729333D01*
X113610380Y-57824571D01*
X113562761Y-57967428D01*
X113467523Y-58062666D01*
X113372285Y-58110285D01*
X113181809Y-58157904D01*
X113038952Y-58157904D01*
X112848476Y-58110285D01*
X112753238Y-58062666D01*
X112658000Y-57967428D01*
X112610380Y-57824571D01*
X112610380Y-57729333D01*
X112658000Y-57586476D01*
X112705619Y-57538857D01*
X112705619Y-57157904D02*
X112658000Y-57110285D01*
X112610380Y-57015047D01*
X112610380Y-56776952D01*
X112658000Y-56681714D01*
X112705619Y-56634095D01*
X112800857Y-56586476D01*
X112896095Y-56586476D01*
X113038952Y-56634095D01*
X113610380Y-57205523D01*
X113610380Y-56586476D01*
X112610380Y-55967428D02*
X112610380Y-55872190D01*
X112658000Y-55776952D01*
X112705619Y-55729333D01*
X112800857Y-55681714D01*
X112991333Y-55634095D01*
X113229428Y-55634095D01*
X113419904Y-55681714D01*
X113515142Y-55729333D01*
X113562761Y-55776952D01*
X113610380Y-55872190D01*
X113610380Y-55967428D01*
X113562761Y-56062666D01*
X113515142Y-56110285D01*
X113419904Y-56157904D01*
X113229428Y-56205523D01*
X112991333Y-56205523D01*
X112800857Y-56157904D01*
X112705619Y-56110285D01*
X112658000Y-56062666D01*
X112610380Y-55967428D01*
X122293142Y-63857142D02*
X122245523Y-63904761D01*
X122102666Y-63952380D01*
X122007428Y-63952380D01*
X121864571Y-63904761D01*
X121769333Y-63809523D01*
X121721714Y-63714285D01*
X121674095Y-63523809D01*
X121674095Y-63380952D01*
X121721714Y-63190476D01*
X121769333Y-63095238D01*
X121864571Y-63000000D01*
X122007428Y-62952380D01*
X122102666Y-62952380D01*
X122245523Y-63000000D01*
X122293142Y-63047619D01*
X123245523Y-63952380D02*
X122674095Y-63952380D01*
X122959809Y-63952380D02*
X122959809Y-62952380D01*
X122864571Y-63095238D01*
X122769333Y-63190476D01*
X122674095Y-63238095D01*
X123721714Y-63952380D02*
X123912190Y-63952380D01*
X124007428Y-63904761D01*
X124055047Y-63857142D01*
X124150285Y-63714285D01*
X124197904Y-63523809D01*
X124197904Y-63142857D01*
X124150285Y-63047619D01*
X124102666Y-63000000D01*
X124007428Y-62952380D01*
X123816952Y-62952380D01*
X123721714Y-63000000D01*
X123674095Y-63047619D01*
X123626476Y-63142857D01*
X123626476Y-63380952D01*
X123674095Y-63476190D01*
X123721714Y-63523809D01*
X123816952Y-63571428D01*
X124007428Y-63571428D01*
X124102666Y-63523809D01*
X124150285Y-63476190D01*
X124197904Y-63380952D01*
X170832380Y-126351904D02*
X171641904Y-126351904D01*
X171737142Y-126304285D01*
X171784761Y-126256666D01*
X171832380Y-126161428D01*
X171832380Y-125970952D01*
X171784761Y-125875714D01*
X171737142Y-125828095D01*
X171641904Y-125780476D01*
X170832380Y-125780476D01*
X170832380Y-124875714D02*
X170832380Y-125066190D01*
X170880000Y-125161428D01*
X170927619Y-125209047D01*
X171070476Y-125304285D01*
X171260952Y-125351904D01*
X171641904Y-125351904D01*
X171737142Y-125304285D01*
X171784761Y-125256666D01*
X171832380Y-125161428D01*
X171832380Y-124970952D01*
X171784761Y-124875714D01*
X171737142Y-124828095D01*
X171641904Y-124780476D01*
X171403809Y-124780476D01*
X171308571Y-124828095D01*
X171260952Y-124875714D01*
X171213333Y-124970952D01*
X171213333Y-125161428D01*
X171260952Y-125256666D01*
X171308571Y-125304285D01*
X171403809Y-125351904D01*
X106847142Y-48172380D02*
X106513809Y-47696190D01*
X106275714Y-48172380D02*
X106275714Y-47172380D01*
X106656666Y-47172380D01*
X106751904Y-47220000D01*
X106799523Y-47267619D01*
X106847142Y-47362857D01*
X106847142Y-47505714D01*
X106799523Y-47600952D01*
X106751904Y-47648571D01*
X106656666Y-47696190D01*
X106275714Y-47696190D01*
X107180476Y-47172380D02*
X107799523Y-47172380D01*
X107466190Y-47553333D01*
X107609047Y-47553333D01*
X107704285Y-47600952D01*
X107751904Y-47648571D01*
X107799523Y-47743809D01*
X107799523Y-47981904D01*
X107751904Y-48077142D01*
X107704285Y-48124761D01*
X107609047Y-48172380D01*
X107323333Y-48172380D01*
X107228095Y-48124761D01*
X107180476Y-48077142D01*
X108418571Y-47172380D02*
X108513809Y-47172380D01*
X108609047Y-47220000D01*
X108656666Y-47267619D01*
X108704285Y-47362857D01*
X108751904Y-47553333D01*
X108751904Y-47791428D01*
X108704285Y-47981904D01*
X108656666Y-48077142D01*
X108609047Y-48124761D01*
X108513809Y-48172380D01*
X108418571Y-48172380D01*
X108323333Y-48124761D01*
X108275714Y-48077142D01*
X108228095Y-47981904D01*
X108180476Y-47791428D01*
X108180476Y-47553333D01*
X108228095Y-47362857D01*
X108275714Y-47267619D01*
X108323333Y-47220000D01*
X108418571Y-47172380D01*
X106767142Y-52792380D02*
X106433809Y-52316190D01*
X106195714Y-52792380D02*
X106195714Y-51792380D01*
X106576666Y-51792380D01*
X106671904Y-51840000D01*
X106719523Y-51887619D01*
X106767142Y-51982857D01*
X106767142Y-52125714D01*
X106719523Y-52220952D01*
X106671904Y-52268571D01*
X106576666Y-52316190D01*
X106195714Y-52316190D01*
X107148095Y-51887619D02*
X107195714Y-51840000D01*
X107290952Y-51792380D01*
X107529047Y-51792380D01*
X107624285Y-51840000D01*
X107671904Y-51887619D01*
X107719523Y-51982857D01*
X107719523Y-52078095D01*
X107671904Y-52220952D01*
X107100476Y-52792380D01*
X107719523Y-52792380D01*
X108195714Y-52792380D02*
X108386190Y-52792380D01*
X108481428Y-52744761D01*
X108529047Y-52697142D01*
X108624285Y-52554285D01*
X108671904Y-52363809D01*
X108671904Y-51982857D01*
X108624285Y-51887619D01*
X108576666Y-51840000D01*
X108481428Y-51792380D01*
X108290952Y-51792380D01*
X108195714Y-51840000D01*
X108148095Y-51887619D01*
X108100476Y-51982857D01*
X108100476Y-52220952D01*
X108148095Y-52316190D01*
X108195714Y-52363809D01*
X108290952Y-52411428D01*
X108481428Y-52411428D01*
X108576666Y-52363809D01*
X108624285Y-52316190D01*
X108671904Y-52220952D01*
X104607142Y-63132380D02*
X104273809Y-62656190D01*
X104035714Y-63132380D02*
X104035714Y-62132380D01*
X104416666Y-62132380D01*
X104511904Y-62180000D01*
X104559523Y-62227619D01*
X104607142Y-62322857D01*
X104607142Y-62465714D01*
X104559523Y-62560952D01*
X104511904Y-62608571D01*
X104416666Y-62656190D01*
X104035714Y-62656190D01*
X104988095Y-62227619D02*
X105035714Y-62180000D01*
X105130952Y-62132380D01*
X105369047Y-62132380D01*
X105464285Y-62180000D01*
X105511904Y-62227619D01*
X105559523Y-62322857D01*
X105559523Y-62418095D01*
X105511904Y-62560952D01*
X104940476Y-63132380D01*
X105559523Y-63132380D01*
X106130952Y-62560952D02*
X106035714Y-62513333D01*
X105988095Y-62465714D01*
X105940476Y-62370476D01*
X105940476Y-62322857D01*
X105988095Y-62227619D01*
X106035714Y-62180000D01*
X106130952Y-62132380D01*
X106321428Y-62132380D01*
X106416666Y-62180000D01*
X106464285Y-62227619D01*
X106511904Y-62322857D01*
X106511904Y-62370476D01*
X106464285Y-62465714D01*
X106416666Y-62513333D01*
X106321428Y-62560952D01*
X106130952Y-62560952D01*
X106035714Y-62608571D01*
X105988095Y-62656190D01*
X105940476Y-62751428D01*
X105940476Y-62941904D01*
X105988095Y-63037142D01*
X106035714Y-63084761D01*
X106130952Y-63132380D01*
X106321428Y-63132380D01*
X106416666Y-63084761D01*
X106464285Y-63037142D01*
X106511904Y-62941904D01*
X106511904Y-62751428D01*
X106464285Y-62656190D01*
X106416666Y-62608571D01*
X106321428Y-62560952D01*
X104437142Y-67712380D02*
X104103809Y-67236190D01*
X103865714Y-67712380D02*
X103865714Y-66712380D01*
X104246666Y-66712380D01*
X104341904Y-66760000D01*
X104389523Y-66807619D01*
X104437142Y-66902857D01*
X104437142Y-67045714D01*
X104389523Y-67140952D01*
X104341904Y-67188571D01*
X104246666Y-67236190D01*
X103865714Y-67236190D01*
X104818095Y-66807619D02*
X104865714Y-66760000D01*
X104960952Y-66712380D01*
X105199047Y-66712380D01*
X105294285Y-66760000D01*
X105341904Y-66807619D01*
X105389523Y-66902857D01*
X105389523Y-66998095D01*
X105341904Y-67140952D01*
X104770476Y-67712380D01*
X105389523Y-67712380D01*
X105722857Y-66712380D02*
X106389523Y-66712380D01*
X105960952Y-67712380D01*
X164367142Y-128052380D02*
X164033809Y-127576190D01*
X163795714Y-128052380D02*
X163795714Y-127052380D01*
X164176666Y-127052380D01*
X164271904Y-127100000D01*
X164319523Y-127147619D01*
X164367142Y-127242857D01*
X164367142Y-127385714D01*
X164319523Y-127480952D01*
X164271904Y-127528571D01*
X164176666Y-127576190D01*
X163795714Y-127576190D01*
X164748095Y-127147619D02*
X164795714Y-127100000D01*
X164890952Y-127052380D01*
X165129047Y-127052380D01*
X165224285Y-127100000D01*
X165271904Y-127147619D01*
X165319523Y-127242857D01*
X165319523Y-127338095D01*
X165271904Y-127480952D01*
X164700476Y-128052380D01*
X165319523Y-128052380D01*
X166176666Y-127052380D02*
X165986190Y-127052380D01*
X165890952Y-127100000D01*
X165843333Y-127147619D01*
X165748095Y-127290476D01*
X165700476Y-127480952D01*
X165700476Y-127861904D01*
X165748095Y-127957142D01*
X165795714Y-128004761D01*
X165890952Y-128052380D01*
X166081428Y-128052380D01*
X166176666Y-128004761D01*
X166224285Y-127957142D01*
X166271904Y-127861904D01*
X166271904Y-127623809D01*
X166224285Y-127528571D01*
X166176666Y-127480952D01*
X166081428Y-127433333D01*
X165890952Y-127433333D01*
X165795714Y-127480952D01*
X165748095Y-127528571D01*
X165700476Y-127623809D01*
X160867142Y-128062380D02*
X160533809Y-127586190D01*
X160295714Y-128062380D02*
X160295714Y-127062380D01*
X160676666Y-127062380D01*
X160771904Y-127110000D01*
X160819523Y-127157619D01*
X160867142Y-127252857D01*
X160867142Y-127395714D01*
X160819523Y-127490952D01*
X160771904Y-127538571D01*
X160676666Y-127586190D01*
X160295714Y-127586190D01*
X161248095Y-127157619D02*
X161295714Y-127110000D01*
X161390952Y-127062380D01*
X161629047Y-127062380D01*
X161724285Y-127110000D01*
X161771904Y-127157619D01*
X161819523Y-127252857D01*
X161819523Y-127348095D01*
X161771904Y-127490952D01*
X161200476Y-128062380D01*
X161819523Y-128062380D01*
X162724285Y-127062380D02*
X162248095Y-127062380D01*
X162200476Y-127538571D01*
X162248095Y-127490952D01*
X162343333Y-127443333D01*
X162581428Y-127443333D01*
X162676666Y-127490952D01*
X162724285Y-127538571D01*
X162771904Y-127633809D01*
X162771904Y-127871904D01*
X162724285Y-127967142D01*
X162676666Y-128014761D01*
X162581428Y-128062380D01*
X162343333Y-128062380D01*
X162248095Y-128014761D01*
X162200476Y-127967142D01*
X165917142Y-122652380D02*
X165583809Y-122176190D01*
X165345714Y-122652380D02*
X165345714Y-121652380D01*
X165726666Y-121652380D01*
X165821904Y-121700000D01*
X165869523Y-121747619D01*
X165917142Y-121842857D01*
X165917142Y-121985714D01*
X165869523Y-122080952D01*
X165821904Y-122128571D01*
X165726666Y-122176190D01*
X165345714Y-122176190D01*
X166298095Y-121747619D02*
X166345714Y-121700000D01*
X166440952Y-121652380D01*
X166679047Y-121652380D01*
X166774285Y-121700000D01*
X166821904Y-121747619D01*
X166869523Y-121842857D01*
X166869523Y-121938095D01*
X166821904Y-122080952D01*
X166250476Y-122652380D01*
X166869523Y-122652380D01*
X167726666Y-121985714D02*
X167726666Y-122652380D01*
X167488571Y-121604761D02*
X167250476Y-122319047D01*
X167869523Y-122319047D01*
X160827142Y-122752380D02*
X160493809Y-122276190D01*
X160255714Y-122752380D02*
X160255714Y-121752380D01*
X160636666Y-121752380D01*
X160731904Y-121800000D01*
X160779523Y-121847619D01*
X160827142Y-121942857D01*
X160827142Y-122085714D01*
X160779523Y-122180952D01*
X160731904Y-122228571D01*
X160636666Y-122276190D01*
X160255714Y-122276190D01*
X161208095Y-121847619D02*
X161255714Y-121800000D01*
X161350952Y-121752380D01*
X161589047Y-121752380D01*
X161684285Y-121800000D01*
X161731904Y-121847619D01*
X161779523Y-121942857D01*
X161779523Y-122038095D01*
X161731904Y-122180952D01*
X161160476Y-122752380D01*
X161779523Y-122752380D01*
X162112857Y-121752380D02*
X162731904Y-121752380D01*
X162398571Y-122133333D01*
X162541428Y-122133333D01*
X162636666Y-122180952D01*
X162684285Y-122228571D01*
X162731904Y-122323809D01*
X162731904Y-122561904D01*
X162684285Y-122657142D01*
X162636666Y-122704761D01*
X162541428Y-122752380D01*
X162255714Y-122752380D01*
X162160476Y-122704761D01*
X162112857Y-122657142D01*
X164857142Y-118582380D02*
X164523809Y-118106190D01*
X164285714Y-118582380D02*
X164285714Y-117582380D01*
X164666666Y-117582380D01*
X164761904Y-117630000D01*
X164809523Y-117677619D01*
X164857142Y-117772857D01*
X164857142Y-117915714D01*
X164809523Y-118010952D01*
X164761904Y-118058571D01*
X164666666Y-118106190D01*
X164285714Y-118106190D01*
X165238095Y-117677619D02*
X165285714Y-117630000D01*
X165380952Y-117582380D01*
X165619047Y-117582380D01*
X165714285Y-117630000D01*
X165761904Y-117677619D01*
X165809523Y-117772857D01*
X165809523Y-117868095D01*
X165761904Y-118010952D01*
X165190476Y-118582380D01*
X165809523Y-118582380D01*
X166190476Y-117677619D02*
X166238095Y-117630000D01*
X166333333Y-117582380D01*
X166571428Y-117582380D01*
X166666666Y-117630000D01*
X166714285Y-117677619D01*
X166761904Y-117772857D01*
X166761904Y-117868095D01*
X166714285Y-118010952D01*
X166142857Y-118582380D01*
X166761904Y-118582380D01*
X160139142Y-118562380D02*
X159805809Y-118086190D01*
X159567714Y-118562380D02*
X159567714Y-117562380D01*
X159948666Y-117562380D01*
X160043904Y-117610000D01*
X160091523Y-117657619D01*
X160139142Y-117752857D01*
X160139142Y-117895714D01*
X160091523Y-117990952D01*
X160043904Y-118038571D01*
X159948666Y-118086190D01*
X159567714Y-118086190D01*
X160520095Y-117657619D02*
X160567714Y-117610000D01*
X160662952Y-117562380D01*
X160901047Y-117562380D01*
X160996285Y-117610000D01*
X161043904Y-117657619D01*
X161091523Y-117752857D01*
X161091523Y-117848095D01*
X161043904Y-117990952D01*
X160472476Y-118562380D01*
X161091523Y-118562380D01*
X162043904Y-118562380D02*
X161472476Y-118562380D01*
X161758190Y-118562380D02*
X161758190Y-117562380D01*
X161662952Y-117705238D01*
X161567714Y-117800476D01*
X161472476Y-117848095D01*
X152362380Y-76180476D02*
X151362380Y-76180476D01*
X151362380Y-75799523D01*
X151410000Y-75704285D01*
X151457619Y-75656666D01*
X151552857Y-75609047D01*
X151695714Y-75609047D01*
X151790952Y-75656666D01*
X151838571Y-75704285D01*
X151886190Y-75799523D01*
X151886190Y-76180476D01*
X151838571Y-75180476D02*
X151838571Y-74847142D01*
X152362380Y-74704285D02*
X152362380Y-75180476D01*
X151362380Y-75180476D01*
X151362380Y-74704285D01*
X152362380Y-73751904D02*
X152362380Y-74323333D01*
X152362380Y-74037619D02*
X151362380Y-74037619D01*
X151505238Y-74132857D01*
X151600476Y-74228095D01*
X151648095Y-74323333D01*
X136513333Y-76837142D02*
X136465714Y-76884761D01*
X136322857Y-76932380D01*
X136227619Y-76932380D01*
X136084761Y-76884761D01*
X135989523Y-76789523D01*
X135941904Y-76694285D01*
X135894285Y-76503809D01*
X135894285Y-76360952D01*
X135941904Y-76170476D01*
X135989523Y-76075238D01*
X136084761Y-75980000D01*
X136227619Y-75932380D01*
X136322857Y-75932380D01*
X136465714Y-75980000D01*
X136513333Y-76027619D01*
X136894285Y-76027619D02*
X136941904Y-75980000D01*
X137037142Y-75932380D01*
X137275238Y-75932380D01*
X137370476Y-75980000D01*
X137418095Y-76027619D01*
X137465714Y-76122857D01*
X137465714Y-76218095D01*
X137418095Y-76360952D01*
X136846666Y-76932380D01*
X137465714Y-76932380D01*
X125071142Y-77382666D02*
X125118761Y-77430285D01*
X125166380Y-77573142D01*
X125166380Y-77668380D01*
X125118761Y-77811238D01*
X125023523Y-77906476D01*
X124928285Y-77954095D01*
X124737809Y-78001714D01*
X124594952Y-78001714D01*
X124404476Y-77954095D01*
X124309238Y-77906476D01*
X124214000Y-77811238D01*
X124166380Y-77668380D01*
X124166380Y-77573142D01*
X124214000Y-77430285D01*
X124261619Y-77382666D01*
X124166380Y-77049333D02*
X124166380Y-76430285D01*
X124547333Y-76763619D01*
X124547333Y-76620761D01*
X124594952Y-76525523D01*
X124642571Y-76477904D01*
X124737809Y-76430285D01*
X124975904Y-76430285D01*
X125071142Y-76477904D01*
X125118761Y-76525523D01*
X125166380Y-76620761D01*
X125166380Y-76906476D01*
X125118761Y-77001714D01*
X125071142Y-77049333D01*
X121003333Y-83357142D02*
X120955714Y-83404761D01*
X120812857Y-83452380D01*
X120717619Y-83452380D01*
X120574761Y-83404761D01*
X120479523Y-83309523D01*
X120431904Y-83214285D01*
X120384285Y-83023809D01*
X120384285Y-82880952D01*
X120431904Y-82690476D01*
X120479523Y-82595238D01*
X120574761Y-82500000D01*
X120717619Y-82452380D01*
X120812857Y-82452380D01*
X120955714Y-82500000D01*
X121003333Y-82547619D01*
X121860476Y-82785714D02*
X121860476Y-83452380D01*
X121622380Y-82404761D02*
X121384285Y-83119047D01*
X122003333Y-83119047D01*
X147975142Y-87528666D02*
X148022761Y-87576285D01*
X148070380Y-87719142D01*
X148070380Y-87814380D01*
X148022761Y-87957238D01*
X147927523Y-88052476D01*
X147832285Y-88100095D01*
X147641809Y-88147714D01*
X147498952Y-88147714D01*
X147308476Y-88100095D01*
X147213238Y-88052476D01*
X147118000Y-87957238D01*
X147070380Y-87814380D01*
X147070380Y-87719142D01*
X147118000Y-87576285D01*
X147165619Y-87528666D01*
X147498952Y-86957238D02*
X147451333Y-87052476D01*
X147403714Y-87100095D01*
X147308476Y-87147714D01*
X147260857Y-87147714D01*
X147165619Y-87100095D01*
X147118000Y-87052476D01*
X147070380Y-86957238D01*
X147070380Y-86766761D01*
X147118000Y-86671523D01*
X147165619Y-86623904D01*
X147260857Y-86576285D01*
X147308476Y-86576285D01*
X147403714Y-86623904D01*
X147451333Y-86671523D01*
X147498952Y-86766761D01*
X147498952Y-86957238D01*
X147546571Y-87052476D01*
X147594190Y-87100095D01*
X147689428Y-87147714D01*
X147879904Y-87147714D01*
X147975142Y-87100095D01*
X148022761Y-87052476D01*
X148070380Y-86957238D01*
X148070380Y-86766761D01*
X148022761Y-86671523D01*
X147975142Y-86623904D01*
X147879904Y-86576285D01*
X147689428Y-86576285D01*
X147594190Y-86623904D01*
X147546571Y-86671523D01*
X147498952Y-86766761D01*
X140677142Y-87086666D02*
X140724761Y-87134285D01*
X140772380Y-87277142D01*
X140772380Y-87372380D01*
X140724761Y-87515238D01*
X140629523Y-87610476D01*
X140534285Y-87658095D01*
X140343809Y-87705714D01*
X140200952Y-87705714D01*
X140010476Y-87658095D01*
X139915238Y-87610476D01*
X139820000Y-87515238D01*
X139772380Y-87372380D01*
X139772380Y-87277142D01*
X139820000Y-87134285D01*
X139867619Y-87086666D01*
X140772380Y-86610476D02*
X140772380Y-86420000D01*
X140724761Y-86324761D01*
X140677142Y-86277142D01*
X140534285Y-86181904D01*
X140343809Y-86134285D01*
X139962857Y-86134285D01*
X139867619Y-86181904D01*
X139820000Y-86229523D01*
X139772380Y-86324761D01*
X139772380Y-86515238D01*
X139820000Y-86610476D01*
X139867619Y-86658095D01*
X139962857Y-86705714D01*
X140200952Y-86705714D01*
X140296190Y-86658095D01*
X140343809Y-86610476D01*
X140391428Y-86515238D01*
X140391428Y-86324761D01*
X140343809Y-86229523D01*
X140296190Y-86181904D01*
X140200952Y-86134285D01*
X119917142Y-85507142D02*
X119869523Y-85554761D01*
X119726666Y-85602380D01*
X119631428Y-85602380D01*
X119488571Y-85554761D01*
X119393333Y-85459523D01*
X119345714Y-85364285D01*
X119298095Y-85173809D01*
X119298095Y-85030952D01*
X119345714Y-84840476D01*
X119393333Y-84745238D01*
X119488571Y-84650000D01*
X119631428Y-84602380D01*
X119726666Y-84602380D01*
X119869523Y-84650000D01*
X119917142Y-84697619D01*
X120869523Y-85602380D02*
X120298095Y-85602380D01*
X120583809Y-85602380D02*
X120583809Y-84602380D01*
X120488571Y-84745238D01*
X120393333Y-84840476D01*
X120298095Y-84888095D01*
X121488571Y-84602380D02*
X121583809Y-84602380D01*
X121679047Y-84650000D01*
X121726666Y-84697619D01*
X121774285Y-84792857D01*
X121821904Y-84983333D01*
X121821904Y-85221428D01*
X121774285Y-85411904D01*
X121726666Y-85507142D01*
X121679047Y-85554761D01*
X121583809Y-85602380D01*
X121488571Y-85602380D01*
X121393333Y-85554761D01*
X121345714Y-85507142D01*
X121298095Y-85411904D01*
X121250476Y-85221428D01*
X121250476Y-84983333D01*
X121298095Y-84792857D01*
X121345714Y-84697619D01*
X121393333Y-84650000D01*
X121488571Y-84602380D01*
X138803142Y-84685142D02*
X138755523Y-84732761D01*
X138612666Y-84780380D01*
X138517428Y-84780380D01*
X138374571Y-84732761D01*
X138279333Y-84637523D01*
X138231714Y-84542285D01*
X138184095Y-84351809D01*
X138184095Y-84208952D01*
X138231714Y-84018476D01*
X138279333Y-83923238D01*
X138374571Y-83828000D01*
X138517428Y-83780380D01*
X138612666Y-83780380D01*
X138755523Y-83828000D01*
X138803142Y-83875619D01*
X139755523Y-84780380D02*
X139184095Y-84780380D01*
X139469809Y-84780380D02*
X139469809Y-83780380D01*
X139374571Y-83923238D01*
X139279333Y-84018476D01*
X139184095Y-84066095D01*
X140707904Y-84780380D02*
X140136476Y-84780380D01*
X140422190Y-84780380D02*
X140422190Y-83780380D01*
X140326952Y-83923238D01*
X140231714Y-84018476D01*
X140136476Y-84066095D01*
X129137142Y-93002857D02*
X129184761Y-93050476D01*
X129232380Y-93193333D01*
X129232380Y-93288571D01*
X129184761Y-93431428D01*
X129089523Y-93526666D01*
X128994285Y-93574285D01*
X128803809Y-93621904D01*
X128660952Y-93621904D01*
X128470476Y-93574285D01*
X128375238Y-93526666D01*
X128280000Y-93431428D01*
X128232380Y-93288571D01*
X128232380Y-93193333D01*
X128280000Y-93050476D01*
X128327619Y-93002857D01*
X129232380Y-92050476D02*
X129232380Y-92621904D01*
X129232380Y-92336190D02*
X128232380Y-92336190D01*
X128375238Y-92431428D01*
X128470476Y-92526666D01*
X128518095Y-92621904D01*
X128327619Y-91669523D02*
X128280000Y-91621904D01*
X128232380Y-91526666D01*
X128232380Y-91288571D01*
X128280000Y-91193333D01*
X128327619Y-91145714D01*
X128422857Y-91098095D01*
X128518095Y-91098095D01*
X128660952Y-91145714D01*
X129232380Y-91717142D01*
X129232380Y-91098095D01*
X155313142Y-85067142D02*
X155265523Y-85114761D01*
X155122666Y-85162380D01*
X155027428Y-85162380D01*
X154884571Y-85114761D01*
X154789333Y-85019523D01*
X154741714Y-84924285D01*
X154694095Y-84733809D01*
X154694095Y-84590952D01*
X154741714Y-84400476D01*
X154789333Y-84305238D01*
X154884571Y-84210000D01*
X155027428Y-84162380D01*
X155122666Y-84162380D01*
X155265523Y-84210000D01*
X155313142Y-84257619D01*
X156265523Y-85162380D02*
X155694095Y-85162380D01*
X155979809Y-85162380D02*
X155979809Y-84162380D01*
X155884571Y-84305238D01*
X155789333Y-84400476D01*
X155694095Y-84448095D01*
X156598857Y-84162380D02*
X157217904Y-84162380D01*
X156884571Y-84543333D01*
X157027428Y-84543333D01*
X157122666Y-84590952D01*
X157170285Y-84638571D01*
X157217904Y-84733809D01*
X157217904Y-84971904D01*
X157170285Y-85067142D01*
X157122666Y-85114761D01*
X157027428Y-85162380D01*
X156741714Y-85162380D01*
X156646476Y-85114761D01*
X156598857Y-85067142D01*
X154535142Y-63380857D02*
X154582761Y-63428476D01*
X154630380Y-63571333D01*
X154630380Y-63666571D01*
X154582761Y-63809428D01*
X154487523Y-63904666D01*
X154392285Y-63952285D01*
X154201809Y-63999904D01*
X154058952Y-63999904D01*
X153868476Y-63952285D01*
X153773238Y-63904666D01*
X153678000Y-63809428D01*
X153630380Y-63666571D01*
X153630380Y-63571333D01*
X153678000Y-63428476D01*
X153725619Y-63380857D01*
X154630380Y-62428476D02*
X154630380Y-62999904D01*
X154630380Y-62714190D02*
X153630380Y-62714190D01*
X153773238Y-62809428D01*
X153868476Y-62904666D01*
X153916095Y-62999904D01*
X153963714Y-61571333D02*
X154630380Y-61571333D01*
X153582761Y-61809428D02*
X154297047Y-62047523D01*
X154297047Y-61428476D01*
X166981142Y-106306857D02*
X167028761Y-106354476D01*
X167076380Y-106497333D01*
X167076380Y-106592571D01*
X167028761Y-106735428D01*
X166933523Y-106830666D01*
X166838285Y-106878285D01*
X166647809Y-106925904D01*
X166504952Y-106925904D01*
X166314476Y-106878285D01*
X166219238Y-106830666D01*
X166124000Y-106735428D01*
X166076380Y-106592571D01*
X166076380Y-106497333D01*
X166124000Y-106354476D01*
X166171619Y-106306857D01*
X167076380Y-105354476D02*
X167076380Y-105925904D01*
X167076380Y-105640190D02*
X166076380Y-105640190D01*
X166219238Y-105735428D01*
X166314476Y-105830666D01*
X166362095Y-105925904D01*
X166076380Y-104497333D02*
X166076380Y-104687809D01*
X166124000Y-104783047D01*
X166171619Y-104830666D01*
X166314476Y-104925904D01*
X166504952Y-104973523D01*
X166885904Y-104973523D01*
X166981142Y-104925904D01*
X167028761Y-104878285D01*
X167076380Y-104783047D01*
X167076380Y-104592571D01*
X167028761Y-104497333D01*
X166981142Y-104449714D01*
X166885904Y-104402095D01*
X166647809Y-104402095D01*
X166552571Y-104449714D01*
X166504952Y-104497333D01*
X166457333Y-104592571D01*
X166457333Y-104783047D01*
X166504952Y-104878285D01*
X166552571Y-104925904D01*
X166647809Y-104973523D01*
X183491142Y-108084857D02*
X183538761Y-108132476D01*
X183586380Y-108275333D01*
X183586380Y-108370571D01*
X183538761Y-108513428D01*
X183443523Y-108608666D01*
X183348285Y-108656285D01*
X183157809Y-108703904D01*
X183014952Y-108703904D01*
X182824476Y-108656285D01*
X182729238Y-108608666D01*
X182634000Y-108513428D01*
X182586380Y-108370571D01*
X182586380Y-108275333D01*
X182634000Y-108132476D01*
X182681619Y-108084857D01*
X183586380Y-107132476D02*
X183586380Y-107703904D01*
X183586380Y-107418190D02*
X182586380Y-107418190D01*
X182729238Y-107513428D01*
X182824476Y-107608666D01*
X182872095Y-107703904D01*
X182586380Y-106799142D02*
X182586380Y-106132476D01*
X183586380Y-106561047D01*
X178867142Y-126317142D02*
X178819523Y-126364761D01*
X178676666Y-126412380D01*
X178581428Y-126412380D01*
X178438571Y-126364761D01*
X178343333Y-126269523D01*
X178295714Y-126174285D01*
X178248095Y-125983809D01*
X178248095Y-125840952D01*
X178295714Y-125650476D01*
X178343333Y-125555238D01*
X178438571Y-125460000D01*
X178581428Y-125412380D01*
X178676666Y-125412380D01*
X178819523Y-125460000D01*
X178867142Y-125507619D01*
X179248095Y-125507619D02*
X179295714Y-125460000D01*
X179390952Y-125412380D01*
X179629047Y-125412380D01*
X179724285Y-125460000D01*
X179771904Y-125507619D01*
X179819523Y-125602857D01*
X179819523Y-125698095D01*
X179771904Y-125840952D01*
X179200476Y-126412380D01*
X179819523Y-126412380D01*
X180676666Y-125745714D02*
X180676666Y-126412380D01*
X180438571Y-125364761D02*
X180200476Y-126079047D01*
X180819523Y-126079047D01*
X188427142Y-122472857D02*
X188474761Y-122520476D01*
X188522380Y-122663333D01*
X188522380Y-122758571D01*
X188474761Y-122901428D01*
X188379523Y-122996666D01*
X188284285Y-123044285D01*
X188093809Y-123091904D01*
X187950952Y-123091904D01*
X187760476Y-123044285D01*
X187665238Y-122996666D01*
X187570000Y-122901428D01*
X187522380Y-122758571D01*
X187522380Y-122663333D01*
X187570000Y-122520476D01*
X187617619Y-122472857D01*
X187617619Y-122091904D02*
X187570000Y-122044285D01*
X187522380Y-121949047D01*
X187522380Y-121710952D01*
X187570000Y-121615714D01*
X187617619Y-121568095D01*
X187712857Y-121520476D01*
X187808095Y-121520476D01*
X187950952Y-121568095D01*
X188522380Y-122139523D01*
X188522380Y-121520476D01*
X187522380Y-120615714D02*
X187522380Y-121091904D01*
X187998571Y-121139523D01*
X187950952Y-121091904D01*
X187903333Y-120996666D01*
X187903333Y-120758571D01*
X187950952Y-120663333D01*
X187998571Y-120615714D01*
X188093809Y-120568095D01*
X188331904Y-120568095D01*
X188427142Y-120615714D01*
X188474761Y-120663333D01*
X188522380Y-120758571D01*
X188522380Y-120996666D01*
X188474761Y-121091904D01*
X188427142Y-121139523D01*
X136281333Y-99084380D02*
X135805142Y-99084380D01*
X135805142Y-98084380D01*
X137138476Y-99084380D02*
X136567047Y-99084380D01*
X136852761Y-99084380D02*
X136852761Y-98084380D01*
X136757523Y-98227238D01*
X136662285Y-98322476D01*
X136567047Y-98370095D01*
X133673333Y-60902380D02*
X133197142Y-60902380D01*
X133197142Y-59902380D01*
X133959047Y-59997619D02*
X134006666Y-59950000D01*
X134101904Y-59902380D01*
X134340000Y-59902380D01*
X134435238Y-59950000D01*
X134482857Y-59997619D01*
X134530476Y-60092857D01*
X134530476Y-60188095D01*
X134482857Y-60330952D01*
X133911428Y-60902380D01*
X134530476Y-60902380D01*
X145347142Y-69522380D02*
X145347142Y-68522380D01*
X145918571Y-69522380D01*
X145918571Y-68522380D01*
X146251904Y-68522380D02*
X146823333Y-68522380D01*
X146537619Y-69522380D02*
X146537619Y-68522380D01*
X147728095Y-69427142D02*
X147680476Y-69474761D01*
X147537619Y-69522380D01*
X147442380Y-69522380D01*
X147299523Y-69474761D01*
X147204285Y-69379523D01*
X147156666Y-69284285D01*
X147109047Y-69093809D01*
X147109047Y-68950952D01*
X147156666Y-68760476D01*
X147204285Y-68665238D01*
X147299523Y-68570000D01*
X147442380Y-68522380D01*
X147537619Y-68522380D01*
X147680476Y-68570000D01*
X147728095Y-68617619D01*
X148680476Y-69522380D02*
X148109047Y-69522380D01*
X148394761Y-69522380D02*
X148394761Y-68522380D01*
X148299523Y-68665238D01*
X148204285Y-68760476D01*
X148109047Y-68808095D01*
X174283619Y-99409238D02*
X174236000Y-99504476D01*
X174140761Y-99599714D01*
X173997904Y-99742571D01*
X173950285Y-99837809D01*
X173950285Y-99933047D01*
X174188380Y-99885428D02*
X174140761Y-99980666D01*
X174045523Y-100075904D01*
X173855047Y-100123523D01*
X173521714Y-100123523D01*
X173331238Y-100075904D01*
X173236000Y-99980666D01*
X173188380Y-99885428D01*
X173188380Y-99694952D01*
X173236000Y-99599714D01*
X173331238Y-99504476D01*
X173521714Y-99456857D01*
X173855047Y-99456857D01*
X174045523Y-99504476D01*
X174140761Y-99599714D01*
X174188380Y-99694952D01*
X174188380Y-99885428D01*
X174188380Y-98504476D02*
X174188380Y-99075904D01*
X174188380Y-98790190D02*
X173188380Y-98790190D01*
X173331238Y-98885428D01*
X173426476Y-98980666D01*
X173474095Y-99075904D01*
X180927619Y-98901238D02*
X180880000Y-98996476D01*
X180784761Y-99091714D01*
X180641904Y-99234571D01*
X180594285Y-99329809D01*
X180594285Y-99425047D01*
X180832380Y-99377428D02*
X180784761Y-99472666D01*
X180689523Y-99567904D01*
X180499047Y-99615523D01*
X180165714Y-99615523D01*
X179975238Y-99567904D01*
X179880000Y-99472666D01*
X179832380Y-99377428D01*
X179832380Y-99186952D01*
X179880000Y-99091714D01*
X179975238Y-98996476D01*
X180165714Y-98948857D01*
X180499047Y-98948857D01*
X180689523Y-98996476D01*
X180784761Y-99091714D01*
X180832380Y-99186952D01*
X180832380Y-99377428D01*
X179927619Y-98567904D02*
X179880000Y-98520285D01*
X179832380Y-98425047D01*
X179832380Y-98186952D01*
X179880000Y-98091714D01*
X179927619Y-98044095D01*
X180022857Y-97996476D01*
X180118095Y-97996476D01*
X180260952Y-98044095D01*
X180832380Y-98615523D01*
X180832380Y-97996476D01*
X136653333Y-75362380D02*
X136320000Y-74886190D01*
X136081904Y-75362380D02*
X136081904Y-74362380D01*
X136462857Y-74362380D01*
X136558095Y-74410000D01*
X136605714Y-74457619D01*
X136653333Y-74552857D01*
X136653333Y-74695714D01*
X136605714Y-74790952D01*
X136558095Y-74838571D01*
X136462857Y-74886190D01*
X136081904Y-74886190D01*
X136986666Y-74362380D02*
X137605714Y-74362380D01*
X137272380Y-74743333D01*
X137415238Y-74743333D01*
X137510476Y-74790952D01*
X137558095Y-74838571D01*
X137605714Y-74933809D01*
X137605714Y-75171904D01*
X137558095Y-75267142D01*
X137510476Y-75314761D01*
X137415238Y-75362380D01*
X137129523Y-75362380D01*
X137034285Y-75314761D01*
X136986666Y-75267142D01*
X146543333Y-75182380D02*
X146210000Y-74706190D01*
X145971904Y-75182380D02*
X145971904Y-74182380D01*
X146352857Y-74182380D01*
X146448095Y-74230000D01*
X146495714Y-74277619D01*
X146543333Y-74372857D01*
X146543333Y-74515714D01*
X146495714Y-74610952D01*
X146448095Y-74658571D01*
X146352857Y-74706190D01*
X145971904Y-74706190D01*
X147400476Y-74515714D02*
X147400476Y-75182380D01*
X147162380Y-74134761D02*
X146924285Y-74849047D01*
X147543333Y-74849047D01*
X143922380Y-77636666D02*
X143446190Y-77970000D01*
X143922380Y-78208095D02*
X142922380Y-78208095D01*
X142922380Y-77827142D01*
X142970000Y-77731904D01*
X143017619Y-77684285D01*
X143112857Y-77636666D01*
X143255714Y-77636666D01*
X143350952Y-77684285D01*
X143398571Y-77731904D01*
X143446190Y-77827142D01*
X143446190Y-78208095D01*
X142922380Y-76731904D02*
X142922380Y-77208095D01*
X143398571Y-77255714D01*
X143350952Y-77208095D01*
X143303333Y-77112857D01*
X143303333Y-76874761D01*
X143350952Y-76779523D01*
X143398571Y-76731904D01*
X143493809Y-76684285D01*
X143731904Y-76684285D01*
X143827142Y-76731904D01*
X143874761Y-76779523D01*
X143922380Y-76874761D01*
X143922380Y-77112857D01*
X143874761Y-77208095D01*
X143827142Y-77255714D01*
X139763333Y-81342380D02*
X139430000Y-80866190D01*
X139191904Y-81342380D02*
X139191904Y-80342380D01*
X139572857Y-80342380D01*
X139668095Y-80390000D01*
X139715714Y-80437619D01*
X139763333Y-80532857D01*
X139763333Y-80675714D01*
X139715714Y-80770952D01*
X139668095Y-80818571D01*
X139572857Y-80866190D01*
X139191904Y-80866190D01*
X140620476Y-80342380D02*
X140430000Y-80342380D01*
X140334761Y-80390000D01*
X140287142Y-80437619D01*
X140191904Y-80580476D01*
X140144285Y-80770952D01*
X140144285Y-81151904D01*
X140191904Y-81247142D01*
X140239523Y-81294761D01*
X140334761Y-81342380D01*
X140525238Y-81342380D01*
X140620476Y-81294761D01*
X140668095Y-81247142D01*
X140715714Y-81151904D01*
X140715714Y-80913809D01*
X140668095Y-80818571D01*
X140620476Y-80770952D01*
X140525238Y-80723333D01*
X140334761Y-80723333D01*
X140239523Y-80770952D01*
X140191904Y-80818571D01*
X140144285Y-80913809D01*
X142835333Y-91384380D02*
X142502000Y-90908190D01*
X142263904Y-91384380D02*
X142263904Y-90384380D01*
X142644857Y-90384380D01*
X142740095Y-90432000D01*
X142787714Y-90479619D01*
X142835333Y-90574857D01*
X142835333Y-90717714D01*
X142787714Y-90812952D01*
X142740095Y-90860571D01*
X142644857Y-90908190D01*
X142263904Y-90908190D01*
X143168666Y-90384380D02*
X143835333Y-90384380D01*
X143406761Y-91384380D01*
X111079333Y-75578380D02*
X110746000Y-75102190D01*
X110507904Y-75578380D02*
X110507904Y-74578380D01*
X110888857Y-74578380D01*
X110984095Y-74626000D01*
X111031714Y-74673619D01*
X111079333Y-74768857D01*
X111079333Y-74911714D01*
X111031714Y-75006952D01*
X110984095Y-75054571D01*
X110888857Y-75102190D01*
X110507904Y-75102190D01*
X111650761Y-75006952D02*
X111555523Y-74959333D01*
X111507904Y-74911714D01*
X111460285Y-74816476D01*
X111460285Y-74768857D01*
X111507904Y-74673619D01*
X111555523Y-74626000D01*
X111650761Y-74578380D01*
X111841238Y-74578380D01*
X111936476Y-74626000D01*
X111984095Y-74673619D01*
X112031714Y-74768857D01*
X112031714Y-74816476D01*
X111984095Y-74911714D01*
X111936476Y-74959333D01*
X111841238Y-75006952D01*
X111650761Y-75006952D01*
X111555523Y-75054571D01*
X111507904Y-75102190D01*
X111460285Y-75197428D01*
X111460285Y-75387904D01*
X111507904Y-75483142D01*
X111555523Y-75530761D01*
X111650761Y-75578380D01*
X111841238Y-75578380D01*
X111936476Y-75530761D01*
X111984095Y-75483142D01*
X112031714Y-75387904D01*
X112031714Y-75197428D01*
X111984095Y-75102190D01*
X111936476Y-75054571D01*
X111841238Y-75006952D01*
X120033333Y-74712380D02*
X119700000Y-74236190D01*
X119461904Y-74712380D02*
X119461904Y-73712380D01*
X119842857Y-73712380D01*
X119938095Y-73760000D01*
X119985714Y-73807619D01*
X120033333Y-73902857D01*
X120033333Y-74045714D01*
X119985714Y-74140952D01*
X119938095Y-74188571D01*
X119842857Y-74236190D01*
X119461904Y-74236190D01*
X120509523Y-74712380D02*
X120700000Y-74712380D01*
X120795238Y-74664761D01*
X120842857Y-74617142D01*
X120938095Y-74474285D01*
X120985714Y-74283809D01*
X120985714Y-73902857D01*
X120938095Y-73807619D01*
X120890476Y-73760000D01*
X120795238Y-73712380D01*
X120604761Y-73712380D01*
X120509523Y-73760000D01*
X120461904Y-73807619D01*
X120414285Y-73902857D01*
X120414285Y-74140952D01*
X120461904Y-74236190D01*
X120509523Y-74283809D01*
X120604761Y-74331428D01*
X120795238Y-74331428D01*
X120890476Y-74283809D01*
X120938095Y-74236190D01*
X120985714Y-74140952D01*
X147518380Y-84208857D02*
X147042190Y-84542190D01*
X147518380Y-84780285D02*
X146518380Y-84780285D01*
X146518380Y-84399333D01*
X146566000Y-84304095D01*
X146613619Y-84256476D01*
X146708857Y-84208857D01*
X146851714Y-84208857D01*
X146946952Y-84256476D01*
X146994571Y-84304095D01*
X147042190Y-84399333D01*
X147042190Y-84780285D01*
X147518380Y-83256476D02*
X147518380Y-83827904D01*
X147518380Y-83542190D02*
X146518380Y-83542190D01*
X146661238Y-83637428D01*
X146756476Y-83732666D01*
X146804095Y-83827904D01*
X146518380Y-82637428D02*
X146518380Y-82542190D01*
X146566000Y-82446952D01*
X146613619Y-82399333D01*
X146708857Y-82351714D01*
X146899333Y-82304095D01*
X147137428Y-82304095D01*
X147327904Y-82351714D01*
X147423142Y-82399333D01*
X147470761Y-82446952D01*
X147518380Y-82542190D01*
X147518380Y-82637428D01*
X147470761Y-82732666D01*
X147423142Y-82780285D01*
X147327904Y-82827904D01*
X147137428Y-82875523D01*
X146899333Y-82875523D01*
X146708857Y-82827904D01*
X146613619Y-82780285D01*
X146566000Y-82732666D01*
X146518380Y-82637428D01*
X110355142Y-73604380D02*
X110021809Y-73128190D01*
X109783714Y-73604380D02*
X109783714Y-72604380D01*
X110164666Y-72604380D01*
X110259904Y-72652000D01*
X110307523Y-72699619D01*
X110355142Y-72794857D01*
X110355142Y-72937714D01*
X110307523Y-73032952D01*
X110259904Y-73080571D01*
X110164666Y-73128190D01*
X109783714Y-73128190D01*
X111307523Y-73604380D02*
X110736095Y-73604380D01*
X111021809Y-73604380D02*
X111021809Y-72604380D01*
X110926571Y-72747238D01*
X110831333Y-72842476D01*
X110736095Y-72890095D01*
X112259904Y-73604380D02*
X111688476Y-73604380D01*
X111974190Y-73604380D02*
X111974190Y-72604380D01*
X111878952Y-72747238D01*
X111783714Y-72842476D01*
X111688476Y-72890095D01*
X119987142Y-72942380D02*
X119653809Y-72466190D01*
X119415714Y-72942380D02*
X119415714Y-71942380D01*
X119796666Y-71942380D01*
X119891904Y-71990000D01*
X119939523Y-72037619D01*
X119987142Y-72132857D01*
X119987142Y-72275714D01*
X119939523Y-72370952D01*
X119891904Y-72418571D01*
X119796666Y-72466190D01*
X119415714Y-72466190D01*
X120939523Y-72942380D02*
X120368095Y-72942380D01*
X120653809Y-72942380D02*
X120653809Y-71942380D01*
X120558571Y-72085238D01*
X120463333Y-72180476D01*
X120368095Y-72228095D01*
X121320476Y-72037619D02*
X121368095Y-71990000D01*
X121463333Y-71942380D01*
X121701428Y-71942380D01*
X121796666Y-71990000D01*
X121844285Y-72037619D01*
X121891904Y-72132857D01*
X121891904Y-72228095D01*
X121844285Y-72370952D01*
X121272857Y-72942380D01*
X121891904Y-72942380D01*
X142105142Y-81478380D02*
X141771809Y-81002190D01*
X141533714Y-81478380D02*
X141533714Y-80478380D01*
X141914666Y-80478380D01*
X142009904Y-80526000D01*
X142057523Y-80573619D01*
X142105142Y-80668857D01*
X142105142Y-80811714D01*
X142057523Y-80906952D01*
X142009904Y-80954571D01*
X141914666Y-81002190D01*
X141533714Y-81002190D01*
X143057523Y-81478380D02*
X142486095Y-81478380D01*
X142771809Y-81478380D02*
X142771809Y-80478380D01*
X142676571Y-80621238D01*
X142581333Y-80716476D01*
X142486095Y-80764095D01*
X143390857Y-80478380D02*
X144009904Y-80478380D01*
X143676571Y-80859333D01*
X143819428Y-80859333D01*
X143914666Y-80906952D01*
X143962285Y-80954571D01*
X144009904Y-81049809D01*
X144009904Y-81287904D01*
X143962285Y-81383142D01*
X143914666Y-81430761D01*
X143819428Y-81478380D01*
X143533714Y-81478380D01*
X143438476Y-81430761D01*
X143390857Y-81383142D01*
X110101142Y-72080380D02*
X109767809Y-71604190D01*
X109529714Y-72080380D02*
X109529714Y-71080380D01*
X109910666Y-71080380D01*
X110005904Y-71128000D01*
X110053523Y-71175619D01*
X110101142Y-71270857D01*
X110101142Y-71413714D01*
X110053523Y-71508952D01*
X110005904Y-71556571D01*
X109910666Y-71604190D01*
X109529714Y-71604190D01*
X111053523Y-72080380D02*
X110482095Y-72080380D01*
X110767809Y-72080380D02*
X110767809Y-71080380D01*
X110672571Y-71223238D01*
X110577333Y-71318476D01*
X110482095Y-71366095D01*
X111910666Y-71413714D02*
X111910666Y-72080380D01*
X111672571Y-71032761D02*
X111434476Y-71747047D01*
X112053523Y-71747047D01*
X119967142Y-71322380D02*
X119633809Y-70846190D01*
X119395714Y-71322380D02*
X119395714Y-70322380D01*
X119776666Y-70322380D01*
X119871904Y-70370000D01*
X119919523Y-70417619D01*
X119967142Y-70512857D01*
X119967142Y-70655714D01*
X119919523Y-70750952D01*
X119871904Y-70798571D01*
X119776666Y-70846190D01*
X119395714Y-70846190D01*
X120919523Y-71322380D02*
X120348095Y-71322380D01*
X120633809Y-71322380D02*
X120633809Y-70322380D01*
X120538571Y-70465238D01*
X120443333Y-70560476D01*
X120348095Y-70608095D01*
X121824285Y-70322380D02*
X121348095Y-70322380D01*
X121300476Y-70798571D01*
X121348095Y-70750952D01*
X121443333Y-70703333D01*
X121681428Y-70703333D01*
X121776666Y-70750952D01*
X121824285Y-70798571D01*
X121871904Y-70893809D01*
X121871904Y-71131904D01*
X121824285Y-71227142D01*
X121776666Y-71274761D01*
X121681428Y-71322380D01*
X121443333Y-71322380D01*
X121348095Y-71274761D01*
X121300476Y-71227142D01*
X153360380Y-70238857D02*
X152884190Y-70572190D01*
X153360380Y-70810285D02*
X152360380Y-70810285D01*
X152360380Y-70429333D01*
X152408000Y-70334095D01*
X152455619Y-70286476D01*
X152550857Y-70238857D01*
X152693714Y-70238857D01*
X152788952Y-70286476D01*
X152836571Y-70334095D01*
X152884190Y-70429333D01*
X152884190Y-70810285D01*
X153360380Y-69286476D02*
X153360380Y-69857904D01*
X153360380Y-69572190D02*
X152360380Y-69572190D01*
X152503238Y-69667428D01*
X152598476Y-69762666D01*
X152646095Y-69857904D01*
X152360380Y-68429333D02*
X152360380Y-68619809D01*
X152408000Y-68715047D01*
X152455619Y-68762666D01*
X152598476Y-68857904D01*
X152788952Y-68905523D01*
X153169904Y-68905523D01*
X153265142Y-68857904D01*
X153312761Y-68810285D01*
X153360380Y-68715047D01*
X153360380Y-68524571D01*
X153312761Y-68429333D01*
X153265142Y-68381714D01*
X153169904Y-68334095D01*
X152931809Y-68334095D01*
X152836571Y-68381714D01*
X152788952Y-68429333D01*
X152741333Y-68524571D01*
X152741333Y-68715047D01*
X152788952Y-68810285D01*
X152836571Y-68857904D01*
X152931809Y-68905523D01*
X149471142Y-79954380D02*
X149137809Y-79478190D01*
X148899714Y-79954380D02*
X148899714Y-78954380D01*
X149280666Y-78954380D01*
X149375904Y-79002000D01*
X149423523Y-79049619D01*
X149471142Y-79144857D01*
X149471142Y-79287714D01*
X149423523Y-79382952D01*
X149375904Y-79430571D01*
X149280666Y-79478190D01*
X148899714Y-79478190D01*
X150423523Y-79954380D02*
X149852095Y-79954380D01*
X150137809Y-79954380D02*
X150137809Y-78954380D01*
X150042571Y-79097238D01*
X149947333Y-79192476D01*
X149852095Y-79240095D01*
X150756857Y-78954380D02*
X151423523Y-78954380D01*
X150994952Y-79954380D01*
X175262380Y-107022857D02*
X174786190Y-107356190D01*
X175262380Y-107594285D02*
X174262380Y-107594285D01*
X174262380Y-107213333D01*
X174310000Y-107118095D01*
X174357619Y-107070476D01*
X174452857Y-107022857D01*
X174595714Y-107022857D01*
X174690952Y-107070476D01*
X174738571Y-107118095D01*
X174786190Y-107213333D01*
X174786190Y-107594285D01*
X175262380Y-106070476D02*
X175262380Y-106641904D01*
X175262380Y-106356190D02*
X174262380Y-106356190D01*
X174405238Y-106451428D01*
X174500476Y-106546666D01*
X174548095Y-106641904D01*
X174690952Y-105499047D02*
X174643333Y-105594285D01*
X174595714Y-105641904D01*
X174500476Y-105689523D01*
X174452857Y-105689523D01*
X174357619Y-105641904D01*
X174310000Y-105594285D01*
X174262380Y-105499047D01*
X174262380Y-105308571D01*
X174310000Y-105213333D01*
X174357619Y-105165714D01*
X174452857Y-105118095D01*
X174500476Y-105118095D01*
X174595714Y-105165714D01*
X174643333Y-105213333D01*
X174690952Y-105308571D01*
X174690952Y-105499047D01*
X174738571Y-105594285D01*
X174786190Y-105641904D01*
X174881428Y-105689523D01*
X175071904Y-105689523D01*
X175167142Y-105641904D01*
X175214761Y-105594285D01*
X175262380Y-105499047D01*
X175262380Y-105308571D01*
X175214761Y-105213333D01*
X175167142Y-105165714D01*
X175071904Y-105118095D01*
X174881428Y-105118095D01*
X174786190Y-105165714D01*
X174738571Y-105213333D01*
X174690952Y-105308571D01*
X177584380Y-94622857D02*
X177108190Y-94956190D01*
X177584380Y-95194285D02*
X176584380Y-95194285D01*
X176584380Y-94813333D01*
X176632000Y-94718095D01*
X176679619Y-94670476D01*
X176774857Y-94622857D01*
X176917714Y-94622857D01*
X177012952Y-94670476D01*
X177060571Y-94718095D01*
X177108190Y-94813333D01*
X177108190Y-95194285D01*
X177584380Y-93670476D02*
X177584380Y-94241904D01*
X177584380Y-93956190D02*
X176584380Y-93956190D01*
X176727238Y-94051428D01*
X176822476Y-94146666D01*
X176870095Y-94241904D01*
X177584380Y-93194285D02*
X177584380Y-93003809D01*
X177536761Y-92908571D01*
X177489142Y-92860952D01*
X177346285Y-92765714D01*
X177155809Y-92718095D01*
X176774857Y-92718095D01*
X176679619Y-92765714D01*
X176632000Y-92813333D01*
X176584380Y-92908571D01*
X176584380Y-93099047D01*
X176632000Y-93194285D01*
X176679619Y-93241904D01*
X176774857Y-93289523D01*
X177012952Y-93289523D01*
X177108190Y-93241904D01*
X177155809Y-93194285D01*
X177203428Y-93099047D01*
X177203428Y-92908571D01*
X177155809Y-92813333D01*
X177108190Y-92765714D01*
X177012952Y-92718095D01*
X186809142Y-98750380D02*
X186475809Y-98274190D01*
X186237714Y-98750380D02*
X186237714Y-97750380D01*
X186618666Y-97750380D01*
X186713904Y-97798000D01*
X186761523Y-97845619D01*
X186809142Y-97940857D01*
X186809142Y-98083714D01*
X186761523Y-98178952D01*
X186713904Y-98226571D01*
X186618666Y-98274190D01*
X186237714Y-98274190D01*
X187190095Y-97845619D02*
X187237714Y-97798000D01*
X187332952Y-97750380D01*
X187571047Y-97750380D01*
X187666285Y-97798000D01*
X187713904Y-97845619D01*
X187761523Y-97940857D01*
X187761523Y-98036095D01*
X187713904Y-98178952D01*
X187142476Y-98750380D01*
X187761523Y-98750380D01*
X188380571Y-97750380D02*
X188475809Y-97750380D01*
X188571047Y-97798000D01*
X188618666Y-97845619D01*
X188666285Y-97940857D01*
X188713904Y-98131333D01*
X188713904Y-98369428D01*
X188666285Y-98559904D01*
X188618666Y-98655142D01*
X188571047Y-98702761D01*
X188475809Y-98750380D01*
X188380571Y-98750380D01*
X188285333Y-98702761D01*
X188237714Y-98655142D01*
X188190095Y-98559904D01*
X188142476Y-98369428D01*
X188142476Y-98131333D01*
X188190095Y-97940857D01*
X188237714Y-97845619D01*
X188285333Y-97798000D01*
X188380571Y-97750380D01*
X176101428Y-132352380D02*
X175768095Y-131876190D01*
X175530000Y-132352380D02*
X175530000Y-131352380D01*
X175910952Y-131352380D01*
X176006190Y-131400000D01*
X176053809Y-131447619D01*
X176101428Y-131542857D01*
X176101428Y-131685714D01*
X176053809Y-131780952D01*
X176006190Y-131828571D01*
X175910952Y-131876190D01*
X175530000Y-131876190D01*
X176291904Y-132447619D02*
X177053809Y-132447619D01*
X177244285Y-132066666D02*
X177720476Y-132066666D01*
X177149047Y-132352380D02*
X177482380Y-131352380D01*
X177815714Y-132352380D01*
X178577619Y-132352380D02*
X178577619Y-131352380D01*
X178577619Y-132304761D02*
X178482380Y-132352380D01*
X178291904Y-132352380D01*
X178196666Y-132304761D01*
X178149047Y-132257142D01*
X178101428Y-132161904D01*
X178101428Y-131876190D01*
X178149047Y-131780952D01*
X178196666Y-131733333D01*
X178291904Y-131685714D01*
X178482380Y-131685714D01*
X178577619Y-131733333D01*
X179482380Y-132352380D02*
X179482380Y-131352380D01*
X179482380Y-132304761D02*
X179387142Y-132352380D01*
X179196666Y-132352380D01*
X179101428Y-132304761D01*
X179053809Y-132257142D01*
X179006190Y-132161904D01*
X179006190Y-131876190D01*
X179053809Y-131780952D01*
X179101428Y-131733333D01*
X179196666Y-131685714D01*
X179387142Y-131685714D01*
X179482380Y-131733333D01*
X179958571Y-132352380D02*
X179958571Y-131685714D01*
X179958571Y-131876190D02*
X180006190Y-131780952D01*
X180053809Y-131733333D01*
X180149047Y-131685714D01*
X180244285Y-131685714D01*
X180958571Y-132304761D02*
X180863333Y-132352380D01*
X180672857Y-132352380D01*
X180577619Y-132304761D01*
X180530000Y-132209523D01*
X180530000Y-131828571D01*
X180577619Y-131733333D01*
X180672857Y-131685714D01*
X180863333Y-131685714D01*
X180958571Y-131733333D01*
X181006190Y-131828571D01*
X181006190Y-131923809D01*
X180530000Y-132019047D01*
X181387142Y-132304761D02*
X181482380Y-132352380D01*
X181672857Y-132352380D01*
X181768095Y-132304761D01*
X181815714Y-132209523D01*
X181815714Y-132161904D01*
X181768095Y-132066666D01*
X181672857Y-132019047D01*
X181530000Y-132019047D01*
X181434761Y-131971428D01*
X181387142Y-131876190D01*
X181387142Y-131828571D01*
X181434761Y-131733333D01*
X181530000Y-131685714D01*
X181672857Y-131685714D01*
X181768095Y-131733333D01*
X182196666Y-132304761D02*
X182291904Y-132352380D01*
X182482380Y-132352380D01*
X182577619Y-132304761D01*
X182625238Y-132209523D01*
X182625238Y-132161904D01*
X182577619Y-132066666D01*
X182482380Y-132019047D01*
X182339523Y-132019047D01*
X182244285Y-131971428D01*
X182196666Y-131876190D01*
X182196666Y-131828571D01*
X182244285Y-131733333D01*
X182339523Y-131685714D01*
X182482380Y-131685714D01*
X182577619Y-131733333D01*
X183577619Y-132352380D02*
X183006190Y-132352380D01*
X183291904Y-132352380D02*
X183291904Y-131352380D01*
X183196666Y-131495238D01*
X183101428Y-131590476D01*
X183006190Y-131638095D01*
X112828095Y-65222380D02*
X112828095Y-66031904D01*
X112875714Y-66127142D01*
X112923333Y-66174761D01*
X113018571Y-66222380D01*
X113209047Y-66222380D01*
X113304285Y-66174761D01*
X113351904Y-66127142D01*
X113399523Y-66031904D01*
X113399523Y-65222380D01*
X113780476Y-65222380D02*
X114399523Y-65222380D01*
X114066190Y-65603333D01*
X114209047Y-65603333D01*
X114304285Y-65650952D01*
X114351904Y-65698571D01*
X114399523Y-65793809D01*
X114399523Y-66031904D01*
X114351904Y-66127142D01*
X114304285Y-66174761D01*
X114209047Y-66222380D01*
X113923333Y-66222380D01*
X113828095Y-66174761D01*
X113780476Y-66127142D01*
X121078380Y-58419904D02*
X121887904Y-58419904D01*
X121983142Y-58372285D01*
X122030761Y-58324666D01*
X122078380Y-58229428D01*
X122078380Y-58038952D01*
X122030761Y-57943714D01*
X121983142Y-57896095D01*
X121887904Y-57848476D01*
X121078380Y-57848476D01*
X121078380Y-56896095D02*
X121078380Y-57372285D01*
X121554571Y-57419904D01*
X121506952Y-57372285D01*
X121459333Y-57277047D01*
X121459333Y-57038952D01*
X121506952Y-56943714D01*
X121554571Y-56896095D01*
X121649809Y-56848476D01*
X121887904Y-56848476D01*
X121983142Y-56896095D01*
X122030761Y-56943714D01*
X122078380Y-57038952D01*
X122078380Y-57277047D01*
X122030761Y-57372285D01*
X121983142Y-57419904D01*
X173802380Y-113771904D02*
X174611904Y-113771904D01*
X174707142Y-113724285D01*
X174754761Y-113676666D01*
X174802380Y-113581428D01*
X174802380Y-113390952D01*
X174754761Y-113295714D01*
X174707142Y-113248095D01*
X174611904Y-113200476D01*
X173802380Y-113200476D01*
X173802380Y-112819523D02*
X173802380Y-112152857D01*
X174802380Y-112581428D01*
X192488095Y-125192380D02*
X192488095Y-126001904D01*
X192535714Y-126097142D01*
X192583333Y-126144761D01*
X192678571Y-126192380D01*
X192869047Y-126192380D01*
X192964285Y-126144761D01*
X193011904Y-126097142D01*
X193059523Y-126001904D01*
X193059523Y-125192380D01*
X193678571Y-125620952D02*
X193583333Y-125573333D01*
X193535714Y-125525714D01*
X193488095Y-125430476D01*
X193488095Y-125382857D01*
X193535714Y-125287619D01*
X193583333Y-125240000D01*
X193678571Y-125192380D01*
X193869047Y-125192380D01*
X193964285Y-125240000D01*
X194011904Y-125287619D01*
X194059523Y-125382857D01*
X194059523Y-125430476D01*
X194011904Y-125525714D01*
X193964285Y-125573333D01*
X193869047Y-125620952D01*
X193678571Y-125620952D01*
X193583333Y-125668571D01*
X193535714Y-125716190D01*
X193488095Y-125811428D01*
X193488095Y-126001904D01*
X193535714Y-126097142D01*
X193583333Y-126144761D01*
X193678571Y-126192380D01*
X193869047Y-126192380D01*
X193964285Y-126144761D01*
X194011904Y-126097142D01*
X194059523Y-126001904D01*
X194059523Y-125811428D01*
X194011904Y-125716190D01*
X193964285Y-125668571D01*
X193869047Y-125620952D01*
M02*
