M48
; DRILL file {KiCad 5.1.6-c6e7f7d~87~ubuntu20.04.1} date Thu Jan 28 11:24:36 2021
; FORMAT={-:-/ absolute / inch / decimal}
; #@! TF.CreationDate,2021-01-28T11:24:36+02:00
; #@! TF.GenerationSoftware,Kicad,Pcbnew,5.1.6-c6e7f7d~87~ubuntu20.04.1
; #@! TF.FileFunction,Plated,1,2,PTH
FMAT,2
INCH
T1C0.0079
T2C0.0118
T3C0.0157
T4C0.0236
T5C0.0315
T6C0.0354
T7C0.0394
T8C0.0689
T9C0.1378
%
G90
G05
T1
X4.7387Y-4.6287
X4.7387Y-4.67
X4.7387Y-4.7113
X4.78Y-4.6287
X4.78Y-4.67
X4.78Y-4.7113
X4.8213Y-4.6287
X4.8213Y-4.67
X4.8213Y-4.7113
X5.1354Y-2.6993
X5.1354Y-2.748
X5.1354Y-2.7967
X5.1354Y-2.8455
X5.1354Y-2.8942
X5.1841Y-2.6993
X5.1841Y-2.748
X5.1841Y-2.7967
X5.1841Y-2.8455
X5.1841Y-2.8942
X5.2328Y-2.6993
X5.2328Y-2.748
X5.2328Y-2.7967
X5.2328Y-2.8455
X5.2328Y-2.8942
X5.2815Y-2.6993
X5.2815Y-2.748
X5.2815Y-2.7967
X5.2815Y-2.8455
X5.2815Y-2.8942
X5.3302Y-2.6993
X5.3302Y-2.748
X5.3302Y-2.7967
X5.3302Y-2.8455
X5.3302Y-2.8942
X7.2212Y-5.193
X7.2212Y-5.23
X7.2212Y-5.267
X7.2665Y-5.193
X7.2665Y-5.23
X7.2665Y-5.267
X4.8896Y-3.9813
X4.8896Y-4.0266
X4.9266Y-3.9813
X4.9266Y-4.0266
X4.9636Y-3.9813
X4.9636Y-4.0266
T2
X4.2665Y-2.3646
X4.2665Y-2.4126
X4.2693Y-2.4677
X4.49Y-3.33
X4.5Y-2.85
X4.5Y-3.1
X4.5047Y-4.0795
X4.51Y-2.68
X4.5154Y-3.6559
X4.65Y-2.65
X4.65Y-2.82
X4.65Y-2.99
X4.65Y-3.18
X4.6528Y-3.6614
X4.685Y-5.1299
X4.6969Y-4.8061
X4.7Y-2.63
X4.7Y-2.99
X4.7Y-3.18
X4.7031Y-3.802
X4.7157Y-4.1142
X4.7236Y-4.3543
X4.77Y-4.81
X4.77Y-4.853
X4.7709Y-5.0276
X4.7728Y-3.9835
X4.78Y-4.55
X4.8295Y-5.4563
X4.8382Y-4.185
X4.8476Y-2.2303
X4.8865Y-2.843
X4.8995Y-2.702
X4.9031Y-5.424
X4.9173Y-2.2988
X4.9287Y-4.1476
X4.9453Y-4.1224
X4.9528Y-2.622
X4.9638Y-3.3354
X4.989Y-5.4224
X5.0234Y-2.8088
X5.0476Y-4.9705
X5.0487Y-2.7003
X5.0527Y-2.8765
X5.0709Y-2.2953
X5.0789Y-3.3354
X5.0983Y-3.1186
X5.1024Y-2.2598
X5.1087Y-2.2008
X5.1442Y-2.5851
X5.158Y-2.9818
X5.1636Y-4.0291
X5.1654Y-3.3307
X5.19Y-2.41
X5.1965Y-4.7996
X5.218Y-2.9808
X5.223Y-2.593
X5.26Y-2.36
X5.3244Y-5.1882
X5.3665Y-5.5976
X5.3669Y-5.528
X5.3705Y-5.402
X5.4188Y-2.7505
X5.4408Y-2.7006
X5.446Y-2.6725
X5.45Y-2.95
X5.4649Y-2.8454
X5.4831Y-4.7012
X5.49Y-4.01
X5.5028Y-5.4016
X5.5104Y-2.5881
X5.53Y-5.13
X5.5358Y-4.5764
X5.539Y-4.7642
X5.59Y-5.2
X5.5924Y-4.3202
X5.6094Y-4.5764
X5.61Y-5.14
X5.6176Y-2.2146
X5.626Y-4.3031
X5.6299Y-4.7201
X5.6303Y-3.7235
X5.65Y-2.78
X5.66Y-2.65
X5.6678Y-3.2721
X5.6826Y-2.7938
X5.6873Y-2.5028
X5.6957Y-4.1224
X5.6988Y-3.9867
X5.7Y-3.88
X5.7405Y-3.1328
X5.78Y-3.88
X5.82Y-2.63
X5.8358Y-4.952
X5.8873Y-3.1328
X5.91Y-2.56
X5.9803Y-5.0272
X5.9949Y-5.1118
X6.0012Y-5.2118
X6.2319Y-3.5791
X6.2866Y-3.6705
X6.37Y-4.63
X6.4681Y-4.0079
X6.5224Y-4.0083
X6.5488Y-5.128
X6.5535Y-5.2071
X6.5543Y-5.0268
X6.5803Y-4.0079
X6.5819Y-4.5606
X6.6154Y-5.0756
X6.7717Y-4.6854
X6.863Y-4.4972
X6.922Y-2.8736
X6.9677Y-4.3106
X6.97Y-5.25
X6.9866Y-2.9327
X7.0189Y-4.3575
X7.0252Y-4.2677
X7.047Y-4.8348
X7.072Y-4.3209
X7.0799Y-2.6547
X7.1248Y-4.0925
X7.1248Y-5.1429
X7.1256Y-4.0343
X7.1256Y-4.063
X7.1272Y-4.0075
X7.1276Y-4.1185
X7.1276Y-4.148
X7.128Y-4.1713
X7.1307Y-3.9516
X7.1307Y-3.9799
X7.1346Y-5.3024
X7.1488Y-5.5886
X7.1496Y-5.472
X7.1504Y-4.0354
X7.1512Y-4.0626
X7.1512Y-4.0917
X7.1516Y-5.5303
X7.152Y-3.9276
X7.1528Y-4.0079
X7.1531Y-4.235
X7.1535Y-4.1177
X7.1547Y-4.1445
X7.1579Y-3.9835
X7.1654Y-3.9528
X7.1736Y-4.0354
X7.176Y-4.0606
X7.176Y-4.0894
X7.1764Y-4.0091
X7.1791Y-4.2098
X7.1799Y-4.2346
X7.1831Y-4.113
X7.1866Y-3.928
X7.1949Y-3.9555
X7.1969Y-3.9874
X7.1988Y-4.061
X7.1988Y-4.0886
X7.1992Y-4.0378
X7.2016Y-4.0122
X7.2031Y-4.1878
X7.2031Y-4.2358
X7.2035Y-4.2114
X7.2224Y-3.9803
X7.226Y-3.9531
X7.226Y-4.4886
X7.2268Y-4.0366
X7.2276Y-4.1638
X7.2276Y-4.1874
X7.2276Y-4.211
X7.2276Y-4.2346
X7.2331Y-4.0059
X7.2449Y-3.9783
X7.2488Y-4.0559
X7.2512Y-4.1402
X7.2512Y-4.1638
X7.2512Y-4.1874
X7.2512Y-4.211
X7.2512Y-4.2346
X7.261Y-4.8154
X7.2614Y-3.9008
X7.2748Y-4.1402
X7.2748Y-4.1638
X7.2748Y-4.1874
X7.2748Y-4.211
X7.2748Y-4.2346
X7.28Y-4.06
X7.2815Y-4.0846
X7.2819Y-4.1138
X7.2858Y-3.9213
X7.2945Y-3.898
X7.2953Y-3.002
X7.2984Y-4.1402
X7.2984Y-4.1638
X7.2984Y-4.1874
X7.2984Y-4.211
X7.2984Y-4.2346
X7.3083Y-3.9449
X7.3094Y-3.9193
X7.3106Y-4.0559
X7.322Y-4.1402
X7.322Y-4.1638
X7.322Y-4.1874
X7.322Y-4.211
X7.322Y-4.2346
X7.3236Y-4.0039
X7.3268Y-4.0331
X7.3276Y-3.8972
X7.328Y-3.9783
X7.335Y-3.9547
X7.3358Y-3.9228
X7.3394Y-5.0453
X7.3457Y-4.1402
X7.3457Y-4.1638
X7.3457Y-4.1874
X7.3457Y-4.211
X7.3457Y-4.2346
X7.35Y-4.0098
X7.3504Y-2.7492
X7.3531Y-5.2728
X7.3559Y-3.8961
X7.3559Y-4.9201
X7.3571Y-3.974
X7.3598Y-3.9228
X7.36Y-5.18
X7.3673Y-3.9476
X7.3689Y-4.087
X7.3693Y-4.1402
X7.3693Y-4.1638
X7.3693Y-4.1874
X7.3693Y-4.211
X7.3693Y-4.2346
X7.3701Y-3.9984
X7.3705Y-4.113
X7.3815Y-3.8976
X7.3846Y-3.9724
X7.3894Y-2.6724
X7.39Y-5.22
X7.3929Y-4.1402
X7.3929Y-4.1638
X7.3929Y-4.1874
X7.3929Y-4.211
X7.3929Y-4.2346
X7.3961Y-4.1142
X7.3965Y-4.0866
X7.4102Y-4.6409
X7.4165Y-4.1402
X7.4165Y-4.1638
X7.4165Y-4.1874
X7.4165Y-4.211
X7.4165Y-4.2346
X7.4181Y-4.4323
X7.4228Y-4.0594
X7.4244Y-4.0878
X7.426Y-4.1142
X7.4307Y-2.9181
X7.4402Y-4.1402
X7.4402Y-4.1638
X7.4402Y-4.1874
X7.4402Y-4.211
X7.4402Y-4.2346
X7.4437Y-3.9756
X7.4469Y-3.9445
X7.4496Y-4.0882
X7.4516Y-4.0311
X7.4528Y-4.115
X7.4531Y-4.0551
X7.4626Y-4.0043
X7.463Y-4.4724
X7.4665Y-4.1339
X7.4709Y-3.9445
X7.472Y-3.9748
X7.474Y-4.0768
X7.4795Y-4.1051
X7.4807Y-4.0421
X7.5344Y-2.8006
X7.563Y-5.0433
X7.5988Y-5.3323
X7.6303Y-4.3591
X7.4326Y-4.8626
X7.4326Y-4.9
X7.4326Y-4.9374
X7.47Y-4.8626
X7.47Y-4.9
X7.47Y-4.9374
X7.5074Y-4.8626
X7.5074Y-4.9
X7.5074Y-4.9374
T3
X4.8494Y-4.8159
X5.1019Y-2.5733
X5.5163Y-2.7003
X6.9994Y-5.1706
X7.1919Y-4.9825
T4
X4.9921Y-2.2913
X4.9921Y-2.4331
T5
X4.5906Y-3.4646
X5.14Y-4.9
T6
X6.8622Y-3.6449
X6.9622Y-3.6449
X7.5169Y-3.6457
X7.6169Y-3.6457
T7
X4.63Y-5.3
X4.73Y-5.3
X4.83Y-5.3
X4.93Y-5.3
X5.03Y-5.3
X5.13Y-5.3
X5.23Y-5.3
X5.33Y-5.3
X5.43Y-5.3
X5.53Y-5.3
X4.4Y-4.35
X4.4Y-4.45
X4.4Y-4.55
X4.4Y-4.65
X4.4Y-4.75
X4.4Y-4.85
X4.4Y-4.95
X4.4Y-5.05
T8
X5.9828Y-2.7948
X5.9828Y-3.0074
T9
X7.6772Y-5.7087
X7.6772Y-2.1654
X4.1339Y-2.1654
X4.1339Y-5.7087
T0
M30
