G04 #@! TF.GenerationSoftware,KiCad,Pcbnew,5.1.6-c6e7f7d~87~ubuntu20.04.1*
G04 #@! TF.CreationDate,2021-01-28T11:24:30+02:00*
G04 #@! TF.ProjectId,LED_test_V1.3,4c45445f-7465-4737-945f-56312e332e6b,rev?*
G04 #@! TF.SameCoordinates,Original*
G04 #@! TF.FileFunction,Legend,Bot*
G04 #@! TF.FilePolarity,Positive*
%FSLAX46Y46*%
G04 Gerber Fmt 4.6, Leading zero omitted, Abs format (unit mm)*
G04 Created by KiCad (PCBNEW 5.1.6-c6e7f7d~87~ubuntu20.04.1) date 2021-01-28 11:24:30*
%MOMM*%
%LPD*%
G01*
G04 APERTURE LIST*
%ADD10C,0.120000*%
%ADD11C,0.150000*%
G04 APERTURE END LIST*
D10*
X131338748Y-78510000D02*
X131861252Y-78510000D01*
X131338748Y-77090000D02*
X131861252Y-77090000D01*
X132078000Y-63350748D02*
X132078000Y-63873252D01*
X133498000Y-63350748D02*
X133498000Y-63873252D01*
X138432000Y-138625733D02*
X138432000Y-138968267D01*
X137412000Y-138625733D02*
X137412000Y-138968267D01*
D11*
X188158380Y-128897142D02*
X187682190Y-128563809D01*
X188158380Y-128325714D02*
X187158380Y-128325714D01*
X187158380Y-128706666D01*
X187206000Y-128801904D01*
X187253619Y-128849523D01*
X187348857Y-128897142D01*
X187491714Y-128897142D01*
X187586952Y-128849523D01*
X187634571Y-128801904D01*
X187682190Y-128706666D01*
X187682190Y-128325714D01*
X187158380Y-129230476D02*
X187158380Y-129849523D01*
X187539333Y-129516190D01*
X187539333Y-129659047D01*
X187586952Y-129754285D01*
X187634571Y-129801904D01*
X187729809Y-129849523D01*
X187967904Y-129849523D01*
X188063142Y-129801904D01*
X188110761Y-129754285D01*
X188158380Y-129659047D01*
X188158380Y-129373333D01*
X188110761Y-129278095D01*
X188063142Y-129230476D01*
X187253619Y-130230476D02*
X187206000Y-130278095D01*
X187158380Y-130373333D01*
X187158380Y-130611428D01*
X187206000Y-130706666D01*
X187253619Y-130754285D01*
X187348857Y-130801904D01*
X187444095Y-130801904D01*
X187586952Y-130754285D01*
X188158380Y-130182857D01*
X188158380Y-130801904D01*
X184952380Y-128857142D02*
X184476190Y-128523809D01*
X184952380Y-128285714D02*
X183952380Y-128285714D01*
X183952380Y-128666666D01*
X184000000Y-128761904D01*
X184047619Y-128809523D01*
X184142857Y-128857142D01*
X184285714Y-128857142D01*
X184380952Y-128809523D01*
X184428571Y-128761904D01*
X184476190Y-128666666D01*
X184476190Y-128285714D01*
X183952380Y-129190476D02*
X183952380Y-129809523D01*
X184333333Y-129476190D01*
X184333333Y-129619047D01*
X184380952Y-129714285D01*
X184428571Y-129761904D01*
X184523809Y-129809523D01*
X184761904Y-129809523D01*
X184857142Y-129761904D01*
X184904761Y-129714285D01*
X184952380Y-129619047D01*
X184952380Y-129333333D01*
X184904761Y-129238095D01*
X184857142Y-129190476D01*
X184952380Y-130761904D02*
X184952380Y-130190476D01*
X184952380Y-130476190D02*
X183952380Y-130476190D01*
X184095238Y-130380952D01*
X184190476Y-130285714D01*
X184238095Y-130190476D01*
X131766666Y-79807142D02*
X131814285Y-79854761D01*
X131957142Y-79902380D01*
X132052380Y-79902380D01*
X132195238Y-79854761D01*
X132290476Y-79759523D01*
X132338095Y-79664285D01*
X132385714Y-79473809D01*
X132385714Y-79330952D01*
X132338095Y-79140476D01*
X132290476Y-79045238D01*
X132195238Y-78950000D01*
X132052380Y-78902380D01*
X131957142Y-78902380D01*
X131814285Y-78950000D01*
X131766666Y-78997619D01*
X130909523Y-78902380D02*
X131100000Y-78902380D01*
X131195238Y-78950000D01*
X131242857Y-78997619D01*
X131338095Y-79140476D01*
X131385714Y-79330952D01*
X131385714Y-79711904D01*
X131338095Y-79807142D01*
X131290476Y-79854761D01*
X131195238Y-79902380D01*
X131004761Y-79902380D01*
X130909523Y-79854761D01*
X130861904Y-79807142D01*
X130814285Y-79711904D01*
X130814285Y-79473809D01*
X130861904Y-79378571D01*
X130909523Y-79330952D01*
X131004761Y-79283333D01*
X131195238Y-79283333D01*
X131290476Y-79330952D01*
X131338095Y-79378571D01*
X131385714Y-79473809D01*
X131495142Y-63445333D02*
X131542761Y-63397714D01*
X131590380Y-63254857D01*
X131590380Y-63159619D01*
X131542761Y-63016761D01*
X131447523Y-62921523D01*
X131352285Y-62873904D01*
X131161809Y-62826285D01*
X131018952Y-62826285D01*
X130828476Y-62873904D01*
X130733238Y-62921523D01*
X130638000Y-63016761D01*
X130590380Y-63159619D01*
X130590380Y-63254857D01*
X130638000Y-63397714D01*
X130685619Y-63445333D01*
X130590380Y-63778666D02*
X130590380Y-64445333D01*
X131590380Y-64016761D01*
X136944380Y-138630333D02*
X136468190Y-138297000D01*
X136944380Y-138058904D02*
X135944380Y-138058904D01*
X135944380Y-138439857D01*
X135992000Y-138535095D01*
X136039619Y-138582714D01*
X136134857Y-138630333D01*
X136277714Y-138630333D01*
X136372952Y-138582714D01*
X136420571Y-138535095D01*
X136468190Y-138439857D01*
X136468190Y-138058904D01*
X136039619Y-139011285D02*
X135992000Y-139058904D01*
X135944380Y-139154142D01*
X135944380Y-139392238D01*
X135992000Y-139487476D01*
X136039619Y-139535095D01*
X136134857Y-139582714D01*
X136230095Y-139582714D01*
X136372952Y-139535095D01*
X136944380Y-138963666D01*
X136944380Y-139582714D01*
M02*
