M48
; DRILL file {KiCad 5.1.6-c6e7f7d~87~ubuntu20.04.1} date Mon Dec 28 10:08:49 2020
; FORMAT={-:-/ absolute / inch / decimal}
; #@! TF.CreationDate,2020-12-28T10:08:49+02:00
; #@! TF.GenerationSoftware,Kicad,Pcbnew,5.1.6-c6e7f7d~87~ubuntu20.04.1
; #@! TF.FileFunction,Plated,1,2,PTH
FMAT,2
INCH
T1C0.0079
T2C0.0118
T3C0.0157
T4C0.0236
T5C0.0315
T6C0.0354
T7C0.0394
T8C0.0689
T9C0.1378
%
G90
G05
T1
X5.2234Y-3.5496
X5.2234Y-3.5866
X5.2234Y-3.6236
X5.2687Y-3.5496
X5.2687Y-3.5866
X5.2687Y-3.6236
X7.2212Y-5.193
X7.2212Y-5.23
X7.2212Y-5.267
X7.2665Y-5.193
X7.2665Y-5.23
X7.2665Y-5.267
X4.7387Y-4.6287
X4.7387Y-4.67
X4.7387Y-4.7113
X4.78Y-4.6287
X4.78Y-4.67
X4.78Y-4.7113
X4.8213Y-4.6287
X4.8213Y-4.67
X4.8213Y-4.7113
X6.4154Y-2.6693
X6.4154Y-2.718
X6.4154Y-2.7667
X6.4154Y-2.8155
X6.4154Y-2.8642
X6.4641Y-2.6693
X6.4641Y-2.718
X6.4641Y-2.7667
X6.4641Y-2.8155
X6.4641Y-2.8642
X6.5128Y-2.6693
X6.5128Y-2.718
X6.5128Y-2.7667
X6.5128Y-2.8155
X6.5128Y-2.8642
X6.5615Y-2.6693
X6.5615Y-2.718
X6.5615Y-2.7667
X6.5615Y-2.8155
X6.5615Y-2.8642
X6.6102Y-2.6693
X6.6102Y-2.718
X6.6102Y-2.7667
X6.6102Y-2.8155
X6.6102Y-2.8642
T2
X4.6969Y-4.8061
X4.77Y-4.81
X4.77Y-4.853
X4.7709Y-5.0276
X4.78Y-4.55
X5.05Y-4.92
X5.06Y-3.76
X5.06Y-3.82
X5.06Y-4.78
X5.11Y-3.18
X5.1336Y-3.5945
X5.1348Y-3.5669
X5.14Y-4.78
X5.14Y-4.92
X5.2209Y-3.8236
X5.25Y-3.33
X5.33Y-3.23
X5.51Y-3.88
X5.52Y-3.56
X5.53Y-2.4
X5.53Y-3.77
X5.53Y-5.13
X5.54Y-4.72
X5.54Y-4.84
X5.57Y-3.65
X5.5748Y-4.1988
X5.59Y-5.2
X5.61Y-4.67
X5.61Y-5.14
X5.62Y-4.76
X5.6732Y-4.3028
X5.69Y-3.87
X5.69Y-3.94
X5.72Y-2.61
X5.7441Y-3.6348
X5.75Y-4.3
X5.826Y-4.2331
X5.8303Y-3.6535
X5.8445Y-3.811
X5.87Y-4.96
X5.8701Y-3.8465
X5.9Y-3.81
X5.9685Y-3.2539
X5.98Y-2.44
X5.98Y-3.81
X5.9949Y-5.1118
X6.0008Y-5.0437
X6.01Y-2.37
X6.0596Y-4.2632
X6.1142Y-3.2648
X6.14Y-4.71
X6.16Y-2.71
X6.16Y-2.87
X6.2Y-2.2933
X6.27Y-4.77
X6.3034Y-2.7788
X6.3287Y-2.6703
X6.3327Y-2.8465
X6.3583Y-3.0876
X6.37Y-3.04
X6.37Y-4.63
X6.4242Y-2.5551
X6.438Y-2.9518
X6.45Y-3.79
X6.46Y-3.33
X6.47Y-2.38
X6.498Y-2.9508
X6.503Y-2.563
X6.5224Y-4.0083
X6.53Y-3.31
X6.54Y-2.33
X6.54Y-3.79
X6.62Y-3.36
X6.63Y-2.18
X6.6988Y-2.7205
X6.7208Y-2.6706
X6.726Y-2.6425
X6.73Y-2.92
X6.7449Y-2.8154
X6.7904Y-2.5581
X6.86Y-4.62
X6.93Y-2.75
X6.94Y-2.62
X6.94Y-4.56
X6.9478Y-3.2421
X6.9626Y-2.7638
X6.97Y-5.25
X7.047Y-4.8348
X7.05Y-5.36
X7.1Y-2.6
X7.19Y-2.53
X7.3394Y-5.0453
X7.3531Y-5.2728
X7.3547Y-4.5102
X7.3559Y-4.9201
X7.36Y-5.18
X7.39Y-5.22
X7.41Y-4.6386
X7.4957Y-5.0165
X7.5874Y-4.9264
X7.589Y-5.0583
X7.4326Y-4.8626
X7.4326Y-4.9
X7.4326Y-4.9374
X7.47Y-4.8626
X7.47Y-4.9
X7.47Y-4.9374
X7.5074Y-4.8626
X7.5074Y-4.9
X7.5074Y-4.9374
T3
X4.8494Y-4.8159
X6.185Y-4.685
X6.3819Y-2.5433
X6.61Y-4.69
X6.7963Y-2.6703
X6.9994Y-5.1706
X7.1919Y-4.9825
T4
X6.3061Y-2.3209
X6.3061Y-2.4626
T5
X5.2933Y-4.8593
T6
X7.52Y-4.13
X7.62Y-4.13
X7.05Y-4.11
X7.15Y-4.11
T7
X4.4Y-4.35
X4.4Y-4.45
X4.4Y-4.55
X4.4Y-4.65
X4.4Y-4.75
X4.4Y-4.85
X4.4Y-4.95
X4.4Y-5.05
X4.63Y-5.3
X4.73Y-5.3
X4.83Y-5.3
X4.93Y-5.3
X5.03Y-5.3
X5.13Y-5.3
X5.23Y-5.3
X5.33Y-5.3
X5.43Y-5.3
X5.53Y-5.3
T8
X7.2628Y-2.7648
X7.2628Y-2.9774
T9
X4.1339Y-5.7087
X4.1339Y-2.1654
X7.6772Y-5.7087
X7.6772Y-2.1654
T0
M30
