G04 #@! TF.GenerationSoftware,KiCad,Pcbnew,5.1.6-c6e7f7d~87~ubuntu20.04.1*
G04 #@! TF.CreationDate,2020-08-13T12:44:14+03:00*
G04 #@! TF.ProjectId,LED_test,4c45445f-7465-4737-942e-6b696361645f,rev?*
G04 #@! TF.SameCoordinates,Original*
G04 #@! TF.FileFunction,Soldermask,Bot*
G04 #@! TF.FilePolarity,Negative*
%FSLAX46Y46*%
G04 Gerber Fmt 4.6, Leading zero omitted, Abs format (unit mm)*
G04 Created by KiCad (PCBNEW 5.1.6-c6e7f7d~87~ubuntu20.04.1) date 2020-08-13 12:44:14*
%MOMM*%
%LPD*%
G01*
G04 APERTURE LIST*
%ADD10C,0.100000*%
%ADD11R,1.450000X1.450000*%
%ADD12O,1.450000X1.450000*%
%ADD13C,5.100000*%
%ADD14C,2.850000*%
%ADD15C,1.700000*%
G04 APERTURE END LIST*
D10*
G36*
X198882000Y-81534000D02*
G01*
X179578000Y-81534000D01*
X179578000Y-41148000D01*
X198882000Y-41148000D01*
X198882000Y-81534000D01*
G37*
X198882000Y-81534000D02*
X179578000Y-81534000D01*
X179578000Y-41148000D01*
X198882000Y-41148000D01*
X198882000Y-81534000D01*
G36*
X178054000Y-81534000D02*
G01*
X158750000Y-81534000D01*
X158750000Y-41148000D01*
X178054000Y-41148000D01*
X178054000Y-81534000D01*
G37*
X178054000Y-81534000D02*
X158750000Y-81534000D01*
X158750000Y-41148000D01*
X178054000Y-41148000D01*
X178054000Y-81534000D01*
D11*
X113284000Y-124840000D03*
D12*
X113284000Y-122840000D03*
X113284000Y-120840000D03*
X113284000Y-118840000D03*
X113284000Y-116840000D03*
X113284000Y-114840000D03*
X113284000Y-112840000D03*
X113284000Y-110840000D03*
D13*
X135690000Y-46890000D03*
X194010000Y-134480000D03*
X105930000Y-133780000D03*
D12*
X178086000Y-86106000D03*
D11*
X180086000Y-86106000D03*
D12*
X146904000Y-130302000D03*
X144904000Y-130302000D03*
X142904000Y-130302000D03*
X140904000Y-130302000D03*
X138904000Y-130302000D03*
X136904000Y-130302000D03*
X134904000Y-130302000D03*
X132904000Y-130302000D03*
X130904000Y-130302000D03*
X128904000Y-130302000D03*
X126904000Y-130302000D03*
X124904000Y-130302000D03*
X122904000Y-130302000D03*
D11*
X120904000Y-130302000D03*
G36*
G01*
X124430262Y-92582000D02*
X123473738Y-92582000D01*
G75*
G02*
X123202000Y-92310262I0J271738D01*
G01*
X123202000Y-91603738D01*
G75*
G02*
X123473738Y-91332000I271738J0D01*
G01*
X124430262Y-91332000D01*
G75*
G02*
X124702000Y-91603738I0J-271738D01*
G01*
X124702000Y-92310262D01*
G75*
G02*
X124430262Y-92582000I-271738J0D01*
G01*
G37*
G36*
G01*
X124430262Y-90532000D02*
X123473738Y-90532000D01*
G75*
G02*
X123202000Y-90260262I0J271738D01*
G01*
X123202000Y-89553738D01*
G75*
G02*
X123473738Y-89282000I271738J0D01*
G01*
X124430262Y-89282000D01*
G75*
G02*
X124702000Y-89553738I0J-271738D01*
G01*
X124702000Y-90260262D01*
G75*
G02*
X124430262Y-90532000I-271738J0D01*
G01*
G37*
D14*
X154686000Y-80330000D03*
G36*
G01*
X153520350Y-73505000D02*
X155851650Y-73505000D01*
G75*
G02*
X156111000Y-73764350I0J-259350D01*
G01*
X156111000Y-76095650D01*
G75*
G02*
X155851650Y-76355000I-259350J0D01*
G01*
X153520350Y-76355000D01*
G75*
G02*
X153261000Y-76095650I0J259350D01*
G01*
X153261000Y-73764350D01*
G75*
G02*
X153520350Y-73505000I259350J0D01*
G01*
G37*
G36*
G01*
X129771738Y-73820000D02*
X130728262Y-73820000D01*
G75*
G02*
X131000000Y-74091738I0J-271738D01*
G01*
X131000000Y-74798262D01*
G75*
G02*
X130728262Y-75070000I-271738J0D01*
G01*
X129771738Y-75070000D01*
G75*
G02*
X129500000Y-74798262I0J271738D01*
G01*
X129500000Y-74091738D01*
G75*
G02*
X129771738Y-73820000I271738J0D01*
G01*
G37*
G36*
G01*
X129771738Y-71770000D02*
X130728262Y-71770000D01*
G75*
G02*
X131000000Y-72041738I0J-271738D01*
G01*
X131000000Y-72748262D01*
G75*
G02*
X130728262Y-73020000I-271738J0D01*
G01*
X129771738Y-73020000D01*
G75*
G02*
X129500000Y-72748262I0J271738D01*
G01*
X129500000Y-72041738D01*
G75*
G02*
X129771738Y-71770000I271738J0D01*
G01*
G37*
D15*
X145498000Y-71120000D03*
G36*
G01*
X149948000Y-70535625D02*
X149948000Y-71704375D01*
G75*
G02*
X149682375Y-71970000I-265625J0D01*
G01*
X148513625Y-71970000D01*
G75*
G02*
X148248000Y-71704375I0J265625D01*
G01*
X148248000Y-70535625D01*
G75*
G02*
X148513625Y-70270000I265625J0D01*
G01*
X149682375Y-70270000D01*
G75*
G02*
X149948000Y-70535625I0J-265625D01*
G01*
G37*
G36*
G01*
X155693500Y-131364000D02*
X156218500Y-131364000D01*
G75*
G02*
X156481000Y-131626500I0J-262500D01*
G01*
X156481000Y-132251500D01*
G75*
G02*
X156218500Y-132514000I-262500J0D01*
G01*
X155693500Y-132514000D01*
G75*
G02*
X155431000Y-132251500I0J262500D01*
G01*
X155431000Y-131626500D01*
G75*
G02*
X155693500Y-131364000I262500J0D01*
G01*
G37*
G36*
G01*
X155693500Y-129614000D02*
X156218500Y-129614000D01*
G75*
G02*
X156481000Y-129876500I0J-262500D01*
G01*
X156481000Y-130501500D01*
G75*
G02*
X156218500Y-130764000I-262500J0D01*
G01*
X155693500Y-130764000D01*
G75*
G02*
X155431000Y-130501500I0J262500D01*
G01*
X155431000Y-129876500D01*
G75*
G02*
X155693500Y-129614000I262500J0D01*
G01*
G37*
G36*
G01*
X153153500Y-132634000D02*
X153678500Y-132634000D01*
G75*
G02*
X153941000Y-132896500I0J-262500D01*
G01*
X153941000Y-133521500D01*
G75*
G02*
X153678500Y-133784000I-262500J0D01*
G01*
X153153500Y-133784000D01*
G75*
G02*
X152891000Y-133521500I0J262500D01*
G01*
X152891000Y-132896500D01*
G75*
G02*
X153153500Y-132634000I262500J0D01*
G01*
G37*
G36*
G01*
X153153500Y-130884000D02*
X153678500Y-130884000D01*
G75*
G02*
X153941000Y-131146500I0J-262500D01*
G01*
X153941000Y-131771500D01*
G75*
G02*
X153678500Y-132034000I-262500J0D01*
G01*
X153153500Y-132034000D01*
G75*
G02*
X152891000Y-131771500I0J262500D01*
G01*
X152891000Y-131146500D01*
G75*
G02*
X153153500Y-130884000I262500J0D01*
G01*
G37*
M02*
