M48
; DRILL file {KiCad 5.1.6-c6e7f7d~87~ubuntu20.04.1} date Sat Jan 16 23:25:11 2021
; FORMAT={-:-/ absolute / inch / decimal}
; #@! TF.CreationDate,2021-01-16T23:25:11+02:00
; #@! TF.GenerationSoftware,Kicad,Pcbnew,5.1.6-c6e7f7d~87~ubuntu20.04.1
; #@! TF.FileFunction,Plated,1,2,PTH
FMAT,2
INCH
T1C0.0079
T2C0.0118
T3C0.0157
T4C0.0236
T5C0.0315
T6C0.0354
T7C0.0394
T8C0.0689
T9C0.1378
%
G90
G05
T1
X5.2234Y-3.5496
X5.2234Y-3.5866
X5.2234Y-3.6236
X5.2687Y-3.5496
X5.2687Y-3.5866
X5.2687Y-3.6236
X6.4154Y-2.6693
X6.4154Y-2.718
X6.4154Y-2.7667
X6.4154Y-2.8155
X6.4154Y-2.8642
X6.4641Y-2.6693
X6.4641Y-2.718
X6.4641Y-2.7667
X6.4641Y-2.8155
X6.4641Y-2.8642
X6.5128Y-2.6693
X6.5128Y-2.718
X6.5128Y-2.7667
X6.5128Y-2.8155
X6.5128Y-2.8642
X6.5615Y-2.6693
X6.5615Y-2.718
X6.5615Y-2.7667
X6.5615Y-2.8155
X6.5615Y-2.8642
X6.6102Y-2.6693
X6.6102Y-2.718
X6.6102Y-2.7667
X6.6102Y-2.8155
X6.6102Y-2.8642
X4.7387Y-4.6287
X4.7387Y-4.67
X4.7387Y-4.7113
X4.78Y-4.6287
X4.78Y-4.67
X4.78Y-4.7113
X4.8213Y-4.6287
X4.8213Y-4.67
X4.8213Y-4.7113
X7.2212Y-5.193
X7.2212Y-5.23
X7.2212Y-5.267
X7.2665Y-5.193
X7.2665Y-5.23
X7.2665Y-5.267
T2
X4.685Y-5.1299
X4.6969Y-4.8061
X4.763Y-5.135
X4.77Y-4.81
X4.77Y-4.853
X4.7709Y-5.0276
X4.78Y-4.55
X4.8295Y-5.4563
X4.8531Y-5.1075
X4.8803Y-4.215
X4.9031Y-5.424
X4.9244Y-5.187
X4.989Y-5.4224
X5.0268Y-4.2083
X5.05Y-4.92
X5.06Y-3.76
X5.06Y-3.82
X5.06Y-4.78
X5.11Y-3.18
X5.1268Y-5.187
X5.1336Y-3.5945
X5.1348Y-3.5669
X5.14Y-4.78
X5.14Y-4.92
X5.1535Y-4.9854
X5.2209Y-3.8236
X5.25Y-3.33
X5.3016Y-4.9854
X5.3244Y-5.1882
X5.33Y-3.23
X5.3665Y-5.5976
X5.3669Y-5.528
X5.3705Y-5.402
X5.5028Y-5.4016
X5.51Y-3.88
X5.52Y-3.56
X5.5295Y-2.3657
X5.5299Y-4.9795
X5.53Y-2.4
X5.53Y-3.77
X5.53Y-5.13
X5.5307Y-2.4343
X5.54Y-4.72
X5.54Y-4.84
X5.57Y-3.65
X5.5748Y-4.1988
X5.59Y-5.2
X5.61Y-4.67
X5.61Y-5.14
X5.62Y-4.76
X5.6295Y-4.9795
X5.67Y-3.63
X5.69Y-3.87
X5.69Y-3.94
X5.69Y-4.32
X5.72Y-2.61
X5.7441Y-3.6348
X5.8232Y-2.7035
X5.826Y-4.2331
X5.8303Y-3.6535
X5.8445Y-3.811
X5.87Y-4.96
X5.8701Y-3.8465
X5.9Y-3.81
X5.98Y-2.44
X5.98Y-3.81
X5.9803Y-3.2657
X5.9949Y-5.1118
X6.0008Y-5.0437
X6.01Y-2.37
X6.0596Y-4.2632
X6.1142Y-3.2648
X6.14Y-4.71
X6.1665Y-2.813
X6.1709Y-2.2433
X6.1795Y-2.672
X6.2236Y-2.9094
X6.235Y-2.2957
X6.2602Y-2.6039
X6.27Y-4.77
X6.3034Y-2.7788
X6.3287Y-2.6703
X6.3327Y-2.8465
X6.37Y-4.63
X6.3783Y-3.0886
X6.4063Y-2.2512
X6.4242Y-2.5551
X6.438Y-2.9518
X6.45Y-3.79
X6.46Y-3.33
X6.4681Y-4.0079
X6.47Y-2.38
X6.498Y-2.9508
X6.503Y-2.563
X6.5224Y-4.0083
X6.53Y-3.31
X6.54Y-2.33
X6.54Y-3.79
X6.5803Y-4.0079
X6.6988Y-2.7205
X6.7208Y-2.6706
X6.726Y-2.6425
X6.73Y-2.92
X6.7449Y-2.8154
X6.7709Y-5.1193
X6.772Y-5.0303
X6.7904Y-2.5581
X6.86Y-4.62
X6.8661Y-5.1394
X6.8976Y-2.1846
X6.93Y-2.75
X6.94Y-2.62
X6.94Y-4.56
X6.9478Y-3.2421
X6.9626Y-2.7638
X6.9673Y-2.4728
X6.97Y-5.25
X7.0205Y-3.1028
X7.047Y-4.8348
X7.05Y-5.36
X7.0661Y-4.3047
X7.0693Y-4.2669
X7.0709Y-4.237
X7.0748Y-4.2012
X7.0803Y-4.1685
X7.0933Y-4.3177
X7.0949Y-4.2843
X7.0961Y-4.2217
X7.0969Y-4.2528
X7.0976Y-4.1921
X7.0996Y-4.1512
X7.0996Y-4.3472
X7.1Y-2.6
X7.1008Y-4.128
X7.1114Y-4.0929
X7.1157Y-4.1732
X7.1169Y-4.3028
X7.1173Y-4.2059
X7.1193Y-4.2382
X7.1209Y-4.2713
X7.1224Y-4.3319
X7.1232Y-4.1343
X7.1236Y-4.363
X7.1248Y-5.1429
X7.1378Y-4.1039
X7.1398Y-4.2909
X7.1425Y-4.2311
X7.1429Y-4.1756
X7.1429Y-4.2024
X7.1429Y-4.3512
X7.1433Y-4.2594
X7.1465Y-4.1476
X7.148Y-4.0685
X7.1488Y-5.5886
X7.1492Y-4.3248
X7.1496Y-5.472
X7.1516Y-5.5303
X7.1571Y-4.1209
X7.1661Y-4.2815
X7.1673Y-3.1028
X7.1677Y-4.2059
X7.1677Y-4.2315
X7.1681Y-4.176
X7.1681Y-4.2567
X7.1693Y-4.1528
X7.172Y-4.3126
X7.174Y-4.3402
X7.174Y-4.3681
X7.1756Y-4.0949
X7.1839Y-4.0642
X7.1882Y-4.1252
X7.19Y-2.53
X7.1902Y-4.2272
X7.1933Y-4.2051
X7.2Y-4.1791
X7.2004Y-4.1531
X7.2134Y-4.1016
X7.215Y-4.1327
X7.2154Y-4.0717
X7.2201Y-4.226
X7.2484Y-4.3154
X7.25Y-4.2358
X7.25Y-4.2701
X7.2504Y-4.348
X7.2524Y-4.4079
X7.2665Y-4.3736
X7.2756Y-4.313
X7.278Y-4.2252
X7.2835Y-4.3445
X7.2941Y-4.1492
X7.2945Y-4.0937
X7.2953Y-4.3701
X7.3004Y-4.1248
X7.3016Y-4.0677
X7.3043Y-4.1803
X7.3071Y-4.313
X7.3087Y-4.2055
X7.3126Y-4.2272
X7.3161Y-4.3421
X7.3217Y-4.1496
X7.3248Y-4.0972
X7.3295Y-4.0717
X7.3331Y-4.1783
X7.3343Y-4.2055
X7.335Y-4.2287
X7.3362Y-4.1264
X7.3374Y-4.3146
X7.3394Y-5.0453
X7.3457Y-4.1555
X7.3531Y-5.2728
X7.3559Y-4.9201
X7.3575Y-4.1882
X7.36Y-5.18
X7.3606Y-4.1051
X7.3606Y-4.2118
X7.361Y-4.302
X7.3626Y-4.0787
X7.3657Y-4.1346
X7.3717Y-4.5787
X7.372Y-4.1626
X7.3874Y-4.2843
X7.39Y-5.22
X7.41Y-4.6386
X7.4138Y-4.2567
X7.4165Y-4.4031
X7.4453Y-4.2283
X7.4957Y-5.0165
X7.5874Y-4.9264
X7.589Y-5.0583
X7.4326Y-4.8626
X7.4326Y-4.9
X7.4326Y-4.9374
X7.47Y-4.8626
X7.47Y-4.9
X7.47Y-4.9374
X7.5074Y-4.8626
X7.5074Y-4.9
X7.5074Y-4.9374
T3
X4.8494Y-4.8159
X6.185Y-4.685
X6.3819Y-2.5433
X6.61Y-4.69
X6.7963Y-2.6703
X6.9994Y-5.1706
X7.1919Y-4.9825
T4
X6.3061Y-2.3209
X6.3061Y-2.4626
T5
X5.2933Y-4.8593
T6
X7.52Y-3.83
X7.62Y-3.83
X7.05Y-3.83
X7.15Y-3.83
T7
X4.4Y-4.35
X4.4Y-4.45
X4.4Y-4.55
X4.4Y-4.65
X4.4Y-4.75
X4.4Y-4.85
X4.4Y-4.95
X4.4Y-5.05
X4.63Y-5.3
X4.73Y-5.3
X4.83Y-5.3
X4.93Y-5.3
X5.03Y-5.3
X5.13Y-5.3
X5.23Y-5.3
X5.33Y-5.3
X5.43Y-5.3
X5.53Y-5.3
T8
X7.2628Y-2.7648
X7.2628Y-2.9774
T9
X7.6772Y-2.1654
X4.1339Y-5.7087
X4.1339Y-2.1654
X7.6772Y-5.7087
T0
M30
