G04 #@! TF.GenerationSoftware,KiCad,Pcbnew,5.1.6-c6e7f7d~87~ubuntu20.04.1*
G04 #@! TF.CreationDate,2020-08-13T12:44:14+03:00*
G04 #@! TF.ProjectId,LED_test,4c45445f-7465-4737-942e-6b696361645f,rev?*
G04 #@! TF.SameCoordinates,Original*
G04 #@! TF.FileFunction,Copper,L2,Bot*
G04 #@! TF.FilePolarity,Positive*
%FSLAX46Y46*%
G04 Gerber Fmt 4.6, Leading zero omitted, Abs format (unit mm)*
G04 Created by KiCad (PCBNEW 5.1.6-c6e7f7d~87~ubuntu20.04.1) date 2020-08-13 12:44:14*
%MOMM*%
%LPD*%
G01*
G04 APERTURE LIST*
G04 #@! TA.AperFunction,Conductor*
%ADD10R,5.450000X5.450000*%
G04 #@! TD*
G04 #@! TA.AperFunction,ViaPad*
%ADD11C,0.500000*%
G04 #@! TD*
G04 #@! TA.AperFunction,ComponentPad*
%ADD12R,1.350000X1.350000*%
G04 #@! TD*
G04 #@! TA.AperFunction,ComponentPad*
%ADD13O,1.350000X1.350000*%
G04 #@! TD*
G04 #@! TA.AperFunction,ComponentPad*
%ADD14C,5.000000*%
G04 #@! TD*
G04 #@! TA.AperFunction,ComponentPad*
%ADD15C,2.750000*%
G04 #@! TD*
G04 #@! TA.AperFunction,ComponentPad*
%ADD16C,1.600000*%
G04 #@! TD*
G04 #@! TA.AperFunction,ViaPad*
%ADD17C,2.000000*%
G04 #@! TD*
G04 #@! TA.AperFunction,ViaPad*
%ADD18C,0.800000*%
G04 #@! TD*
G04 #@! TA.AperFunction,Conductor*
%ADD19C,2.000000*%
G04 #@! TD*
G04 #@! TA.AperFunction,Conductor*
%ADD20C,1.000000*%
G04 #@! TD*
G04 #@! TA.AperFunction,Conductor*
%ADD21C,0.250000*%
G04 #@! TD*
G04 #@! TA.AperFunction,Conductor*
%ADD22C,0.500000*%
G04 #@! TD*
G04 #@! TA.AperFunction,Conductor*
%ADD23C,0.200000*%
G04 #@! TD*
G04 #@! TA.AperFunction,Conductor*
%ADD24C,0.254000*%
G04 #@! TD*
G04 #@! TA.AperFunction,Conductor*
%ADD25C,0.190000*%
G04 #@! TD*
G04 APERTURE END LIST*
D10*
X131970000Y-82050000D03*
D11*
X134445000Y-79575000D03*
X134445000Y-80812500D03*
X134445000Y-82050000D03*
X134445000Y-83287500D03*
X134445000Y-84525000D03*
X133207500Y-79575000D03*
X133207500Y-80812500D03*
X133207500Y-82050000D03*
X133207500Y-83287500D03*
X133207500Y-84525000D03*
X131970000Y-79575000D03*
X131970000Y-80812500D03*
X131970000Y-82050000D03*
X131970000Y-83287500D03*
X131970000Y-84525000D03*
X130732500Y-79575000D03*
X130732500Y-80812500D03*
X130732500Y-82050000D03*
X130732500Y-83287500D03*
X130732500Y-84525000D03*
X129495000Y-79575000D03*
X129495000Y-80812500D03*
X129495000Y-82050000D03*
X129495000Y-83287500D03*
X129495000Y-84525000D03*
D12*
X113284000Y-124840000D03*
D13*
X113284000Y-122840000D03*
X113284000Y-120840000D03*
X113284000Y-118840000D03*
X113284000Y-116840000D03*
X113284000Y-114840000D03*
X113284000Y-112840000D03*
X113284000Y-110840000D03*
D14*
X135690000Y-46890000D03*
X194010000Y-134480000D03*
X105930000Y-133780000D03*
D13*
X178086000Y-86106000D03*
D12*
X180086000Y-86106000D03*
D13*
X146904000Y-130302000D03*
X144904000Y-130302000D03*
X142904000Y-130302000D03*
X140904000Y-130302000D03*
X138904000Y-130302000D03*
X136904000Y-130302000D03*
X134904000Y-130302000D03*
X132904000Y-130302000D03*
X130904000Y-130302000D03*
X128904000Y-130302000D03*
X126904000Y-130302000D03*
X124904000Y-130302000D03*
X122904000Y-130302000D03*
D12*
X120904000Y-130302000D03*
G04 #@! TA.AperFunction,SMDPad,CuDef*
G36*
G01*
X124402001Y-92532000D02*
X123501999Y-92532000D01*
G75*
G02*
X123252000Y-92282001I0J249999D01*
G01*
X123252000Y-91631999D01*
G75*
G02*
X123501999Y-91382000I249999J0D01*
G01*
X124402001Y-91382000D01*
G75*
G02*
X124652000Y-91631999I0J-249999D01*
G01*
X124652000Y-92282001D01*
G75*
G02*
X124402001Y-92532000I-249999J0D01*
G01*
G37*
G04 #@! TD.AperFunction*
G04 #@! TA.AperFunction,SMDPad,CuDef*
G36*
G01*
X124402001Y-90482000D02*
X123501999Y-90482000D01*
G75*
G02*
X123252000Y-90232001I0J249999D01*
G01*
X123252000Y-89581999D01*
G75*
G02*
X123501999Y-89332000I249999J0D01*
G01*
X124402001Y-89332000D01*
G75*
G02*
X124652000Y-89581999I0J-249999D01*
G01*
X124652000Y-90232001D01*
G75*
G02*
X124402001Y-90482000I-249999J0D01*
G01*
G37*
G04 #@! TD.AperFunction*
D15*
X154686000Y-80330000D03*
G04 #@! TA.AperFunction,ComponentPad*
G36*
G01*
X153561250Y-73555000D02*
X155810750Y-73555000D01*
G75*
G02*
X156061000Y-73805250I0J-250250D01*
G01*
X156061000Y-76054750D01*
G75*
G02*
X155810750Y-76305000I-250250J0D01*
G01*
X153561250Y-76305000D01*
G75*
G02*
X153311000Y-76054750I0J250250D01*
G01*
X153311000Y-73805250D01*
G75*
G02*
X153561250Y-73555000I250250J0D01*
G01*
G37*
G04 #@! TD.AperFunction*
G04 #@! TA.AperFunction,SMDPad,CuDef*
G36*
G01*
X129799999Y-73870000D02*
X130700001Y-73870000D01*
G75*
G02*
X130950000Y-74119999I0J-249999D01*
G01*
X130950000Y-74770001D01*
G75*
G02*
X130700001Y-75020000I-249999J0D01*
G01*
X129799999Y-75020000D01*
G75*
G02*
X129550000Y-74770001I0J249999D01*
G01*
X129550000Y-74119999D01*
G75*
G02*
X129799999Y-73870000I249999J0D01*
G01*
G37*
G04 #@! TD.AperFunction*
G04 #@! TA.AperFunction,SMDPad,CuDef*
G36*
G01*
X129799999Y-71820000D02*
X130700001Y-71820000D01*
G75*
G02*
X130950000Y-72069999I0J-249999D01*
G01*
X130950000Y-72720001D01*
G75*
G02*
X130700001Y-72970000I-249999J0D01*
G01*
X129799999Y-72970000D01*
G75*
G02*
X129550000Y-72720001I0J249999D01*
G01*
X129550000Y-72069999D01*
G75*
G02*
X129799999Y-71820000I249999J0D01*
G01*
G37*
G04 #@! TD.AperFunction*
D16*
X145498000Y-71120000D03*
G04 #@! TA.AperFunction,ComponentPad*
G36*
G01*
X149898000Y-70570000D02*
X149898000Y-71670000D01*
G75*
G02*
X149648000Y-71920000I-250000J0D01*
G01*
X148548000Y-71920000D01*
G75*
G02*
X148298000Y-71670000I0J250000D01*
G01*
X148298000Y-70570000D01*
G75*
G02*
X148548000Y-70320000I250000J0D01*
G01*
X149648000Y-70320000D01*
G75*
G02*
X149898000Y-70570000I0J-250000D01*
G01*
G37*
G04 #@! TD.AperFunction*
G04 #@! TA.AperFunction,SMDPad,CuDef*
G36*
G01*
X155718500Y-131414000D02*
X156193500Y-131414000D01*
G75*
G02*
X156431000Y-131651500I0J-237500D01*
G01*
X156431000Y-132226500D01*
G75*
G02*
X156193500Y-132464000I-237500J0D01*
G01*
X155718500Y-132464000D01*
G75*
G02*
X155481000Y-132226500I0J237500D01*
G01*
X155481000Y-131651500D01*
G75*
G02*
X155718500Y-131414000I237500J0D01*
G01*
G37*
G04 #@! TD.AperFunction*
G04 #@! TA.AperFunction,SMDPad,CuDef*
G36*
G01*
X155718500Y-129664000D02*
X156193500Y-129664000D01*
G75*
G02*
X156431000Y-129901500I0J-237500D01*
G01*
X156431000Y-130476500D01*
G75*
G02*
X156193500Y-130714000I-237500J0D01*
G01*
X155718500Y-130714000D01*
G75*
G02*
X155481000Y-130476500I0J237500D01*
G01*
X155481000Y-129901500D01*
G75*
G02*
X155718500Y-129664000I237500J0D01*
G01*
G37*
G04 #@! TD.AperFunction*
G04 #@! TA.AperFunction,SMDPad,CuDef*
G36*
G01*
X153178500Y-132684000D02*
X153653500Y-132684000D01*
G75*
G02*
X153891000Y-132921500I0J-237500D01*
G01*
X153891000Y-133496500D01*
G75*
G02*
X153653500Y-133734000I-237500J0D01*
G01*
X153178500Y-133734000D01*
G75*
G02*
X152941000Y-133496500I0J237500D01*
G01*
X152941000Y-132921500D01*
G75*
G02*
X153178500Y-132684000I237500J0D01*
G01*
G37*
G04 #@! TD.AperFunction*
G04 #@! TA.AperFunction,SMDPad,CuDef*
G36*
G01*
X153178500Y-130934000D02*
X153653500Y-130934000D01*
G75*
G02*
X153891000Y-131171500I0J-237500D01*
G01*
X153891000Y-131746500D01*
G75*
G02*
X153653500Y-131984000I-237500J0D01*
G01*
X153178500Y-131984000D01*
G75*
G02*
X152941000Y-131746500I0J237500D01*
G01*
X152941000Y-131171500D01*
G75*
G02*
X153178500Y-130934000I237500J0D01*
G01*
G37*
G04 #@! TD.AperFunction*
D11*
X124460000Y-76200000D03*
X127000000Y-82042000D03*
X120650000Y-82804000D03*
X130048000Y-86868000D03*
X137668000Y-83820000D03*
X131318000Y-91948000D03*
X188214000Y-124714000D03*
X169926000Y-111252000D03*
X181102000Y-110490000D03*
X177038000Y-107950000D03*
X189738000Y-99822000D03*
X188520000Y-117700000D03*
X190754000Y-117094000D03*
X186690000Y-119380000D03*
X178562000Y-91694000D03*
X113030000Y-87630000D03*
X119126000Y-89662000D03*
X124206000Y-88138000D03*
X122682000Y-92202000D03*
X128016000Y-92710000D03*
X130810000Y-97282000D03*
X145288000Y-98552000D03*
X151130000Y-92456000D03*
X177800000Y-83820000D03*
X181102000Y-83820000D03*
X192786000Y-89408000D03*
X165862000Y-88900000D03*
X137668000Y-70358000D03*
X135382000Y-76962000D03*
X139446000Y-77724000D03*
X146304000Y-74168000D03*
X143764000Y-71120000D03*
X154432000Y-62738000D03*
X104648000Y-91948000D03*
X116078000Y-78740000D03*
X104394000Y-62738000D03*
X114808000Y-45466000D03*
X113792000Y-52070000D03*
X114808000Y-54102000D03*
X122174000Y-63500000D03*
X120650000Y-58928000D03*
X121920000Y-54864000D03*
X127762000Y-77470000D03*
X129540000Y-77216000D03*
X134874000Y-77470000D03*
X137414000Y-78486000D03*
X152400000Y-63754000D03*
X143256000Y-77978000D03*
X138430000Y-90424000D03*
X110490000Y-73152000D03*
X108458000Y-66294000D03*
X150368000Y-84328000D03*
X173720000Y-100440000D03*
X107696000Y-47244000D03*
X115316000Y-65786000D03*
X131318000Y-86614000D03*
X136144000Y-87376000D03*
X133350000Y-87630000D03*
X121412000Y-79248000D03*
X123190000Y-72898000D03*
X125730000Y-72644000D03*
X104648000Y-49784000D03*
X118110000Y-51308000D03*
X140462000Y-81280000D03*
X125984000Y-61976000D03*
X126492000Y-58420000D03*
X111760000Y-59436000D03*
X113284000Y-60960000D03*
X114808000Y-59436000D03*
X114808000Y-60960000D03*
X107950000Y-62992000D03*
X106172000Y-53340000D03*
X131050000Y-76030000D03*
X104120000Y-115910000D03*
X106080000Y-99990000D03*
X106650000Y-121090000D03*
X107280000Y-113010000D03*
X108390000Y-115180000D03*
X115130000Y-109070000D03*
X125300000Y-125620000D03*
X190560000Y-126880000D03*
X190530000Y-128710000D03*
X188120000Y-130760000D03*
X184200000Y-128140000D03*
X173190000Y-119640000D03*
X168360000Y-124800000D03*
X167410000Y-129990000D03*
X167410000Y-118510000D03*
X113280000Y-107100000D03*
X122010000Y-115910000D03*
X124380000Y-113940000D03*
X123740000Y-115560000D03*
X104820000Y-112530000D03*
X179900000Y-127610000D03*
X170870000Y-121910000D03*
X181050000Y-114630000D03*
X159950000Y-131700000D03*
X157390000Y-131530000D03*
X141590000Y-133740000D03*
D17*
X117500000Y-53340000D03*
X112634002Y-83200000D03*
X102400000Y-83200000D03*
X108204000Y-44958000D03*
D11*
X132380000Y-76880000D03*
D18*
X133170000Y-74660000D03*
D11*
X134400000Y-87310000D03*
X132490000Y-86650000D03*
X109687000Y-60157000D03*
X139960305Y-72901152D03*
X126559010Y-83566000D03*
X137922000Y-85852000D03*
X144526000Y-79502000D03*
X125476000Y-91186000D03*
X126746000Y-85598000D03*
X138153406Y-67084594D03*
X187198006Y-101092000D03*
D18*
X177038000Y-113538000D03*
D11*
X184667000Y-112023000D03*
X189452000Y-124497998D03*
D18*
X182895996Y-122919994D03*
X183388000Y-42672000D03*
X185388000Y-42672000D03*
X187388000Y-42672000D03*
X189388000Y-42672000D03*
X191388000Y-42672000D03*
X193388000Y-42672000D03*
X195388000Y-42672000D03*
X197388000Y-42672000D03*
X183388000Y-44672000D03*
X185388000Y-44672000D03*
X187388000Y-44672000D03*
X189388000Y-44672000D03*
X191388000Y-44672000D03*
X193388000Y-44672000D03*
X195388000Y-44672000D03*
X197388000Y-44672000D03*
X183388000Y-46672000D03*
X185388000Y-46672000D03*
X187388000Y-46672000D03*
X189388000Y-46672000D03*
X191388000Y-46672000D03*
X193388000Y-46672000D03*
X195388000Y-46672000D03*
X197388000Y-46672000D03*
X183388000Y-48672000D03*
X185388000Y-48672000D03*
X187388000Y-48672000D03*
X189388000Y-48672000D03*
X191388000Y-48672000D03*
X193388000Y-48672000D03*
X195388000Y-48672000D03*
X197388000Y-48672000D03*
X183388000Y-50672000D03*
X185388000Y-50672000D03*
X187388000Y-50672000D03*
X189388000Y-50672000D03*
X191388000Y-50672000D03*
X193388000Y-50672000D03*
X195388000Y-50672000D03*
X197388000Y-50672000D03*
X183388000Y-52672000D03*
X185388000Y-52672000D03*
X187388000Y-52672000D03*
X189388000Y-52672000D03*
X191388000Y-52672000D03*
X193388000Y-52672000D03*
X195388000Y-52672000D03*
X197388000Y-52672000D03*
X183388000Y-54672000D03*
X185388000Y-54672000D03*
X187388000Y-54672000D03*
X189388000Y-54672000D03*
X191388000Y-54672000D03*
X193388000Y-54672000D03*
X195388000Y-54672000D03*
X197388000Y-54672000D03*
X183388000Y-56672000D03*
X185388000Y-56672000D03*
X187388000Y-56672000D03*
X189388000Y-56672000D03*
X191388000Y-56672000D03*
X193388000Y-56672000D03*
X195388000Y-56672000D03*
X197388000Y-56672000D03*
X183388000Y-58672000D03*
X185388000Y-58672000D03*
X187388000Y-58672000D03*
X189388000Y-58672000D03*
X191388000Y-58672000D03*
X193388000Y-58672000D03*
X195388000Y-58672000D03*
X197388000Y-58672000D03*
X183388000Y-60672000D03*
X185388000Y-60672000D03*
X187388000Y-60672000D03*
X189388000Y-60672000D03*
X191388000Y-60672000D03*
X193388000Y-60672000D03*
X195388000Y-60672000D03*
X197388000Y-60672000D03*
X183388000Y-62672000D03*
X185388000Y-62672000D03*
X187388000Y-62672000D03*
X189388000Y-62672000D03*
X191388000Y-62672000D03*
X193388000Y-62672000D03*
X195388000Y-62672000D03*
X197388000Y-62672000D03*
X183388000Y-64672000D03*
X185388000Y-64672000D03*
X187388000Y-64672000D03*
X189388000Y-64672000D03*
X191388000Y-64672000D03*
X193388000Y-64672000D03*
X195388000Y-64672000D03*
X197388000Y-64672000D03*
X183388000Y-66672000D03*
X185388000Y-66672000D03*
X187388000Y-66672000D03*
X189388000Y-66672000D03*
X191388000Y-66672000D03*
X193388000Y-66672000D03*
X195388000Y-66672000D03*
X197388000Y-66672000D03*
X183388000Y-68672000D03*
X185388000Y-68672000D03*
X187388000Y-68672000D03*
X189388000Y-68672000D03*
X191388000Y-68672000D03*
X193388000Y-68672000D03*
X195388000Y-68672000D03*
X197388000Y-68672000D03*
X183388000Y-70672000D03*
X185388000Y-70672000D03*
X187388000Y-70672000D03*
X189388000Y-70672000D03*
X191388000Y-70672000D03*
X193388000Y-70672000D03*
X195388000Y-70672000D03*
X197388000Y-70672000D03*
X183388000Y-72672000D03*
X185388000Y-72672000D03*
X187388000Y-72672000D03*
X189388000Y-72672000D03*
X191388000Y-72672000D03*
X193388000Y-72672000D03*
X195388000Y-72672000D03*
X197388000Y-72672000D03*
X183388000Y-74672000D03*
X185388000Y-74672000D03*
X187388000Y-74672000D03*
X189388000Y-74672000D03*
X191388000Y-74672000D03*
X193388000Y-74672000D03*
X195388000Y-74672000D03*
X197388000Y-74672000D03*
X183388000Y-76672000D03*
X185388000Y-76672000D03*
X187388000Y-76672000D03*
X189388000Y-76672000D03*
X191388000Y-76672000D03*
X193388000Y-76672000D03*
X195388000Y-76672000D03*
X197388000Y-76672000D03*
X183388000Y-78672000D03*
X185388000Y-78672000D03*
X187388000Y-78672000D03*
X189388000Y-78672000D03*
X191388000Y-78672000D03*
X193388000Y-78672000D03*
X195388000Y-78672000D03*
X197388000Y-78672000D03*
X183388000Y-80672000D03*
X185388000Y-80672000D03*
X187388000Y-80672000D03*
X189388000Y-80672000D03*
X191388000Y-80672000D03*
X193388000Y-80672000D03*
X195388000Y-80672000D03*
X197388000Y-80672000D03*
D11*
X172974000Y-129540000D03*
X105400000Y-114940000D03*
X105330000Y-98120000D03*
X175071999Y-128712001D03*
D18*
X176276000Y-102108000D03*
D11*
X127508000Y-86614000D03*
X126030000Y-88080000D03*
X144204990Y-74930000D03*
X137227010Y-80450990D03*
X117856000Y-61468000D03*
X139192000Y-81280000D03*
X173736000Y-120650000D03*
X166369998Y-120650000D03*
X173482000Y-128161969D03*
X166567500Y-125786500D03*
X174200282Y-128611980D03*
X166878004Y-127762000D03*
X109037000Y-60889000D03*
X107270000Y-65070000D03*
D18*
X160274000Y-48418000D03*
X174274000Y-76418000D03*
X164274000Y-76418000D03*
X162274000Y-44418000D03*
X172274000Y-66418000D03*
X162274000Y-78418000D03*
X162274000Y-42418000D03*
X170274000Y-72418000D03*
X162274000Y-48418000D03*
X170274000Y-62418000D03*
X168274000Y-72418000D03*
X174274000Y-60418000D03*
X170274000Y-46418000D03*
X164274000Y-64418000D03*
X172274000Y-74418000D03*
X172274000Y-44418000D03*
X168274000Y-56418000D03*
X172274000Y-62418000D03*
X166274000Y-76418000D03*
X166274000Y-60418000D03*
X166274000Y-42418000D03*
X174274000Y-50418000D03*
X172274000Y-58418000D03*
X174274000Y-78418000D03*
X160274000Y-62418000D03*
X168274000Y-78418000D03*
X168274000Y-54418000D03*
X164274000Y-62418000D03*
X162274000Y-68418000D03*
X170274000Y-80418000D03*
X174274000Y-80418000D03*
X164274000Y-72418000D03*
X164274000Y-68418000D03*
X166274000Y-56418000D03*
X162274000Y-64418000D03*
X174274000Y-74418000D03*
X166274000Y-78418000D03*
X162274000Y-80418000D03*
X164274000Y-78418000D03*
X174274000Y-70418000D03*
X170274000Y-56418000D03*
X160274000Y-72418000D03*
X164274000Y-46418000D03*
X166274000Y-72418000D03*
X164274000Y-56418000D03*
X166274000Y-68418000D03*
X168274000Y-62418000D03*
X168274000Y-50418000D03*
X170274000Y-60418000D03*
X168274000Y-74418000D03*
X172274000Y-54418000D03*
X172274000Y-48418000D03*
X160274000Y-68418000D03*
X168274000Y-64418000D03*
X160274000Y-70418000D03*
X172274000Y-50418000D03*
X160274000Y-42418000D03*
X162274000Y-52418000D03*
X174274000Y-56418000D03*
X166274000Y-52418000D03*
X172274000Y-78418000D03*
X168274000Y-80418000D03*
X164274000Y-52418000D03*
X170274000Y-66418000D03*
X164274000Y-54418000D03*
X160274000Y-52418000D03*
X168274000Y-70418000D03*
X168274000Y-48418000D03*
X166274000Y-50418000D03*
X166274000Y-66418000D03*
X168274000Y-60418000D03*
X160274000Y-56418000D03*
X160274000Y-78418000D03*
X168274000Y-52418000D03*
X160274000Y-60418000D03*
X162274000Y-54418000D03*
X162274000Y-56418000D03*
X166274000Y-74418000D03*
X164274000Y-50418000D03*
X166274000Y-46418000D03*
X170274000Y-48418000D03*
X174274000Y-48418000D03*
X162274000Y-58418000D03*
X164274000Y-70418000D03*
X170274000Y-76418000D03*
X160274000Y-80418000D03*
X160274000Y-54418000D03*
X166274000Y-58418000D03*
X172274000Y-64418000D03*
X172274000Y-80418000D03*
X162274000Y-72418000D03*
X164274000Y-66418000D03*
X172274000Y-46418000D03*
X168274000Y-58418000D03*
X174274000Y-44418000D03*
X160274000Y-46418000D03*
X168274000Y-46418000D03*
X172274000Y-76418000D03*
X162274000Y-74418000D03*
X170274000Y-68418000D03*
X174274000Y-68418000D03*
X164274000Y-44418000D03*
X172274000Y-70418000D03*
X164274000Y-48418000D03*
X174274000Y-42418000D03*
X160274000Y-76418000D03*
X162274000Y-60418000D03*
X166274000Y-64418000D03*
X160274000Y-58418000D03*
X174274000Y-72418000D03*
X166274000Y-54418000D03*
X170274000Y-52418000D03*
X162274000Y-76418000D03*
X170274000Y-54418000D03*
X174274000Y-46418000D03*
X172274000Y-52418000D03*
X164274000Y-74418000D03*
X174274000Y-54418000D03*
X172274000Y-42418000D03*
X174274000Y-64418000D03*
X164274000Y-80418000D03*
X160274000Y-44418000D03*
X166274000Y-80418000D03*
X162274000Y-62418000D03*
X166274000Y-44418000D03*
X174274000Y-66418000D03*
X174274000Y-52418000D03*
X170274000Y-50418000D03*
X170274000Y-44418000D03*
X168274000Y-76418000D03*
X162274000Y-66418000D03*
X172274000Y-68418000D03*
X174274000Y-62418000D03*
X162274000Y-70418000D03*
X162274000Y-46418000D03*
X168274000Y-66418000D03*
X172274000Y-72418000D03*
X166274000Y-62418000D03*
X172274000Y-60418000D03*
X168274000Y-68418000D03*
X160274000Y-66418000D03*
X160274000Y-74418000D03*
X168274000Y-44418000D03*
X162274000Y-50418000D03*
X164274000Y-42418000D03*
X166274000Y-70418000D03*
X166274000Y-48418000D03*
X164274000Y-58418000D03*
X160274000Y-64418000D03*
X170274000Y-70418000D03*
X170274000Y-64418000D03*
X164274000Y-60418000D03*
X170274000Y-78418000D03*
X170274000Y-74418000D03*
X174274000Y-58418000D03*
X168274000Y-42418000D03*
X172274000Y-56418000D03*
X160274000Y-50418000D03*
X170274000Y-42418000D03*
X170274000Y-58418000D03*
D19*
X110124000Y-83200000D02*
X110124000Y-83200000D01*
X102400000Y-83200000D02*
X112634002Y-83200000D01*
D20*
X117500000Y-53340000D02*
X109118000Y-44958000D01*
X109118000Y-44958000D02*
X108204000Y-44958000D01*
X112634002Y-83200000D02*
X114160000Y-83200000D01*
X132604315Y-74660000D02*
X133170000Y-74660000D01*
X114160000Y-83200000D02*
X122700000Y-74660000D01*
D21*
X132380000Y-76880000D02*
X132380000Y-75450000D01*
X132380000Y-75450000D02*
X133170000Y-74660000D01*
D20*
X122700000Y-74660000D02*
X132604315Y-74660000D01*
X114950000Y-83200000D02*
X114160000Y-83200000D01*
X121666000Y-89916000D02*
X114950000Y-83200000D01*
X132588000Y-89916000D02*
X121666000Y-89916000D01*
X134400000Y-88104000D02*
X134400000Y-87310000D01*
X132588000Y-89916000D02*
X134400000Y-88104000D01*
D21*
X133740000Y-86650000D02*
X134400000Y-87310000D01*
X132490000Y-86650000D02*
X133740000Y-86650000D01*
X127295000Y-60157000D02*
X109687000Y-60157000D01*
X137373000Y-60157000D02*
X127295000Y-60157000D01*
X139960305Y-62744305D02*
X137373000Y-60157000D01*
X139960305Y-72901152D02*
X139960305Y-62744305D01*
X137735001Y-86038999D02*
X137922000Y-85852000D01*
X131041999Y-86038999D02*
X137735001Y-86038999D01*
X131030998Y-86050000D02*
X131041999Y-86038999D01*
X129043010Y-86050000D02*
X131030998Y-86050000D01*
X126559010Y-83566000D02*
X129043010Y-86050000D01*
X144526000Y-81197501D02*
X134537501Y-91186000D01*
X144526000Y-79502000D02*
X144526000Y-81197501D01*
X134537501Y-91186000D02*
X125476000Y-91186000D01*
X138153406Y-67586594D02*
X138153406Y-67084594D01*
X135890000Y-69850000D02*
X138153406Y-67586594D01*
X135890000Y-75019002D02*
X135890000Y-69850000D01*
X132864001Y-78045001D02*
X135890000Y-75019002D01*
X128456999Y-78045001D02*
X132864001Y-78045001D01*
X125984000Y-80518000D02*
X128456999Y-78045001D01*
X125984000Y-84836000D02*
X125984000Y-80518000D01*
X126746000Y-85598000D02*
X125984000Y-84836000D01*
D22*
X177038000Y-113538000D02*
X183152000Y-113538000D01*
X183152000Y-113538000D02*
X184667000Y-112023000D01*
D23*
X187198006Y-101092000D02*
X189452000Y-103345994D01*
X189452000Y-103345994D02*
X189452000Y-124497998D01*
D21*
X155956000Y-130189000D02*
X155956000Y-129286000D01*
X151573000Y-124903000D02*
X150303000Y-124903000D01*
X155956000Y-129286000D02*
X151573000Y-124903000D01*
X153416000Y-131459000D02*
X153416000Y-130302000D01*
X153416000Y-130302000D02*
X149795000Y-126681000D01*
X149795000Y-126681000D02*
X148525000Y-126681000D01*
D20*
X148525000Y-126681000D02*
X150303000Y-124903000D01*
X144904000Y-130302000D02*
X148525000Y-126681000D01*
X152286006Y-122919994D02*
X182895996Y-122919994D01*
X150303000Y-124903000D02*
X152286006Y-122919994D01*
X182895996Y-122919994D02*
X182895996Y-122919994D01*
D21*
X172974000Y-129540000D02*
X172974000Y-130048000D01*
X172974000Y-130048000D02*
X170688000Y-132334000D01*
X128936000Y-132334000D02*
X126904000Y-130302000D01*
X156351000Y-132334000D02*
X155956000Y-131939000D01*
X170688000Y-132334000D02*
X156464000Y-132334000D01*
X156464000Y-132334000D02*
X156351000Y-132334000D01*
X155843000Y-131939000D02*
X155448000Y-132334000D01*
X155956000Y-131939000D02*
X155843000Y-131939000D01*
X155448000Y-132334000D02*
X128936000Y-132334000D01*
X156464000Y-132334000D02*
X155448000Y-132334000D01*
D23*
X105400000Y-98190000D02*
X105330000Y-98120000D01*
X105400000Y-114940000D02*
X105400000Y-98190000D01*
D21*
X126904000Y-119694000D02*
X126904000Y-130302000D01*
X105330000Y-98120000D02*
X126904000Y-119694000D01*
X125444000Y-132842000D02*
X122904000Y-130302000D01*
X175071999Y-128712001D02*
X170942000Y-132842000D01*
X153783000Y-132842000D02*
X153416000Y-133209000D01*
X153924000Y-132842000D02*
X153783000Y-132842000D01*
X170942000Y-132842000D02*
X153924000Y-132842000D01*
X153049000Y-132842000D02*
X153416000Y-133209000D01*
X152908000Y-132842000D02*
X153049000Y-132842000D01*
X153924000Y-132842000D02*
X152908000Y-132842000D01*
X152908000Y-132842000D02*
X125444000Y-132842000D01*
D22*
X132904000Y-124144000D02*
X132904000Y-130302000D01*
X155702000Y-101346000D02*
X132904000Y-124144000D01*
X175514000Y-101346000D02*
X155702000Y-101346000D01*
X176276000Y-102108000D02*
X175514000Y-101346000D01*
D21*
X127496000Y-86614000D02*
X126030000Y-88080000D01*
X127508000Y-86614000D02*
X127496000Y-86614000D01*
X138684000Y-80450990D02*
X137227010Y-80450990D01*
X144204990Y-74930000D02*
X138684000Y-80450990D01*
X117856000Y-61468000D02*
X117856000Y-61468000D01*
X118618000Y-60706000D02*
X117856000Y-61468000D01*
X139446000Y-72644000D02*
X139446000Y-62992000D01*
X136652000Y-75438000D02*
X139446000Y-72644000D01*
X139446000Y-62992000D02*
X137160000Y-60706000D01*
X136652000Y-80726982D02*
X136652000Y-75438000D01*
X137160000Y-60706000D02*
X118618000Y-60706000D01*
X137205018Y-81280000D02*
X136652000Y-80726982D01*
X139192000Y-81280000D02*
X137205018Y-81280000D01*
X173736000Y-120650000D02*
X166369998Y-120650000D01*
X173482000Y-128161969D02*
X168942969Y-128161969D01*
X168942969Y-128161969D02*
X166567500Y-125786500D01*
X167640000Y-127762000D02*
X166878004Y-127762000D01*
X174075283Y-128736979D02*
X168614979Y-128736979D01*
X168614979Y-128736979D02*
X167640000Y-127762000D01*
X174200282Y-128611980D02*
X174075283Y-128736979D01*
X109037000Y-60889000D02*
X109037000Y-63303000D01*
X109037000Y-63303000D02*
X107270000Y-65070000D01*
D23*
G36*
X157900000Y-82000000D02*
G01*
X157901921Y-82019509D01*
X157907612Y-82038268D01*
X157916853Y-82055557D01*
X157929289Y-82070711D01*
X157944443Y-82083147D01*
X157961732Y-82092388D01*
X157980491Y-82098079D01*
X158000000Y-82100000D01*
X198900000Y-82100000D01*
X198900000Y-138900000D01*
X101100000Y-138900000D01*
X101100000Y-135804862D01*
X103975848Y-135804862D01*
X104257878Y-136166543D01*
X104755599Y-136446901D01*
X105298451Y-136624772D01*
X105865574Y-136693320D01*
X106435173Y-136649910D01*
X106954390Y-136504862D01*
X192055848Y-136504862D01*
X192337878Y-136866543D01*
X192835599Y-137146901D01*
X193378451Y-137324772D01*
X193945574Y-137393320D01*
X194515173Y-137349910D01*
X195065358Y-137196211D01*
X195574986Y-136938129D01*
X195682122Y-136866543D01*
X195964152Y-136504862D01*
X194010000Y-134550711D01*
X192055848Y-136504862D01*
X106954390Y-136504862D01*
X106985358Y-136496211D01*
X107494986Y-136238129D01*
X107602122Y-136166543D01*
X107884152Y-135804862D01*
X105930000Y-133850711D01*
X103975848Y-135804862D01*
X101100000Y-135804862D01*
X101100000Y-133715574D01*
X103016680Y-133715574D01*
X103060090Y-134285173D01*
X103213789Y-134835358D01*
X103471871Y-135344986D01*
X103543457Y-135452122D01*
X103905138Y-135734152D01*
X105859289Y-133780000D01*
X106000711Y-133780000D01*
X107954862Y-135734152D01*
X108316543Y-135452122D01*
X108596901Y-134954401D01*
X108773453Y-134415574D01*
X191096680Y-134415574D01*
X191140090Y-134985173D01*
X191293789Y-135535358D01*
X191551871Y-136044986D01*
X191623457Y-136152122D01*
X191985138Y-136434152D01*
X193939289Y-134480000D01*
X194080711Y-134480000D01*
X196034862Y-136434152D01*
X196396543Y-136152122D01*
X196676901Y-135654401D01*
X196854772Y-135111549D01*
X196923320Y-134544426D01*
X196879910Y-133974827D01*
X196726211Y-133424642D01*
X196468129Y-132915014D01*
X196396543Y-132807878D01*
X196034862Y-132525848D01*
X194080711Y-134480000D01*
X193939289Y-134480000D01*
X191985138Y-132525848D01*
X191623457Y-132807878D01*
X191343099Y-133305599D01*
X191165228Y-133848451D01*
X191096680Y-134415574D01*
X108773453Y-134415574D01*
X108774772Y-134411549D01*
X108843320Y-133844426D01*
X108799910Y-133274827D01*
X108646211Y-132724642D01*
X108388129Y-132215014D01*
X108316543Y-132107878D01*
X107954862Y-131825848D01*
X106000711Y-133780000D01*
X105859289Y-133780000D01*
X103905138Y-131825848D01*
X103543457Y-132107878D01*
X103263099Y-132605599D01*
X103085228Y-133148451D01*
X103016680Y-133715574D01*
X101100000Y-133715574D01*
X101100000Y-131755138D01*
X103975848Y-131755138D01*
X105930000Y-133709289D01*
X107884152Y-131755138D01*
X107602122Y-131393457D01*
X107104401Y-131113099D01*
X106689035Y-130977000D01*
X119827065Y-130977000D01*
X119834788Y-131055414D01*
X119857660Y-131130814D01*
X119894803Y-131200303D01*
X119944789Y-131261211D01*
X120005697Y-131311197D01*
X120075186Y-131348340D01*
X120150586Y-131371212D01*
X120229000Y-131378935D01*
X120754000Y-131377000D01*
X120854000Y-131277000D01*
X120854000Y-130352000D01*
X119929000Y-130352000D01*
X119829000Y-130452000D01*
X119827065Y-130977000D01*
X106689035Y-130977000D01*
X106561549Y-130935228D01*
X105994426Y-130866680D01*
X105424827Y-130910090D01*
X104874642Y-131063789D01*
X104365014Y-131321871D01*
X104257878Y-131393457D01*
X103975848Y-131755138D01*
X101100000Y-131755138D01*
X101100000Y-129627000D01*
X119827065Y-129627000D01*
X119829000Y-130152000D01*
X119929000Y-130252000D01*
X120854000Y-130252000D01*
X120854000Y-129327000D01*
X120754000Y-129227000D01*
X120229000Y-129225065D01*
X120150586Y-129232788D01*
X120075186Y-129255660D01*
X120005697Y-129292803D01*
X119944789Y-129342789D01*
X119894803Y-129403697D01*
X119857660Y-129473186D01*
X119834788Y-129548586D01*
X119827065Y-129627000D01*
X101100000Y-129627000D01*
X101100000Y-124165000D01*
X112307549Y-124165000D01*
X112307549Y-125515000D01*
X112313341Y-125573810D01*
X112330496Y-125630360D01*
X112358353Y-125682477D01*
X112395842Y-125728158D01*
X112441523Y-125765647D01*
X112493640Y-125793504D01*
X112550190Y-125810659D01*
X112609000Y-125816451D01*
X113959000Y-125816451D01*
X114017810Y-125810659D01*
X114074360Y-125793504D01*
X114126477Y-125765647D01*
X114172158Y-125728158D01*
X114209647Y-125682477D01*
X114237504Y-125630360D01*
X114254659Y-125573810D01*
X114260451Y-125515000D01*
X114260451Y-124165000D01*
X114254659Y-124106190D01*
X114237504Y-124049640D01*
X114209647Y-123997523D01*
X114172158Y-123951842D01*
X114126477Y-123914353D01*
X114074360Y-123886496D01*
X114017810Y-123869341D01*
X113959000Y-123863549D01*
X112609000Y-123863549D01*
X112550190Y-123869341D01*
X112493640Y-123886496D01*
X112441523Y-123914353D01*
X112395842Y-123951842D01*
X112358353Y-123997523D01*
X112330496Y-124049640D01*
X112313341Y-124106190D01*
X112307549Y-124165000D01*
X101100000Y-124165000D01*
X101100000Y-122743971D01*
X112309000Y-122743971D01*
X112309000Y-122936029D01*
X112346468Y-123124397D01*
X112419966Y-123301836D01*
X112526668Y-123461527D01*
X112662473Y-123597332D01*
X112822164Y-123704034D01*
X112999603Y-123777532D01*
X113187971Y-123815000D01*
X113380029Y-123815000D01*
X113568397Y-123777532D01*
X113745836Y-123704034D01*
X113905527Y-123597332D01*
X114041332Y-123461527D01*
X114148034Y-123301836D01*
X114221532Y-123124397D01*
X114259000Y-122936029D01*
X114259000Y-122743971D01*
X114221532Y-122555603D01*
X114148034Y-122378164D01*
X114041332Y-122218473D01*
X113905527Y-122082668D01*
X113745836Y-121975966D01*
X113568397Y-121902468D01*
X113380029Y-121865000D01*
X113187971Y-121865000D01*
X112999603Y-121902468D01*
X112822164Y-121975966D01*
X112662473Y-122082668D01*
X112526668Y-122218473D01*
X112419966Y-122378164D01*
X112346468Y-122555603D01*
X112309000Y-122743971D01*
X101100000Y-122743971D01*
X101100000Y-120743971D01*
X112309000Y-120743971D01*
X112309000Y-120936029D01*
X112346468Y-121124397D01*
X112419966Y-121301836D01*
X112526668Y-121461527D01*
X112662473Y-121597332D01*
X112822164Y-121704034D01*
X112999603Y-121777532D01*
X113187971Y-121815000D01*
X113380029Y-121815000D01*
X113568397Y-121777532D01*
X113745836Y-121704034D01*
X113905527Y-121597332D01*
X114041332Y-121461527D01*
X114148034Y-121301836D01*
X114221532Y-121124397D01*
X114259000Y-120936029D01*
X114259000Y-120743971D01*
X114221532Y-120555603D01*
X114148034Y-120378164D01*
X114041332Y-120218473D01*
X113905527Y-120082668D01*
X113745836Y-119975966D01*
X113568397Y-119902468D01*
X113380029Y-119865000D01*
X113187971Y-119865000D01*
X112999603Y-119902468D01*
X112822164Y-119975966D01*
X112662473Y-120082668D01*
X112526668Y-120218473D01*
X112419966Y-120378164D01*
X112346468Y-120555603D01*
X112309000Y-120743971D01*
X101100000Y-120743971D01*
X101100000Y-118743971D01*
X112309000Y-118743971D01*
X112309000Y-118936029D01*
X112346468Y-119124397D01*
X112419966Y-119301836D01*
X112526668Y-119461527D01*
X112662473Y-119597332D01*
X112822164Y-119704034D01*
X112999603Y-119777532D01*
X113187971Y-119815000D01*
X113380029Y-119815000D01*
X113568397Y-119777532D01*
X113745836Y-119704034D01*
X113905527Y-119597332D01*
X114041332Y-119461527D01*
X114148034Y-119301836D01*
X114221532Y-119124397D01*
X114259000Y-118936029D01*
X114259000Y-118743971D01*
X114221532Y-118555603D01*
X114148034Y-118378164D01*
X114041332Y-118218473D01*
X113905527Y-118082668D01*
X113745836Y-117975966D01*
X113568397Y-117902468D01*
X113380029Y-117865000D01*
X113187971Y-117865000D01*
X112999603Y-117902468D01*
X112822164Y-117975966D01*
X112662473Y-118082668D01*
X112526668Y-118218473D01*
X112419966Y-118378164D01*
X112346468Y-118555603D01*
X112309000Y-118743971D01*
X101100000Y-118743971D01*
X101100000Y-116743971D01*
X112309000Y-116743971D01*
X112309000Y-116936029D01*
X112346468Y-117124397D01*
X112419966Y-117301836D01*
X112526668Y-117461527D01*
X112662473Y-117597332D01*
X112822164Y-117704034D01*
X112999603Y-117777532D01*
X113187971Y-117815000D01*
X113380029Y-117815000D01*
X113568397Y-117777532D01*
X113745836Y-117704034D01*
X113905527Y-117597332D01*
X114041332Y-117461527D01*
X114148034Y-117301836D01*
X114221532Y-117124397D01*
X114259000Y-116936029D01*
X114259000Y-116743971D01*
X114221532Y-116555603D01*
X114148034Y-116378164D01*
X114041332Y-116218473D01*
X113905527Y-116082668D01*
X113745836Y-115975966D01*
X113568397Y-115902468D01*
X113380029Y-115865000D01*
X113187971Y-115865000D01*
X112999603Y-115902468D01*
X112822164Y-115975966D01*
X112662473Y-116082668D01*
X112526668Y-116218473D01*
X112419966Y-116378164D01*
X112346468Y-116555603D01*
X112309000Y-116743971D01*
X101100000Y-116743971D01*
X101100000Y-98065830D01*
X104780000Y-98065830D01*
X104780000Y-98174170D01*
X104801136Y-98280429D01*
X104842597Y-98380523D01*
X104902787Y-98470604D01*
X104979396Y-98547213D01*
X105000001Y-98560981D01*
X105000000Y-114562183D01*
X104972787Y-114589396D01*
X104912597Y-114679477D01*
X104871136Y-114779571D01*
X104850000Y-114885830D01*
X104850000Y-114994170D01*
X104871136Y-115100429D01*
X104912597Y-115200523D01*
X104972787Y-115290604D01*
X105049396Y-115367213D01*
X105139477Y-115427403D01*
X105239571Y-115468864D01*
X105345830Y-115490000D01*
X105454170Y-115490000D01*
X105560429Y-115468864D01*
X105660523Y-115427403D01*
X105750604Y-115367213D01*
X105827213Y-115290604D01*
X105887403Y-115200523D01*
X105928864Y-115100429D01*
X105950000Y-114994170D01*
X105950000Y-114885830D01*
X105928864Y-114779571D01*
X105914118Y-114743971D01*
X112309000Y-114743971D01*
X112309000Y-114936029D01*
X112346468Y-115124397D01*
X112419966Y-115301836D01*
X112526668Y-115461527D01*
X112662473Y-115597332D01*
X112822164Y-115704034D01*
X112999603Y-115777532D01*
X113187971Y-115815000D01*
X113380029Y-115815000D01*
X113568397Y-115777532D01*
X113745836Y-115704034D01*
X113905527Y-115597332D01*
X114041332Y-115461527D01*
X114148034Y-115301836D01*
X114221532Y-115124397D01*
X114259000Y-114936029D01*
X114259000Y-114743971D01*
X114221532Y-114555603D01*
X114148034Y-114378164D01*
X114041332Y-114218473D01*
X113905527Y-114082668D01*
X113745836Y-113975966D01*
X113568397Y-113902468D01*
X113380029Y-113865000D01*
X113187971Y-113865000D01*
X112999603Y-113902468D01*
X112822164Y-113975966D01*
X112662473Y-114082668D01*
X112526668Y-114218473D01*
X112419966Y-114378164D01*
X112346468Y-114555603D01*
X112309000Y-114743971D01*
X105914118Y-114743971D01*
X105887403Y-114679477D01*
X105827213Y-114589396D01*
X105800000Y-114562183D01*
X105800000Y-112743971D01*
X112309000Y-112743971D01*
X112309000Y-112936029D01*
X112346468Y-113124397D01*
X112419966Y-113301836D01*
X112526668Y-113461527D01*
X112662473Y-113597332D01*
X112822164Y-113704034D01*
X112999603Y-113777532D01*
X113187971Y-113815000D01*
X113380029Y-113815000D01*
X113568397Y-113777532D01*
X113745836Y-113704034D01*
X113905527Y-113597332D01*
X114041332Y-113461527D01*
X114148034Y-113301836D01*
X114221532Y-113124397D01*
X114259000Y-112936029D01*
X114259000Y-112743971D01*
X114221532Y-112555603D01*
X114148034Y-112378164D01*
X114041332Y-112218473D01*
X113905527Y-112082668D01*
X113745836Y-111975966D01*
X113568397Y-111902468D01*
X113380029Y-111865000D01*
X113187971Y-111865000D01*
X112999603Y-111902468D01*
X112822164Y-111975966D01*
X112662473Y-112082668D01*
X112526668Y-112218473D01*
X112419966Y-112378164D01*
X112346468Y-112555603D01*
X112309000Y-112743971D01*
X105800000Y-112743971D01*
X105800000Y-110743971D01*
X112309000Y-110743971D01*
X112309000Y-110936029D01*
X112346468Y-111124397D01*
X112419966Y-111301836D01*
X112526668Y-111461527D01*
X112662473Y-111597332D01*
X112822164Y-111704034D01*
X112999603Y-111777532D01*
X113187971Y-111815000D01*
X113380029Y-111815000D01*
X113568397Y-111777532D01*
X113745836Y-111704034D01*
X113905527Y-111597332D01*
X114041332Y-111461527D01*
X114148034Y-111301836D01*
X114221532Y-111124397D01*
X114259000Y-110936029D01*
X114259000Y-110743971D01*
X114221532Y-110555603D01*
X114148034Y-110378164D01*
X114041332Y-110218473D01*
X113905527Y-110082668D01*
X113745836Y-109975966D01*
X113568397Y-109902468D01*
X113380029Y-109865000D01*
X113187971Y-109865000D01*
X112999603Y-109902468D01*
X112822164Y-109975966D01*
X112662473Y-110082668D01*
X112526668Y-110218473D01*
X112419966Y-110378164D01*
X112346468Y-110555603D01*
X112309000Y-110743971D01*
X105800000Y-110743971D01*
X105800000Y-99191040D01*
X126479000Y-119870041D01*
X126479001Y-129422708D01*
X126442164Y-129437966D01*
X126282473Y-129544668D01*
X126146668Y-129680473D01*
X126039966Y-129840164D01*
X125966468Y-130017603D01*
X125954563Y-130077454D01*
X125894161Y-129883416D01*
X125793474Y-129698288D01*
X125658605Y-129536360D01*
X125494737Y-129403855D01*
X125308167Y-129305866D01*
X125121370Y-129249205D01*
X124954000Y-129328283D01*
X124954000Y-130252000D01*
X124974000Y-130252000D01*
X124974000Y-130352000D01*
X124954000Y-130352000D01*
X124954000Y-131275717D01*
X125121370Y-131354795D01*
X125308167Y-131298134D01*
X125494737Y-131200145D01*
X125658605Y-131067640D01*
X125793474Y-130905712D01*
X125894161Y-130720584D01*
X125954563Y-130526546D01*
X125966468Y-130586397D01*
X126039966Y-130763836D01*
X126146668Y-130923527D01*
X126282473Y-131059332D01*
X126442164Y-131166034D01*
X126619603Y-131239532D01*
X126807971Y-131277000D01*
X127000029Y-131277000D01*
X127188397Y-131239532D01*
X127225233Y-131224274D01*
X128417959Y-132417000D01*
X125620041Y-132417000D01*
X124501759Y-131298718D01*
X124686630Y-131354795D01*
X124854000Y-131275717D01*
X124854000Y-130352000D01*
X124834000Y-130352000D01*
X124834000Y-130252000D01*
X124854000Y-130252000D01*
X124854000Y-129328283D01*
X124686630Y-129249205D01*
X124499833Y-129305866D01*
X124313263Y-129403855D01*
X124149395Y-129536360D01*
X124014526Y-129698288D01*
X123913839Y-129883416D01*
X123853437Y-130077454D01*
X123841532Y-130017603D01*
X123768034Y-129840164D01*
X123661332Y-129680473D01*
X123525527Y-129544668D01*
X123365836Y-129437966D01*
X123188397Y-129364468D01*
X123000029Y-129327000D01*
X122807971Y-129327000D01*
X122619603Y-129364468D01*
X122442164Y-129437966D01*
X122282473Y-129544668D01*
X122146668Y-129680473D01*
X122039966Y-129840164D01*
X121979612Y-129985870D01*
X121980935Y-129627000D01*
X121973212Y-129548586D01*
X121950340Y-129473186D01*
X121913197Y-129403697D01*
X121863211Y-129342789D01*
X121802303Y-129292803D01*
X121732814Y-129255660D01*
X121657414Y-129232788D01*
X121579000Y-129225065D01*
X121054000Y-129227000D01*
X120954000Y-129327000D01*
X120954000Y-130252000D01*
X120974000Y-130252000D01*
X120974000Y-130352000D01*
X120954000Y-130352000D01*
X120954000Y-131277000D01*
X121054000Y-131377000D01*
X121579000Y-131378935D01*
X121657414Y-131371212D01*
X121732814Y-131348340D01*
X121802303Y-131311197D01*
X121863211Y-131261211D01*
X121913197Y-131200303D01*
X121950340Y-131130814D01*
X121973212Y-131055414D01*
X121980935Y-130977000D01*
X121979612Y-130618130D01*
X122039966Y-130763836D01*
X122146668Y-130923527D01*
X122282473Y-131059332D01*
X122442164Y-131166034D01*
X122619603Y-131239532D01*
X122807971Y-131277000D01*
X123000029Y-131277000D01*
X123188397Y-131239532D01*
X123225233Y-131224274D01*
X125128719Y-133127760D01*
X125142026Y-133143974D01*
X125206740Y-133197084D01*
X125280573Y-133236548D01*
X125336383Y-133253478D01*
X125360685Y-133260850D01*
X125369098Y-133261679D01*
X125423126Y-133267000D01*
X125423132Y-133267000D01*
X125443999Y-133269055D01*
X125464866Y-133267000D01*
X152639549Y-133267000D01*
X152639549Y-133496500D01*
X152649905Y-133601644D01*
X152680574Y-133702748D01*
X152730379Y-133795925D01*
X152797404Y-133877596D01*
X152879075Y-133944621D01*
X152972252Y-133994426D01*
X153073356Y-134025095D01*
X153178500Y-134035451D01*
X153653500Y-134035451D01*
X153758644Y-134025095D01*
X153859748Y-133994426D01*
X153952925Y-133944621D01*
X154034596Y-133877596D01*
X154101621Y-133795925D01*
X154151426Y-133702748D01*
X154182095Y-133601644D01*
X154192451Y-133496500D01*
X154192451Y-133267000D01*
X170921133Y-133267000D01*
X170942000Y-133269055D01*
X170962867Y-133267000D01*
X170962874Y-133267000D01*
X171025314Y-133260850D01*
X171105427Y-133236548D01*
X171179260Y-133197084D01*
X171243974Y-133143974D01*
X171257284Y-133127756D01*
X171929902Y-132455138D01*
X192055848Y-132455138D01*
X194010000Y-134409289D01*
X195964152Y-132455138D01*
X195682122Y-132093457D01*
X195184401Y-131813099D01*
X194641549Y-131635228D01*
X194074426Y-131566680D01*
X193504827Y-131610090D01*
X192954642Y-131763789D01*
X192445014Y-132021871D01*
X192337878Y-132093457D01*
X192055848Y-132455138D01*
X171929902Y-132455138D01*
X175123039Y-129262001D01*
X175126169Y-129262001D01*
X175232428Y-129240865D01*
X175332522Y-129199404D01*
X175422603Y-129139214D01*
X175499212Y-129062605D01*
X175559402Y-128972524D01*
X175600863Y-128872430D01*
X175621999Y-128766171D01*
X175621999Y-128657831D01*
X175600863Y-128551572D01*
X175559402Y-128451478D01*
X175499212Y-128361397D01*
X175422603Y-128284788D01*
X175332522Y-128224598D01*
X175232428Y-128183137D01*
X175126169Y-128162001D01*
X175017829Y-128162001D01*
X174911570Y-128183137D01*
X174811476Y-128224598D01*
X174721395Y-128284788D01*
X174674484Y-128331699D01*
X174627495Y-128261376D01*
X174550886Y-128184767D01*
X174460805Y-128124577D01*
X174360711Y-128083116D01*
X174254452Y-128061980D01*
X174146112Y-128061980D01*
X174039853Y-128083116D01*
X174028062Y-128088000D01*
X174010864Y-128001540D01*
X173969403Y-127901446D01*
X173909213Y-127811365D01*
X173832604Y-127734756D01*
X173742523Y-127674566D01*
X173642429Y-127633105D01*
X173536170Y-127611969D01*
X173427830Y-127611969D01*
X173321571Y-127633105D01*
X173221477Y-127674566D01*
X173131396Y-127734756D01*
X173129183Y-127736969D01*
X169119010Y-127736969D01*
X167117500Y-125735460D01*
X167117500Y-125732330D01*
X167096364Y-125626071D01*
X167054903Y-125525977D01*
X166994713Y-125435896D01*
X166918104Y-125359287D01*
X166828023Y-125299097D01*
X166727929Y-125257636D01*
X166621670Y-125236500D01*
X166513330Y-125236500D01*
X166407071Y-125257636D01*
X166306977Y-125299097D01*
X166216896Y-125359287D01*
X166140287Y-125435896D01*
X166080097Y-125525977D01*
X166038636Y-125626071D01*
X166017500Y-125732330D01*
X166017500Y-125840670D01*
X166038636Y-125946929D01*
X166080097Y-126047023D01*
X166140287Y-126137104D01*
X166216896Y-126213713D01*
X166306977Y-126273903D01*
X166407071Y-126315364D01*
X166513330Y-126336500D01*
X166516460Y-126336500D01*
X167516959Y-127337000D01*
X167230821Y-127337000D01*
X167228608Y-127334787D01*
X167138527Y-127274597D01*
X167038433Y-127233136D01*
X166932174Y-127212000D01*
X166823834Y-127212000D01*
X166717575Y-127233136D01*
X166617481Y-127274597D01*
X166527400Y-127334787D01*
X166450791Y-127411396D01*
X166390601Y-127501477D01*
X166349140Y-127601571D01*
X166328004Y-127707830D01*
X166328004Y-127816170D01*
X166349140Y-127922429D01*
X166390601Y-128022523D01*
X166450791Y-128112604D01*
X166527400Y-128189213D01*
X166617481Y-128249403D01*
X166717575Y-128290864D01*
X166823834Y-128312000D01*
X166932174Y-128312000D01*
X167038433Y-128290864D01*
X167138527Y-128249403D01*
X167228608Y-128189213D01*
X167230821Y-128187000D01*
X167463960Y-128187000D01*
X168299695Y-129022735D01*
X168313005Y-129038953D01*
X168377719Y-129092063D01*
X168434800Y-129122573D01*
X168451552Y-129131527D01*
X168531665Y-129155829D01*
X168614979Y-129164035D01*
X168635853Y-129161979D01*
X172574204Y-129161979D01*
X172546787Y-129189396D01*
X172486597Y-129279477D01*
X172445136Y-129379571D01*
X172424000Y-129485830D01*
X172424000Y-129594170D01*
X172445136Y-129700429D01*
X172486597Y-129800523D01*
X172540205Y-129880754D01*
X170511960Y-131909000D01*
X156732451Y-131909000D01*
X156732451Y-131651500D01*
X156722095Y-131546356D01*
X156691426Y-131445252D01*
X156641621Y-131352075D01*
X156574596Y-131270404D01*
X156492925Y-131203379D01*
X156399748Y-131153574D01*
X156298644Y-131122905D01*
X156193500Y-131112549D01*
X155718500Y-131112549D01*
X155613356Y-131122905D01*
X155512252Y-131153574D01*
X155419075Y-131203379D01*
X155337404Y-131270404D01*
X155270379Y-131352075D01*
X155220574Y-131445252D01*
X155189905Y-131546356D01*
X155179549Y-131651500D01*
X155179549Y-131909000D01*
X154164697Y-131909000D01*
X154182095Y-131851644D01*
X154192451Y-131746500D01*
X154192451Y-131171500D01*
X154182095Y-131066356D01*
X154151426Y-130965252D01*
X154101621Y-130872075D01*
X154034596Y-130790404D01*
X153952925Y-130723379D01*
X153859748Y-130673574D01*
X153841000Y-130667887D01*
X153841000Y-130322866D01*
X153843055Y-130301999D01*
X153841000Y-130281132D01*
X153841000Y-130281126D01*
X153834850Y-130218686D01*
X153832649Y-130211428D01*
X153814621Y-130152000D01*
X153810548Y-130138573D01*
X153771084Y-130064740D01*
X153717974Y-130000026D01*
X153701761Y-129986720D01*
X150110284Y-126395243D01*
X150096974Y-126379026D01*
X150032260Y-126325916D01*
X150018701Y-126318669D01*
X151009370Y-125328000D01*
X151396960Y-125328000D01*
X155486368Y-129417409D01*
X155419075Y-129453379D01*
X155337404Y-129520404D01*
X155270379Y-129602075D01*
X155220574Y-129695252D01*
X155189905Y-129796356D01*
X155179549Y-129901500D01*
X155179549Y-130476500D01*
X155189905Y-130581644D01*
X155220574Y-130682748D01*
X155270379Y-130775925D01*
X155337404Y-130857596D01*
X155419075Y-130924621D01*
X155512252Y-130974426D01*
X155613356Y-131005095D01*
X155718500Y-131015451D01*
X156193500Y-131015451D01*
X156298644Y-131005095D01*
X156399748Y-130974426D01*
X156492925Y-130924621D01*
X156574596Y-130857596D01*
X156641621Y-130775925D01*
X156691426Y-130682748D01*
X156722095Y-130581644D01*
X156732451Y-130476500D01*
X156732451Y-129901500D01*
X156722095Y-129796356D01*
X156691426Y-129695252D01*
X156641621Y-129602075D01*
X156574596Y-129520404D01*
X156492925Y-129453379D01*
X156399748Y-129403574D01*
X156381000Y-129397887D01*
X156381000Y-129306866D01*
X156383055Y-129285999D01*
X156381000Y-129265132D01*
X156381000Y-129265126D01*
X156374850Y-129202686D01*
X156373855Y-129199404D01*
X156362502Y-129161980D01*
X156350548Y-129122573D01*
X156311084Y-129048740D01*
X156257974Y-128984026D01*
X156241762Y-128970721D01*
X151888284Y-124617244D01*
X151874974Y-124601026D01*
X151810260Y-124547916D01*
X151796702Y-124540669D01*
X152617377Y-123719994D01*
X182935289Y-123719994D01*
X183052823Y-123708418D01*
X183203624Y-123662673D01*
X183342602Y-123588387D01*
X183464418Y-123488416D01*
X183564389Y-123366600D01*
X183638675Y-123227622D01*
X183684420Y-123076821D01*
X183699866Y-122919994D01*
X183684420Y-122763167D01*
X183638675Y-122612366D01*
X183564389Y-122473388D01*
X183464418Y-122351572D01*
X183342602Y-122251601D01*
X183203624Y-122177315D01*
X183052823Y-122131570D01*
X182935289Y-122119994D01*
X152325297Y-122119994D01*
X152286006Y-122116124D01*
X152246715Y-122119994D01*
X152246713Y-122119994D01*
X152129179Y-122131570D01*
X151978378Y-122177315D01*
X151839399Y-122251601D01*
X151780837Y-122299662D01*
X151717584Y-122351572D01*
X151692537Y-122382092D01*
X149765099Y-124309531D01*
X147987104Y-126087526D01*
X147987098Y-126087531D01*
X144732647Y-129341983D01*
X144619603Y-129364468D01*
X144442164Y-129437966D01*
X144282473Y-129544668D01*
X144146668Y-129680473D01*
X144039966Y-129840164D01*
X143966468Y-130017603D01*
X143954563Y-130077454D01*
X143894161Y-129883416D01*
X143793474Y-129698288D01*
X143658605Y-129536360D01*
X143494737Y-129403855D01*
X143308167Y-129305866D01*
X143121370Y-129249205D01*
X142954000Y-129328283D01*
X142954000Y-130252000D01*
X142974000Y-130252000D01*
X142974000Y-130352000D01*
X142954000Y-130352000D01*
X142954000Y-131275717D01*
X143121370Y-131354795D01*
X143308167Y-131298134D01*
X143494737Y-131200145D01*
X143658605Y-131067640D01*
X143793474Y-130905712D01*
X143894161Y-130720584D01*
X143954563Y-130526546D01*
X143966468Y-130586397D01*
X144039966Y-130763836D01*
X144146668Y-130923527D01*
X144282473Y-131059332D01*
X144442164Y-131166034D01*
X144619603Y-131239532D01*
X144807971Y-131277000D01*
X145000029Y-131277000D01*
X145188397Y-131239532D01*
X145365836Y-131166034D01*
X145525527Y-131059332D01*
X145661332Y-130923527D01*
X145768034Y-130763836D01*
X145841532Y-130586397D01*
X145853437Y-130526546D01*
X145913839Y-130720584D01*
X146014526Y-130905712D01*
X146149395Y-131067640D01*
X146313263Y-131200145D01*
X146499833Y-131298134D01*
X146686630Y-131354795D01*
X146854000Y-131275717D01*
X146854000Y-130352000D01*
X146954000Y-130352000D01*
X146954000Y-131275717D01*
X147121370Y-131354795D01*
X147308167Y-131298134D01*
X147494737Y-131200145D01*
X147658605Y-131067640D01*
X147793474Y-130905712D01*
X147894161Y-130720584D01*
X147956797Y-130519370D01*
X147877839Y-130352000D01*
X146954000Y-130352000D01*
X146854000Y-130352000D01*
X146834000Y-130352000D01*
X146834000Y-130252000D01*
X146854000Y-130252000D01*
X146854000Y-130232000D01*
X146954000Y-130232000D01*
X146954000Y-130252000D01*
X147877839Y-130252000D01*
X147956797Y-130084630D01*
X147894161Y-129883416D01*
X147793474Y-129698288D01*
X147658605Y-129536360D01*
X147494737Y-129403855D01*
X147308167Y-129305866D01*
X147121370Y-129249205D01*
X147058426Y-129278944D01*
X149118469Y-127218902D01*
X149118474Y-127218896D01*
X149231370Y-127106000D01*
X149618960Y-127106000D01*
X152991001Y-130478042D01*
X152991001Y-130667887D01*
X152972252Y-130673574D01*
X152879075Y-130723379D01*
X152797404Y-130790404D01*
X152730379Y-130872075D01*
X152680574Y-130965252D01*
X152649905Y-131066356D01*
X152639549Y-131171500D01*
X152639549Y-131746500D01*
X152649905Y-131851644D01*
X152667303Y-131909000D01*
X129112041Y-131909000D01*
X128501759Y-131298718D01*
X128686630Y-131354795D01*
X128854000Y-131275717D01*
X128854000Y-130352000D01*
X128834000Y-130352000D01*
X128834000Y-130252000D01*
X128854000Y-130252000D01*
X128854000Y-129328283D01*
X128954000Y-129328283D01*
X128954000Y-130252000D01*
X128974000Y-130252000D01*
X128974000Y-130352000D01*
X128954000Y-130352000D01*
X128954000Y-131275717D01*
X129121370Y-131354795D01*
X129308167Y-131298134D01*
X129494737Y-131200145D01*
X129658605Y-131067640D01*
X129793474Y-130905712D01*
X129894161Y-130720584D01*
X129954563Y-130526546D01*
X129966468Y-130586397D01*
X130039966Y-130763836D01*
X130146668Y-130923527D01*
X130282473Y-131059332D01*
X130442164Y-131166034D01*
X130619603Y-131239532D01*
X130807971Y-131277000D01*
X131000029Y-131277000D01*
X131188397Y-131239532D01*
X131365836Y-131166034D01*
X131525527Y-131059332D01*
X131661332Y-130923527D01*
X131768034Y-130763836D01*
X131841532Y-130586397D01*
X131879000Y-130398029D01*
X131879000Y-130205971D01*
X131929000Y-130205971D01*
X131929000Y-130398029D01*
X131966468Y-130586397D01*
X132039966Y-130763836D01*
X132146668Y-130923527D01*
X132282473Y-131059332D01*
X132442164Y-131166034D01*
X132619603Y-131239532D01*
X132807971Y-131277000D01*
X133000029Y-131277000D01*
X133188397Y-131239532D01*
X133365836Y-131166034D01*
X133525527Y-131059332D01*
X133661332Y-130923527D01*
X133768034Y-130763836D01*
X133841532Y-130586397D01*
X133853437Y-130526546D01*
X133913839Y-130720584D01*
X134014526Y-130905712D01*
X134149395Y-131067640D01*
X134313263Y-131200145D01*
X134499833Y-131298134D01*
X134686630Y-131354795D01*
X134854000Y-131275717D01*
X134854000Y-130352000D01*
X134834000Y-130352000D01*
X134834000Y-130252000D01*
X134854000Y-130252000D01*
X134854000Y-129328283D01*
X134954000Y-129328283D01*
X134954000Y-130252000D01*
X134974000Y-130252000D01*
X134974000Y-130352000D01*
X134954000Y-130352000D01*
X134954000Y-131275717D01*
X135121370Y-131354795D01*
X135308167Y-131298134D01*
X135494737Y-131200145D01*
X135658605Y-131067640D01*
X135793474Y-130905712D01*
X135894161Y-130720584D01*
X135954563Y-130526546D01*
X135966468Y-130586397D01*
X136039966Y-130763836D01*
X136146668Y-130923527D01*
X136282473Y-131059332D01*
X136442164Y-131166034D01*
X136619603Y-131239532D01*
X136807971Y-131277000D01*
X137000029Y-131277000D01*
X137188397Y-131239532D01*
X137365836Y-131166034D01*
X137525527Y-131059332D01*
X137661332Y-130923527D01*
X137768034Y-130763836D01*
X137841532Y-130586397D01*
X137853437Y-130526546D01*
X137913839Y-130720584D01*
X138014526Y-130905712D01*
X138149395Y-131067640D01*
X138313263Y-131200145D01*
X138499833Y-131298134D01*
X138686630Y-131354795D01*
X138854000Y-131275717D01*
X138854000Y-130352000D01*
X138834000Y-130352000D01*
X138834000Y-130252000D01*
X138854000Y-130252000D01*
X138854000Y-129328283D01*
X138954000Y-129328283D01*
X138954000Y-130252000D01*
X138974000Y-130252000D01*
X138974000Y-130352000D01*
X138954000Y-130352000D01*
X138954000Y-131275717D01*
X139121370Y-131354795D01*
X139308167Y-131298134D01*
X139494737Y-131200145D01*
X139658605Y-131067640D01*
X139793474Y-130905712D01*
X139894161Y-130720584D01*
X139954563Y-130526546D01*
X139966468Y-130586397D01*
X140039966Y-130763836D01*
X140146668Y-130923527D01*
X140282473Y-131059332D01*
X140442164Y-131166034D01*
X140619603Y-131239532D01*
X140807971Y-131277000D01*
X141000029Y-131277000D01*
X141188397Y-131239532D01*
X141365836Y-131166034D01*
X141525527Y-131059332D01*
X141661332Y-130923527D01*
X141768034Y-130763836D01*
X141841532Y-130586397D01*
X141853437Y-130526546D01*
X141913839Y-130720584D01*
X142014526Y-130905712D01*
X142149395Y-131067640D01*
X142313263Y-131200145D01*
X142499833Y-131298134D01*
X142686630Y-131354795D01*
X142854000Y-131275717D01*
X142854000Y-130352000D01*
X142834000Y-130352000D01*
X142834000Y-130252000D01*
X142854000Y-130252000D01*
X142854000Y-129328283D01*
X142686630Y-129249205D01*
X142499833Y-129305866D01*
X142313263Y-129403855D01*
X142149395Y-129536360D01*
X142014526Y-129698288D01*
X141913839Y-129883416D01*
X141853437Y-130077454D01*
X141841532Y-130017603D01*
X141768034Y-129840164D01*
X141661332Y-129680473D01*
X141525527Y-129544668D01*
X141365836Y-129437966D01*
X141188397Y-129364468D01*
X141000029Y-129327000D01*
X140807971Y-129327000D01*
X140619603Y-129364468D01*
X140442164Y-129437966D01*
X140282473Y-129544668D01*
X140146668Y-129680473D01*
X140039966Y-129840164D01*
X139966468Y-130017603D01*
X139954563Y-130077454D01*
X139894161Y-129883416D01*
X139793474Y-129698288D01*
X139658605Y-129536360D01*
X139494737Y-129403855D01*
X139308167Y-129305866D01*
X139121370Y-129249205D01*
X138954000Y-129328283D01*
X138854000Y-129328283D01*
X138686630Y-129249205D01*
X138499833Y-129305866D01*
X138313263Y-129403855D01*
X138149395Y-129536360D01*
X138014526Y-129698288D01*
X137913839Y-129883416D01*
X137853437Y-130077454D01*
X137841532Y-130017603D01*
X137768034Y-129840164D01*
X137661332Y-129680473D01*
X137525527Y-129544668D01*
X137365836Y-129437966D01*
X137188397Y-129364468D01*
X137000029Y-129327000D01*
X136807971Y-129327000D01*
X136619603Y-129364468D01*
X136442164Y-129437966D01*
X136282473Y-129544668D01*
X136146668Y-129680473D01*
X136039966Y-129840164D01*
X135966468Y-130017603D01*
X135954563Y-130077454D01*
X135894161Y-129883416D01*
X135793474Y-129698288D01*
X135658605Y-129536360D01*
X135494737Y-129403855D01*
X135308167Y-129305866D01*
X135121370Y-129249205D01*
X134954000Y-129328283D01*
X134854000Y-129328283D01*
X134686630Y-129249205D01*
X134499833Y-129305866D01*
X134313263Y-129403855D01*
X134149395Y-129536360D01*
X134014526Y-129698288D01*
X133913839Y-129883416D01*
X133853437Y-130077454D01*
X133841532Y-130017603D01*
X133768034Y-129840164D01*
X133661332Y-129680473D01*
X133525527Y-129544668D01*
X133454000Y-129496875D01*
X133454000Y-124371817D01*
X137229987Y-120595830D01*
X165819998Y-120595830D01*
X165819998Y-120704170D01*
X165841134Y-120810429D01*
X165882595Y-120910523D01*
X165942785Y-121000604D01*
X166019394Y-121077213D01*
X166109475Y-121137403D01*
X166209569Y-121178864D01*
X166315828Y-121200000D01*
X166424168Y-121200000D01*
X166530427Y-121178864D01*
X166630521Y-121137403D01*
X166720602Y-121077213D01*
X166722815Y-121075000D01*
X173383183Y-121075000D01*
X173385396Y-121077213D01*
X173475477Y-121137403D01*
X173575571Y-121178864D01*
X173681830Y-121200000D01*
X173790170Y-121200000D01*
X173896429Y-121178864D01*
X173996523Y-121137403D01*
X174086604Y-121077213D01*
X174163213Y-121000604D01*
X174223403Y-120910523D01*
X174264864Y-120810429D01*
X174286000Y-120704170D01*
X174286000Y-120595830D01*
X174264864Y-120489571D01*
X174223403Y-120389477D01*
X174163213Y-120299396D01*
X174086604Y-120222787D01*
X173996523Y-120162597D01*
X173896429Y-120121136D01*
X173790170Y-120100000D01*
X173681830Y-120100000D01*
X173575571Y-120121136D01*
X173475477Y-120162597D01*
X173385396Y-120222787D01*
X173383183Y-120225000D01*
X166722815Y-120225000D01*
X166720602Y-120222787D01*
X166630521Y-120162597D01*
X166530427Y-120121136D01*
X166424168Y-120100000D01*
X166315828Y-120100000D01*
X166209569Y-120121136D01*
X166109475Y-120162597D01*
X166019394Y-120222787D01*
X165942785Y-120299396D01*
X165882595Y-120389477D01*
X165841134Y-120489571D01*
X165819998Y-120595830D01*
X137229987Y-120595830D01*
X144356761Y-113469056D01*
X176338000Y-113469056D01*
X176338000Y-113606944D01*
X176364901Y-113742182D01*
X176417668Y-113869574D01*
X176494274Y-113984224D01*
X176591776Y-114081726D01*
X176706426Y-114158332D01*
X176833818Y-114211099D01*
X176969056Y-114238000D01*
X177106944Y-114238000D01*
X177242182Y-114211099D01*
X177369574Y-114158332D01*
X177474834Y-114088000D01*
X183124992Y-114088000D01*
X183152000Y-114090660D01*
X183179008Y-114088000D01*
X183179018Y-114088000D01*
X183259819Y-114080042D01*
X183363494Y-114048592D01*
X183459042Y-113997521D01*
X183542790Y-113928790D01*
X183560013Y-113907804D01*
X185094213Y-112373604D01*
X185109296Y-112351030D01*
X185126521Y-112330042D01*
X185139320Y-112306096D01*
X185154403Y-112283523D01*
X185164794Y-112258438D01*
X185177592Y-112234494D01*
X185185473Y-112208516D01*
X185195864Y-112183429D01*
X185201161Y-112156798D01*
X185209042Y-112130819D01*
X185211703Y-112103802D01*
X185217000Y-112077170D01*
X185217000Y-112050011D01*
X185219660Y-112023000D01*
X185217000Y-111995989D01*
X185217000Y-111968830D01*
X185211703Y-111942198D01*
X185209042Y-111915181D01*
X185201161Y-111889202D01*
X185195864Y-111862571D01*
X185185473Y-111837484D01*
X185177592Y-111811506D01*
X185164794Y-111787562D01*
X185154403Y-111762477D01*
X185139320Y-111739904D01*
X185126521Y-111715958D01*
X185109297Y-111694970D01*
X185094213Y-111672396D01*
X185075013Y-111653196D01*
X185057790Y-111632210D01*
X185036804Y-111614987D01*
X185017604Y-111595787D01*
X184995030Y-111580703D01*
X184974042Y-111563479D01*
X184950096Y-111550680D01*
X184927523Y-111535597D01*
X184902438Y-111525206D01*
X184878494Y-111512408D01*
X184852516Y-111504527D01*
X184827429Y-111494136D01*
X184800798Y-111488839D01*
X184774819Y-111480958D01*
X184747802Y-111478297D01*
X184721170Y-111473000D01*
X184694011Y-111473000D01*
X184667000Y-111470340D01*
X184639989Y-111473000D01*
X184612830Y-111473000D01*
X184586198Y-111478297D01*
X184559181Y-111480958D01*
X184533202Y-111488839D01*
X184506571Y-111494136D01*
X184481484Y-111504527D01*
X184455506Y-111512408D01*
X184431562Y-111525206D01*
X184406477Y-111535597D01*
X184383904Y-111550680D01*
X184359958Y-111563479D01*
X184338970Y-111580704D01*
X184316396Y-111595787D01*
X182924183Y-112988000D01*
X177474834Y-112988000D01*
X177369574Y-112917668D01*
X177242182Y-112864901D01*
X177106944Y-112838000D01*
X176969056Y-112838000D01*
X176833818Y-112864901D01*
X176706426Y-112917668D01*
X176591776Y-112994274D01*
X176494274Y-113091776D01*
X176417668Y-113206426D01*
X176364901Y-113333818D01*
X176338000Y-113469056D01*
X144356761Y-113469056D01*
X155929817Y-101896000D01*
X175286183Y-101896000D01*
X175578203Y-102188020D01*
X175602901Y-102312182D01*
X175655668Y-102439574D01*
X175732274Y-102554224D01*
X175829776Y-102651726D01*
X175944426Y-102728332D01*
X176071818Y-102781099D01*
X176207056Y-102808000D01*
X176344944Y-102808000D01*
X176480182Y-102781099D01*
X176607574Y-102728332D01*
X176722224Y-102651726D01*
X176819726Y-102554224D01*
X176896332Y-102439574D01*
X176949099Y-102312182D01*
X176976000Y-102176944D01*
X176976000Y-102039056D01*
X176949099Y-101903818D01*
X176896332Y-101776426D01*
X176819726Y-101661776D01*
X176722224Y-101564274D01*
X176607574Y-101487668D01*
X176480182Y-101434901D01*
X176356020Y-101410203D01*
X175983647Y-101037830D01*
X186648006Y-101037830D01*
X186648006Y-101146170D01*
X186669142Y-101252429D01*
X186710603Y-101352523D01*
X186770793Y-101442604D01*
X186847402Y-101519213D01*
X186937483Y-101579403D01*
X187037577Y-101620864D01*
X187143836Y-101642000D01*
X187182321Y-101642000D01*
X189052000Y-103511680D01*
X189052001Y-124120180D01*
X189024787Y-124147394D01*
X188964597Y-124237475D01*
X188923136Y-124337569D01*
X188902000Y-124443828D01*
X188902000Y-124552168D01*
X188923136Y-124658427D01*
X188964597Y-124758521D01*
X189024787Y-124848602D01*
X189101396Y-124925211D01*
X189191477Y-124985401D01*
X189291571Y-125026862D01*
X189397830Y-125047998D01*
X189506170Y-125047998D01*
X189612429Y-125026862D01*
X189712523Y-124985401D01*
X189802604Y-124925211D01*
X189879213Y-124848602D01*
X189939403Y-124758521D01*
X189980864Y-124658427D01*
X190002000Y-124552168D01*
X190002000Y-124443828D01*
X189980864Y-124337569D01*
X189939403Y-124237475D01*
X189879213Y-124147394D01*
X189852000Y-124120181D01*
X189852000Y-103365640D01*
X189853935Y-103345994D01*
X189846212Y-103267580D01*
X189823340Y-103192179D01*
X189786197Y-103122691D01*
X189748735Y-103077043D01*
X189748733Y-103077041D01*
X189736211Y-103061783D01*
X189720954Y-103049262D01*
X187748006Y-101076315D01*
X187748006Y-101037830D01*
X187726870Y-100931571D01*
X187685409Y-100831477D01*
X187625219Y-100741396D01*
X187548610Y-100664787D01*
X187458529Y-100604597D01*
X187358435Y-100563136D01*
X187252176Y-100542000D01*
X187143836Y-100542000D01*
X187037577Y-100563136D01*
X186937483Y-100604597D01*
X186847402Y-100664787D01*
X186770793Y-100741396D01*
X186710603Y-100831477D01*
X186669142Y-100931571D01*
X186648006Y-101037830D01*
X175983647Y-101037830D01*
X175922013Y-100976196D01*
X175904790Y-100955210D01*
X175821042Y-100886479D01*
X175725494Y-100835408D01*
X175621819Y-100803958D01*
X175541018Y-100796000D01*
X175541008Y-100796000D01*
X175514000Y-100793340D01*
X175486992Y-100796000D01*
X155729011Y-100796000D01*
X155702000Y-100793340D01*
X155674989Y-100796000D01*
X155674982Y-100796000D01*
X155594181Y-100803958D01*
X155490505Y-100835408D01*
X155428224Y-100868698D01*
X155394958Y-100886479D01*
X155311210Y-100955210D01*
X155293987Y-100976196D01*
X132534196Y-123735987D01*
X132513210Y-123753210D01*
X132444479Y-123836958D01*
X132393408Y-123932507D01*
X132361958Y-124036182D01*
X132354000Y-124116983D01*
X132354000Y-124116992D01*
X132351340Y-124144000D01*
X132354000Y-124171008D01*
X132354001Y-129496875D01*
X132282473Y-129544668D01*
X132146668Y-129680473D01*
X132039966Y-129840164D01*
X131966468Y-130017603D01*
X131929000Y-130205971D01*
X131879000Y-130205971D01*
X131841532Y-130017603D01*
X131768034Y-129840164D01*
X131661332Y-129680473D01*
X131525527Y-129544668D01*
X131365836Y-129437966D01*
X131188397Y-129364468D01*
X131000029Y-129327000D01*
X130807971Y-129327000D01*
X130619603Y-129364468D01*
X130442164Y-129437966D01*
X130282473Y-129544668D01*
X130146668Y-129680473D01*
X130039966Y-129840164D01*
X129966468Y-130017603D01*
X129954563Y-130077454D01*
X129894161Y-129883416D01*
X129793474Y-129698288D01*
X129658605Y-129536360D01*
X129494737Y-129403855D01*
X129308167Y-129305866D01*
X129121370Y-129249205D01*
X128954000Y-129328283D01*
X128854000Y-129328283D01*
X128686630Y-129249205D01*
X128499833Y-129305866D01*
X128313263Y-129403855D01*
X128149395Y-129536360D01*
X128014526Y-129698288D01*
X127913839Y-129883416D01*
X127853437Y-130077454D01*
X127841532Y-130017603D01*
X127768034Y-129840164D01*
X127661332Y-129680473D01*
X127525527Y-129544668D01*
X127365836Y-129437966D01*
X127329000Y-129422708D01*
X127329000Y-119714866D01*
X127331055Y-119693999D01*
X127329000Y-119673132D01*
X127329000Y-119673126D01*
X127322850Y-119610686D01*
X127298548Y-119530573D01*
X127259084Y-119456740D01*
X127205974Y-119392026D01*
X127189763Y-119378722D01*
X105880000Y-98068960D01*
X105880000Y-98065830D01*
X105858864Y-97959571D01*
X105817403Y-97859477D01*
X105757213Y-97769396D01*
X105680604Y-97692787D01*
X105590523Y-97632597D01*
X105490429Y-97591136D01*
X105384170Y-97570000D01*
X105275830Y-97570000D01*
X105169571Y-97591136D01*
X105069477Y-97632597D01*
X104979396Y-97692787D01*
X104902787Y-97769396D01*
X104842597Y-97859477D01*
X104801136Y-97959571D01*
X104780000Y-98065830D01*
X101100000Y-98065830D01*
X101100000Y-92532000D01*
X122850065Y-92532000D01*
X122857788Y-92610414D01*
X122880660Y-92685814D01*
X122917803Y-92755303D01*
X122967789Y-92816211D01*
X123028697Y-92866197D01*
X123098186Y-92903340D01*
X123173586Y-92926212D01*
X123252000Y-92933935D01*
X123802000Y-92932000D01*
X123902000Y-92832000D01*
X123902000Y-92007000D01*
X124002000Y-92007000D01*
X124002000Y-92832000D01*
X124102000Y-92932000D01*
X124652000Y-92933935D01*
X124730414Y-92926212D01*
X124805814Y-92903340D01*
X124875303Y-92866197D01*
X124936211Y-92816211D01*
X124986197Y-92755303D01*
X125023340Y-92685814D01*
X125046212Y-92610414D01*
X125053935Y-92532000D01*
X125052000Y-92107000D01*
X124952000Y-92007000D01*
X124002000Y-92007000D01*
X123902000Y-92007000D01*
X122952000Y-92007000D01*
X122852000Y-92107000D01*
X122850065Y-92532000D01*
X101100000Y-92532000D01*
X101100000Y-91382000D01*
X122850065Y-91382000D01*
X122852000Y-91807000D01*
X122952000Y-91907000D01*
X123902000Y-91907000D01*
X123902000Y-91082000D01*
X123802000Y-90982000D01*
X123252000Y-90980065D01*
X123173586Y-90987788D01*
X123098186Y-91010660D01*
X123028697Y-91047803D01*
X122967789Y-91097789D01*
X122917803Y-91158697D01*
X122880660Y-91228186D01*
X122857788Y-91303586D01*
X122850065Y-91382000D01*
X101100000Y-91382000D01*
X101100000Y-83328039D01*
X101112520Y-83390982D01*
X101118810Y-83454845D01*
X101137438Y-83516254D01*
X101149958Y-83579196D01*
X101174516Y-83638484D01*
X101193145Y-83699896D01*
X101223397Y-83756493D01*
X101247955Y-83815781D01*
X101283610Y-83869142D01*
X101313860Y-83925736D01*
X101354569Y-83975340D01*
X101390224Y-84028702D01*
X101435601Y-84074079D01*
X101476313Y-84123687D01*
X101525921Y-84164399D01*
X101571298Y-84209776D01*
X101624660Y-84245431D01*
X101674264Y-84286140D01*
X101730858Y-84316390D01*
X101784219Y-84352045D01*
X101843507Y-84376603D01*
X101900104Y-84406855D01*
X101961516Y-84425484D01*
X102020804Y-84450042D01*
X102083746Y-84462562D01*
X102145155Y-84481190D01*
X102209018Y-84487480D01*
X102271961Y-84500000D01*
X112762041Y-84500000D01*
X112824984Y-84487480D01*
X112888847Y-84481190D01*
X112950256Y-84462562D01*
X113013198Y-84450042D01*
X113072486Y-84425484D01*
X113133898Y-84406855D01*
X113190495Y-84376603D01*
X113249783Y-84352045D01*
X113303144Y-84316390D01*
X113359738Y-84286140D01*
X113409342Y-84245431D01*
X113462704Y-84209776D01*
X113508081Y-84164399D01*
X113557689Y-84123687D01*
X113598401Y-84074079D01*
X113643778Y-84028702D01*
X113662956Y-84000000D01*
X114120709Y-84000000D01*
X114160000Y-84003870D01*
X114199291Y-84000000D01*
X114618630Y-84000000D01*
X121072531Y-90453902D01*
X121097578Y-90484422D01*
X121128098Y-90509469D01*
X121219393Y-90584393D01*
X121289629Y-90621935D01*
X121358372Y-90658679D01*
X121509173Y-90704424D01*
X121626707Y-90716000D01*
X121626716Y-90716000D01*
X121665999Y-90719869D01*
X121705282Y-90716000D01*
X123243309Y-90716000D01*
X123290968Y-90741474D01*
X123394416Y-90772855D01*
X123501999Y-90783451D01*
X124402001Y-90783451D01*
X124509584Y-90772855D01*
X124613032Y-90741474D01*
X124660691Y-90716000D01*
X125189431Y-90716000D01*
X125125396Y-90758787D01*
X125048787Y-90835396D01*
X124988597Y-90925477D01*
X124947136Y-91025571D01*
X124933254Y-91095362D01*
X124875303Y-91047803D01*
X124805814Y-91010660D01*
X124730414Y-90987788D01*
X124652000Y-90980065D01*
X124102000Y-90982000D01*
X124002000Y-91082000D01*
X124002000Y-91907000D01*
X124952000Y-91907000D01*
X125052000Y-91807000D01*
X125053211Y-91541028D01*
X125125396Y-91613213D01*
X125215477Y-91673403D01*
X125315571Y-91714864D01*
X125421830Y-91736000D01*
X125530170Y-91736000D01*
X125636429Y-91714864D01*
X125736523Y-91673403D01*
X125826604Y-91613213D01*
X125828817Y-91611000D01*
X134516634Y-91611000D01*
X134537501Y-91613055D01*
X134558368Y-91611000D01*
X134558375Y-91611000D01*
X134620815Y-91604850D01*
X134700928Y-91580548D01*
X134774761Y-91541084D01*
X134839475Y-91487974D01*
X134852785Y-91471756D01*
X140314570Y-86009971D01*
X177111000Y-86009971D01*
X177111000Y-86202029D01*
X177148468Y-86390397D01*
X177221966Y-86567836D01*
X177328668Y-86727527D01*
X177464473Y-86863332D01*
X177624164Y-86970034D01*
X177801603Y-87043532D01*
X177989971Y-87081000D01*
X178182029Y-87081000D01*
X178370397Y-87043532D01*
X178547836Y-86970034D01*
X178707527Y-86863332D01*
X178843332Y-86727527D01*
X178950034Y-86567836D01*
X179023532Y-86390397D01*
X179061000Y-86202029D01*
X179061000Y-86009971D01*
X179023532Y-85821603D01*
X178950034Y-85644164D01*
X178843332Y-85484473D01*
X178789859Y-85431000D01*
X179109549Y-85431000D01*
X179109549Y-86781000D01*
X179115341Y-86839810D01*
X179132496Y-86896360D01*
X179160353Y-86948477D01*
X179197842Y-86994158D01*
X179243523Y-87031647D01*
X179295640Y-87059504D01*
X179352190Y-87076659D01*
X179411000Y-87082451D01*
X180761000Y-87082451D01*
X180819810Y-87076659D01*
X180876360Y-87059504D01*
X180928477Y-87031647D01*
X180974158Y-86994158D01*
X181011647Y-86948477D01*
X181039504Y-86896360D01*
X181056659Y-86839810D01*
X181062451Y-86781000D01*
X181062451Y-85431000D01*
X181056659Y-85372190D01*
X181039504Y-85315640D01*
X181011647Y-85263523D01*
X180974158Y-85217842D01*
X180928477Y-85180353D01*
X180876360Y-85152496D01*
X180819810Y-85135341D01*
X180761000Y-85129549D01*
X179411000Y-85129549D01*
X179352190Y-85135341D01*
X179295640Y-85152496D01*
X179243523Y-85180353D01*
X179197842Y-85217842D01*
X179160353Y-85263523D01*
X179132496Y-85315640D01*
X179115341Y-85372190D01*
X179109549Y-85431000D01*
X178789859Y-85431000D01*
X178707527Y-85348668D01*
X178547836Y-85241966D01*
X178370397Y-85168468D01*
X178182029Y-85131000D01*
X177989971Y-85131000D01*
X177801603Y-85168468D01*
X177624164Y-85241966D01*
X177464473Y-85348668D01*
X177328668Y-85484473D01*
X177221966Y-85644164D01*
X177148468Y-85821603D01*
X177111000Y-86009971D01*
X140314570Y-86009971D01*
X144811762Y-81512780D01*
X144827974Y-81499475D01*
X144881084Y-81434761D01*
X144914630Y-81372000D01*
X144920548Y-81360929D01*
X144944850Y-81280815D01*
X144949127Y-81237387D01*
X144951000Y-81218375D01*
X144951000Y-81218368D01*
X144953055Y-81197501D01*
X144951000Y-81176634D01*
X144951000Y-80165027D01*
X153011000Y-80165027D01*
X153011000Y-80494973D01*
X153075369Y-80818580D01*
X153201634Y-81123410D01*
X153384942Y-81397751D01*
X153618249Y-81631058D01*
X153892590Y-81814366D01*
X154197420Y-81940631D01*
X154521027Y-82005000D01*
X154850973Y-82005000D01*
X155174580Y-81940631D01*
X155479410Y-81814366D01*
X155753751Y-81631058D01*
X155987058Y-81397751D01*
X156170366Y-81123410D01*
X156296631Y-80818580D01*
X156361000Y-80494973D01*
X156361000Y-80165027D01*
X156296631Y-79841420D01*
X156170366Y-79536590D01*
X155987058Y-79262249D01*
X155753751Y-79028942D01*
X155479410Y-78845634D01*
X155174580Y-78719369D01*
X154850973Y-78655000D01*
X154521027Y-78655000D01*
X154197420Y-78719369D01*
X153892590Y-78845634D01*
X153618249Y-79028942D01*
X153384942Y-79262249D01*
X153201634Y-79536590D01*
X153075369Y-79841420D01*
X153011000Y-80165027D01*
X144951000Y-80165027D01*
X144951000Y-79854817D01*
X144953213Y-79852604D01*
X145013403Y-79762523D01*
X145054864Y-79662429D01*
X145076000Y-79556170D01*
X145076000Y-79447830D01*
X145054864Y-79341571D01*
X145013403Y-79241477D01*
X144953213Y-79151396D01*
X144876604Y-79074787D01*
X144786523Y-79014597D01*
X144686429Y-78973136D01*
X144580170Y-78952000D01*
X144471830Y-78952000D01*
X144365571Y-78973136D01*
X144265477Y-79014597D01*
X144175396Y-79074787D01*
X144098787Y-79151396D01*
X144038597Y-79241477D01*
X143997136Y-79341571D01*
X143976000Y-79447830D01*
X143976000Y-79556170D01*
X143997136Y-79662429D01*
X144038597Y-79762523D01*
X144098787Y-79852604D01*
X144101000Y-79854817D01*
X144101001Y-81021459D01*
X134361461Y-90761000D01*
X125828817Y-90761000D01*
X125826604Y-90758787D01*
X125762569Y-90716000D01*
X132548709Y-90716000D01*
X132588000Y-90719870D01*
X132627291Y-90716000D01*
X132627293Y-90716000D01*
X132744827Y-90704424D01*
X132895628Y-90658679D01*
X133034606Y-90584393D01*
X133156422Y-90484422D01*
X133181473Y-90453897D01*
X134937903Y-88697468D01*
X134968422Y-88672422D01*
X135003237Y-88630000D01*
X135068393Y-88550607D01*
X135142679Y-88411628D01*
X135164248Y-88340523D01*
X135188424Y-88260827D01*
X135200000Y-88143293D01*
X135200000Y-88143291D01*
X135203870Y-88104000D01*
X135200000Y-88064709D01*
X135200000Y-87270707D01*
X135188424Y-87153173D01*
X135142679Y-87002372D01*
X135068393Y-86863394D01*
X134968422Y-86741578D01*
X134846606Y-86641607D01*
X134707628Y-86567321D01*
X134556827Y-86521576D01*
X134400000Y-86506130D01*
X134243174Y-86521576D01*
X134219728Y-86528688D01*
X134155039Y-86463999D01*
X137714134Y-86463999D01*
X137735001Y-86466054D01*
X137755868Y-86463999D01*
X137755875Y-86463999D01*
X137818315Y-86457849D01*
X137898428Y-86433547D01*
X137957449Y-86402000D01*
X137976170Y-86402000D01*
X138082429Y-86380864D01*
X138182523Y-86339403D01*
X138272604Y-86279213D01*
X138349213Y-86202604D01*
X138409403Y-86112523D01*
X138450864Y-86012429D01*
X138472000Y-85906170D01*
X138472000Y-85797830D01*
X138450864Y-85691571D01*
X138409403Y-85591477D01*
X138349213Y-85501396D01*
X138272604Y-85424787D01*
X138182523Y-85364597D01*
X138082429Y-85323136D01*
X137976170Y-85302000D01*
X137867830Y-85302000D01*
X137761571Y-85323136D01*
X137661477Y-85364597D01*
X137571396Y-85424787D01*
X137494787Y-85501396D01*
X137434597Y-85591477D01*
X137425268Y-85613999D01*
X131062866Y-85613999D01*
X131041999Y-85611944D01*
X131021133Y-85613999D01*
X131021125Y-85613999D01*
X130958685Y-85620149D01*
X130942693Y-85625000D01*
X129219051Y-85625000D01*
X127109010Y-83514960D01*
X127109010Y-83511830D01*
X127087874Y-83405571D01*
X127046413Y-83305477D01*
X126986223Y-83215396D01*
X126909614Y-83138787D01*
X126819533Y-83078597D01*
X126719439Y-83037136D01*
X126613180Y-83016000D01*
X126504840Y-83016000D01*
X126409000Y-83035064D01*
X126409000Y-80694040D01*
X127503646Y-79599394D01*
X128842310Y-79599394D01*
X128843277Y-79606482D01*
X128844178Y-80806215D01*
X128842310Y-80836894D01*
X128844212Y-80850839D01*
X128845000Y-81900000D01*
X128858734Y-81913734D01*
X128850092Y-81946592D01*
X128846840Y-81999998D01*
X128845000Y-81999998D01*
X128845000Y-82030217D01*
X128842310Y-82074394D01*
X128845000Y-82094120D01*
X128845000Y-82100002D01*
X128845802Y-82100002D01*
X128857706Y-82187294D01*
X128845000Y-82200000D01*
X128844188Y-83281058D01*
X128842310Y-83311894D01*
X128844154Y-83325419D01*
X128843246Y-84534021D01*
X128842310Y-84549394D01*
X128843229Y-84556137D01*
X128843065Y-84775000D01*
X128850788Y-84853414D01*
X128873660Y-84928814D01*
X128910803Y-84998303D01*
X128960789Y-85059211D01*
X129021697Y-85109197D01*
X129091186Y-85146340D01*
X129166586Y-85169212D01*
X129245000Y-85176935D01*
X129503801Y-85176741D01*
X129519394Y-85177690D01*
X129526482Y-85176723D01*
X130726215Y-85175822D01*
X130756894Y-85177690D01*
X130770839Y-85175788D01*
X131820000Y-85175000D01*
X131833734Y-85161266D01*
X131866592Y-85169908D01*
X131919998Y-85173160D01*
X131919998Y-85175000D01*
X131950217Y-85175000D01*
X131994394Y-85177690D01*
X132014120Y-85175000D01*
X132020002Y-85175000D01*
X132020002Y-85174198D01*
X132107294Y-85162294D01*
X132120000Y-85175000D01*
X133201058Y-85175812D01*
X133231894Y-85177690D01*
X133245419Y-85175846D01*
X134454021Y-85176754D01*
X134469394Y-85177690D01*
X134476137Y-85176771D01*
X134695000Y-85176935D01*
X134773414Y-85169212D01*
X134848814Y-85146340D01*
X134918303Y-85109197D01*
X134979211Y-85059211D01*
X135029197Y-84998303D01*
X135066340Y-84928814D01*
X135089212Y-84853414D01*
X135096935Y-84775000D01*
X135096741Y-84516199D01*
X135097690Y-84500606D01*
X135096723Y-84493518D01*
X135095822Y-83293785D01*
X135097690Y-83263106D01*
X135095788Y-83249161D01*
X135095000Y-82200000D01*
X135081266Y-82186266D01*
X135089908Y-82153408D01*
X135093160Y-82100002D01*
X135095000Y-82100002D01*
X135095000Y-82069783D01*
X135097690Y-82025606D01*
X135095000Y-82005880D01*
X135095000Y-81999998D01*
X135094198Y-81999998D01*
X135082294Y-81912706D01*
X135095000Y-81900000D01*
X135095812Y-80818942D01*
X135097690Y-80788106D01*
X135095846Y-80774581D01*
X135096754Y-79565979D01*
X135097690Y-79550606D01*
X135096771Y-79543863D01*
X135096935Y-79325000D01*
X135089212Y-79246586D01*
X135066340Y-79171186D01*
X135029197Y-79101697D01*
X134979211Y-79040789D01*
X134918303Y-78990803D01*
X134848814Y-78953660D01*
X134773414Y-78930788D01*
X134695000Y-78923065D01*
X134436199Y-78923259D01*
X134420606Y-78922310D01*
X134413518Y-78923277D01*
X133213785Y-78924178D01*
X133183106Y-78922310D01*
X133169161Y-78924212D01*
X132120000Y-78925000D01*
X132106266Y-78938734D01*
X132073408Y-78930092D01*
X132020002Y-78926840D01*
X132020002Y-78925000D01*
X131989783Y-78925000D01*
X131945606Y-78922310D01*
X131925880Y-78925000D01*
X131919998Y-78925000D01*
X131919998Y-78925802D01*
X131832706Y-78937706D01*
X131820000Y-78925000D01*
X130738942Y-78924188D01*
X130708106Y-78922310D01*
X130694581Y-78924154D01*
X129485979Y-78923246D01*
X129470606Y-78922310D01*
X129463863Y-78923229D01*
X129245000Y-78923065D01*
X129166586Y-78930788D01*
X129091186Y-78953660D01*
X129021697Y-78990803D01*
X128960789Y-79040789D01*
X128910803Y-79101697D01*
X128873660Y-79171186D01*
X128850788Y-79246586D01*
X128843065Y-79325000D01*
X128843259Y-79583801D01*
X128842310Y-79599394D01*
X127503646Y-79599394D01*
X128633040Y-78470001D01*
X132843134Y-78470001D01*
X132864001Y-78472056D01*
X132884868Y-78470001D01*
X132884875Y-78470001D01*
X132947315Y-78463851D01*
X133027428Y-78439549D01*
X133101261Y-78400085D01*
X133165975Y-78346975D01*
X133179284Y-78330758D01*
X136175763Y-75334280D01*
X136191974Y-75320976D01*
X136245084Y-75256262D01*
X136280222Y-75190523D01*
X136284548Y-75182430D01*
X136308850Y-75102317D01*
X136310761Y-75082916D01*
X136315000Y-75039876D01*
X136315000Y-75039869D01*
X136317055Y-75019002D01*
X136315000Y-74998135D01*
X136315000Y-70026040D01*
X138439169Y-67901872D01*
X138455380Y-67888568D01*
X138508490Y-67823854D01*
X138547954Y-67750021D01*
X138572256Y-67669908D01*
X138578406Y-67607468D01*
X138578406Y-67607462D01*
X138580461Y-67586595D01*
X138578406Y-67565728D01*
X138578406Y-67437411D01*
X138580619Y-67435198D01*
X138640809Y-67345117D01*
X138682270Y-67245023D01*
X138703406Y-67138764D01*
X138703406Y-67030424D01*
X138682270Y-66924165D01*
X138640809Y-66824071D01*
X138580619Y-66733990D01*
X138504010Y-66657381D01*
X138413929Y-66597191D01*
X138313835Y-66555730D01*
X138207576Y-66534594D01*
X138099236Y-66534594D01*
X137992977Y-66555730D01*
X137892883Y-66597191D01*
X137802802Y-66657381D01*
X137726193Y-66733990D01*
X137666003Y-66824071D01*
X137624542Y-66924165D01*
X137603406Y-67030424D01*
X137603406Y-67138764D01*
X137624542Y-67245023D01*
X137666003Y-67345117D01*
X137717208Y-67421751D01*
X135604239Y-69534721D01*
X135588027Y-69548026D01*
X135534917Y-69612740D01*
X135495453Y-69686573D01*
X135471150Y-69766686D01*
X135462945Y-69850000D01*
X135465001Y-69870877D01*
X135465000Y-74842961D01*
X132687961Y-77620001D01*
X128477866Y-77620001D01*
X128456999Y-77617946D01*
X128436132Y-77620001D01*
X128436125Y-77620001D01*
X128373685Y-77626151D01*
X128293571Y-77650453D01*
X128267854Y-77664200D01*
X128219739Y-77689917D01*
X128155025Y-77743027D01*
X128141720Y-77759239D01*
X125698239Y-80202721D01*
X125682027Y-80216026D01*
X125628917Y-80280740D01*
X125614276Y-80308132D01*
X125589453Y-80354573D01*
X125565150Y-80434686D01*
X125556945Y-80518000D01*
X125559001Y-80538877D01*
X125559000Y-84815133D01*
X125556945Y-84836000D01*
X125559000Y-84856867D01*
X125559000Y-84856873D01*
X125565150Y-84919313D01*
X125589452Y-84999426D01*
X125628916Y-85073259D01*
X125682026Y-85137974D01*
X125698243Y-85151283D01*
X126196000Y-85649041D01*
X126196000Y-85652170D01*
X126217136Y-85758429D01*
X126258597Y-85858523D01*
X126318787Y-85948604D01*
X126395396Y-86025213D01*
X126485477Y-86085403D01*
X126585571Y-86126864D01*
X126691830Y-86148000D01*
X126800170Y-86148000D01*
X126906429Y-86126864D01*
X127006523Y-86085403D01*
X127096604Y-86025213D01*
X127173213Y-85948604D01*
X127233403Y-85858523D01*
X127274864Y-85758429D01*
X127296000Y-85652170D01*
X127296000Y-85543830D01*
X127274864Y-85437571D01*
X127233403Y-85337477D01*
X127173213Y-85247396D01*
X127096604Y-85170787D01*
X127006523Y-85110597D01*
X126906429Y-85069136D01*
X126800170Y-85048000D01*
X126797041Y-85048000D01*
X126409000Y-84659960D01*
X126409000Y-84096936D01*
X126504840Y-84116000D01*
X126507970Y-84116000D01*
X128727731Y-86335762D01*
X128741036Y-86351974D01*
X128805750Y-86405084D01*
X128879583Y-86444548D01*
X128923431Y-86457849D01*
X128959695Y-86468850D01*
X128968108Y-86469679D01*
X129022136Y-86475000D01*
X129022142Y-86475000D01*
X129043009Y-86477055D01*
X129063876Y-86475000D01*
X131010131Y-86475000D01*
X131030998Y-86477055D01*
X131051865Y-86475000D01*
X131051872Y-86475000D01*
X131114312Y-86468850D01*
X131130304Y-86463999D01*
X131971728Y-86463999D01*
X131961136Y-86489571D01*
X131940000Y-86595830D01*
X131940000Y-86704170D01*
X131961136Y-86810429D01*
X132002597Y-86910523D01*
X132062787Y-87000604D01*
X132139396Y-87077213D01*
X132229477Y-87137403D01*
X132329571Y-87178864D01*
X132435830Y-87200000D01*
X132544170Y-87200000D01*
X132650429Y-87178864D01*
X132750523Y-87137403D01*
X132840604Y-87077213D01*
X132842817Y-87075000D01*
X133563960Y-87075000D01*
X133618689Y-87129729D01*
X133611577Y-87153173D01*
X133600000Y-87270707D01*
X133600000Y-87772629D01*
X132256630Y-89116000D01*
X124694366Y-89116000D01*
X124613032Y-89072526D01*
X124509584Y-89041145D01*
X124402001Y-89030549D01*
X123501999Y-89030549D01*
X123394416Y-89041145D01*
X123290968Y-89072526D01*
X123209634Y-89116000D01*
X121997371Y-89116000D01*
X120907201Y-88025830D01*
X125480000Y-88025830D01*
X125480000Y-88134170D01*
X125501136Y-88240429D01*
X125542597Y-88340523D01*
X125602787Y-88430604D01*
X125679396Y-88507213D01*
X125769477Y-88567403D01*
X125869571Y-88608864D01*
X125975830Y-88630000D01*
X126084170Y-88630000D01*
X126190429Y-88608864D01*
X126290523Y-88567403D01*
X126380604Y-88507213D01*
X126457213Y-88430604D01*
X126517403Y-88340523D01*
X126558864Y-88240429D01*
X126580000Y-88134170D01*
X126580000Y-88131040D01*
X127547041Y-87164000D01*
X127562170Y-87164000D01*
X127668429Y-87142864D01*
X127768523Y-87101403D01*
X127858604Y-87041213D01*
X127935213Y-86964604D01*
X127995403Y-86874523D01*
X128036864Y-86774429D01*
X128058000Y-86668170D01*
X128058000Y-86559830D01*
X128036864Y-86453571D01*
X127995403Y-86353477D01*
X127935213Y-86263396D01*
X127858604Y-86186787D01*
X127768523Y-86126597D01*
X127668429Y-86085136D01*
X127562170Y-86064000D01*
X127453830Y-86064000D01*
X127347571Y-86085136D01*
X127247477Y-86126597D01*
X127157396Y-86186787D01*
X127080787Y-86263396D01*
X127020597Y-86353477D01*
X126979136Y-86453571D01*
X126960203Y-86548757D01*
X125978960Y-87530000D01*
X125975830Y-87530000D01*
X125869571Y-87551136D01*
X125769477Y-87592597D01*
X125679396Y-87652787D01*
X125602787Y-87729396D01*
X125542597Y-87819477D01*
X125501136Y-87919571D01*
X125480000Y-88025830D01*
X120907201Y-88025830D01*
X115686370Y-82805000D01*
X123031370Y-75460000D01*
X131953930Y-75460000D01*
X131955001Y-75470876D01*
X131955000Y-76527183D01*
X131952787Y-76529396D01*
X131892597Y-76619477D01*
X131851136Y-76719571D01*
X131830000Y-76825830D01*
X131830000Y-76934170D01*
X131851136Y-77040429D01*
X131892597Y-77140523D01*
X131952787Y-77230604D01*
X132029396Y-77307213D01*
X132119477Y-77367403D01*
X132219571Y-77408864D01*
X132325830Y-77430000D01*
X132434170Y-77430000D01*
X132540429Y-77408864D01*
X132640523Y-77367403D01*
X132730604Y-77307213D01*
X132807213Y-77230604D01*
X132867403Y-77140523D01*
X132908864Y-77040429D01*
X132930000Y-76934170D01*
X132930000Y-76825830D01*
X132908864Y-76719571D01*
X132867403Y-76619477D01*
X132807213Y-76529396D01*
X132805000Y-76527183D01*
X132805000Y-75626040D01*
X132971040Y-75460000D01*
X133209293Y-75460000D01*
X133326827Y-75448424D01*
X133477628Y-75402679D01*
X133616606Y-75328393D01*
X133738422Y-75228422D01*
X133838393Y-75106606D01*
X133912679Y-74967628D01*
X133958424Y-74816827D01*
X133973870Y-74660000D01*
X133958424Y-74503173D01*
X133912679Y-74352372D01*
X133838393Y-74213394D01*
X133738422Y-74091578D01*
X133616606Y-73991607D01*
X133477628Y-73917321D01*
X133326827Y-73871576D01*
X133209293Y-73860000D01*
X131183300Y-73860000D01*
X131158515Y-73813630D01*
X131089935Y-73730065D01*
X131006370Y-73661485D01*
X130911032Y-73610526D01*
X130807584Y-73579145D01*
X130700001Y-73568549D01*
X129799999Y-73568549D01*
X129692416Y-73579145D01*
X129588968Y-73610526D01*
X129493630Y-73661485D01*
X129410065Y-73730065D01*
X129341485Y-73813630D01*
X129316700Y-73860000D01*
X122739291Y-73860000D01*
X122700000Y-73856130D01*
X122660709Y-73860000D01*
X122660707Y-73860000D01*
X122543173Y-73871576D01*
X122392372Y-73917321D01*
X122253393Y-73991607D01*
X122205233Y-74031131D01*
X122131578Y-74091578D01*
X122106527Y-74122103D01*
X113828630Y-82400000D01*
X113662956Y-82400000D01*
X113643778Y-82371298D01*
X113598401Y-82325921D01*
X113557689Y-82276313D01*
X113508081Y-82235601D01*
X113462704Y-82190224D01*
X113409342Y-82154569D01*
X113359738Y-82113860D01*
X113303144Y-82083610D01*
X113249783Y-82047955D01*
X113190495Y-82023397D01*
X113133898Y-81993145D01*
X113072486Y-81974516D01*
X113013198Y-81949958D01*
X112950256Y-81937438D01*
X112888847Y-81918810D01*
X112824984Y-81912520D01*
X112762041Y-81900000D01*
X102271961Y-81900000D01*
X102209018Y-81912520D01*
X102145155Y-81918810D01*
X102083746Y-81937438D01*
X102020804Y-81949958D01*
X101961516Y-81974516D01*
X101900104Y-81993145D01*
X101843507Y-82023397D01*
X101784219Y-82047955D01*
X101730858Y-82083610D01*
X101674264Y-82113860D01*
X101624660Y-82154569D01*
X101571298Y-82190224D01*
X101525921Y-82235601D01*
X101476313Y-82276313D01*
X101435601Y-82325921D01*
X101390224Y-82371298D01*
X101354569Y-82424660D01*
X101313860Y-82474264D01*
X101283610Y-82530858D01*
X101247955Y-82584219D01*
X101223397Y-82643507D01*
X101193145Y-82700104D01*
X101174516Y-82761516D01*
X101149958Y-82820804D01*
X101137438Y-82883746D01*
X101118810Y-82945155D01*
X101112520Y-83009018D01*
X101100000Y-83071961D01*
X101100000Y-72970000D01*
X129148065Y-72970000D01*
X129155788Y-73048414D01*
X129178660Y-73123814D01*
X129215803Y-73193303D01*
X129265789Y-73254211D01*
X129326697Y-73304197D01*
X129396186Y-73341340D01*
X129471586Y-73364212D01*
X129550000Y-73371935D01*
X130100000Y-73370000D01*
X130200000Y-73270000D01*
X130200000Y-72445000D01*
X130300000Y-72445000D01*
X130300000Y-73270000D01*
X130400000Y-73370000D01*
X130950000Y-73371935D01*
X131028414Y-73364212D01*
X131103814Y-73341340D01*
X131173303Y-73304197D01*
X131234211Y-73254211D01*
X131284197Y-73193303D01*
X131321340Y-73123814D01*
X131344212Y-73048414D01*
X131351935Y-72970000D01*
X131350000Y-72545000D01*
X131250000Y-72445000D01*
X130300000Y-72445000D01*
X130200000Y-72445000D01*
X129250000Y-72445000D01*
X129150000Y-72545000D01*
X129148065Y-72970000D01*
X101100000Y-72970000D01*
X101100000Y-71820000D01*
X129148065Y-71820000D01*
X129150000Y-72245000D01*
X129250000Y-72345000D01*
X130200000Y-72345000D01*
X130200000Y-71520000D01*
X130300000Y-71520000D01*
X130300000Y-72345000D01*
X131250000Y-72345000D01*
X131350000Y-72245000D01*
X131351935Y-71820000D01*
X131344212Y-71741586D01*
X131321340Y-71666186D01*
X131284197Y-71596697D01*
X131234211Y-71535789D01*
X131173303Y-71485803D01*
X131103814Y-71448660D01*
X131028414Y-71425788D01*
X130950000Y-71418065D01*
X130400000Y-71420000D01*
X130300000Y-71520000D01*
X130200000Y-71520000D01*
X130100000Y-71420000D01*
X129550000Y-71418065D01*
X129471586Y-71425788D01*
X129396186Y-71448660D01*
X129326697Y-71485803D01*
X129265789Y-71535789D01*
X129215803Y-71596697D01*
X129178660Y-71666186D01*
X129155788Y-71741586D01*
X129148065Y-71820000D01*
X101100000Y-71820000D01*
X101100000Y-65015830D01*
X106720000Y-65015830D01*
X106720000Y-65124170D01*
X106741136Y-65230429D01*
X106782597Y-65330523D01*
X106842787Y-65420604D01*
X106919396Y-65497213D01*
X107009477Y-65557403D01*
X107109571Y-65598864D01*
X107215830Y-65620000D01*
X107324170Y-65620000D01*
X107430429Y-65598864D01*
X107530523Y-65557403D01*
X107620604Y-65497213D01*
X107697213Y-65420604D01*
X107757403Y-65330523D01*
X107798864Y-65230429D01*
X107820000Y-65124170D01*
X107820000Y-65121040D01*
X109322762Y-63618279D01*
X109338974Y-63604974D01*
X109392084Y-63540260D01*
X109431548Y-63466427D01*
X109448478Y-63410617D01*
X109455850Y-63386315D01*
X109459909Y-63345099D01*
X109462000Y-63323874D01*
X109462000Y-63323868D01*
X109464055Y-63303001D01*
X109462000Y-63282134D01*
X109462000Y-61241817D01*
X109464213Y-61239604D01*
X109524403Y-61149523D01*
X109565864Y-61049429D01*
X109587000Y-60943170D01*
X109587000Y-60834830D01*
X109565864Y-60728571D01*
X109550114Y-60690547D01*
X109632830Y-60707000D01*
X109741170Y-60707000D01*
X109847429Y-60685864D01*
X109947523Y-60644403D01*
X110037604Y-60584213D01*
X110039817Y-60582000D01*
X118140959Y-60582000D01*
X117804960Y-60918000D01*
X117801830Y-60918000D01*
X117695571Y-60939136D01*
X117595477Y-60980597D01*
X117505396Y-61040787D01*
X117428787Y-61117396D01*
X117368597Y-61207477D01*
X117327136Y-61307571D01*
X117306000Y-61413830D01*
X117306000Y-61522170D01*
X117327136Y-61628429D01*
X117368597Y-61728523D01*
X117428787Y-61818604D01*
X117505396Y-61895213D01*
X117595477Y-61955403D01*
X117695571Y-61996864D01*
X117801830Y-62018000D01*
X117910170Y-62018000D01*
X118016429Y-61996864D01*
X118116523Y-61955403D01*
X118206604Y-61895213D01*
X118283213Y-61818604D01*
X118343403Y-61728523D01*
X118384864Y-61628429D01*
X118406000Y-61522170D01*
X118406000Y-61519040D01*
X118794041Y-61131000D01*
X136983960Y-61131000D01*
X139021001Y-63168042D01*
X139021000Y-72467959D01*
X136366239Y-75122721D01*
X136350027Y-75136026D01*
X136296917Y-75200740D01*
X136282121Y-75228422D01*
X136257453Y-75274573D01*
X136233150Y-75354686D01*
X136224945Y-75438000D01*
X136227001Y-75458877D01*
X136227000Y-80706115D01*
X136224945Y-80726982D01*
X136227000Y-80747849D01*
X136227000Y-80747855D01*
X136233150Y-80810295D01*
X136257452Y-80890408D01*
X136296916Y-80964241D01*
X136350026Y-81028956D01*
X136366244Y-81042266D01*
X136889734Y-81565756D01*
X136903044Y-81581974D01*
X136967758Y-81635084D01*
X137041591Y-81674548D01*
X137121704Y-81698850D01*
X137205018Y-81707056D01*
X137225892Y-81705000D01*
X138839183Y-81705000D01*
X138841396Y-81707213D01*
X138931477Y-81767403D01*
X139031571Y-81808864D01*
X139137830Y-81830000D01*
X139246170Y-81830000D01*
X139352429Y-81808864D01*
X139452523Y-81767403D01*
X139542604Y-81707213D01*
X139619213Y-81630604D01*
X139679403Y-81540523D01*
X139720864Y-81440429D01*
X139742000Y-81334170D01*
X139742000Y-81225830D01*
X139720864Y-81119571D01*
X139679403Y-81019477D01*
X139619213Y-80929396D01*
X139542604Y-80852787D01*
X139452523Y-80792597D01*
X139352429Y-80751136D01*
X139246170Y-80730000D01*
X139137830Y-80730000D01*
X139031571Y-80751136D01*
X138944005Y-80787408D01*
X138985974Y-80752964D01*
X138999284Y-80736746D01*
X144256031Y-75480000D01*
X144259160Y-75480000D01*
X144365419Y-75458864D01*
X144465513Y-75417403D01*
X144555594Y-75357213D01*
X144632203Y-75280604D01*
X144692393Y-75190523D01*
X144733854Y-75090429D01*
X144754990Y-74984170D01*
X144754990Y-74875830D01*
X144733854Y-74769571D01*
X144692393Y-74669477D01*
X144632203Y-74579396D01*
X144555594Y-74502787D01*
X144465513Y-74442597D01*
X144365419Y-74401136D01*
X144259160Y-74380000D01*
X144150820Y-74380000D01*
X144044561Y-74401136D01*
X143944467Y-74442597D01*
X143854386Y-74502787D01*
X143777777Y-74579396D01*
X143717587Y-74669477D01*
X143676126Y-74769571D01*
X143654990Y-74875830D01*
X143654990Y-74878959D01*
X138507960Y-80025990D01*
X137579827Y-80025990D01*
X137577614Y-80023777D01*
X137487533Y-79963587D01*
X137387439Y-79922126D01*
X137281180Y-79900990D01*
X137172840Y-79900990D01*
X137077000Y-79920054D01*
X137077000Y-75614040D01*
X138885790Y-73805250D01*
X153009549Y-73805250D01*
X153009549Y-76054750D01*
X153020150Y-76162382D01*
X153051545Y-76265877D01*
X153102527Y-76361259D01*
X153171138Y-76444862D01*
X153254741Y-76513473D01*
X153350123Y-76564455D01*
X153453618Y-76595850D01*
X153561250Y-76606451D01*
X155810750Y-76606451D01*
X155918382Y-76595850D01*
X156021877Y-76564455D01*
X156117259Y-76513473D01*
X156200862Y-76444862D01*
X156269473Y-76361259D01*
X156320455Y-76265877D01*
X156351850Y-76162382D01*
X156362451Y-76054750D01*
X156362451Y-73805250D01*
X156351850Y-73697618D01*
X156320455Y-73594123D01*
X156269473Y-73498741D01*
X156200862Y-73415138D01*
X156117259Y-73346527D01*
X156021877Y-73295545D01*
X155918382Y-73264150D01*
X155810750Y-73253549D01*
X153561250Y-73253549D01*
X153453618Y-73264150D01*
X153350123Y-73295545D01*
X153254741Y-73346527D01*
X153171138Y-73415138D01*
X153102527Y-73498741D01*
X153051545Y-73594123D01*
X153020150Y-73697618D01*
X153009549Y-73805250D01*
X138885790Y-73805250D01*
X139495518Y-73195523D01*
X139533092Y-73251756D01*
X139609701Y-73328365D01*
X139699782Y-73388555D01*
X139799876Y-73430016D01*
X139906135Y-73451152D01*
X140014475Y-73451152D01*
X140120734Y-73430016D01*
X140220828Y-73388555D01*
X140310909Y-73328365D01*
X140387518Y-73251756D01*
X140447708Y-73161675D01*
X140489169Y-73061581D01*
X140510305Y-72955322D01*
X140510305Y-72846982D01*
X140489169Y-72740723D01*
X140447708Y-72640629D01*
X140387518Y-72550548D01*
X140385305Y-72548335D01*
X140385305Y-71936479D01*
X144752232Y-71936479D01*
X144830305Y-72124068D01*
X145039019Y-72235036D01*
X145265371Y-72303153D01*
X145500663Y-72325802D01*
X145735852Y-72302114D01*
X145961900Y-72232997D01*
X146165695Y-72124068D01*
X146243768Y-71936479D01*
X145498000Y-71190711D01*
X144752232Y-71936479D01*
X140385305Y-71936479D01*
X140385305Y-71122663D01*
X144292198Y-71122663D01*
X144315886Y-71357852D01*
X144385003Y-71583900D01*
X144493932Y-71787695D01*
X144681521Y-71865768D01*
X145427289Y-71120000D01*
X145568711Y-71120000D01*
X146314479Y-71865768D01*
X146502068Y-71787695D01*
X146613036Y-71578981D01*
X146681153Y-71352629D01*
X146703802Y-71117337D01*
X146680114Y-70882148D01*
X146610997Y-70656100D01*
X146564977Y-70570000D01*
X147996549Y-70570000D01*
X147996549Y-71670000D01*
X148007145Y-71777583D01*
X148038526Y-71881031D01*
X148089485Y-71976370D01*
X148158065Y-72059935D01*
X148241630Y-72128515D01*
X148336969Y-72179474D01*
X148440417Y-72210855D01*
X148548000Y-72221451D01*
X149648000Y-72221451D01*
X149755583Y-72210855D01*
X149859031Y-72179474D01*
X149954370Y-72128515D01*
X150037935Y-72059935D01*
X150106515Y-71976370D01*
X150157474Y-71881031D01*
X150188855Y-71777583D01*
X150199451Y-71670000D01*
X150199451Y-70570000D01*
X150188855Y-70462417D01*
X150157474Y-70358969D01*
X150106515Y-70263630D01*
X150037935Y-70180065D01*
X149954370Y-70111485D01*
X149859031Y-70060526D01*
X149755583Y-70029145D01*
X149648000Y-70018549D01*
X148548000Y-70018549D01*
X148440417Y-70029145D01*
X148336969Y-70060526D01*
X148241630Y-70111485D01*
X148158065Y-70180065D01*
X148089485Y-70263630D01*
X148038526Y-70358969D01*
X148007145Y-70462417D01*
X147996549Y-70570000D01*
X146564977Y-70570000D01*
X146502068Y-70452305D01*
X146314479Y-70374232D01*
X145568711Y-71120000D01*
X145427289Y-71120000D01*
X144681521Y-70374232D01*
X144493932Y-70452305D01*
X144382964Y-70661019D01*
X144314847Y-70887371D01*
X144292198Y-71122663D01*
X140385305Y-71122663D01*
X140385305Y-70303521D01*
X144752232Y-70303521D01*
X145498000Y-71049289D01*
X146243768Y-70303521D01*
X146165695Y-70115932D01*
X145956981Y-70004964D01*
X145730629Y-69936847D01*
X145495337Y-69914198D01*
X145260148Y-69937886D01*
X145034100Y-70007003D01*
X144830305Y-70115932D01*
X144752232Y-70303521D01*
X140385305Y-70303521D01*
X140385305Y-62765172D01*
X140387360Y-62744305D01*
X140385305Y-62723438D01*
X140385305Y-62723431D01*
X140379155Y-62660991D01*
X140371852Y-62636916D01*
X140354853Y-62580877D01*
X140341106Y-62555160D01*
X140315389Y-62507045D01*
X140262279Y-62442331D01*
X140246067Y-62429026D01*
X137688283Y-59871243D01*
X137674974Y-59855026D01*
X137610260Y-59801916D01*
X137536427Y-59762452D01*
X137456314Y-59738150D01*
X137393874Y-59732000D01*
X137393867Y-59732000D01*
X137373000Y-59729945D01*
X137352133Y-59732000D01*
X110039817Y-59732000D01*
X110037604Y-59729787D01*
X109947523Y-59669597D01*
X109847429Y-59628136D01*
X109741170Y-59607000D01*
X109632830Y-59607000D01*
X109526571Y-59628136D01*
X109426477Y-59669597D01*
X109336396Y-59729787D01*
X109259787Y-59806396D01*
X109199597Y-59896477D01*
X109158136Y-59996571D01*
X109137000Y-60102830D01*
X109137000Y-60211170D01*
X109158136Y-60317429D01*
X109173886Y-60355453D01*
X109091170Y-60339000D01*
X108982830Y-60339000D01*
X108876571Y-60360136D01*
X108776477Y-60401597D01*
X108686396Y-60461787D01*
X108609787Y-60538396D01*
X108549597Y-60628477D01*
X108508136Y-60728571D01*
X108487000Y-60834830D01*
X108487000Y-60943170D01*
X108508136Y-61049429D01*
X108549597Y-61149523D01*
X108609787Y-61239604D01*
X108612000Y-61241817D01*
X108612001Y-63126958D01*
X107218960Y-64520000D01*
X107215830Y-64520000D01*
X107109571Y-64541136D01*
X107009477Y-64582597D01*
X106919396Y-64642787D01*
X106842787Y-64719396D01*
X106782597Y-64809477D01*
X106741136Y-64909571D01*
X106720000Y-65015830D01*
X101100000Y-65015830D01*
X101100000Y-44829961D01*
X106904000Y-44829961D01*
X106904000Y-45086039D01*
X106953958Y-45337196D01*
X107051955Y-45573781D01*
X107194224Y-45786702D01*
X107375298Y-45967776D01*
X107588219Y-46110045D01*
X107824804Y-46208042D01*
X108075961Y-46258000D01*
X108332039Y-46258000D01*
X108583196Y-46208042D01*
X108819781Y-46110045D01*
X109010944Y-45982314D01*
X116206734Y-53178105D01*
X116200000Y-53211961D01*
X116200000Y-53468039D01*
X116249958Y-53719196D01*
X116347955Y-53955781D01*
X116490224Y-54168702D01*
X116671298Y-54349776D01*
X116884219Y-54492045D01*
X117120804Y-54590042D01*
X117371961Y-54640000D01*
X117628039Y-54640000D01*
X117879196Y-54590042D01*
X118115781Y-54492045D01*
X118328702Y-54349776D01*
X118509776Y-54168702D01*
X118652045Y-53955781D01*
X118750042Y-53719196D01*
X118800000Y-53468039D01*
X118800000Y-53211961D01*
X118750042Y-52960804D01*
X118652045Y-52724219D01*
X118509776Y-52511298D01*
X118328702Y-52330224D01*
X118115781Y-52187955D01*
X117879196Y-52089958D01*
X117628039Y-52040000D01*
X117371961Y-52040000D01*
X117338105Y-52046734D01*
X114206233Y-48914862D01*
X133735848Y-48914862D01*
X134017878Y-49276543D01*
X134515599Y-49556901D01*
X135058451Y-49734772D01*
X135625574Y-49803320D01*
X136195173Y-49759910D01*
X136745358Y-49606211D01*
X137254986Y-49348129D01*
X137362122Y-49276543D01*
X137644152Y-48914862D01*
X135690000Y-46960711D01*
X133735848Y-48914862D01*
X114206233Y-48914862D01*
X112116945Y-46825574D01*
X132776680Y-46825574D01*
X132820090Y-47395173D01*
X132973789Y-47945358D01*
X133231871Y-48454986D01*
X133303457Y-48562122D01*
X133665138Y-48844152D01*
X135619289Y-46890000D01*
X135760711Y-46890000D01*
X137714862Y-48844152D01*
X138076543Y-48562122D01*
X138356901Y-48064401D01*
X138534772Y-47521549D01*
X138603320Y-46954426D01*
X138559910Y-46384827D01*
X138406211Y-45834642D01*
X138148129Y-45325014D01*
X138076543Y-45217878D01*
X137714862Y-44935848D01*
X135760711Y-46890000D01*
X135619289Y-46890000D01*
X133665138Y-44935848D01*
X133303457Y-45217878D01*
X133023099Y-45715599D01*
X132845228Y-46258451D01*
X132776680Y-46825574D01*
X112116945Y-46825574D01*
X110156509Y-44865138D01*
X133735848Y-44865138D01*
X135690000Y-46819289D01*
X137644152Y-44865138D01*
X137362122Y-44503457D01*
X136864401Y-44223099D01*
X136321549Y-44045228D01*
X135754426Y-43976680D01*
X135184827Y-44020090D01*
X134634642Y-44173789D01*
X134125014Y-44431871D01*
X134017878Y-44503457D01*
X133735848Y-44865138D01*
X110156509Y-44865138D01*
X109711473Y-44420103D01*
X109686422Y-44389578D01*
X109564606Y-44289607D01*
X109425628Y-44215321D01*
X109274827Y-44169576D01*
X109238284Y-44165977D01*
X109213776Y-44129298D01*
X109032702Y-43948224D01*
X108819781Y-43805955D01*
X108583196Y-43707958D01*
X108332039Y-43658000D01*
X108075961Y-43658000D01*
X107824804Y-43707958D01*
X107588219Y-43805955D01*
X107375298Y-43948224D01*
X107194224Y-44129298D01*
X107051955Y-44342219D01*
X106953958Y-44578804D01*
X106904000Y-44829961D01*
X101100000Y-44829961D01*
X101100000Y-41100000D01*
X157900000Y-41100000D01*
X157900000Y-82000000D01*
G37*
X157900000Y-82000000D02*
X157901921Y-82019509D01*
X157907612Y-82038268D01*
X157916853Y-82055557D01*
X157929289Y-82070711D01*
X157944443Y-82083147D01*
X157961732Y-82092388D01*
X157980491Y-82098079D01*
X158000000Y-82100000D01*
X198900000Y-82100000D01*
X198900000Y-138900000D01*
X101100000Y-138900000D01*
X101100000Y-135804862D01*
X103975848Y-135804862D01*
X104257878Y-136166543D01*
X104755599Y-136446901D01*
X105298451Y-136624772D01*
X105865574Y-136693320D01*
X106435173Y-136649910D01*
X106954390Y-136504862D01*
X192055848Y-136504862D01*
X192337878Y-136866543D01*
X192835599Y-137146901D01*
X193378451Y-137324772D01*
X193945574Y-137393320D01*
X194515173Y-137349910D01*
X195065358Y-137196211D01*
X195574986Y-136938129D01*
X195682122Y-136866543D01*
X195964152Y-136504862D01*
X194010000Y-134550711D01*
X192055848Y-136504862D01*
X106954390Y-136504862D01*
X106985358Y-136496211D01*
X107494986Y-136238129D01*
X107602122Y-136166543D01*
X107884152Y-135804862D01*
X105930000Y-133850711D01*
X103975848Y-135804862D01*
X101100000Y-135804862D01*
X101100000Y-133715574D01*
X103016680Y-133715574D01*
X103060090Y-134285173D01*
X103213789Y-134835358D01*
X103471871Y-135344986D01*
X103543457Y-135452122D01*
X103905138Y-135734152D01*
X105859289Y-133780000D01*
X106000711Y-133780000D01*
X107954862Y-135734152D01*
X108316543Y-135452122D01*
X108596901Y-134954401D01*
X108773453Y-134415574D01*
X191096680Y-134415574D01*
X191140090Y-134985173D01*
X191293789Y-135535358D01*
X191551871Y-136044986D01*
X191623457Y-136152122D01*
X191985138Y-136434152D01*
X193939289Y-134480000D01*
X194080711Y-134480000D01*
X196034862Y-136434152D01*
X196396543Y-136152122D01*
X196676901Y-135654401D01*
X196854772Y-135111549D01*
X196923320Y-134544426D01*
X196879910Y-133974827D01*
X196726211Y-133424642D01*
X196468129Y-132915014D01*
X196396543Y-132807878D01*
X196034862Y-132525848D01*
X194080711Y-134480000D01*
X193939289Y-134480000D01*
X191985138Y-132525848D01*
X191623457Y-132807878D01*
X191343099Y-133305599D01*
X191165228Y-133848451D01*
X191096680Y-134415574D01*
X108773453Y-134415574D01*
X108774772Y-134411549D01*
X108843320Y-133844426D01*
X108799910Y-133274827D01*
X108646211Y-132724642D01*
X108388129Y-132215014D01*
X108316543Y-132107878D01*
X107954862Y-131825848D01*
X106000711Y-133780000D01*
X105859289Y-133780000D01*
X103905138Y-131825848D01*
X103543457Y-132107878D01*
X103263099Y-132605599D01*
X103085228Y-133148451D01*
X103016680Y-133715574D01*
X101100000Y-133715574D01*
X101100000Y-131755138D01*
X103975848Y-131755138D01*
X105930000Y-133709289D01*
X107884152Y-131755138D01*
X107602122Y-131393457D01*
X107104401Y-131113099D01*
X106689035Y-130977000D01*
X119827065Y-130977000D01*
X119834788Y-131055414D01*
X119857660Y-131130814D01*
X119894803Y-131200303D01*
X119944789Y-131261211D01*
X120005697Y-131311197D01*
X120075186Y-131348340D01*
X120150586Y-131371212D01*
X120229000Y-131378935D01*
X120754000Y-131377000D01*
X120854000Y-131277000D01*
X120854000Y-130352000D01*
X119929000Y-130352000D01*
X119829000Y-130452000D01*
X119827065Y-130977000D01*
X106689035Y-130977000D01*
X106561549Y-130935228D01*
X105994426Y-130866680D01*
X105424827Y-130910090D01*
X104874642Y-131063789D01*
X104365014Y-131321871D01*
X104257878Y-131393457D01*
X103975848Y-131755138D01*
X101100000Y-131755138D01*
X101100000Y-129627000D01*
X119827065Y-129627000D01*
X119829000Y-130152000D01*
X119929000Y-130252000D01*
X120854000Y-130252000D01*
X120854000Y-129327000D01*
X120754000Y-129227000D01*
X120229000Y-129225065D01*
X120150586Y-129232788D01*
X120075186Y-129255660D01*
X120005697Y-129292803D01*
X119944789Y-129342789D01*
X119894803Y-129403697D01*
X119857660Y-129473186D01*
X119834788Y-129548586D01*
X119827065Y-129627000D01*
X101100000Y-129627000D01*
X101100000Y-124165000D01*
X112307549Y-124165000D01*
X112307549Y-125515000D01*
X112313341Y-125573810D01*
X112330496Y-125630360D01*
X112358353Y-125682477D01*
X112395842Y-125728158D01*
X112441523Y-125765647D01*
X112493640Y-125793504D01*
X112550190Y-125810659D01*
X112609000Y-125816451D01*
X113959000Y-125816451D01*
X114017810Y-125810659D01*
X114074360Y-125793504D01*
X114126477Y-125765647D01*
X114172158Y-125728158D01*
X114209647Y-125682477D01*
X114237504Y-125630360D01*
X114254659Y-125573810D01*
X114260451Y-125515000D01*
X114260451Y-124165000D01*
X114254659Y-124106190D01*
X114237504Y-124049640D01*
X114209647Y-123997523D01*
X114172158Y-123951842D01*
X114126477Y-123914353D01*
X114074360Y-123886496D01*
X114017810Y-123869341D01*
X113959000Y-123863549D01*
X112609000Y-123863549D01*
X112550190Y-123869341D01*
X112493640Y-123886496D01*
X112441523Y-123914353D01*
X112395842Y-123951842D01*
X112358353Y-123997523D01*
X112330496Y-124049640D01*
X112313341Y-124106190D01*
X112307549Y-124165000D01*
X101100000Y-124165000D01*
X101100000Y-122743971D01*
X112309000Y-122743971D01*
X112309000Y-122936029D01*
X112346468Y-123124397D01*
X112419966Y-123301836D01*
X112526668Y-123461527D01*
X112662473Y-123597332D01*
X112822164Y-123704034D01*
X112999603Y-123777532D01*
X113187971Y-123815000D01*
X113380029Y-123815000D01*
X113568397Y-123777532D01*
X113745836Y-123704034D01*
X113905527Y-123597332D01*
X114041332Y-123461527D01*
X114148034Y-123301836D01*
X114221532Y-123124397D01*
X114259000Y-122936029D01*
X114259000Y-122743971D01*
X114221532Y-122555603D01*
X114148034Y-122378164D01*
X114041332Y-122218473D01*
X113905527Y-122082668D01*
X113745836Y-121975966D01*
X113568397Y-121902468D01*
X113380029Y-121865000D01*
X113187971Y-121865000D01*
X112999603Y-121902468D01*
X112822164Y-121975966D01*
X112662473Y-122082668D01*
X112526668Y-122218473D01*
X112419966Y-122378164D01*
X112346468Y-122555603D01*
X112309000Y-122743971D01*
X101100000Y-122743971D01*
X101100000Y-120743971D01*
X112309000Y-120743971D01*
X112309000Y-120936029D01*
X112346468Y-121124397D01*
X112419966Y-121301836D01*
X112526668Y-121461527D01*
X112662473Y-121597332D01*
X112822164Y-121704034D01*
X112999603Y-121777532D01*
X113187971Y-121815000D01*
X113380029Y-121815000D01*
X113568397Y-121777532D01*
X113745836Y-121704034D01*
X113905527Y-121597332D01*
X114041332Y-121461527D01*
X114148034Y-121301836D01*
X114221532Y-121124397D01*
X114259000Y-120936029D01*
X114259000Y-120743971D01*
X114221532Y-120555603D01*
X114148034Y-120378164D01*
X114041332Y-120218473D01*
X113905527Y-120082668D01*
X113745836Y-119975966D01*
X113568397Y-119902468D01*
X113380029Y-119865000D01*
X113187971Y-119865000D01*
X112999603Y-119902468D01*
X112822164Y-119975966D01*
X112662473Y-120082668D01*
X112526668Y-120218473D01*
X112419966Y-120378164D01*
X112346468Y-120555603D01*
X112309000Y-120743971D01*
X101100000Y-120743971D01*
X101100000Y-118743971D01*
X112309000Y-118743971D01*
X112309000Y-118936029D01*
X112346468Y-119124397D01*
X112419966Y-119301836D01*
X112526668Y-119461527D01*
X112662473Y-119597332D01*
X112822164Y-119704034D01*
X112999603Y-119777532D01*
X113187971Y-119815000D01*
X113380029Y-119815000D01*
X113568397Y-119777532D01*
X113745836Y-119704034D01*
X113905527Y-119597332D01*
X114041332Y-119461527D01*
X114148034Y-119301836D01*
X114221532Y-119124397D01*
X114259000Y-118936029D01*
X114259000Y-118743971D01*
X114221532Y-118555603D01*
X114148034Y-118378164D01*
X114041332Y-118218473D01*
X113905527Y-118082668D01*
X113745836Y-117975966D01*
X113568397Y-117902468D01*
X113380029Y-117865000D01*
X113187971Y-117865000D01*
X112999603Y-117902468D01*
X112822164Y-117975966D01*
X112662473Y-118082668D01*
X112526668Y-118218473D01*
X112419966Y-118378164D01*
X112346468Y-118555603D01*
X112309000Y-118743971D01*
X101100000Y-118743971D01*
X101100000Y-116743971D01*
X112309000Y-116743971D01*
X112309000Y-116936029D01*
X112346468Y-117124397D01*
X112419966Y-117301836D01*
X112526668Y-117461527D01*
X112662473Y-117597332D01*
X112822164Y-117704034D01*
X112999603Y-117777532D01*
X113187971Y-117815000D01*
X113380029Y-117815000D01*
X113568397Y-117777532D01*
X113745836Y-117704034D01*
X113905527Y-117597332D01*
X114041332Y-117461527D01*
X114148034Y-117301836D01*
X114221532Y-117124397D01*
X114259000Y-116936029D01*
X114259000Y-116743971D01*
X114221532Y-116555603D01*
X114148034Y-116378164D01*
X114041332Y-116218473D01*
X113905527Y-116082668D01*
X113745836Y-115975966D01*
X113568397Y-115902468D01*
X113380029Y-115865000D01*
X113187971Y-115865000D01*
X112999603Y-115902468D01*
X112822164Y-115975966D01*
X112662473Y-116082668D01*
X112526668Y-116218473D01*
X112419966Y-116378164D01*
X112346468Y-116555603D01*
X112309000Y-116743971D01*
X101100000Y-116743971D01*
X101100000Y-98065830D01*
X104780000Y-98065830D01*
X104780000Y-98174170D01*
X104801136Y-98280429D01*
X104842597Y-98380523D01*
X104902787Y-98470604D01*
X104979396Y-98547213D01*
X105000001Y-98560981D01*
X105000000Y-114562183D01*
X104972787Y-114589396D01*
X104912597Y-114679477D01*
X104871136Y-114779571D01*
X104850000Y-114885830D01*
X104850000Y-114994170D01*
X104871136Y-115100429D01*
X104912597Y-115200523D01*
X104972787Y-115290604D01*
X105049396Y-115367213D01*
X105139477Y-115427403D01*
X105239571Y-115468864D01*
X105345830Y-115490000D01*
X105454170Y-115490000D01*
X105560429Y-115468864D01*
X105660523Y-115427403D01*
X105750604Y-115367213D01*
X105827213Y-115290604D01*
X105887403Y-115200523D01*
X105928864Y-115100429D01*
X105950000Y-114994170D01*
X105950000Y-114885830D01*
X105928864Y-114779571D01*
X105914118Y-114743971D01*
X112309000Y-114743971D01*
X112309000Y-114936029D01*
X112346468Y-115124397D01*
X112419966Y-115301836D01*
X112526668Y-115461527D01*
X112662473Y-115597332D01*
X112822164Y-115704034D01*
X112999603Y-115777532D01*
X113187971Y-115815000D01*
X113380029Y-115815000D01*
X113568397Y-115777532D01*
X113745836Y-115704034D01*
X113905527Y-115597332D01*
X114041332Y-115461527D01*
X114148034Y-115301836D01*
X114221532Y-115124397D01*
X114259000Y-114936029D01*
X114259000Y-114743971D01*
X114221532Y-114555603D01*
X114148034Y-114378164D01*
X114041332Y-114218473D01*
X113905527Y-114082668D01*
X113745836Y-113975966D01*
X113568397Y-113902468D01*
X113380029Y-113865000D01*
X113187971Y-113865000D01*
X112999603Y-113902468D01*
X112822164Y-113975966D01*
X112662473Y-114082668D01*
X112526668Y-114218473D01*
X112419966Y-114378164D01*
X112346468Y-114555603D01*
X112309000Y-114743971D01*
X105914118Y-114743971D01*
X105887403Y-114679477D01*
X105827213Y-114589396D01*
X105800000Y-114562183D01*
X105800000Y-112743971D01*
X112309000Y-112743971D01*
X112309000Y-112936029D01*
X112346468Y-113124397D01*
X112419966Y-113301836D01*
X112526668Y-113461527D01*
X112662473Y-113597332D01*
X112822164Y-113704034D01*
X112999603Y-113777532D01*
X113187971Y-113815000D01*
X113380029Y-113815000D01*
X113568397Y-113777532D01*
X113745836Y-113704034D01*
X113905527Y-113597332D01*
X114041332Y-113461527D01*
X114148034Y-113301836D01*
X114221532Y-113124397D01*
X114259000Y-112936029D01*
X114259000Y-112743971D01*
X114221532Y-112555603D01*
X114148034Y-112378164D01*
X114041332Y-112218473D01*
X113905527Y-112082668D01*
X113745836Y-111975966D01*
X113568397Y-111902468D01*
X113380029Y-111865000D01*
X113187971Y-111865000D01*
X112999603Y-111902468D01*
X112822164Y-111975966D01*
X112662473Y-112082668D01*
X112526668Y-112218473D01*
X112419966Y-112378164D01*
X112346468Y-112555603D01*
X112309000Y-112743971D01*
X105800000Y-112743971D01*
X105800000Y-110743971D01*
X112309000Y-110743971D01*
X112309000Y-110936029D01*
X112346468Y-111124397D01*
X112419966Y-111301836D01*
X112526668Y-111461527D01*
X112662473Y-111597332D01*
X112822164Y-111704034D01*
X112999603Y-111777532D01*
X113187971Y-111815000D01*
X113380029Y-111815000D01*
X113568397Y-111777532D01*
X113745836Y-111704034D01*
X113905527Y-111597332D01*
X114041332Y-111461527D01*
X114148034Y-111301836D01*
X114221532Y-111124397D01*
X114259000Y-110936029D01*
X114259000Y-110743971D01*
X114221532Y-110555603D01*
X114148034Y-110378164D01*
X114041332Y-110218473D01*
X113905527Y-110082668D01*
X113745836Y-109975966D01*
X113568397Y-109902468D01*
X113380029Y-109865000D01*
X113187971Y-109865000D01*
X112999603Y-109902468D01*
X112822164Y-109975966D01*
X112662473Y-110082668D01*
X112526668Y-110218473D01*
X112419966Y-110378164D01*
X112346468Y-110555603D01*
X112309000Y-110743971D01*
X105800000Y-110743971D01*
X105800000Y-99191040D01*
X126479000Y-119870041D01*
X126479001Y-129422708D01*
X126442164Y-129437966D01*
X126282473Y-129544668D01*
X126146668Y-129680473D01*
X126039966Y-129840164D01*
X125966468Y-130017603D01*
X125954563Y-130077454D01*
X125894161Y-129883416D01*
X125793474Y-129698288D01*
X125658605Y-129536360D01*
X125494737Y-129403855D01*
X125308167Y-129305866D01*
X125121370Y-129249205D01*
X124954000Y-129328283D01*
X124954000Y-130252000D01*
X124974000Y-130252000D01*
X124974000Y-130352000D01*
X124954000Y-130352000D01*
X124954000Y-131275717D01*
X125121370Y-131354795D01*
X125308167Y-131298134D01*
X125494737Y-131200145D01*
X125658605Y-131067640D01*
X125793474Y-130905712D01*
X125894161Y-130720584D01*
X125954563Y-130526546D01*
X125966468Y-130586397D01*
X126039966Y-130763836D01*
X126146668Y-130923527D01*
X126282473Y-131059332D01*
X126442164Y-131166034D01*
X126619603Y-131239532D01*
X126807971Y-131277000D01*
X127000029Y-131277000D01*
X127188397Y-131239532D01*
X127225233Y-131224274D01*
X128417959Y-132417000D01*
X125620041Y-132417000D01*
X124501759Y-131298718D01*
X124686630Y-131354795D01*
X124854000Y-131275717D01*
X124854000Y-130352000D01*
X124834000Y-130352000D01*
X124834000Y-130252000D01*
X124854000Y-130252000D01*
X124854000Y-129328283D01*
X124686630Y-129249205D01*
X124499833Y-129305866D01*
X124313263Y-129403855D01*
X124149395Y-129536360D01*
X124014526Y-129698288D01*
X123913839Y-129883416D01*
X123853437Y-130077454D01*
X123841532Y-130017603D01*
X123768034Y-129840164D01*
X123661332Y-129680473D01*
X123525527Y-129544668D01*
X123365836Y-129437966D01*
X123188397Y-129364468D01*
X123000029Y-129327000D01*
X122807971Y-129327000D01*
X122619603Y-129364468D01*
X122442164Y-129437966D01*
X122282473Y-129544668D01*
X122146668Y-129680473D01*
X122039966Y-129840164D01*
X121979612Y-129985870D01*
X121980935Y-129627000D01*
X121973212Y-129548586D01*
X121950340Y-129473186D01*
X121913197Y-129403697D01*
X121863211Y-129342789D01*
X121802303Y-129292803D01*
X121732814Y-129255660D01*
X121657414Y-129232788D01*
X121579000Y-129225065D01*
X121054000Y-129227000D01*
X120954000Y-129327000D01*
X120954000Y-130252000D01*
X120974000Y-130252000D01*
X120974000Y-130352000D01*
X120954000Y-130352000D01*
X120954000Y-131277000D01*
X121054000Y-131377000D01*
X121579000Y-131378935D01*
X121657414Y-131371212D01*
X121732814Y-131348340D01*
X121802303Y-131311197D01*
X121863211Y-131261211D01*
X121913197Y-131200303D01*
X121950340Y-131130814D01*
X121973212Y-131055414D01*
X121980935Y-130977000D01*
X121979612Y-130618130D01*
X122039966Y-130763836D01*
X122146668Y-130923527D01*
X122282473Y-131059332D01*
X122442164Y-131166034D01*
X122619603Y-131239532D01*
X122807971Y-131277000D01*
X123000029Y-131277000D01*
X123188397Y-131239532D01*
X123225233Y-131224274D01*
X125128719Y-133127760D01*
X125142026Y-133143974D01*
X125206740Y-133197084D01*
X125280573Y-133236548D01*
X125336383Y-133253478D01*
X125360685Y-133260850D01*
X125369098Y-133261679D01*
X125423126Y-133267000D01*
X125423132Y-133267000D01*
X125443999Y-133269055D01*
X125464866Y-133267000D01*
X152639549Y-133267000D01*
X152639549Y-133496500D01*
X152649905Y-133601644D01*
X152680574Y-133702748D01*
X152730379Y-133795925D01*
X152797404Y-133877596D01*
X152879075Y-133944621D01*
X152972252Y-133994426D01*
X153073356Y-134025095D01*
X153178500Y-134035451D01*
X153653500Y-134035451D01*
X153758644Y-134025095D01*
X153859748Y-133994426D01*
X153952925Y-133944621D01*
X154034596Y-133877596D01*
X154101621Y-133795925D01*
X154151426Y-133702748D01*
X154182095Y-133601644D01*
X154192451Y-133496500D01*
X154192451Y-133267000D01*
X170921133Y-133267000D01*
X170942000Y-133269055D01*
X170962867Y-133267000D01*
X170962874Y-133267000D01*
X171025314Y-133260850D01*
X171105427Y-133236548D01*
X171179260Y-133197084D01*
X171243974Y-133143974D01*
X171257284Y-133127756D01*
X171929902Y-132455138D01*
X192055848Y-132455138D01*
X194010000Y-134409289D01*
X195964152Y-132455138D01*
X195682122Y-132093457D01*
X195184401Y-131813099D01*
X194641549Y-131635228D01*
X194074426Y-131566680D01*
X193504827Y-131610090D01*
X192954642Y-131763789D01*
X192445014Y-132021871D01*
X192337878Y-132093457D01*
X192055848Y-132455138D01*
X171929902Y-132455138D01*
X175123039Y-129262001D01*
X175126169Y-129262001D01*
X175232428Y-129240865D01*
X175332522Y-129199404D01*
X175422603Y-129139214D01*
X175499212Y-129062605D01*
X175559402Y-128972524D01*
X175600863Y-128872430D01*
X175621999Y-128766171D01*
X175621999Y-128657831D01*
X175600863Y-128551572D01*
X175559402Y-128451478D01*
X175499212Y-128361397D01*
X175422603Y-128284788D01*
X175332522Y-128224598D01*
X175232428Y-128183137D01*
X175126169Y-128162001D01*
X175017829Y-128162001D01*
X174911570Y-128183137D01*
X174811476Y-128224598D01*
X174721395Y-128284788D01*
X174674484Y-128331699D01*
X174627495Y-128261376D01*
X174550886Y-128184767D01*
X174460805Y-128124577D01*
X174360711Y-128083116D01*
X174254452Y-128061980D01*
X174146112Y-128061980D01*
X174039853Y-128083116D01*
X174028062Y-128088000D01*
X174010864Y-128001540D01*
X173969403Y-127901446D01*
X173909213Y-127811365D01*
X173832604Y-127734756D01*
X173742523Y-127674566D01*
X173642429Y-127633105D01*
X173536170Y-127611969D01*
X173427830Y-127611969D01*
X173321571Y-127633105D01*
X173221477Y-127674566D01*
X173131396Y-127734756D01*
X173129183Y-127736969D01*
X169119010Y-127736969D01*
X167117500Y-125735460D01*
X167117500Y-125732330D01*
X167096364Y-125626071D01*
X167054903Y-125525977D01*
X166994713Y-125435896D01*
X166918104Y-125359287D01*
X166828023Y-125299097D01*
X166727929Y-125257636D01*
X166621670Y-125236500D01*
X166513330Y-125236500D01*
X166407071Y-125257636D01*
X166306977Y-125299097D01*
X166216896Y-125359287D01*
X166140287Y-125435896D01*
X166080097Y-125525977D01*
X166038636Y-125626071D01*
X166017500Y-125732330D01*
X166017500Y-125840670D01*
X166038636Y-125946929D01*
X166080097Y-126047023D01*
X166140287Y-126137104D01*
X166216896Y-126213713D01*
X166306977Y-126273903D01*
X166407071Y-126315364D01*
X166513330Y-126336500D01*
X166516460Y-126336500D01*
X167516959Y-127337000D01*
X167230821Y-127337000D01*
X167228608Y-127334787D01*
X167138527Y-127274597D01*
X167038433Y-127233136D01*
X166932174Y-127212000D01*
X166823834Y-127212000D01*
X166717575Y-127233136D01*
X166617481Y-127274597D01*
X166527400Y-127334787D01*
X166450791Y-127411396D01*
X166390601Y-127501477D01*
X166349140Y-127601571D01*
X166328004Y-127707830D01*
X166328004Y-127816170D01*
X166349140Y-127922429D01*
X166390601Y-128022523D01*
X166450791Y-128112604D01*
X166527400Y-128189213D01*
X166617481Y-128249403D01*
X166717575Y-128290864D01*
X166823834Y-128312000D01*
X166932174Y-128312000D01*
X167038433Y-128290864D01*
X167138527Y-128249403D01*
X167228608Y-128189213D01*
X167230821Y-128187000D01*
X167463960Y-128187000D01*
X168299695Y-129022735D01*
X168313005Y-129038953D01*
X168377719Y-129092063D01*
X168434800Y-129122573D01*
X168451552Y-129131527D01*
X168531665Y-129155829D01*
X168614979Y-129164035D01*
X168635853Y-129161979D01*
X172574204Y-129161979D01*
X172546787Y-129189396D01*
X172486597Y-129279477D01*
X172445136Y-129379571D01*
X172424000Y-129485830D01*
X172424000Y-129594170D01*
X172445136Y-129700429D01*
X172486597Y-129800523D01*
X172540205Y-129880754D01*
X170511960Y-131909000D01*
X156732451Y-131909000D01*
X156732451Y-131651500D01*
X156722095Y-131546356D01*
X156691426Y-131445252D01*
X156641621Y-131352075D01*
X156574596Y-131270404D01*
X156492925Y-131203379D01*
X156399748Y-131153574D01*
X156298644Y-131122905D01*
X156193500Y-131112549D01*
X155718500Y-131112549D01*
X155613356Y-131122905D01*
X155512252Y-131153574D01*
X155419075Y-131203379D01*
X155337404Y-131270404D01*
X155270379Y-131352075D01*
X155220574Y-131445252D01*
X155189905Y-131546356D01*
X155179549Y-131651500D01*
X155179549Y-131909000D01*
X154164697Y-131909000D01*
X154182095Y-131851644D01*
X154192451Y-131746500D01*
X154192451Y-131171500D01*
X154182095Y-131066356D01*
X154151426Y-130965252D01*
X154101621Y-130872075D01*
X154034596Y-130790404D01*
X153952925Y-130723379D01*
X153859748Y-130673574D01*
X153841000Y-130667887D01*
X153841000Y-130322866D01*
X153843055Y-130301999D01*
X153841000Y-130281132D01*
X153841000Y-130281126D01*
X153834850Y-130218686D01*
X153832649Y-130211428D01*
X153814621Y-130152000D01*
X153810548Y-130138573D01*
X153771084Y-130064740D01*
X153717974Y-130000026D01*
X153701761Y-129986720D01*
X150110284Y-126395243D01*
X150096974Y-126379026D01*
X150032260Y-126325916D01*
X150018701Y-126318669D01*
X151009370Y-125328000D01*
X151396960Y-125328000D01*
X155486368Y-129417409D01*
X155419075Y-129453379D01*
X155337404Y-129520404D01*
X155270379Y-129602075D01*
X155220574Y-129695252D01*
X155189905Y-129796356D01*
X155179549Y-129901500D01*
X155179549Y-130476500D01*
X155189905Y-130581644D01*
X155220574Y-130682748D01*
X155270379Y-130775925D01*
X155337404Y-130857596D01*
X155419075Y-130924621D01*
X155512252Y-130974426D01*
X155613356Y-131005095D01*
X155718500Y-131015451D01*
X156193500Y-131015451D01*
X156298644Y-131005095D01*
X156399748Y-130974426D01*
X156492925Y-130924621D01*
X156574596Y-130857596D01*
X156641621Y-130775925D01*
X156691426Y-130682748D01*
X156722095Y-130581644D01*
X156732451Y-130476500D01*
X156732451Y-129901500D01*
X156722095Y-129796356D01*
X156691426Y-129695252D01*
X156641621Y-129602075D01*
X156574596Y-129520404D01*
X156492925Y-129453379D01*
X156399748Y-129403574D01*
X156381000Y-129397887D01*
X156381000Y-129306866D01*
X156383055Y-129285999D01*
X156381000Y-129265132D01*
X156381000Y-129265126D01*
X156374850Y-129202686D01*
X156373855Y-129199404D01*
X156362502Y-129161980D01*
X156350548Y-129122573D01*
X156311084Y-129048740D01*
X156257974Y-128984026D01*
X156241762Y-128970721D01*
X151888284Y-124617244D01*
X151874974Y-124601026D01*
X151810260Y-124547916D01*
X151796702Y-124540669D01*
X152617377Y-123719994D01*
X182935289Y-123719994D01*
X183052823Y-123708418D01*
X183203624Y-123662673D01*
X183342602Y-123588387D01*
X183464418Y-123488416D01*
X183564389Y-123366600D01*
X183638675Y-123227622D01*
X183684420Y-123076821D01*
X183699866Y-122919994D01*
X183684420Y-122763167D01*
X183638675Y-122612366D01*
X183564389Y-122473388D01*
X183464418Y-122351572D01*
X183342602Y-122251601D01*
X183203624Y-122177315D01*
X183052823Y-122131570D01*
X182935289Y-122119994D01*
X152325297Y-122119994D01*
X152286006Y-122116124D01*
X152246715Y-122119994D01*
X152246713Y-122119994D01*
X152129179Y-122131570D01*
X151978378Y-122177315D01*
X151839399Y-122251601D01*
X151780837Y-122299662D01*
X151717584Y-122351572D01*
X151692537Y-122382092D01*
X149765099Y-124309531D01*
X147987104Y-126087526D01*
X147987098Y-126087531D01*
X144732647Y-129341983D01*
X144619603Y-129364468D01*
X144442164Y-129437966D01*
X144282473Y-129544668D01*
X144146668Y-129680473D01*
X144039966Y-129840164D01*
X143966468Y-130017603D01*
X143954563Y-130077454D01*
X143894161Y-129883416D01*
X143793474Y-129698288D01*
X143658605Y-129536360D01*
X143494737Y-129403855D01*
X143308167Y-129305866D01*
X143121370Y-129249205D01*
X142954000Y-129328283D01*
X142954000Y-130252000D01*
X142974000Y-130252000D01*
X142974000Y-130352000D01*
X142954000Y-130352000D01*
X142954000Y-131275717D01*
X143121370Y-131354795D01*
X143308167Y-131298134D01*
X143494737Y-131200145D01*
X143658605Y-131067640D01*
X143793474Y-130905712D01*
X143894161Y-130720584D01*
X143954563Y-130526546D01*
X143966468Y-130586397D01*
X144039966Y-130763836D01*
X144146668Y-130923527D01*
X144282473Y-131059332D01*
X144442164Y-131166034D01*
X144619603Y-131239532D01*
X144807971Y-131277000D01*
X145000029Y-131277000D01*
X145188397Y-131239532D01*
X145365836Y-131166034D01*
X145525527Y-131059332D01*
X145661332Y-130923527D01*
X145768034Y-130763836D01*
X145841532Y-130586397D01*
X145853437Y-130526546D01*
X145913839Y-130720584D01*
X146014526Y-130905712D01*
X146149395Y-131067640D01*
X146313263Y-131200145D01*
X146499833Y-131298134D01*
X146686630Y-131354795D01*
X146854000Y-131275717D01*
X146854000Y-130352000D01*
X146954000Y-130352000D01*
X146954000Y-131275717D01*
X147121370Y-131354795D01*
X147308167Y-131298134D01*
X147494737Y-131200145D01*
X147658605Y-131067640D01*
X147793474Y-130905712D01*
X147894161Y-130720584D01*
X147956797Y-130519370D01*
X147877839Y-130352000D01*
X146954000Y-130352000D01*
X146854000Y-130352000D01*
X146834000Y-130352000D01*
X146834000Y-130252000D01*
X146854000Y-130252000D01*
X146854000Y-130232000D01*
X146954000Y-130232000D01*
X146954000Y-130252000D01*
X147877839Y-130252000D01*
X147956797Y-130084630D01*
X147894161Y-129883416D01*
X147793474Y-129698288D01*
X147658605Y-129536360D01*
X147494737Y-129403855D01*
X147308167Y-129305866D01*
X147121370Y-129249205D01*
X147058426Y-129278944D01*
X149118469Y-127218902D01*
X149118474Y-127218896D01*
X149231370Y-127106000D01*
X149618960Y-127106000D01*
X152991001Y-130478042D01*
X152991001Y-130667887D01*
X152972252Y-130673574D01*
X152879075Y-130723379D01*
X152797404Y-130790404D01*
X152730379Y-130872075D01*
X152680574Y-130965252D01*
X152649905Y-131066356D01*
X152639549Y-131171500D01*
X152639549Y-131746500D01*
X152649905Y-131851644D01*
X152667303Y-131909000D01*
X129112041Y-131909000D01*
X128501759Y-131298718D01*
X128686630Y-131354795D01*
X128854000Y-131275717D01*
X128854000Y-130352000D01*
X128834000Y-130352000D01*
X128834000Y-130252000D01*
X128854000Y-130252000D01*
X128854000Y-129328283D01*
X128954000Y-129328283D01*
X128954000Y-130252000D01*
X128974000Y-130252000D01*
X128974000Y-130352000D01*
X128954000Y-130352000D01*
X128954000Y-131275717D01*
X129121370Y-131354795D01*
X129308167Y-131298134D01*
X129494737Y-131200145D01*
X129658605Y-131067640D01*
X129793474Y-130905712D01*
X129894161Y-130720584D01*
X129954563Y-130526546D01*
X129966468Y-130586397D01*
X130039966Y-130763836D01*
X130146668Y-130923527D01*
X130282473Y-131059332D01*
X130442164Y-131166034D01*
X130619603Y-131239532D01*
X130807971Y-131277000D01*
X131000029Y-131277000D01*
X131188397Y-131239532D01*
X131365836Y-131166034D01*
X131525527Y-131059332D01*
X131661332Y-130923527D01*
X131768034Y-130763836D01*
X131841532Y-130586397D01*
X131879000Y-130398029D01*
X131879000Y-130205971D01*
X131929000Y-130205971D01*
X131929000Y-130398029D01*
X131966468Y-130586397D01*
X132039966Y-130763836D01*
X132146668Y-130923527D01*
X132282473Y-131059332D01*
X132442164Y-131166034D01*
X132619603Y-131239532D01*
X132807971Y-131277000D01*
X133000029Y-131277000D01*
X133188397Y-131239532D01*
X133365836Y-131166034D01*
X133525527Y-131059332D01*
X133661332Y-130923527D01*
X133768034Y-130763836D01*
X133841532Y-130586397D01*
X133853437Y-130526546D01*
X133913839Y-130720584D01*
X134014526Y-130905712D01*
X134149395Y-131067640D01*
X134313263Y-131200145D01*
X134499833Y-131298134D01*
X134686630Y-131354795D01*
X134854000Y-131275717D01*
X134854000Y-130352000D01*
X134834000Y-130352000D01*
X134834000Y-130252000D01*
X134854000Y-130252000D01*
X134854000Y-129328283D01*
X134954000Y-129328283D01*
X134954000Y-130252000D01*
X134974000Y-130252000D01*
X134974000Y-130352000D01*
X134954000Y-130352000D01*
X134954000Y-131275717D01*
X135121370Y-131354795D01*
X135308167Y-131298134D01*
X135494737Y-131200145D01*
X135658605Y-131067640D01*
X135793474Y-130905712D01*
X135894161Y-130720584D01*
X135954563Y-130526546D01*
X135966468Y-130586397D01*
X136039966Y-130763836D01*
X136146668Y-130923527D01*
X136282473Y-131059332D01*
X136442164Y-131166034D01*
X136619603Y-131239532D01*
X136807971Y-131277000D01*
X137000029Y-131277000D01*
X137188397Y-131239532D01*
X137365836Y-131166034D01*
X137525527Y-131059332D01*
X137661332Y-130923527D01*
X137768034Y-130763836D01*
X137841532Y-130586397D01*
X137853437Y-130526546D01*
X137913839Y-130720584D01*
X138014526Y-130905712D01*
X138149395Y-131067640D01*
X138313263Y-131200145D01*
X138499833Y-131298134D01*
X138686630Y-131354795D01*
X138854000Y-131275717D01*
X138854000Y-130352000D01*
X138834000Y-130352000D01*
X138834000Y-130252000D01*
X138854000Y-130252000D01*
X138854000Y-129328283D01*
X138954000Y-129328283D01*
X138954000Y-130252000D01*
X138974000Y-130252000D01*
X138974000Y-130352000D01*
X138954000Y-130352000D01*
X138954000Y-131275717D01*
X139121370Y-131354795D01*
X139308167Y-131298134D01*
X139494737Y-131200145D01*
X139658605Y-131067640D01*
X139793474Y-130905712D01*
X139894161Y-130720584D01*
X139954563Y-130526546D01*
X139966468Y-130586397D01*
X140039966Y-130763836D01*
X140146668Y-130923527D01*
X140282473Y-131059332D01*
X140442164Y-131166034D01*
X140619603Y-131239532D01*
X140807971Y-131277000D01*
X141000029Y-131277000D01*
X141188397Y-131239532D01*
X141365836Y-131166034D01*
X141525527Y-131059332D01*
X141661332Y-130923527D01*
X141768034Y-130763836D01*
X141841532Y-130586397D01*
X141853437Y-130526546D01*
X141913839Y-130720584D01*
X142014526Y-130905712D01*
X142149395Y-131067640D01*
X142313263Y-131200145D01*
X142499833Y-131298134D01*
X142686630Y-131354795D01*
X142854000Y-131275717D01*
X142854000Y-130352000D01*
X142834000Y-130352000D01*
X142834000Y-130252000D01*
X142854000Y-130252000D01*
X142854000Y-129328283D01*
X142686630Y-129249205D01*
X142499833Y-129305866D01*
X142313263Y-129403855D01*
X142149395Y-129536360D01*
X142014526Y-129698288D01*
X141913839Y-129883416D01*
X141853437Y-130077454D01*
X141841532Y-130017603D01*
X141768034Y-129840164D01*
X141661332Y-129680473D01*
X141525527Y-129544668D01*
X141365836Y-129437966D01*
X141188397Y-129364468D01*
X141000029Y-129327000D01*
X140807971Y-129327000D01*
X140619603Y-129364468D01*
X140442164Y-129437966D01*
X140282473Y-129544668D01*
X140146668Y-129680473D01*
X140039966Y-129840164D01*
X139966468Y-130017603D01*
X139954563Y-130077454D01*
X139894161Y-129883416D01*
X139793474Y-129698288D01*
X139658605Y-129536360D01*
X139494737Y-129403855D01*
X139308167Y-129305866D01*
X139121370Y-129249205D01*
X138954000Y-129328283D01*
X138854000Y-129328283D01*
X138686630Y-129249205D01*
X138499833Y-129305866D01*
X138313263Y-129403855D01*
X138149395Y-129536360D01*
X138014526Y-129698288D01*
X137913839Y-129883416D01*
X137853437Y-130077454D01*
X137841532Y-130017603D01*
X137768034Y-129840164D01*
X137661332Y-129680473D01*
X137525527Y-129544668D01*
X137365836Y-129437966D01*
X137188397Y-129364468D01*
X137000029Y-129327000D01*
X136807971Y-129327000D01*
X136619603Y-129364468D01*
X136442164Y-129437966D01*
X136282473Y-129544668D01*
X136146668Y-129680473D01*
X136039966Y-129840164D01*
X135966468Y-130017603D01*
X135954563Y-130077454D01*
X135894161Y-129883416D01*
X135793474Y-129698288D01*
X135658605Y-129536360D01*
X135494737Y-129403855D01*
X135308167Y-129305866D01*
X135121370Y-129249205D01*
X134954000Y-129328283D01*
X134854000Y-129328283D01*
X134686630Y-129249205D01*
X134499833Y-129305866D01*
X134313263Y-129403855D01*
X134149395Y-129536360D01*
X134014526Y-129698288D01*
X133913839Y-129883416D01*
X133853437Y-130077454D01*
X133841532Y-130017603D01*
X133768034Y-129840164D01*
X133661332Y-129680473D01*
X133525527Y-129544668D01*
X133454000Y-129496875D01*
X133454000Y-124371817D01*
X137229987Y-120595830D01*
X165819998Y-120595830D01*
X165819998Y-120704170D01*
X165841134Y-120810429D01*
X165882595Y-120910523D01*
X165942785Y-121000604D01*
X166019394Y-121077213D01*
X166109475Y-121137403D01*
X166209569Y-121178864D01*
X166315828Y-121200000D01*
X166424168Y-121200000D01*
X166530427Y-121178864D01*
X166630521Y-121137403D01*
X166720602Y-121077213D01*
X166722815Y-121075000D01*
X173383183Y-121075000D01*
X173385396Y-121077213D01*
X173475477Y-121137403D01*
X173575571Y-121178864D01*
X173681830Y-121200000D01*
X173790170Y-121200000D01*
X173896429Y-121178864D01*
X173996523Y-121137403D01*
X174086604Y-121077213D01*
X174163213Y-121000604D01*
X174223403Y-120910523D01*
X174264864Y-120810429D01*
X174286000Y-120704170D01*
X174286000Y-120595830D01*
X174264864Y-120489571D01*
X174223403Y-120389477D01*
X174163213Y-120299396D01*
X174086604Y-120222787D01*
X173996523Y-120162597D01*
X173896429Y-120121136D01*
X173790170Y-120100000D01*
X173681830Y-120100000D01*
X173575571Y-120121136D01*
X173475477Y-120162597D01*
X173385396Y-120222787D01*
X173383183Y-120225000D01*
X166722815Y-120225000D01*
X166720602Y-120222787D01*
X166630521Y-120162597D01*
X166530427Y-120121136D01*
X166424168Y-120100000D01*
X166315828Y-120100000D01*
X166209569Y-120121136D01*
X166109475Y-120162597D01*
X166019394Y-120222787D01*
X165942785Y-120299396D01*
X165882595Y-120389477D01*
X165841134Y-120489571D01*
X165819998Y-120595830D01*
X137229987Y-120595830D01*
X144356761Y-113469056D01*
X176338000Y-113469056D01*
X176338000Y-113606944D01*
X176364901Y-113742182D01*
X176417668Y-113869574D01*
X176494274Y-113984224D01*
X176591776Y-114081726D01*
X176706426Y-114158332D01*
X176833818Y-114211099D01*
X176969056Y-114238000D01*
X177106944Y-114238000D01*
X177242182Y-114211099D01*
X177369574Y-114158332D01*
X177474834Y-114088000D01*
X183124992Y-114088000D01*
X183152000Y-114090660D01*
X183179008Y-114088000D01*
X183179018Y-114088000D01*
X183259819Y-114080042D01*
X183363494Y-114048592D01*
X183459042Y-113997521D01*
X183542790Y-113928790D01*
X183560013Y-113907804D01*
X185094213Y-112373604D01*
X185109296Y-112351030D01*
X185126521Y-112330042D01*
X185139320Y-112306096D01*
X185154403Y-112283523D01*
X185164794Y-112258438D01*
X185177592Y-112234494D01*
X185185473Y-112208516D01*
X185195864Y-112183429D01*
X185201161Y-112156798D01*
X185209042Y-112130819D01*
X185211703Y-112103802D01*
X185217000Y-112077170D01*
X185217000Y-112050011D01*
X185219660Y-112023000D01*
X185217000Y-111995989D01*
X185217000Y-111968830D01*
X185211703Y-111942198D01*
X185209042Y-111915181D01*
X185201161Y-111889202D01*
X185195864Y-111862571D01*
X185185473Y-111837484D01*
X185177592Y-111811506D01*
X185164794Y-111787562D01*
X185154403Y-111762477D01*
X185139320Y-111739904D01*
X185126521Y-111715958D01*
X185109297Y-111694970D01*
X185094213Y-111672396D01*
X185075013Y-111653196D01*
X185057790Y-111632210D01*
X185036804Y-111614987D01*
X185017604Y-111595787D01*
X184995030Y-111580703D01*
X184974042Y-111563479D01*
X184950096Y-111550680D01*
X184927523Y-111535597D01*
X184902438Y-111525206D01*
X184878494Y-111512408D01*
X184852516Y-111504527D01*
X184827429Y-111494136D01*
X184800798Y-111488839D01*
X184774819Y-111480958D01*
X184747802Y-111478297D01*
X184721170Y-111473000D01*
X184694011Y-111473000D01*
X184667000Y-111470340D01*
X184639989Y-111473000D01*
X184612830Y-111473000D01*
X184586198Y-111478297D01*
X184559181Y-111480958D01*
X184533202Y-111488839D01*
X184506571Y-111494136D01*
X184481484Y-111504527D01*
X184455506Y-111512408D01*
X184431562Y-111525206D01*
X184406477Y-111535597D01*
X184383904Y-111550680D01*
X184359958Y-111563479D01*
X184338970Y-111580704D01*
X184316396Y-111595787D01*
X182924183Y-112988000D01*
X177474834Y-112988000D01*
X177369574Y-112917668D01*
X177242182Y-112864901D01*
X177106944Y-112838000D01*
X176969056Y-112838000D01*
X176833818Y-112864901D01*
X176706426Y-112917668D01*
X176591776Y-112994274D01*
X176494274Y-113091776D01*
X176417668Y-113206426D01*
X176364901Y-113333818D01*
X176338000Y-113469056D01*
X144356761Y-113469056D01*
X155929817Y-101896000D01*
X175286183Y-101896000D01*
X175578203Y-102188020D01*
X175602901Y-102312182D01*
X175655668Y-102439574D01*
X175732274Y-102554224D01*
X175829776Y-102651726D01*
X175944426Y-102728332D01*
X176071818Y-102781099D01*
X176207056Y-102808000D01*
X176344944Y-102808000D01*
X176480182Y-102781099D01*
X176607574Y-102728332D01*
X176722224Y-102651726D01*
X176819726Y-102554224D01*
X176896332Y-102439574D01*
X176949099Y-102312182D01*
X176976000Y-102176944D01*
X176976000Y-102039056D01*
X176949099Y-101903818D01*
X176896332Y-101776426D01*
X176819726Y-101661776D01*
X176722224Y-101564274D01*
X176607574Y-101487668D01*
X176480182Y-101434901D01*
X176356020Y-101410203D01*
X175983647Y-101037830D01*
X186648006Y-101037830D01*
X186648006Y-101146170D01*
X186669142Y-101252429D01*
X186710603Y-101352523D01*
X186770793Y-101442604D01*
X186847402Y-101519213D01*
X186937483Y-101579403D01*
X187037577Y-101620864D01*
X187143836Y-101642000D01*
X187182321Y-101642000D01*
X189052000Y-103511680D01*
X189052001Y-124120180D01*
X189024787Y-124147394D01*
X188964597Y-124237475D01*
X188923136Y-124337569D01*
X188902000Y-124443828D01*
X188902000Y-124552168D01*
X188923136Y-124658427D01*
X188964597Y-124758521D01*
X189024787Y-124848602D01*
X189101396Y-124925211D01*
X189191477Y-124985401D01*
X189291571Y-125026862D01*
X189397830Y-125047998D01*
X189506170Y-125047998D01*
X189612429Y-125026862D01*
X189712523Y-124985401D01*
X189802604Y-124925211D01*
X189879213Y-124848602D01*
X189939403Y-124758521D01*
X189980864Y-124658427D01*
X190002000Y-124552168D01*
X190002000Y-124443828D01*
X189980864Y-124337569D01*
X189939403Y-124237475D01*
X189879213Y-124147394D01*
X189852000Y-124120181D01*
X189852000Y-103365640D01*
X189853935Y-103345994D01*
X189846212Y-103267580D01*
X189823340Y-103192179D01*
X189786197Y-103122691D01*
X189748735Y-103077043D01*
X189748733Y-103077041D01*
X189736211Y-103061783D01*
X189720954Y-103049262D01*
X187748006Y-101076315D01*
X187748006Y-101037830D01*
X187726870Y-100931571D01*
X187685409Y-100831477D01*
X187625219Y-100741396D01*
X187548610Y-100664787D01*
X187458529Y-100604597D01*
X187358435Y-100563136D01*
X187252176Y-100542000D01*
X187143836Y-100542000D01*
X187037577Y-100563136D01*
X186937483Y-100604597D01*
X186847402Y-100664787D01*
X186770793Y-100741396D01*
X186710603Y-100831477D01*
X186669142Y-100931571D01*
X186648006Y-101037830D01*
X175983647Y-101037830D01*
X175922013Y-100976196D01*
X175904790Y-100955210D01*
X175821042Y-100886479D01*
X175725494Y-100835408D01*
X175621819Y-100803958D01*
X175541018Y-100796000D01*
X175541008Y-100796000D01*
X175514000Y-100793340D01*
X175486992Y-100796000D01*
X155729011Y-100796000D01*
X155702000Y-100793340D01*
X155674989Y-100796000D01*
X155674982Y-100796000D01*
X155594181Y-100803958D01*
X155490505Y-100835408D01*
X155428224Y-100868698D01*
X155394958Y-100886479D01*
X155311210Y-100955210D01*
X155293987Y-100976196D01*
X132534196Y-123735987D01*
X132513210Y-123753210D01*
X132444479Y-123836958D01*
X132393408Y-123932507D01*
X132361958Y-124036182D01*
X132354000Y-124116983D01*
X132354000Y-124116992D01*
X132351340Y-124144000D01*
X132354000Y-124171008D01*
X132354001Y-129496875D01*
X132282473Y-129544668D01*
X132146668Y-129680473D01*
X132039966Y-129840164D01*
X131966468Y-130017603D01*
X131929000Y-130205971D01*
X131879000Y-130205971D01*
X131841532Y-130017603D01*
X131768034Y-129840164D01*
X131661332Y-129680473D01*
X131525527Y-129544668D01*
X131365836Y-129437966D01*
X131188397Y-129364468D01*
X131000029Y-129327000D01*
X130807971Y-129327000D01*
X130619603Y-129364468D01*
X130442164Y-129437966D01*
X130282473Y-129544668D01*
X130146668Y-129680473D01*
X130039966Y-129840164D01*
X129966468Y-130017603D01*
X129954563Y-130077454D01*
X129894161Y-129883416D01*
X129793474Y-129698288D01*
X129658605Y-129536360D01*
X129494737Y-129403855D01*
X129308167Y-129305866D01*
X129121370Y-129249205D01*
X128954000Y-129328283D01*
X128854000Y-129328283D01*
X128686630Y-129249205D01*
X128499833Y-129305866D01*
X128313263Y-129403855D01*
X128149395Y-129536360D01*
X128014526Y-129698288D01*
X127913839Y-129883416D01*
X127853437Y-130077454D01*
X127841532Y-130017603D01*
X127768034Y-129840164D01*
X127661332Y-129680473D01*
X127525527Y-129544668D01*
X127365836Y-129437966D01*
X127329000Y-129422708D01*
X127329000Y-119714866D01*
X127331055Y-119693999D01*
X127329000Y-119673132D01*
X127329000Y-119673126D01*
X127322850Y-119610686D01*
X127298548Y-119530573D01*
X127259084Y-119456740D01*
X127205974Y-119392026D01*
X127189763Y-119378722D01*
X105880000Y-98068960D01*
X105880000Y-98065830D01*
X105858864Y-97959571D01*
X105817403Y-97859477D01*
X105757213Y-97769396D01*
X105680604Y-97692787D01*
X105590523Y-97632597D01*
X105490429Y-97591136D01*
X105384170Y-97570000D01*
X105275830Y-97570000D01*
X105169571Y-97591136D01*
X105069477Y-97632597D01*
X104979396Y-97692787D01*
X104902787Y-97769396D01*
X104842597Y-97859477D01*
X104801136Y-97959571D01*
X104780000Y-98065830D01*
X101100000Y-98065830D01*
X101100000Y-92532000D01*
X122850065Y-92532000D01*
X122857788Y-92610414D01*
X122880660Y-92685814D01*
X122917803Y-92755303D01*
X122967789Y-92816211D01*
X123028697Y-92866197D01*
X123098186Y-92903340D01*
X123173586Y-92926212D01*
X123252000Y-92933935D01*
X123802000Y-92932000D01*
X123902000Y-92832000D01*
X123902000Y-92007000D01*
X124002000Y-92007000D01*
X124002000Y-92832000D01*
X124102000Y-92932000D01*
X124652000Y-92933935D01*
X124730414Y-92926212D01*
X124805814Y-92903340D01*
X124875303Y-92866197D01*
X124936211Y-92816211D01*
X124986197Y-92755303D01*
X125023340Y-92685814D01*
X125046212Y-92610414D01*
X125053935Y-92532000D01*
X125052000Y-92107000D01*
X124952000Y-92007000D01*
X124002000Y-92007000D01*
X123902000Y-92007000D01*
X122952000Y-92007000D01*
X122852000Y-92107000D01*
X122850065Y-92532000D01*
X101100000Y-92532000D01*
X101100000Y-91382000D01*
X122850065Y-91382000D01*
X122852000Y-91807000D01*
X122952000Y-91907000D01*
X123902000Y-91907000D01*
X123902000Y-91082000D01*
X123802000Y-90982000D01*
X123252000Y-90980065D01*
X123173586Y-90987788D01*
X123098186Y-91010660D01*
X123028697Y-91047803D01*
X122967789Y-91097789D01*
X122917803Y-91158697D01*
X122880660Y-91228186D01*
X122857788Y-91303586D01*
X122850065Y-91382000D01*
X101100000Y-91382000D01*
X101100000Y-83328039D01*
X101112520Y-83390982D01*
X101118810Y-83454845D01*
X101137438Y-83516254D01*
X101149958Y-83579196D01*
X101174516Y-83638484D01*
X101193145Y-83699896D01*
X101223397Y-83756493D01*
X101247955Y-83815781D01*
X101283610Y-83869142D01*
X101313860Y-83925736D01*
X101354569Y-83975340D01*
X101390224Y-84028702D01*
X101435601Y-84074079D01*
X101476313Y-84123687D01*
X101525921Y-84164399D01*
X101571298Y-84209776D01*
X101624660Y-84245431D01*
X101674264Y-84286140D01*
X101730858Y-84316390D01*
X101784219Y-84352045D01*
X101843507Y-84376603D01*
X101900104Y-84406855D01*
X101961516Y-84425484D01*
X102020804Y-84450042D01*
X102083746Y-84462562D01*
X102145155Y-84481190D01*
X102209018Y-84487480D01*
X102271961Y-84500000D01*
X112762041Y-84500000D01*
X112824984Y-84487480D01*
X112888847Y-84481190D01*
X112950256Y-84462562D01*
X113013198Y-84450042D01*
X113072486Y-84425484D01*
X113133898Y-84406855D01*
X113190495Y-84376603D01*
X113249783Y-84352045D01*
X113303144Y-84316390D01*
X113359738Y-84286140D01*
X113409342Y-84245431D01*
X113462704Y-84209776D01*
X113508081Y-84164399D01*
X113557689Y-84123687D01*
X113598401Y-84074079D01*
X113643778Y-84028702D01*
X113662956Y-84000000D01*
X114120709Y-84000000D01*
X114160000Y-84003870D01*
X114199291Y-84000000D01*
X114618630Y-84000000D01*
X121072531Y-90453902D01*
X121097578Y-90484422D01*
X121128098Y-90509469D01*
X121219393Y-90584393D01*
X121289629Y-90621935D01*
X121358372Y-90658679D01*
X121509173Y-90704424D01*
X121626707Y-90716000D01*
X121626716Y-90716000D01*
X121665999Y-90719869D01*
X121705282Y-90716000D01*
X123243309Y-90716000D01*
X123290968Y-90741474D01*
X123394416Y-90772855D01*
X123501999Y-90783451D01*
X124402001Y-90783451D01*
X124509584Y-90772855D01*
X124613032Y-90741474D01*
X124660691Y-90716000D01*
X125189431Y-90716000D01*
X125125396Y-90758787D01*
X125048787Y-90835396D01*
X124988597Y-90925477D01*
X124947136Y-91025571D01*
X124933254Y-91095362D01*
X124875303Y-91047803D01*
X124805814Y-91010660D01*
X124730414Y-90987788D01*
X124652000Y-90980065D01*
X124102000Y-90982000D01*
X124002000Y-91082000D01*
X124002000Y-91907000D01*
X124952000Y-91907000D01*
X125052000Y-91807000D01*
X125053211Y-91541028D01*
X125125396Y-91613213D01*
X125215477Y-91673403D01*
X125315571Y-91714864D01*
X125421830Y-91736000D01*
X125530170Y-91736000D01*
X125636429Y-91714864D01*
X125736523Y-91673403D01*
X125826604Y-91613213D01*
X125828817Y-91611000D01*
X134516634Y-91611000D01*
X134537501Y-91613055D01*
X134558368Y-91611000D01*
X134558375Y-91611000D01*
X134620815Y-91604850D01*
X134700928Y-91580548D01*
X134774761Y-91541084D01*
X134839475Y-91487974D01*
X134852785Y-91471756D01*
X140314570Y-86009971D01*
X177111000Y-86009971D01*
X177111000Y-86202029D01*
X177148468Y-86390397D01*
X177221966Y-86567836D01*
X177328668Y-86727527D01*
X177464473Y-86863332D01*
X177624164Y-86970034D01*
X177801603Y-87043532D01*
X177989971Y-87081000D01*
X178182029Y-87081000D01*
X178370397Y-87043532D01*
X178547836Y-86970034D01*
X178707527Y-86863332D01*
X178843332Y-86727527D01*
X178950034Y-86567836D01*
X179023532Y-86390397D01*
X179061000Y-86202029D01*
X179061000Y-86009971D01*
X179023532Y-85821603D01*
X178950034Y-85644164D01*
X178843332Y-85484473D01*
X178789859Y-85431000D01*
X179109549Y-85431000D01*
X179109549Y-86781000D01*
X179115341Y-86839810D01*
X179132496Y-86896360D01*
X179160353Y-86948477D01*
X179197842Y-86994158D01*
X179243523Y-87031647D01*
X179295640Y-87059504D01*
X179352190Y-87076659D01*
X179411000Y-87082451D01*
X180761000Y-87082451D01*
X180819810Y-87076659D01*
X180876360Y-87059504D01*
X180928477Y-87031647D01*
X180974158Y-86994158D01*
X181011647Y-86948477D01*
X181039504Y-86896360D01*
X181056659Y-86839810D01*
X181062451Y-86781000D01*
X181062451Y-85431000D01*
X181056659Y-85372190D01*
X181039504Y-85315640D01*
X181011647Y-85263523D01*
X180974158Y-85217842D01*
X180928477Y-85180353D01*
X180876360Y-85152496D01*
X180819810Y-85135341D01*
X180761000Y-85129549D01*
X179411000Y-85129549D01*
X179352190Y-85135341D01*
X179295640Y-85152496D01*
X179243523Y-85180353D01*
X179197842Y-85217842D01*
X179160353Y-85263523D01*
X179132496Y-85315640D01*
X179115341Y-85372190D01*
X179109549Y-85431000D01*
X178789859Y-85431000D01*
X178707527Y-85348668D01*
X178547836Y-85241966D01*
X178370397Y-85168468D01*
X178182029Y-85131000D01*
X177989971Y-85131000D01*
X177801603Y-85168468D01*
X177624164Y-85241966D01*
X177464473Y-85348668D01*
X177328668Y-85484473D01*
X177221966Y-85644164D01*
X177148468Y-85821603D01*
X177111000Y-86009971D01*
X140314570Y-86009971D01*
X144811762Y-81512780D01*
X144827974Y-81499475D01*
X144881084Y-81434761D01*
X144914630Y-81372000D01*
X144920548Y-81360929D01*
X144944850Y-81280815D01*
X144949127Y-81237387D01*
X144951000Y-81218375D01*
X144951000Y-81218368D01*
X144953055Y-81197501D01*
X144951000Y-81176634D01*
X144951000Y-80165027D01*
X153011000Y-80165027D01*
X153011000Y-80494973D01*
X153075369Y-80818580D01*
X153201634Y-81123410D01*
X153384942Y-81397751D01*
X153618249Y-81631058D01*
X153892590Y-81814366D01*
X154197420Y-81940631D01*
X154521027Y-82005000D01*
X154850973Y-82005000D01*
X155174580Y-81940631D01*
X155479410Y-81814366D01*
X155753751Y-81631058D01*
X155987058Y-81397751D01*
X156170366Y-81123410D01*
X156296631Y-80818580D01*
X156361000Y-80494973D01*
X156361000Y-80165027D01*
X156296631Y-79841420D01*
X156170366Y-79536590D01*
X155987058Y-79262249D01*
X155753751Y-79028942D01*
X155479410Y-78845634D01*
X155174580Y-78719369D01*
X154850973Y-78655000D01*
X154521027Y-78655000D01*
X154197420Y-78719369D01*
X153892590Y-78845634D01*
X153618249Y-79028942D01*
X153384942Y-79262249D01*
X153201634Y-79536590D01*
X153075369Y-79841420D01*
X153011000Y-80165027D01*
X144951000Y-80165027D01*
X144951000Y-79854817D01*
X144953213Y-79852604D01*
X145013403Y-79762523D01*
X145054864Y-79662429D01*
X145076000Y-79556170D01*
X145076000Y-79447830D01*
X145054864Y-79341571D01*
X145013403Y-79241477D01*
X144953213Y-79151396D01*
X144876604Y-79074787D01*
X144786523Y-79014597D01*
X144686429Y-78973136D01*
X144580170Y-78952000D01*
X144471830Y-78952000D01*
X144365571Y-78973136D01*
X144265477Y-79014597D01*
X144175396Y-79074787D01*
X144098787Y-79151396D01*
X144038597Y-79241477D01*
X143997136Y-79341571D01*
X143976000Y-79447830D01*
X143976000Y-79556170D01*
X143997136Y-79662429D01*
X144038597Y-79762523D01*
X144098787Y-79852604D01*
X144101000Y-79854817D01*
X144101001Y-81021459D01*
X134361461Y-90761000D01*
X125828817Y-90761000D01*
X125826604Y-90758787D01*
X125762569Y-90716000D01*
X132548709Y-90716000D01*
X132588000Y-90719870D01*
X132627291Y-90716000D01*
X132627293Y-90716000D01*
X132744827Y-90704424D01*
X132895628Y-90658679D01*
X133034606Y-90584393D01*
X133156422Y-90484422D01*
X133181473Y-90453897D01*
X134937903Y-88697468D01*
X134968422Y-88672422D01*
X135003237Y-88630000D01*
X135068393Y-88550607D01*
X135142679Y-88411628D01*
X135164248Y-88340523D01*
X135188424Y-88260827D01*
X135200000Y-88143293D01*
X135200000Y-88143291D01*
X135203870Y-88104000D01*
X135200000Y-88064709D01*
X135200000Y-87270707D01*
X135188424Y-87153173D01*
X135142679Y-87002372D01*
X135068393Y-86863394D01*
X134968422Y-86741578D01*
X134846606Y-86641607D01*
X134707628Y-86567321D01*
X134556827Y-86521576D01*
X134400000Y-86506130D01*
X134243174Y-86521576D01*
X134219728Y-86528688D01*
X134155039Y-86463999D01*
X137714134Y-86463999D01*
X137735001Y-86466054D01*
X137755868Y-86463999D01*
X137755875Y-86463999D01*
X137818315Y-86457849D01*
X137898428Y-86433547D01*
X137957449Y-86402000D01*
X137976170Y-86402000D01*
X138082429Y-86380864D01*
X138182523Y-86339403D01*
X138272604Y-86279213D01*
X138349213Y-86202604D01*
X138409403Y-86112523D01*
X138450864Y-86012429D01*
X138472000Y-85906170D01*
X138472000Y-85797830D01*
X138450864Y-85691571D01*
X138409403Y-85591477D01*
X138349213Y-85501396D01*
X138272604Y-85424787D01*
X138182523Y-85364597D01*
X138082429Y-85323136D01*
X137976170Y-85302000D01*
X137867830Y-85302000D01*
X137761571Y-85323136D01*
X137661477Y-85364597D01*
X137571396Y-85424787D01*
X137494787Y-85501396D01*
X137434597Y-85591477D01*
X137425268Y-85613999D01*
X131062866Y-85613999D01*
X131041999Y-85611944D01*
X131021133Y-85613999D01*
X131021125Y-85613999D01*
X130958685Y-85620149D01*
X130942693Y-85625000D01*
X129219051Y-85625000D01*
X127109010Y-83514960D01*
X127109010Y-83511830D01*
X127087874Y-83405571D01*
X127046413Y-83305477D01*
X126986223Y-83215396D01*
X126909614Y-83138787D01*
X126819533Y-83078597D01*
X126719439Y-83037136D01*
X126613180Y-83016000D01*
X126504840Y-83016000D01*
X126409000Y-83035064D01*
X126409000Y-80694040D01*
X127503646Y-79599394D01*
X128842310Y-79599394D01*
X128843277Y-79606482D01*
X128844178Y-80806215D01*
X128842310Y-80836894D01*
X128844212Y-80850839D01*
X128845000Y-81900000D01*
X128858734Y-81913734D01*
X128850092Y-81946592D01*
X128846840Y-81999998D01*
X128845000Y-81999998D01*
X128845000Y-82030217D01*
X128842310Y-82074394D01*
X128845000Y-82094120D01*
X128845000Y-82100002D01*
X128845802Y-82100002D01*
X128857706Y-82187294D01*
X128845000Y-82200000D01*
X128844188Y-83281058D01*
X128842310Y-83311894D01*
X128844154Y-83325419D01*
X128843246Y-84534021D01*
X128842310Y-84549394D01*
X128843229Y-84556137D01*
X128843065Y-84775000D01*
X128850788Y-84853414D01*
X128873660Y-84928814D01*
X128910803Y-84998303D01*
X128960789Y-85059211D01*
X129021697Y-85109197D01*
X129091186Y-85146340D01*
X129166586Y-85169212D01*
X129245000Y-85176935D01*
X129503801Y-85176741D01*
X129519394Y-85177690D01*
X129526482Y-85176723D01*
X130726215Y-85175822D01*
X130756894Y-85177690D01*
X130770839Y-85175788D01*
X131820000Y-85175000D01*
X131833734Y-85161266D01*
X131866592Y-85169908D01*
X131919998Y-85173160D01*
X131919998Y-85175000D01*
X131950217Y-85175000D01*
X131994394Y-85177690D01*
X132014120Y-85175000D01*
X132020002Y-85175000D01*
X132020002Y-85174198D01*
X132107294Y-85162294D01*
X132120000Y-85175000D01*
X133201058Y-85175812D01*
X133231894Y-85177690D01*
X133245419Y-85175846D01*
X134454021Y-85176754D01*
X134469394Y-85177690D01*
X134476137Y-85176771D01*
X134695000Y-85176935D01*
X134773414Y-85169212D01*
X134848814Y-85146340D01*
X134918303Y-85109197D01*
X134979211Y-85059211D01*
X135029197Y-84998303D01*
X135066340Y-84928814D01*
X135089212Y-84853414D01*
X135096935Y-84775000D01*
X135096741Y-84516199D01*
X135097690Y-84500606D01*
X135096723Y-84493518D01*
X135095822Y-83293785D01*
X135097690Y-83263106D01*
X135095788Y-83249161D01*
X135095000Y-82200000D01*
X135081266Y-82186266D01*
X135089908Y-82153408D01*
X135093160Y-82100002D01*
X135095000Y-82100002D01*
X135095000Y-82069783D01*
X135097690Y-82025606D01*
X135095000Y-82005880D01*
X135095000Y-81999998D01*
X135094198Y-81999998D01*
X135082294Y-81912706D01*
X135095000Y-81900000D01*
X135095812Y-80818942D01*
X135097690Y-80788106D01*
X135095846Y-80774581D01*
X135096754Y-79565979D01*
X135097690Y-79550606D01*
X135096771Y-79543863D01*
X135096935Y-79325000D01*
X135089212Y-79246586D01*
X135066340Y-79171186D01*
X135029197Y-79101697D01*
X134979211Y-79040789D01*
X134918303Y-78990803D01*
X134848814Y-78953660D01*
X134773414Y-78930788D01*
X134695000Y-78923065D01*
X134436199Y-78923259D01*
X134420606Y-78922310D01*
X134413518Y-78923277D01*
X133213785Y-78924178D01*
X133183106Y-78922310D01*
X133169161Y-78924212D01*
X132120000Y-78925000D01*
X132106266Y-78938734D01*
X132073408Y-78930092D01*
X132020002Y-78926840D01*
X132020002Y-78925000D01*
X131989783Y-78925000D01*
X131945606Y-78922310D01*
X131925880Y-78925000D01*
X131919998Y-78925000D01*
X131919998Y-78925802D01*
X131832706Y-78937706D01*
X131820000Y-78925000D01*
X130738942Y-78924188D01*
X130708106Y-78922310D01*
X130694581Y-78924154D01*
X129485979Y-78923246D01*
X129470606Y-78922310D01*
X129463863Y-78923229D01*
X129245000Y-78923065D01*
X129166586Y-78930788D01*
X129091186Y-78953660D01*
X129021697Y-78990803D01*
X128960789Y-79040789D01*
X128910803Y-79101697D01*
X128873660Y-79171186D01*
X128850788Y-79246586D01*
X128843065Y-79325000D01*
X128843259Y-79583801D01*
X128842310Y-79599394D01*
X127503646Y-79599394D01*
X128633040Y-78470001D01*
X132843134Y-78470001D01*
X132864001Y-78472056D01*
X132884868Y-78470001D01*
X132884875Y-78470001D01*
X132947315Y-78463851D01*
X133027428Y-78439549D01*
X133101261Y-78400085D01*
X133165975Y-78346975D01*
X133179284Y-78330758D01*
X136175763Y-75334280D01*
X136191974Y-75320976D01*
X136245084Y-75256262D01*
X136280222Y-75190523D01*
X136284548Y-75182430D01*
X136308850Y-75102317D01*
X136310761Y-75082916D01*
X136315000Y-75039876D01*
X136315000Y-75039869D01*
X136317055Y-75019002D01*
X136315000Y-74998135D01*
X136315000Y-70026040D01*
X138439169Y-67901872D01*
X138455380Y-67888568D01*
X138508490Y-67823854D01*
X138547954Y-67750021D01*
X138572256Y-67669908D01*
X138578406Y-67607468D01*
X138578406Y-67607462D01*
X138580461Y-67586595D01*
X138578406Y-67565728D01*
X138578406Y-67437411D01*
X138580619Y-67435198D01*
X138640809Y-67345117D01*
X138682270Y-67245023D01*
X138703406Y-67138764D01*
X138703406Y-67030424D01*
X138682270Y-66924165D01*
X138640809Y-66824071D01*
X138580619Y-66733990D01*
X138504010Y-66657381D01*
X138413929Y-66597191D01*
X138313835Y-66555730D01*
X138207576Y-66534594D01*
X138099236Y-66534594D01*
X137992977Y-66555730D01*
X137892883Y-66597191D01*
X137802802Y-66657381D01*
X137726193Y-66733990D01*
X137666003Y-66824071D01*
X137624542Y-66924165D01*
X137603406Y-67030424D01*
X137603406Y-67138764D01*
X137624542Y-67245023D01*
X137666003Y-67345117D01*
X137717208Y-67421751D01*
X135604239Y-69534721D01*
X135588027Y-69548026D01*
X135534917Y-69612740D01*
X135495453Y-69686573D01*
X135471150Y-69766686D01*
X135462945Y-69850000D01*
X135465001Y-69870877D01*
X135465000Y-74842961D01*
X132687961Y-77620001D01*
X128477866Y-77620001D01*
X128456999Y-77617946D01*
X128436132Y-77620001D01*
X128436125Y-77620001D01*
X128373685Y-77626151D01*
X128293571Y-77650453D01*
X128267854Y-77664200D01*
X128219739Y-77689917D01*
X128155025Y-77743027D01*
X128141720Y-77759239D01*
X125698239Y-80202721D01*
X125682027Y-80216026D01*
X125628917Y-80280740D01*
X125614276Y-80308132D01*
X125589453Y-80354573D01*
X125565150Y-80434686D01*
X125556945Y-80518000D01*
X125559001Y-80538877D01*
X125559000Y-84815133D01*
X125556945Y-84836000D01*
X125559000Y-84856867D01*
X125559000Y-84856873D01*
X125565150Y-84919313D01*
X125589452Y-84999426D01*
X125628916Y-85073259D01*
X125682026Y-85137974D01*
X125698243Y-85151283D01*
X126196000Y-85649041D01*
X126196000Y-85652170D01*
X126217136Y-85758429D01*
X126258597Y-85858523D01*
X126318787Y-85948604D01*
X126395396Y-86025213D01*
X126485477Y-86085403D01*
X126585571Y-86126864D01*
X126691830Y-86148000D01*
X126800170Y-86148000D01*
X126906429Y-86126864D01*
X127006523Y-86085403D01*
X127096604Y-86025213D01*
X127173213Y-85948604D01*
X127233403Y-85858523D01*
X127274864Y-85758429D01*
X127296000Y-85652170D01*
X127296000Y-85543830D01*
X127274864Y-85437571D01*
X127233403Y-85337477D01*
X127173213Y-85247396D01*
X127096604Y-85170787D01*
X127006523Y-85110597D01*
X126906429Y-85069136D01*
X126800170Y-85048000D01*
X126797041Y-85048000D01*
X126409000Y-84659960D01*
X126409000Y-84096936D01*
X126504840Y-84116000D01*
X126507970Y-84116000D01*
X128727731Y-86335762D01*
X128741036Y-86351974D01*
X128805750Y-86405084D01*
X128879583Y-86444548D01*
X128923431Y-86457849D01*
X128959695Y-86468850D01*
X128968108Y-86469679D01*
X129022136Y-86475000D01*
X129022142Y-86475000D01*
X129043009Y-86477055D01*
X129063876Y-86475000D01*
X131010131Y-86475000D01*
X131030998Y-86477055D01*
X131051865Y-86475000D01*
X131051872Y-86475000D01*
X131114312Y-86468850D01*
X131130304Y-86463999D01*
X131971728Y-86463999D01*
X131961136Y-86489571D01*
X131940000Y-86595830D01*
X131940000Y-86704170D01*
X131961136Y-86810429D01*
X132002597Y-86910523D01*
X132062787Y-87000604D01*
X132139396Y-87077213D01*
X132229477Y-87137403D01*
X132329571Y-87178864D01*
X132435830Y-87200000D01*
X132544170Y-87200000D01*
X132650429Y-87178864D01*
X132750523Y-87137403D01*
X132840604Y-87077213D01*
X132842817Y-87075000D01*
X133563960Y-87075000D01*
X133618689Y-87129729D01*
X133611577Y-87153173D01*
X133600000Y-87270707D01*
X133600000Y-87772629D01*
X132256630Y-89116000D01*
X124694366Y-89116000D01*
X124613032Y-89072526D01*
X124509584Y-89041145D01*
X124402001Y-89030549D01*
X123501999Y-89030549D01*
X123394416Y-89041145D01*
X123290968Y-89072526D01*
X123209634Y-89116000D01*
X121997371Y-89116000D01*
X120907201Y-88025830D01*
X125480000Y-88025830D01*
X125480000Y-88134170D01*
X125501136Y-88240429D01*
X125542597Y-88340523D01*
X125602787Y-88430604D01*
X125679396Y-88507213D01*
X125769477Y-88567403D01*
X125869571Y-88608864D01*
X125975830Y-88630000D01*
X126084170Y-88630000D01*
X126190429Y-88608864D01*
X126290523Y-88567403D01*
X126380604Y-88507213D01*
X126457213Y-88430604D01*
X126517403Y-88340523D01*
X126558864Y-88240429D01*
X126580000Y-88134170D01*
X126580000Y-88131040D01*
X127547041Y-87164000D01*
X127562170Y-87164000D01*
X127668429Y-87142864D01*
X127768523Y-87101403D01*
X127858604Y-87041213D01*
X127935213Y-86964604D01*
X127995403Y-86874523D01*
X128036864Y-86774429D01*
X128058000Y-86668170D01*
X128058000Y-86559830D01*
X128036864Y-86453571D01*
X127995403Y-86353477D01*
X127935213Y-86263396D01*
X127858604Y-86186787D01*
X127768523Y-86126597D01*
X127668429Y-86085136D01*
X127562170Y-86064000D01*
X127453830Y-86064000D01*
X127347571Y-86085136D01*
X127247477Y-86126597D01*
X127157396Y-86186787D01*
X127080787Y-86263396D01*
X127020597Y-86353477D01*
X126979136Y-86453571D01*
X126960203Y-86548757D01*
X125978960Y-87530000D01*
X125975830Y-87530000D01*
X125869571Y-87551136D01*
X125769477Y-87592597D01*
X125679396Y-87652787D01*
X125602787Y-87729396D01*
X125542597Y-87819477D01*
X125501136Y-87919571D01*
X125480000Y-88025830D01*
X120907201Y-88025830D01*
X115686370Y-82805000D01*
X123031370Y-75460000D01*
X131953930Y-75460000D01*
X131955001Y-75470876D01*
X131955000Y-76527183D01*
X131952787Y-76529396D01*
X131892597Y-76619477D01*
X131851136Y-76719571D01*
X131830000Y-76825830D01*
X131830000Y-76934170D01*
X131851136Y-77040429D01*
X131892597Y-77140523D01*
X131952787Y-77230604D01*
X132029396Y-77307213D01*
X132119477Y-77367403D01*
X132219571Y-77408864D01*
X132325830Y-77430000D01*
X132434170Y-77430000D01*
X132540429Y-77408864D01*
X132640523Y-77367403D01*
X132730604Y-77307213D01*
X132807213Y-77230604D01*
X132867403Y-77140523D01*
X132908864Y-77040429D01*
X132930000Y-76934170D01*
X132930000Y-76825830D01*
X132908864Y-76719571D01*
X132867403Y-76619477D01*
X132807213Y-76529396D01*
X132805000Y-76527183D01*
X132805000Y-75626040D01*
X132971040Y-75460000D01*
X133209293Y-75460000D01*
X133326827Y-75448424D01*
X133477628Y-75402679D01*
X133616606Y-75328393D01*
X133738422Y-75228422D01*
X133838393Y-75106606D01*
X133912679Y-74967628D01*
X133958424Y-74816827D01*
X133973870Y-74660000D01*
X133958424Y-74503173D01*
X133912679Y-74352372D01*
X133838393Y-74213394D01*
X133738422Y-74091578D01*
X133616606Y-73991607D01*
X133477628Y-73917321D01*
X133326827Y-73871576D01*
X133209293Y-73860000D01*
X131183300Y-73860000D01*
X131158515Y-73813630D01*
X131089935Y-73730065D01*
X131006370Y-73661485D01*
X130911032Y-73610526D01*
X130807584Y-73579145D01*
X130700001Y-73568549D01*
X129799999Y-73568549D01*
X129692416Y-73579145D01*
X129588968Y-73610526D01*
X129493630Y-73661485D01*
X129410065Y-73730065D01*
X129341485Y-73813630D01*
X129316700Y-73860000D01*
X122739291Y-73860000D01*
X122700000Y-73856130D01*
X122660709Y-73860000D01*
X122660707Y-73860000D01*
X122543173Y-73871576D01*
X122392372Y-73917321D01*
X122253393Y-73991607D01*
X122205233Y-74031131D01*
X122131578Y-74091578D01*
X122106527Y-74122103D01*
X113828630Y-82400000D01*
X113662956Y-82400000D01*
X113643778Y-82371298D01*
X113598401Y-82325921D01*
X113557689Y-82276313D01*
X113508081Y-82235601D01*
X113462704Y-82190224D01*
X113409342Y-82154569D01*
X113359738Y-82113860D01*
X113303144Y-82083610D01*
X113249783Y-82047955D01*
X113190495Y-82023397D01*
X113133898Y-81993145D01*
X113072486Y-81974516D01*
X113013198Y-81949958D01*
X112950256Y-81937438D01*
X112888847Y-81918810D01*
X112824984Y-81912520D01*
X112762041Y-81900000D01*
X102271961Y-81900000D01*
X102209018Y-81912520D01*
X102145155Y-81918810D01*
X102083746Y-81937438D01*
X102020804Y-81949958D01*
X101961516Y-81974516D01*
X101900104Y-81993145D01*
X101843507Y-82023397D01*
X101784219Y-82047955D01*
X101730858Y-82083610D01*
X101674264Y-82113860D01*
X101624660Y-82154569D01*
X101571298Y-82190224D01*
X101525921Y-82235601D01*
X101476313Y-82276313D01*
X101435601Y-82325921D01*
X101390224Y-82371298D01*
X101354569Y-82424660D01*
X101313860Y-82474264D01*
X101283610Y-82530858D01*
X101247955Y-82584219D01*
X101223397Y-82643507D01*
X101193145Y-82700104D01*
X101174516Y-82761516D01*
X101149958Y-82820804D01*
X101137438Y-82883746D01*
X101118810Y-82945155D01*
X101112520Y-83009018D01*
X101100000Y-83071961D01*
X101100000Y-72970000D01*
X129148065Y-72970000D01*
X129155788Y-73048414D01*
X129178660Y-73123814D01*
X129215803Y-73193303D01*
X129265789Y-73254211D01*
X129326697Y-73304197D01*
X129396186Y-73341340D01*
X129471586Y-73364212D01*
X129550000Y-73371935D01*
X130100000Y-73370000D01*
X130200000Y-73270000D01*
X130200000Y-72445000D01*
X130300000Y-72445000D01*
X130300000Y-73270000D01*
X130400000Y-73370000D01*
X130950000Y-73371935D01*
X131028414Y-73364212D01*
X131103814Y-73341340D01*
X131173303Y-73304197D01*
X131234211Y-73254211D01*
X131284197Y-73193303D01*
X131321340Y-73123814D01*
X131344212Y-73048414D01*
X131351935Y-72970000D01*
X131350000Y-72545000D01*
X131250000Y-72445000D01*
X130300000Y-72445000D01*
X130200000Y-72445000D01*
X129250000Y-72445000D01*
X129150000Y-72545000D01*
X129148065Y-72970000D01*
X101100000Y-72970000D01*
X101100000Y-71820000D01*
X129148065Y-71820000D01*
X129150000Y-72245000D01*
X129250000Y-72345000D01*
X130200000Y-72345000D01*
X130200000Y-71520000D01*
X130300000Y-71520000D01*
X130300000Y-72345000D01*
X131250000Y-72345000D01*
X131350000Y-72245000D01*
X131351935Y-71820000D01*
X131344212Y-71741586D01*
X131321340Y-71666186D01*
X131284197Y-71596697D01*
X131234211Y-71535789D01*
X131173303Y-71485803D01*
X131103814Y-71448660D01*
X131028414Y-71425788D01*
X130950000Y-71418065D01*
X130400000Y-71420000D01*
X130300000Y-71520000D01*
X130200000Y-71520000D01*
X130100000Y-71420000D01*
X129550000Y-71418065D01*
X129471586Y-71425788D01*
X129396186Y-71448660D01*
X129326697Y-71485803D01*
X129265789Y-71535789D01*
X129215803Y-71596697D01*
X129178660Y-71666186D01*
X129155788Y-71741586D01*
X129148065Y-71820000D01*
X101100000Y-71820000D01*
X101100000Y-65015830D01*
X106720000Y-65015830D01*
X106720000Y-65124170D01*
X106741136Y-65230429D01*
X106782597Y-65330523D01*
X106842787Y-65420604D01*
X106919396Y-65497213D01*
X107009477Y-65557403D01*
X107109571Y-65598864D01*
X107215830Y-65620000D01*
X107324170Y-65620000D01*
X107430429Y-65598864D01*
X107530523Y-65557403D01*
X107620604Y-65497213D01*
X107697213Y-65420604D01*
X107757403Y-65330523D01*
X107798864Y-65230429D01*
X107820000Y-65124170D01*
X107820000Y-65121040D01*
X109322762Y-63618279D01*
X109338974Y-63604974D01*
X109392084Y-63540260D01*
X109431548Y-63466427D01*
X109448478Y-63410617D01*
X109455850Y-63386315D01*
X109459909Y-63345099D01*
X109462000Y-63323874D01*
X109462000Y-63323868D01*
X109464055Y-63303001D01*
X109462000Y-63282134D01*
X109462000Y-61241817D01*
X109464213Y-61239604D01*
X109524403Y-61149523D01*
X109565864Y-61049429D01*
X109587000Y-60943170D01*
X109587000Y-60834830D01*
X109565864Y-60728571D01*
X109550114Y-60690547D01*
X109632830Y-60707000D01*
X109741170Y-60707000D01*
X109847429Y-60685864D01*
X109947523Y-60644403D01*
X110037604Y-60584213D01*
X110039817Y-60582000D01*
X118140959Y-60582000D01*
X117804960Y-60918000D01*
X117801830Y-60918000D01*
X117695571Y-60939136D01*
X117595477Y-60980597D01*
X117505396Y-61040787D01*
X117428787Y-61117396D01*
X117368597Y-61207477D01*
X117327136Y-61307571D01*
X117306000Y-61413830D01*
X117306000Y-61522170D01*
X117327136Y-61628429D01*
X117368597Y-61728523D01*
X117428787Y-61818604D01*
X117505396Y-61895213D01*
X117595477Y-61955403D01*
X117695571Y-61996864D01*
X117801830Y-62018000D01*
X117910170Y-62018000D01*
X118016429Y-61996864D01*
X118116523Y-61955403D01*
X118206604Y-61895213D01*
X118283213Y-61818604D01*
X118343403Y-61728523D01*
X118384864Y-61628429D01*
X118406000Y-61522170D01*
X118406000Y-61519040D01*
X118794041Y-61131000D01*
X136983960Y-61131000D01*
X139021001Y-63168042D01*
X139021000Y-72467959D01*
X136366239Y-75122721D01*
X136350027Y-75136026D01*
X136296917Y-75200740D01*
X136282121Y-75228422D01*
X136257453Y-75274573D01*
X136233150Y-75354686D01*
X136224945Y-75438000D01*
X136227001Y-75458877D01*
X136227000Y-80706115D01*
X136224945Y-80726982D01*
X136227000Y-80747849D01*
X136227000Y-80747855D01*
X136233150Y-80810295D01*
X136257452Y-80890408D01*
X136296916Y-80964241D01*
X136350026Y-81028956D01*
X136366244Y-81042266D01*
X136889734Y-81565756D01*
X136903044Y-81581974D01*
X136967758Y-81635084D01*
X137041591Y-81674548D01*
X137121704Y-81698850D01*
X137205018Y-81707056D01*
X137225892Y-81705000D01*
X138839183Y-81705000D01*
X138841396Y-81707213D01*
X138931477Y-81767403D01*
X139031571Y-81808864D01*
X139137830Y-81830000D01*
X139246170Y-81830000D01*
X139352429Y-81808864D01*
X139452523Y-81767403D01*
X139542604Y-81707213D01*
X139619213Y-81630604D01*
X139679403Y-81540523D01*
X139720864Y-81440429D01*
X139742000Y-81334170D01*
X139742000Y-81225830D01*
X139720864Y-81119571D01*
X139679403Y-81019477D01*
X139619213Y-80929396D01*
X139542604Y-80852787D01*
X139452523Y-80792597D01*
X139352429Y-80751136D01*
X139246170Y-80730000D01*
X139137830Y-80730000D01*
X139031571Y-80751136D01*
X138944005Y-80787408D01*
X138985974Y-80752964D01*
X138999284Y-80736746D01*
X144256031Y-75480000D01*
X144259160Y-75480000D01*
X144365419Y-75458864D01*
X144465513Y-75417403D01*
X144555594Y-75357213D01*
X144632203Y-75280604D01*
X144692393Y-75190523D01*
X144733854Y-75090429D01*
X144754990Y-74984170D01*
X144754990Y-74875830D01*
X144733854Y-74769571D01*
X144692393Y-74669477D01*
X144632203Y-74579396D01*
X144555594Y-74502787D01*
X144465513Y-74442597D01*
X144365419Y-74401136D01*
X144259160Y-74380000D01*
X144150820Y-74380000D01*
X144044561Y-74401136D01*
X143944467Y-74442597D01*
X143854386Y-74502787D01*
X143777777Y-74579396D01*
X143717587Y-74669477D01*
X143676126Y-74769571D01*
X143654990Y-74875830D01*
X143654990Y-74878959D01*
X138507960Y-80025990D01*
X137579827Y-80025990D01*
X137577614Y-80023777D01*
X137487533Y-79963587D01*
X137387439Y-79922126D01*
X137281180Y-79900990D01*
X137172840Y-79900990D01*
X137077000Y-79920054D01*
X137077000Y-75614040D01*
X138885790Y-73805250D01*
X153009549Y-73805250D01*
X153009549Y-76054750D01*
X153020150Y-76162382D01*
X153051545Y-76265877D01*
X153102527Y-76361259D01*
X153171138Y-76444862D01*
X153254741Y-76513473D01*
X153350123Y-76564455D01*
X153453618Y-76595850D01*
X153561250Y-76606451D01*
X155810750Y-76606451D01*
X155918382Y-76595850D01*
X156021877Y-76564455D01*
X156117259Y-76513473D01*
X156200862Y-76444862D01*
X156269473Y-76361259D01*
X156320455Y-76265877D01*
X156351850Y-76162382D01*
X156362451Y-76054750D01*
X156362451Y-73805250D01*
X156351850Y-73697618D01*
X156320455Y-73594123D01*
X156269473Y-73498741D01*
X156200862Y-73415138D01*
X156117259Y-73346527D01*
X156021877Y-73295545D01*
X155918382Y-73264150D01*
X155810750Y-73253549D01*
X153561250Y-73253549D01*
X153453618Y-73264150D01*
X153350123Y-73295545D01*
X153254741Y-73346527D01*
X153171138Y-73415138D01*
X153102527Y-73498741D01*
X153051545Y-73594123D01*
X153020150Y-73697618D01*
X153009549Y-73805250D01*
X138885790Y-73805250D01*
X139495518Y-73195523D01*
X139533092Y-73251756D01*
X139609701Y-73328365D01*
X139699782Y-73388555D01*
X139799876Y-73430016D01*
X139906135Y-73451152D01*
X140014475Y-73451152D01*
X140120734Y-73430016D01*
X140220828Y-73388555D01*
X140310909Y-73328365D01*
X140387518Y-73251756D01*
X140447708Y-73161675D01*
X140489169Y-73061581D01*
X140510305Y-72955322D01*
X140510305Y-72846982D01*
X140489169Y-72740723D01*
X140447708Y-72640629D01*
X140387518Y-72550548D01*
X140385305Y-72548335D01*
X140385305Y-71936479D01*
X144752232Y-71936479D01*
X144830305Y-72124068D01*
X145039019Y-72235036D01*
X145265371Y-72303153D01*
X145500663Y-72325802D01*
X145735852Y-72302114D01*
X145961900Y-72232997D01*
X146165695Y-72124068D01*
X146243768Y-71936479D01*
X145498000Y-71190711D01*
X144752232Y-71936479D01*
X140385305Y-71936479D01*
X140385305Y-71122663D01*
X144292198Y-71122663D01*
X144315886Y-71357852D01*
X144385003Y-71583900D01*
X144493932Y-71787695D01*
X144681521Y-71865768D01*
X145427289Y-71120000D01*
X145568711Y-71120000D01*
X146314479Y-71865768D01*
X146502068Y-71787695D01*
X146613036Y-71578981D01*
X146681153Y-71352629D01*
X146703802Y-71117337D01*
X146680114Y-70882148D01*
X146610997Y-70656100D01*
X146564977Y-70570000D01*
X147996549Y-70570000D01*
X147996549Y-71670000D01*
X148007145Y-71777583D01*
X148038526Y-71881031D01*
X148089485Y-71976370D01*
X148158065Y-72059935D01*
X148241630Y-72128515D01*
X148336969Y-72179474D01*
X148440417Y-72210855D01*
X148548000Y-72221451D01*
X149648000Y-72221451D01*
X149755583Y-72210855D01*
X149859031Y-72179474D01*
X149954370Y-72128515D01*
X150037935Y-72059935D01*
X150106515Y-71976370D01*
X150157474Y-71881031D01*
X150188855Y-71777583D01*
X150199451Y-71670000D01*
X150199451Y-70570000D01*
X150188855Y-70462417D01*
X150157474Y-70358969D01*
X150106515Y-70263630D01*
X150037935Y-70180065D01*
X149954370Y-70111485D01*
X149859031Y-70060526D01*
X149755583Y-70029145D01*
X149648000Y-70018549D01*
X148548000Y-70018549D01*
X148440417Y-70029145D01*
X148336969Y-70060526D01*
X148241630Y-70111485D01*
X148158065Y-70180065D01*
X148089485Y-70263630D01*
X148038526Y-70358969D01*
X148007145Y-70462417D01*
X147996549Y-70570000D01*
X146564977Y-70570000D01*
X146502068Y-70452305D01*
X146314479Y-70374232D01*
X145568711Y-71120000D01*
X145427289Y-71120000D01*
X144681521Y-70374232D01*
X144493932Y-70452305D01*
X144382964Y-70661019D01*
X144314847Y-70887371D01*
X144292198Y-71122663D01*
X140385305Y-71122663D01*
X140385305Y-70303521D01*
X144752232Y-70303521D01*
X145498000Y-71049289D01*
X146243768Y-70303521D01*
X146165695Y-70115932D01*
X145956981Y-70004964D01*
X145730629Y-69936847D01*
X145495337Y-69914198D01*
X145260148Y-69937886D01*
X145034100Y-70007003D01*
X144830305Y-70115932D01*
X144752232Y-70303521D01*
X140385305Y-70303521D01*
X140385305Y-62765172D01*
X140387360Y-62744305D01*
X140385305Y-62723438D01*
X140385305Y-62723431D01*
X140379155Y-62660991D01*
X140371852Y-62636916D01*
X140354853Y-62580877D01*
X140341106Y-62555160D01*
X140315389Y-62507045D01*
X140262279Y-62442331D01*
X140246067Y-62429026D01*
X137688283Y-59871243D01*
X137674974Y-59855026D01*
X137610260Y-59801916D01*
X137536427Y-59762452D01*
X137456314Y-59738150D01*
X137393874Y-59732000D01*
X137393867Y-59732000D01*
X137373000Y-59729945D01*
X137352133Y-59732000D01*
X110039817Y-59732000D01*
X110037604Y-59729787D01*
X109947523Y-59669597D01*
X109847429Y-59628136D01*
X109741170Y-59607000D01*
X109632830Y-59607000D01*
X109526571Y-59628136D01*
X109426477Y-59669597D01*
X109336396Y-59729787D01*
X109259787Y-59806396D01*
X109199597Y-59896477D01*
X109158136Y-59996571D01*
X109137000Y-60102830D01*
X109137000Y-60211170D01*
X109158136Y-60317429D01*
X109173886Y-60355453D01*
X109091170Y-60339000D01*
X108982830Y-60339000D01*
X108876571Y-60360136D01*
X108776477Y-60401597D01*
X108686396Y-60461787D01*
X108609787Y-60538396D01*
X108549597Y-60628477D01*
X108508136Y-60728571D01*
X108487000Y-60834830D01*
X108487000Y-60943170D01*
X108508136Y-61049429D01*
X108549597Y-61149523D01*
X108609787Y-61239604D01*
X108612000Y-61241817D01*
X108612001Y-63126958D01*
X107218960Y-64520000D01*
X107215830Y-64520000D01*
X107109571Y-64541136D01*
X107009477Y-64582597D01*
X106919396Y-64642787D01*
X106842787Y-64719396D01*
X106782597Y-64809477D01*
X106741136Y-64909571D01*
X106720000Y-65015830D01*
X101100000Y-65015830D01*
X101100000Y-44829961D01*
X106904000Y-44829961D01*
X106904000Y-45086039D01*
X106953958Y-45337196D01*
X107051955Y-45573781D01*
X107194224Y-45786702D01*
X107375298Y-45967776D01*
X107588219Y-46110045D01*
X107824804Y-46208042D01*
X108075961Y-46258000D01*
X108332039Y-46258000D01*
X108583196Y-46208042D01*
X108819781Y-46110045D01*
X109010944Y-45982314D01*
X116206734Y-53178105D01*
X116200000Y-53211961D01*
X116200000Y-53468039D01*
X116249958Y-53719196D01*
X116347955Y-53955781D01*
X116490224Y-54168702D01*
X116671298Y-54349776D01*
X116884219Y-54492045D01*
X117120804Y-54590042D01*
X117371961Y-54640000D01*
X117628039Y-54640000D01*
X117879196Y-54590042D01*
X118115781Y-54492045D01*
X118328702Y-54349776D01*
X118509776Y-54168702D01*
X118652045Y-53955781D01*
X118750042Y-53719196D01*
X118800000Y-53468039D01*
X118800000Y-53211961D01*
X118750042Y-52960804D01*
X118652045Y-52724219D01*
X118509776Y-52511298D01*
X118328702Y-52330224D01*
X118115781Y-52187955D01*
X117879196Y-52089958D01*
X117628039Y-52040000D01*
X117371961Y-52040000D01*
X117338105Y-52046734D01*
X114206233Y-48914862D01*
X133735848Y-48914862D01*
X134017878Y-49276543D01*
X134515599Y-49556901D01*
X135058451Y-49734772D01*
X135625574Y-49803320D01*
X136195173Y-49759910D01*
X136745358Y-49606211D01*
X137254986Y-49348129D01*
X137362122Y-49276543D01*
X137644152Y-48914862D01*
X135690000Y-46960711D01*
X133735848Y-48914862D01*
X114206233Y-48914862D01*
X112116945Y-46825574D01*
X132776680Y-46825574D01*
X132820090Y-47395173D01*
X132973789Y-47945358D01*
X133231871Y-48454986D01*
X133303457Y-48562122D01*
X133665138Y-48844152D01*
X135619289Y-46890000D01*
X135760711Y-46890000D01*
X137714862Y-48844152D01*
X138076543Y-48562122D01*
X138356901Y-48064401D01*
X138534772Y-47521549D01*
X138603320Y-46954426D01*
X138559910Y-46384827D01*
X138406211Y-45834642D01*
X138148129Y-45325014D01*
X138076543Y-45217878D01*
X137714862Y-44935848D01*
X135760711Y-46890000D01*
X135619289Y-46890000D01*
X133665138Y-44935848D01*
X133303457Y-45217878D01*
X133023099Y-45715599D01*
X132845228Y-46258451D01*
X132776680Y-46825574D01*
X112116945Y-46825574D01*
X110156509Y-44865138D01*
X133735848Y-44865138D01*
X135690000Y-46819289D01*
X137644152Y-44865138D01*
X137362122Y-44503457D01*
X136864401Y-44223099D01*
X136321549Y-44045228D01*
X135754426Y-43976680D01*
X135184827Y-44020090D01*
X134634642Y-44173789D01*
X134125014Y-44431871D01*
X134017878Y-44503457D01*
X133735848Y-44865138D01*
X110156509Y-44865138D01*
X109711473Y-44420103D01*
X109686422Y-44389578D01*
X109564606Y-44289607D01*
X109425628Y-44215321D01*
X109274827Y-44169576D01*
X109238284Y-44165977D01*
X109213776Y-44129298D01*
X109032702Y-43948224D01*
X108819781Y-43805955D01*
X108583196Y-43707958D01*
X108332039Y-43658000D01*
X108075961Y-43658000D01*
X107824804Y-43707958D01*
X107588219Y-43805955D01*
X107375298Y-43948224D01*
X107194224Y-44129298D01*
X107051955Y-44342219D01*
X106953958Y-44578804D01*
X106904000Y-44829961D01*
X101100000Y-44829961D01*
X101100000Y-41100000D01*
X157900000Y-41100000D01*
X157900000Y-82000000D01*
G36*
X132040000Y-82021005D02*
G01*
X132040000Y-82078995D01*
X131998995Y-82120000D01*
X131941005Y-82120000D01*
X131900000Y-82078995D01*
X131900000Y-82021005D01*
X131941005Y-81980000D01*
X131998995Y-81980000D01*
X132040000Y-82021005D01*
G37*
X132040000Y-82021005D02*
X132040000Y-82078995D01*
X131998995Y-82120000D01*
X131941005Y-82120000D01*
X131900000Y-82078995D01*
X131900000Y-82021005D01*
X131941005Y-81980000D01*
X131998995Y-81980000D01*
X132040000Y-82021005D01*
D24*
G36*
X175641000Y-81153000D02*
G01*
X158877000Y-81153000D01*
X158877000Y-41275000D01*
X175641000Y-41275000D01*
X175641000Y-81153000D01*
G37*
X175641000Y-81153000D02*
X158877000Y-81153000D01*
X158877000Y-41275000D01*
X175641000Y-41275000D01*
X175641000Y-81153000D01*
D25*
G36*
X198787000Y-80931000D02*
G01*
X181705000Y-80931000D01*
X181705000Y-41243000D01*
X198787000Y-41243000D01*
X198787000Y-80931000D01*
G37*
X198787000Y-80931000D02*
X181705000Y-80931000D01*
X181705000Y-41243000D01*
X198787000Y-41243000D01*
X198787000Y-80931000D01*
M02*
