G04 #@! TF.GenerationSoftware,KiCad,Pcbnew,5.1.6-c6e7f7d~87~ubuntu20.04.1*
G04 #@! TF.CreationDate,2021-01-28T11:24:30+02:00*
G04 #@! TF.ProjectId,LED_test_V1.3,4c45445f-7465-4737-945f-56312e332e6b,rev?*
G04 #@! TF.SameCoordinates,Original*
G04 #@! TF.FileFunction,Legend,Top*
G04 #@! TF.FilePolarity,Positive*
%FSLAX46Y46*%
G04 Gerber Fmt 4.6, Leading zero omitted, Abs format (unit mm)*
G04 Created by KiCad (PCBNEW 5.1.6-c6e7f7d~87~ubuntu20.04.1) date 2021-01-28 11:24:30*
%MOMM*%
%LPD*%
G01*
G04 APERTURE LIST*
%ADD10C,0.200000*%
%ADD11C,0.150000*%
%ADD12C,0.120000*%
%ADD13C,0.100000*%
G04 APERTURE END LIST*
D10*
X125952380Y-139369047D02*
X125952380Y-139940476D01*
X125952380Y-139654761D02*
X124952380Y-139654761D01*
X125095238Y-139750000D01*
X125190476Y-139845238D01*
X125238095Y-139940476D01*
X125047619Y-138988095D02*
X125000000Y-138940476D01*
X124952380Y-138845238D01*
X124952380Y-138607142D01*
X125000000Y-138511904D01*
X125047619Y-138464285D01*
X125142857Y-138416666D01*
X125238095Y-138416666D01*
X125380952Y-138464285D01*
X125952380Y-139035714D01*
X125952380Y-138416666D01*
X124952380Y-138130952D02*
X125952380Y-137797619D01*
X124952380Y-137464285D01*
D11*
X105961428Y-76600000D02*
X105961428Y-76885714D01*
X105361428Y-76885714D01*
X105647142Y-76400000D02*
X105647142Y-76200000D01*
X105961428Y-76114285D02*
X105961428Y-76400000D01*
X105361428Y-76400000D01*
X105361428Y-76114285D01*
X105961428Y-75857142D02*
X105361428Y-75857142D01*
X105361428Y-75714285D01*
X105390000Y-75628571D01*
X105447142Y-75571428D01*
X105504285Y-75542857D01*
X105618571Y-75514285D01*
X105704285Y-75514285D01*
X105818571Y-75542857D01*
X105875714Y-75571428D01*
X105932857Y-75628571D01*
X105961428Y-75714285D01*
X105961428Y-75857142D01*
X106018571Y-75400000D02*
X106018571Y-74942857D01*
X105361428Y-74885714D02*
X105361428Y-74542857D01*
X105961428Y-74714285D02*
X105361428Y-74714285D01*
X105647142Y-74342857D02*
X105647142Y-74142857D01*
X105961428Y-74057142D02*
X105961428Y-74342857D01*
X105361428Y-74342857D01*
X105361428Y-74057142D01*
X105932857Y-73828571D02*
X105961428Y-73742857D01*
X105961428Y-73600000D01*
X105932857Y-73542857D01*
X105904285Y-73514285D01*
X105847142Y-73485714D01*
X105790000Y-73485714D01*
X105732857Y-73514285D01*
X105704285Y-73542857D01*
X105675714Y-73600000D01*
X105647142Y-73714285D01*
X105618571Y-73771428D01*
X105590000Y-73800000D01*
X105532857Y-73828571D01*
X105475714Y-73828571D01*
X105418571Y-73800000D01*
X105390000Y-73771428D01*
X105361428Y-73714285D01*
X105361428Y-73571428D01*
X105390000Y-73485714D01*
X105361428Y-73314285D02*
X105361428Y-72971428D01*
X105961428Y-73142857D02*
X105361428Y-73142857D01*
X105361428Y-72400000D02*
X105961428Y-72200000D01*
X105361428Y-72000000D01*
X105961428Y-71485714D02*
X105961428Y-71828571D01*
X105961428Y-71657142D02*
X105361428Y-71657142D01*
X105447142Y-71714285D01*
X105504285Y-71771428D01*
X105532857Y-71828571D01*
X105904285Y-71228571D02*
X105932857Y-71200000D01*
X105961428Y-71228571D01*
X105932857Y-71257142D01*
X105904285Y-71228571D01*
X105961428Y-71228571D01*
X105361428Y-71000000D02*
X105361428Y-70628571D01*
X105590000Y-70828571D01*
X105590000Y-70742857D01*
X105618571Y-70685714D01*
X105647142Y-70657142D01*
X105704285Y-70628571D01*
X105847142Y-70628571D01*
X105904285Y-70657142D01*
X105932857Y-70685714D01*
X105961428Y-70742857D01*
X105961428Y-70914285D01*
X105932857Y-70971428D01*
X105904285Y-71000000D01*
X106190000Y-69742857D02*
X106161428Y-69771428D01*
X106075714Y-69828571D01*
X106018571Y-69857142D01*
X105932857Y-69885714D01*
X105790000Y-69914285D01*
X105675714Y-69914285D01*
X105532857Y-69885714D01*
X105447142Y-69857142D01*
X105390000Y-69828571D01*
X105304285Y-69771428D01*
X105275714Y-69742857D01*
X105961428Y-69514285D02*
X105361428Y-69514285D01*
X105647142Y-69514285D02*
X105647142Y-69171428D01*
X105961428Y-69171428D02*
X105361428Y-69171428D01*
X105675714Y-68771428D02*
X105961428Y-68771428D01*
X105361428Y-68971428D02*
X105675714Y-68771428D01*
X105361428Y-68571428D01*
X105961428Y-68371428D02*
X105361428Y-68371428D01*
X105361428Y-68142857D01*
X105390000Y-68085714D01*
X105418571Y-68057142D01*
X105475714Y-68028571D01*
X105561428Y-68028571D01*
X105618571Y-68057142D01*
X105647142Y-68085714D01*
X105675714Y-68142857D01*
X105675714Y-68371428D01*
X105647142Y-67771428D02*
X105647142Y-67571428D01*
X105961428Y-67485714D02*
X105961428Y-67771428D01*
X105361428Y-67771428D01*
X105361428Y-67485714D01*
X105961428Y-66885714D02*
X105675714Y-67085714D01*
X105961428Y-67228571D02*
X105361428Y-67228571D01*
X105361428Y-67000000D01*
X105390000Y-66942857D01*
X105418571Y-66914285D01*
X105475714Y-66885714D01*
X105561428Y-66885714D01*
X105618571Y-66914285D01*
X105647142Y-66942857D01*
X105675714Y-67000000D01*
X105675714Y-67228571D01*
X105961428Y-66628571D02*
X105361428Y-66628571D01*
X105961428Y-66285714D01*
X105361428Y-66285714D01*
X105647142Y-66000000D02*
X105647142Y-65800000D01*
X105961428Y-65714285D02*
X105961428Y-66000000D01*
X105361428Y-66000000D01*
X105361428Y-65714285D01*
X105361428Y-65542857D02*
X105361428Y-65200000D01*
X105961428Y-65371428D02*
X105361428Y-65371428D01*
X105932857Y-65028571D02*
X105961428Y-64942857D01*
X105961428Y-64800000D01*
X105932857Y-64742857D01*
X105904285Y-64714285D01*
X105847142Y-64685714D01*
X105790000Y-64685714D01*
X105732857Y-64714285D01*
X105704285Y-64742857D01*
X105675714Y-64800000D01*
X105647142Y-64914285D01*
X105618571Y-64971428D01*
X105590000Y-65000000D01*
X105532857Y-65028571D01*
X105475714Y-65028571D01*
X105418571Y-65000000D01*
X105390000Y-64971428D01*
X105361428Y-64914285D01*
X105361428Y-64771428D01*
X105390000Y-64685714D01*
X106190000Y-64485714D02*
X106161428Y-64457142D01*
X106075714Y-64400000D01*
X106018571Y-64371428D01*
X105932857Y-64342857D01*
X105790000Y-64314285D01*
X105675714Y-64314285D01*
X105532857Y-64342857D01*
X105447142Y-64371428D01*
X105390000Y-64400000D01*
X105304285Y-64457142D01*
X105275714Y-64485714D01*
D10*
X140470000Y-138751904D02*
X140422380Y-138847142D01*
X140422380Y-138990000D01*
X140470000Y-139132857D01*
X140565238Y-139228095D01*
X140660476Y-139275714D01*
X140850952Y-139323333D01*
X140993809Y-139323333D01*
X141184285Y-139275714D01*
X141279523Y-139228095D01*
X141374761Y-139132857D01*
X141422380Y-138990000D01*
X141422380Y-138894761D01*
X141374761Y-138751904D01*
X141327142Y-138704285D01*
X140993809Y-138704285D01*
X140993809Y-138894761D01*
X141422380Y-138275714D02*
X140422380Y-138275714D01*
X141422380Y-137704285D01*
X140422380Y-137704285D01*
X141422380Y-137228095D02*
X140422380Y-137228095D01*
X140422380Y-136990000D01*
X140470000Y-136847142D01*
X140565238Y-136751904D01*
X140660476Y-136704285D01*
X140850952Y-136656666D01*
X140993809Y-136656666D01*
X141184285Y-136704285D01*
X141279523Y-136751904D01*
X141374761Y-136847142D01*
X141422380Y-136990000D01*
X141422380Y-137228095D01*
X137492380Y-132536190D02*
X137492380Y-131917142D01*
X137873333Y-132250476D01*
X137873333Y-132107619D01*
X137920952Y-132012380D01*
X137968571Y-131964761D01*
X138063809Y-131917142D01*
X138301904Y-131917142D01*
X138397142Y-131964761D01*
X138444761Y-132012380D01*
X138492380Y-132107619D01*
X138492380Y-132393333D01*
X138444761Y-132488571D01*
X138397142Y-132536190D01*
X138397142Y-131488571D02*
X138444761Y-131440952D01*
X138492380Y-131488571D01*
X138444761Y-131536190D01*
X138397142Y-131488571D01*
X138492380Y-131488571D01*
X137492380Y-131107619D02*
X137492380Y-130488571D01*
X137873333Y-130821904D01*
X137873333Y-130679047D01*
X137920952Y-130583809D01*
X137968571Y-130536190D01*
X138063809Y-130488571D01*
X138301904Y-130488571D01*
X138397142Y-130536190D01*
X138444761Y-130583809D01*
X138492380Y-130679047D01*
X138492380Y-130964761D01*
X138444761Y-131060000D01*
X138397142Y-131107619D01*
X137492380Y-130202857D02*
X138492380Y-129869523D01*
X137492380Y-129536190D01*
X134750000Y-139011904D02*
X134702380Y-139107142D01*
X134702380Y-139250000D01*
X134750000Y-139392857D01*
X134845238Y-139488095D01*
X134940476Y-139535714D01*
X135130952Y-139583333D01*
X135273809Y-139583333D01*
X135464285Y-139535714D01*
X135559523Y-139488095D01*
X135654761Y-139392857D01*
X135702380Y-139250000D01*
X135702380Y-139154761D01*
X135654761Y-139011904D01*
X135607142Y-138964285D01*
X135273809Y-138964285D01*
X135273809Y-139154761D01*
X135702380Y-138535714D02*
X134702380Y-138535714D01*
X135702380Y-137964285D01*
X134702380Y-137964285D01*
X135702380Y-137488095D02*
X134702380Y-137488095D01*
X134702380Y-137250000D01*
X134750000Y-137107142D01*
X134845238Y-137011904D01*
X134940476Y-136964285D01*
X135130952Y-136916666D01*
X135273809Y-136916666D01*
X135464285Y-136964285D01*
X135559523Y-137011904D01*
X135654761Y-137107142D01*
X135702380Y-137250000D01*
X135702380Y-137488095D01*
X132452380Y-138190476D02*
X132452380Y-138666666D01*
X132928571Y-138714285D01*
X132880952Y-138666666D01*
X132833333Y-138571428D01*
X132833333Y-138333333D01*
X132880952Y-138238095D01*
X132928571Y-138190476D01*
X133023809Y-138142857D01*
X133261904Y-138142857D01*
X133357142Y-138190476D01*
X133404761Y-138238095D01*
X133452380Y-138333333D01*
X133452380Y-138571428D01*
X133404761Y-138666666D01*
X133357142Y-138714285D01*
X132452380Y-137857142D02*
X133452380Y-137523809D01*
X132452380Y-137190476D01*
X130000000Y-139261904D02*
X129952380Y-139357142D01*
X129952380Y-139500000D01*
X130000000Y-139642857D01*
X130095238Y-139738095D01*
X130190476Y-139785714D01*
X130380952Y-139833333D01*
X130523809Y-139833333D01*
X130714285Y-139785714D01*
X130809523Y-139738095D01*
X130904761Y-139642857D01*
X130952380Y-139500000D01*
X130952380Y-139404761D01*
X130904761Y-139261904D01*
X130857142Y-139214285D01*
X130523809Y-139214285D01*
X130523809Y-139404761D01*
X130952380Y-138785714D02*
X129952380Y-138785714D01*
X130952380Y-138214285D01*
X129952380Y-138214285D01*
X130952380Y-137738095D02*
X129952380Y-137738095D01*
X129952380Y-137500000D01*
X130000000Y-137357142D01*
X130095238Y-137261904D01*
X130190476Y-137214285D01*
X130380952Y-137166666D01*
X130523809Y-137166666D01*
X130714285Y-137214285D01*
X130809523Y-137261904D01*
X130904761Y-137357142D01*
X130952380Y-137500000D01*
X130952380Y-137738095D01*
X128452380Y-142845238D02*
X128452380Y-143321428D01*
X127452380Y-143321428D01*
X127928571Y-142511904D02*
X127928571Y-142178571D01*
X128452380Y-142035714D02*
X128452380Y-142511904D01*
X127452380Y-142511904D01*
X127452380Y-142035714D01*
X128452380Y-141607142D02*
X127452380Y-141607142D01*
X127452380Y-141369047D01*
X127500000Y-141226190D01*
X127595238Y-141130952D01*
X127690476Y-141083333D01*
X127880952Y-141035714D01*
X128023809Y-141035714D01*
X128214285Y-141083333D01*
X128309523Y-141130952D01*
X128404761Y-141226190D01*
X128452380Y-141369047D01*
X128452380Y-141607142D01*
X128547619Y-140845238D02*
X128547619Y-140083333D01*
X128452380Y-139845238D02*
X127452380Y-139845238D01*
X127452380Y-139464285D01*
X127500000Y-139369047D01*
X127547619Y-139321428D01*
X127642857Y-139273809D01*
X127785714Y-139273809D01*
X127880952Y-139321428D01*
X127928571Y-139369047D01*
X127976190Y-139464285D01*
X127976190Y-139845238D01*
X127452380Y-138940476D02*
X128452380Y-138702380D01*
X127738095Y-138511904D01*
X128452380Y-138321428D01*
X127452380Y-138083333D01*
X128452380Y-137130952D02*
X127976190Y-137464285D01*
X128452380Y-137702380D02*
X127452380Y-137702380D01*
X127452380Y-137321428D01*
X127500000Y-137226190D01*
X127547619Y-137178571D01*
X127642857Y-137130952D01*
X127785714Y-137130952D01*
X127880952Y-137178571D01*
X127928571Y-137226190D01*
X127976190Y-137321428D01*
X127976190Y-137702380D01*
X123202380Y-140250000D02*
X122202380Y-140250000D01*
X122202380Y-140011904D01*
X122250000Y-139869047D01*
X122345238Y-139773809D01*
X122440476Y-139726190D01*
X122630952Y-139678571D01*
X122773809Y-139678571D01*
X122964285Y-139726190D01*
X123059523Y-139773809D01*
X123154761Y-139869047D01*
X123202380Y-140011904D01*
X123202380Y-140250000D01*
X122916666Y-139297619D02*
X122916666Y-138821428D01*
X123202380Y-139392857D02*
X122202380Y-139059523D01*
X123202380Y-138726190D01*
X122202380Y-138535714D02*
X122202380Y-137964285D01*
X123202380Y-138250000D02*
X122202380Y-138250000D01*
X122916666Y-137678571D02*
X122916666Y-137202380D01*
X123202380Y-137773809D02*
X122202380Y-137440476D01*
X123202380Y-137107142D01*
X120607142Y-140869047D02*
X120654761Y-140916666D01*
X120702380Y-141059523D01*
X120702380Y-141154761D01*
X120654761Y-141297619D01*
X120559523Y-141392857D01*
X120464285Y-141440476D01*
X120273809Y-141488095D01*
X120130952Y-141488095D01*
X119940476Y-141440476D01*
X119845238Y-141392857D01*
X119750000Y-141297619D01*
X119702380Y-141154761D01*
X119702380Y-141059523D01*
X119750000Y-140916666D01*
X119797619Y-140869047D01*
X120702380Y-139964285D02*
X120702380Y-140440476D01*
X119702380Y-140440476D01*
X119702380Y-139440476D02*
X119702380Y-139250000D01*
X119750000Y-139154761D01*
X119845238Y-139059523D01*
X120035714Y-139011904D01*
X120369047Y-139011904D01*
X120559523Y-139059523D01*
X120654761Y-139154761D01*
X120702380Y-139250000D01*
X120702380Y-139440476D01*
X120654761Y-139535714D01*
X120559523Y-139630952D01*
X120369047Y-139678571D01*
X120035714Y-139678571D01*
X119845238Y-139630952D01*
X119750000Y-139535714D01*
X119702380Y-139440476D01*
X120607142Y-138011904D02*
X120654761Y-138059523D01*
X120702380Y-138202380D01*
X120702380Y-138297619D01*
X120654761Y-138440476D01*
X120559523Y-138535714D01*
X120464285Y-138583333D01*
X120273809Y-138630952D01*
X120130952Y-138630952D01*
X119940476Y-138583333D01*
X119845238Y-138535714D01*
X119750000Y-138440476D01*
X119702380Y-138297619D01*
X119702380Y-138202380D01*
X119750000Y-138059523D01*
X119797619Y-138011904D01*
X120702380Y-137583333D02*
X119702380Y-137583333D01*
X120702380Y-137011904D02*
X120130952Y-137440476D01*
X119702380Y-137011904D02*
X120273809Y-137583333D01*
X117000000Y-139261904D02*
X116952380Y-139357142D01*
X116952380Y-139500000D01*
X117000000Y-139642857D01*
X117095238Y-139738095D01*
X117190476Y-139785714D01*
X117380952Y-139833333D01*
X117523809Y-139833333D01*
X117714285Y-139785714D01*
X117809523Y-139738095D01*
X117904761Y-139642857D01*
X117952380Y-139500000D01*
X117952380Y-139404761D01*
X117904761Y-139261904D01*
X117857142Y-139214285D01*
X117523809Y-139214285D01*
X117523809Y-139404761D01*
X117952380Y-138785714D02*
X116952380Y-138785714D01*
X117952380Y-138214285D01*
X116952380Y-138214285D01*
X117952380Y-137738095D02*
X116952380Y-137738095D01*
X116952380Y-137500000D01*
X117000000Y-137357142D01*
X117095238Y-137261904D01*
X117190476Y-137214285D01*
X117380952Y-137166666D01*
X117523809Y-137166666D01*
X117714285Y-137214285D01*
X117809523Y-137261904D01*
X117904761Y-137357142D01*
X117952380Y-137500000D01*
X117952380Y-137738095D01*
X108130952Y-110595238D02*
X108083333Y-110690476D01*
X108035714Y-110738095D01*
X107940476Y-110785714D01*
X107892857Y-110785714D01*
X107797619Y-110738095D01*
X107750000Y-110690476D01*
X107702380Y-110595238D01*
X107702380Y-110404761D01*
X107750000Y-110309523D01*
X107797619Y-110261904D01*
X107892857Y-110214285D01*
X107940476Y-110214285D01*
X108035714Y-110261904D01*
X108083333Y-110309523D01*
X108130952Y-110404761D01*
X108130952Y-110595238D01*
X108178571Y-110690476D01*
X108226190Y-110738095D01*
X108321428Y-110785714D01*
X108511904Y-110785714D01*
X108607142Y-110738095D01*
X108654761Y-110690476D01*
X108702380Y-110595238D01*
X108702380Y-110404761D01*
X108654761Y-110309523D01*
X108607142Y-110261904D01*
X108511904Y-110214285D01*
X108321428Y-110214285D01*
X108226190Y-110261904D01*
X108178571Y-110309523D01*
X108130952Y-110404761D01*
X107952380Y-113333333D02*
X107952380Y-112666666D01*
X108952380Y-113095238D01*
X107952380Y-115309523D02*
X107952380Y-115500000D01*
X108000000Y-115595238D01*
X108047619Y-115642857D01*
X108190476Y-115738095D01*
X108380952Y-115785714D01*
X108761904Y-115785714D01*
X108857142Y-115738095D01*
X108904761Y-115690476D01*
X108952380Y-115595238D01*
X108952380Y-115404761D01*
X108904761Y-115309523D01*
X108857142Y-115261904D01*
X108761904Y-115214285D01*
X108523809Y-115214285D01*
X108428571Y-115261904D01*
X108380952Y-115309523D01*
X108333333Y-115404761D01*
X108333333Y-115595238D01*
X108380952Y-115690476D01*
X108428571Y-115738095D01*
X108523809Y-115785714D01*
X107952380Y-118261904D02*
X107952380Y-118738095D01*
X108428571Y-118785714D01*
X108380952Y-118738095D01*
X108333333Y-118642857D01*
X108333333Y-118404761D01*
X108380952Y-118309523D01*
X108428571Y-118261904D01*
X108523809Y-118214285D01*
X108761904Y-118214285D01*
X108857142Y-118261904D01*
X108904761Y-118309523D01*
X108952380Y-118404761D01*
X108952380Y-118642857D01*
X108904761Y-118738095D01*
X108857142Y-118785714D01*
X108285714Y-120809523D02*
X108952380Y-120809523D01*
X107904761Y-121047619D02*
X108619047Y-121285714D01*
X108619047Y-120666666D01*
X107952380Y-123833333D02*
X107952380Y-123214285D01*
X108333333Y-123547619D01*
X108333333Y-123404761D01*
X108380952Y-123309523D01*
X108428571Y-123261904D01*
X108523809Y-123214285D01*
X108761904Y-123214285D01*
X108857142Y-123261904D01*
X108904761Y-123309523D01*
X108952380Y-123404761D01*
X108952380Y-123690476D01*
X108904761Y-123785714D01*
X108857142Y-123833333D01*
X108047619Y-126285714D02*
X108000000Y-126238095D01*
X107952380Y-126142857D01*
X107952380Y-125904761D01*
X108000000Y-125809523D01*
X108047619Y-125761904D01*
X108142857Y-125714285D01*
X108238095Y-125714285D01*
X108380952Y-125761904D01*
X108952380Y-126333333D01*
X108952380Y-125714285D01*
X108952380Y-128214285D02*
X108952380Y-128785714D01*
X108952380Y-128500000D02*
X107952380Y-128500000D01*
X108095238Y-128595238D01*
X108190476Y-128690476D01*
X108238095Y-128785714D01*
D12*
X186520000Y-102240000D02*
X186520000Y-103700000D01*
X183360000Y-102240000D02*
X183360000Y-104400000D01*
X183360000Y-102240000D02*
X184290000Y-102240000D01*
X186520000Y-102240000D02*
X185590000Y-102240000D01*
X123954000Y-96945267D02*
X123954000Y-96602733D01*
X122934000Y-96945267D02*
X122934000Y-96602733D01*
X171448000Y-121329267D02*
X171448000Y-120986733D01*
X172468000Y-121329267D02*
X172468000Y-120986733D01*
X184970000Y-68240000D02*
X183210000Y-68240000D01*
X183210000Y-71310000D02*
X185640000Y-71310000D01*
X197220000Y-124850000D02*
G75*
G03*
X197220000Y-124850000I-700000J0D01*
G01*
X197310000Y-126980000D02*
G75*
G03*
X197310000Y-126980000I-700000J0D01*
G01*
X174230000Y-129190000D02*
G75*
G03*
X174230000Y-129190000I-700000J0D01*
G01*
X190328733Y-68360000D02*
X190671267Y-68360000D01*
X190328733Y-69380000D02*
X190671267Y-69380000D01*
X183428733Y-63690000D02*
X183771267Y-63690000D01*
X183428733Y-64710000D02*
X183771267Y-64710000D01*
X186168733Y-73640000D02*
X186511267Y-73640000D01*
X186168733Y-74660000D02*
X186511267Y-74660000D01*
X176520000Y-128148733D02*
X176520000Y-128491267D01*
X175500000Y-128148733D02*
X175500000Y-128491267D01*
X183751267Y-66590000D02*
X183408733Y-66590000D01*
X183751267Y-65570000D02*
X183408733Y-65570000D01*
X179390000Y-70031267D02*
X179390000Y-69688733D01*
X180410000Y-70031267D02*
X180410000Y-69688733D01*
X176588733Y-118530000D02*
X176931267Y-118530000D01*
X176588733Y-119550000D02*
X176931267Y-119550000D01*
X126266733Y-78922000D02*
X126609267Y-78922000D01*
X126266733Y-79942000D02*
X126609267Y-79942000D01*
X138736000Y-108704748D02*
X138736000Y-109227252D01*
X140156000Y-108704748D02*
X140156000Y-109227252D01*
X178840000Y-127060000D02*
X179770000Y-127060000D01*
X182000000Y-127060000D02*
X181070000Y-127060000D01*
X182000000Y-127060000D02*
X182000000Y-124900000D01*
X178840000Y-127060000D02*
X178840000Y-125600000D01*
X126746000Y-103200000D02*
X126746000Y-100200000D01*
X123526000Y-101700000D02*
X123526000Y-100200000D01*
X144634267Y-76597000D02*
X144291733Y-76597000D01*
X144634267Y-75577000D02*
X144291733Y-75577000D01*
X119852000Y-120728000D02*
X119302000Y-120728000D01*
X119302000Y-120728000D02*
X119302000Y-120178000D01*
X122972000Y-116508000D02*
X123522000Y-116508000D01*
X123522000Y-116508000D02*
X123522000Y-117058000D01*
X119852000Y-116508000D02*
X119302000Y-116508000D01*
X119302000Y-116508000D02*
X119302000Y-117058000D01*
X122972000Y-120728000D02*
X123522000Y-120728000D01*
X177130000Y-93816000D02*
X177130000Y-93660000D01*
X177130000Y-91500000D02*
X177130000Y-91344000D01*
X174528870Y-91500163D02*
G75*
G02*
X176610961Y-91500000I1041130J-1079837D01*
G01*
X174528870Y-93659837D02*
G75*
G03*
X176610961Y-93660000I1041130J1079837D01*
G01*
X173897665Y-91501392D02*
G75*
G02*
X177130000Y-91344484I1672335J-1078608D01*
G01*
X173897665Y-93658608D02*
G75*
G03*
X177130000Y-93815516I1672335J1078608D01*
G01*
X138590000Y-140088733D02*
X138590000Y-140431267D01*
X137570000Y-140088733D02*
X137570000Y-140431267D01*
X141792000Y-135950000D02*
X141792000Y-133290000D01*
X118872000Y-135950000D02*
X141792000Y-135950000D01*
X118872000Y-133290000D02*
X141792000Y-133290000D01*
X118872000Y-135950000D02*
X118872000Y-133290000D01*
X117602000Y-135950000D02*
X116272000Y-135950000D01*
X116272000Y-135950000D02*
X116272000Y-134620000D01*
X113090000Y-109160000D02*
X110430000Y-109160000D01*
X113090000Y-127000000D02*
X113090000Y-109160000D01*
X110430000Y-127000000D02*
X110430000Y-109160000D01*
X113090000Y-127000000D02*
X110430000Y-127000000D01*
X113090000Y-128270000D02*
X113090000Y-129600000D01*
X113090000Y-129600000D02*
X111760000Y-129600000D01*
X120648000Y-125901267D02*
X120648000Y-125558733D01*
X121668000Y-125901267D02*
X121668000Y-125558733D01*
X127948000Y-81940748D02*
X127948000Y-82463252D01*
X126528000Y-81940748D02*
X126528000Y-82463252D01*
X137674252Y-75727000D02*
X137151748Y-75727000D01*
X137674252Y-77147000D02*
X137151748Y-77147000D01*
X140876748Y-70597000D02*
X141399252Y-70597000D01*
X140876748Y-69177000D02*
X141399252Y-69177000D01*
X117985000Y-59210000D02*
X109750000Y-59210000D01*
X117985000Y-63730000D02*
X117985000Y-59210000D01*
X109750000Y-63730000D02*
X117985000Y-63730000D01*
X120858000Y-69330748D02*
X120858000Y-69853252D01*
X119438000Y-69330748D02*
X119438000Y-69853252D01*
X121428000Y-66273252D02*
X121428000Y-65750748D01*
X122848000Y-66273252D02*
X122848000Y-65750748D01*
X141374252Y-66502000D02*
X140851748Y-66502000D01*
X141374252Y-67922000D02*
X140851748Y-67922000D01*
X121503000Y-76923252D02*
X121503000Y-76400748D01*
X122923000Y-76923252D02*
X122923000Y-76400748D01*
X148368000Y-82033252D02*
X148368000Y-81510748D01*
X146948000Y-82033252D02*
X146948000Y-81510748D01*
X140066748Y-56922000D02*
X140589252Y-56922000D01*
X140066748Y-55502000D02*
X140589252Y-55502000D01*
X140046748Y-86522000D02*
X140569252Y-86522000D01*
X140046748Y-85102000D02*
X140569252Y-85102000D01*
X178757733Y-133860000D02*
X179100267Y-133860000D01*
X178757733Y-132840000D02*
X179100267Y-132840000D01*
X163470000Y-103600000D02*
X163470000Y-111835000D01*
X163470000Y-111835000D02*
X167990000Y-111835000D01*
X167990000Y-111835000D02*
X167990000Y-103600000D01*
X185430000Y-123068733D02*
X185430000Y-123411267D01*
X186450000Y-123068733D02*
X186450000Y-123411267D01*
X188724000Y-119716733D02*
X188724000Y-120059267D01*
X187704000Y-119716733D02*
X187704000Y-120059267D01*
X193760000Y-91520000D02*
X193760000Y-91364000D01*
X193760000Y-93836000D02*
X193760000Y-93680000D01*
X190527665Y-93678608D02*
G75*
G03*
X193760000Y-93835516I1672335J1078608D01*
G01*
X190527665Y-91521392D02*
G75*
G02*
X193760000Y-91364484I1672335J-1078608D01*
G01*
X191158870Y-93679837D02*
G75*
G03*
X193240961Y-93680000I1041130J1079837D01*
G01*
X191158870Y-91520163D02*
G75*
G02*
X193240961Y-91520000I1041130J-1079837D01*
G01*
X142678000Y-64282000D02*
X142678000Y-57812000D01*
X135898000Y-64282000D02*
X135898000Y-57812000D01*
X135898000Y-64282000D02*
X142678000Y-64282000D01*
X142653000Y-77817000D02*
X135873000Y-77817000D01*
X142653000Y-77817000D02*
X142653000Y-84287000D01*
X135873000Y-77817000D02*
X135873000Y-84287000D01*
X172094000Y-113524000D02*
X174524000Y-113524000D01*
X173854000Y-110454000D02*
X172094000Y-110454000D01*
X124878000Y-81960733D02*
X124878000Y-82303267D01*
X125898000Y-81960733D02*
X125898000Y-82303267D01*
X130858000Y-81310733D02*
X130858000Y-81653267D01*
X131878000Y-81310733D02*
X131878000Y-81653267D01*
X130248000Y-81315733D02*
X130248000Y-81658267D01*
X129228000Y-81315733D02*
X129228000Y-81658267D01*
X121728000Y-69808267D02*
X121728000Y-69465733D01*
X122748000Y-69808267D02*
X122748000Y-69465733D01*
X119678000Y-73200733D02*
X119678000Y-73543267D01*
X120698000Y-73200733D02*
X120698000Y-73543267D01*
X144634267Y-72772000D02*
X144291733Y-72772000D01*
X144634267Y-71752000D02*
X144291733Y-71752000D01*
X144634267Y-74622000D02*
X144291733Y-74622000D01*
X144634267Y-73602000D02*
X144291733Y-73602000D01*
X121753000Y-73258267D02*
X121753000Y-72915733D01*
X122773000Y-73258267D02*
X122773000Y-72915733D01*
X140891733Y-72772000D02*
X141234267Y-72772000D01*
X140891733Y-71752000D02*
X141234267Y-71752000D01*
X140891733Y-74622000D02*
X141234267Y-74622000D01*
X140891733Y-73602000D02*
X141234267Y-73602000D01*
X140891733Y-76597000D02*
X141234267Y-76597000D01*
X140891733Y-75577000D02*
X141234267Y-75577000D01*
X130110000Y-61228733D02*
X130110000Y-61571267D01*
X129090000Y-61228733D02*
X129090000Y-61571267D01*
X152373000Y-81133267D02*
X152373000Y-80790733D01*
X151353000Y-81133267D02*
X151353000Y-80790733D01*
X144890000Y-95499267D02*
X144890000Y-95156733D01*
X143870000Y-95499267D02*
X143870000Y-95156733D01*
X172210000Y-107051267D02*
X172210000Y-106708733D01*
X171190000Y-107051267D02*
X171190000Y-106708733D01*
X190848733Y-134870000D02*
X191191267Y-134870000D01*
X190848733Y-135890000D02*
X191191267Y-135890000D01*
X138910000Y-99060000D02*
G75*
G03*
X138910000Y-99060000I-1750000J0D01*
G01*
X136523000Y-67902000D02*
X136523000Y-67427000D01*
X129303000Y-74647000D02*
X129778000Y-74647000D01*
X129303000Y-74172000D02*
X129303000Y-74647000D01*
X129303000Y-67427000D02*
X129778000Y-67427000D01*
X129303000Y-67902000D02*
X129303000Y-67427000D01*
X136523000Y-74647000D02*
X136048000Y-74647000D01*
X136523000Y-74172000D02*
X136523000Y-74647000D01*
X143380000Y-103028000D02*
X143380000Y-100103000D01*
X143380000Y-103028000D02*
X143380000Y-104528000D01*
X140160000Y-103028000D02*
X140160000Y-101528000D01*
X140160000Y-103028000D02*
X140160000Y-104528000D01*
X183994000Y-134452000D02*
X182494000Y-134452000D01*
X185494000Y-131232000D02*
X182494000Y-131232000D01*
X173496000Y-122818000D02*
X173496000Y-125248000D01*
X176566000Y-124578000D02*
X176566000Y-122818000D01*
X188353000Y-122350000D02*
X187628000Y-122350000D01*
X191848000Y-126570000D02*
X191848000Y-125845000D01*
X191123000Y-126570000D02*
X191848000Y-126570000D01*
X187628000Y-126570000D02*
X187628000Y-125845000D01*
X188353000Y-126570000D02*
X187628000Y-126570000D01*
X191848000Y-122350000D02*
X191848000Y-123075000D01*
X191123000Y-122350000D02*
X191848000Y-122350000D01*
X164928733Y-116334000D02*
X165271267Y-116334000D01*
X164928733Y-115314000D02*
X165271267Y-115314000D01*
X194740000Y-115612064D02*
X194740000Y-114407936D01*
X192920000Y-115612064D02*
X192920000Y-114407936D01*
D11*
X181974761Y-102805619D02*
X181879523Y-102758000D01*
X181784285Y-102662761D01*
X181641428Y-102519904D01*
X181546190Y-102472285D01*
X181450952Y-102472285D01*
X181498571Y-102710380D02*
X181403333Y-102662761D01*
X181308095Y-102567523D01*
X181260476Y-102377047D01*
X181260476Y-102043714D01*
X181308095Y-101853238D01*
X181403333Y-101758000D01*
X181498571Y-101710380D01*
X181689047Y-101710380D01*
X181784285Y-101758000D01*
X181879523Y-101853238D01*
X181927142Y-102043714D01*
X181927142Y-102377047D01*
X181879523Y-102567523D01*
X181784285Y-102662761D01*
X181689047Y-102710380D01*
X181498571Y-102710380D01*
X182308095Y-101805619D02*
X182355714Y-101758000D01*
X182450952Y-101710380D01*
X182689047Y-101710380D01*
X182784285Y-101758000D01*
X182831904Y-101805619D01*
X182879523Y-101900857D01*
X182879523Y-101996095D01*
X182831904Y-102138952D01*
X182260476Y-102710380D01*
X182879523Y-102710380D01*
X123776142Y-94341857D02*
X123823761Y-94389476D01*
X123871380Y-94532333D01*
X123871380Y-94627571D01*
X123823761Y-94770428D01*
X123728523Y-94865666D01*
X123633285Y-94913285D01*
X123442809Y-94960904D01*
X123299952Y-94960904D01*
X123109476Y-94913285D01*
X123014238Y-94865666D01*
X122919000Y-94770428D01*
X122871380Y-94627571D01*
X122871380Y-94532333D01*
X122919000Y-94389476D01*
X122966619Y-94341857D01*
X123871380Y-93389476D02*
X123871380Y-93960904D01*
X123871380Y-93675190D02*
X122871380Y-93675190D01*
X123014238Y-93770428D01*
X123109476Y-93865666D01*
X123157095Y-93960904D01*
X123204714Y-92532333D02*
X123871380Y-92532333D01*
X122823761Y-92770428D02*
X123538047Y-93008523D01*
X123538047Y-92389476D01*
X131511714Y-101166904D02*
X131245047Y-100785952D01*
X131054571Y-101166904D02*
X131054571Y-100366904D01*
X131359333Y-100366904D01*
X131435523Y-100405000D01*
X131473619Y-100443095D01*
X131511714Y-100519285D01*
X131511714Y-100633571D01*
X131473619Y-100709761D01*
X131435523Y-100747857D01*
X131359333Y-100785952D01*
X131054571Y-100785952D01*
X131816476Y-100443095D02*
X131854571Y-100405000D01*
X131930761Y-100366904D01*
X132121238Y-100366904D01*
X132197428Y-100405000D01*
X132235523Y-100443095D01*
X132273619Y-100519285D01*
X132273619Y-100595476D01*
X132235523Y-100709761D01*
X131778380Y-101166904D01*
X132273619Y-101166904D01*
X132730761Y-100709761D02*
X132654571Y-100671666D01*
X132616476Y-100633571D01*
X132578380Y-100557380D01*
X132578380Y-100519285D01*
X132616476Y-100443095D01*
X132654571Y-100405000D01*
X132730761Y-100366904D01*
X132883142Y-100366904D01*
X132959333Y-100405000D01*
X132997428Y-100443095D01*
X133035523Y-100519285D01*
X133035523Y-100557380D01*
X132997428Y-100633571D01*
X132959333Y-100671666D01*
X132883142Y-100709761D01*
X132730761Y-100709761D01*
X132654571Y-100747857D01*
X132616476Y-100785952D01*
X132578380Y-100862142D01*
X132578380Y-101014523D01*
X132616476Y-101090714D01*
X132654571Y-101128809D01*
X132730761Y-101166904D01*
X132883142Y-101166904D01*
X132959333Y-101128809D01*
X132997428Y-101090714D01*
X133035523Y-101014523D01*
X133035523Y-100862142D01*
X132997428Y-100785952D01*
X132959333Y-100747857D01*
X132883142Y-100709761D01*
X170791142Y-121800857D02*
X170838761Y-121848476D01*
X170886380Y-121991333D01*
X170886380Y-122086571D01*
X170838761Y-122229428D01*
X170743523Y-122324666D01*
X170648285Y-122372285D01*
X170457809Y-122419904D01*
X170314952Y-122419904D01*
X170124476Y-122372285D01*
X170029238Y-122324666D01*
X169934000Y-122229428D01*
X169886380Y-122086571D01*
X169886380Y-121991333D01*
X169934000Y-121848476D01*
X169981619Y-121800857D01*
X170886380Y-120848476D02*
X170886380Y-121419904D01*
X170886380Y-121134190D02*
X169886380Y-121134190D01*
X170029238Y-121229428D01*
X170124476Y-121324666D01*
X170172095Y-121419904D01*
X170886380Y-120372285D02*
X170886380Y-120181809D01*
X170838761Y-120086571D01*
X170791142Y-120038952D01*
X170648285Y-119943714D01*
X170457809Y-119896095D01*
X170076857Y-119896095D01*
X169981619Y-119943714D01*
X169934000Y-119991333D01*
X169886380Y-120086571D01*
X169886380Y-120277047D01*
X169934000Y-120372285D01*
X169981619Y-120419904D01*
X170076857Y-120467523D01*
X170314952Y-120467523D01*
X170410190Y-120419904D01*
X170457809Y-120372285D01*
X170505428Y-120277047D01*
X170505428Y-120086571D01*
X170457809Y-119991333D01*
X170410190Y-119943714D01*
X170314952Y-119896095D01*
X183328095Y-71702380D02*
X183328095Y-72511904D01*
X183375714Y-72607142D01*
X183423333Y-72654761D01*
X183518571Y-72702380D01*
X183709047Y-72702380D01*
X183804285Y-72654761D01*
X183851904Y-72607142D01*
X183899523Y-72511904D01*
X183899523Y-71702380D01*
X184423333Y-72702380D02*
X184613809Y-72702380D01*
X184709047Y-72654761D01*
X184756666Y-72607142D01*
X184851904Y-72464285D01*
X184899523Y-72273809D01*
X184899523Y-71892857D01*
X184851904Y-71797619D01*
X184804285Y-71750000D01*
X184709047Y-71702380D01*
X184518571Y-71702380D01*
X184423333Y-71750000D01*
X184375714Y-71797619D01*
X184328095Y-71892857D01*
X184328095Y-72130952D01*
X184375714Y-72226190D01*
X184423333Y-72273809D01*
X184518571Y-72321428D01*
X184709047Y-72321428D01*
X184804285Y-72273809D01*
X184851904Y-72226190D01*
X184899523Y-72130952D01*
X193218095Y-124482380D02*
X193789523Y-124482380D01*
X193503809Y-125482380D02*
X193503809Y-124482380D01*
X194122857Y-125482380D02*
X194122857Y-124482380D01*
X194503809Y-124482380D01*
X194599047Y-124530000D01*
X194646666Y-124577619D01*
X194694285Y-124672857D01*
X194694285Y-124815714D01*
X194646666Y-124910952D01*
X194599047Y-124958571D01*
X194503809Y-125006190D01*
X194122857Y-125006190D01*
X195551428Y-124815714D02*
X195551428Y-125482380D01*
X195313333Y-124434761D02*
X195075238Y-125149047D01*
X195694285Y-125149047D01*
X193278095Y-126582380D02*
X193849523Y-126582380D01*
X193563809Y-127582380D02*
X193563809Y-126582380D01*
X194182857Y-127582380D02*
X194182857Y-126582380D01*
X194563809Y-126582380D01*
X194659047Y-126630000D01*
X194706666Y-126677619D01*
X194754285Y-126772857D01*
X194754285Y-126915714D01*
X194706666Y-127010952D01*
X194659047Y-127058571D01*
X194563809Y-127106190D01*
X194182857Y-127106190D01*
X195087619Y-126582380D02*
X195706666Y-126582380D01*
X195373333Y-126963333D01*
X195516190Y-126963333D01*
X195611428Y-127010952D01*
X195659047Y-127058571D01*
X195706666Y-127153809D01*
X195706666Y-127391904D01*
X195659047Y-127487142D01*
X195611428Y-127534761D01*
X195516190Y-127582380D01*
X195230476Y-127582380D01*
X195135238Y-127534761D01*
X195087619Y-127487142D01*
X169858095Y-128712380D02*
X170429523Y-128712380D01*
X170143809Y-129712380D02*
X170143809Y-128712380D01*
X170762857Y-129712380D02*
X170762857Y-128712380D01*
X171143809Y-128712380D01*
X171239047Y-128760000D01*
X171286666Y-128807619D01*
X171334285Y-128902857D01*
X171334285Y-129045714D01*
X171286666Y-129140952D01*
X171239047Y-129188571D01*
X171143809Y-129236190D01*
X170762857Y-129236190D01*
X171715238Y-128807619D02*
X171762857Y-128760000D01*
X171858095Y-128712380D01*
X172096190Y-128712380D01*
X172191428Y-128760000D01*
X172239047Y-128807619D01*
X172286666Y-128902857D01*
X172286666Y-128998095D01*
X172239047Y-129140952D01*
X171667619Y-129712380D01*
X172286666Y-129712380D01*
X189857142Y-67892380D02*
X189523809Y-67416190D01*
X189285714Y-67892380D02*
X189285714Y-66892380D01*
X189666666Y-66892380D01*
X189761904Y-66940000D01*
X189809523Y-66987619D01*
X189857142Y-67082857D01*
X189857142Y-67225714D01*
X189809523Y-67320952D01*
X189761904Y-67368571D01*
X189666666Y-67416190D01*
X189285714Y-67416190D01*
X190761904Y-66892380D02*
X190285714Y-66892380D01*
X190238095Y-67368571D01*
X190285714Y-67320952D01*
X190380952Y-67273333D01*
X190619047Y-67273333D01*
X190714285Y-67320952D01*
X190761904Y-67368571D01*
X190809523Y-67463809D01*
X190809523Y-67701904D01*
X190761904Y-67797142D01*
X190714285Y-67844761D01*
X190619047Y-67892380D01*
X190380952Y-67892380D01*
X190285714Y-67844761D01*
X190238095Y-67797142D01*
X191428571Y-66892380D02*
X191523809Y-66892380D01*
X191619047Y-66940000D01*
X191666666Y-66987619D01*
X191714285Y-67082857D01*
X191761904Y-67273333D01*
X191761904Y-67511428D01*
X191714285Y-67701904D01*
X191666666Y-67797142D01*
X191619047Y-67844761D01*
X191523809Y-67892380D01*
X191428571Y-67892380D01*
X191333333Y-67844761D01*
X191285714Y-67797142D01*
X191238095Y-67701904D01*
X191190476Y-67511428D01*
X191190476Y-67273333D01*
X191238095Y-67082857D01*
X191285714Y-66987619D01*
X191333333Y-66940000D01*
X191428571Y-66892380D01*
X179827142Y-64712380D02*
X179493809Y-64236190D01*
X179255714Y-64712380D02*
X179255714Y-63712380D01*
X179636666Y-63712380D01*
X179731904Y-63760000D01*
X179779523Y-63807619D01*
X179827142Y-63902857D01*
X179827142Y-64045714D01*
X179779523Y-64140952D01*
X179731904Y-64188571D01*
X179636666Y-64236190D01*
X179255714Y-64236190D01*
X180684285Y-64045714D02*
X180684285Y-64712380D01*
X180446190Y-63664761D02*
X180208095Y-64379047D01*
X180827142Y-64379047D01*
X181255714Y-64712380D02*
X181446190Y-64712380D01*
X181541428Y-64664761D01*
X181589047Y-64617142D01*
X181684285Y-64474285D01*
X181731904Y-64283809D01*
X181731904Y-63902857D01*
X181684285Y-63807619D01*
X181636666Y-63760000D01*
X181541428Y-63712380D01*
X181350952Y-63712380D01*
X181255714Y-63760000D01*
X181208095Y-63807619D01*
X181160476Y-63902857D01*
X181160476Y-64140952D01*
X181208095Y-64236190D01*
X181255714Y-64283809D01*
X181350952Y-64331428D01*
X181541428Y-64331428D01*
X181636666Y-64283809D01*
X181684285Y-64236190D01*
X181731904Y-64140952D01*
X180722380Y-117252857D02*
X180246190Y-117586190D01*
X180722380Y-117824285D02*
X179722380Y-117824285D01*
X179722380Y-117443333D01*
X179770000Y-117348095D01*
X179817619Y-117300476D01*
X179912857Y-117252857D01*
X180055714Y-117252857D01*
X180150952Y-117300476D01*
X180198571Y-117348095D01*
X180246190Y-117443333D01*
X180246190Y-117824285D01*
X180055714Y-116395714D02*
X180722380Y-116395714D01*
X179674761Y-116633809D02*
X180389047Y-116871904D01*
X180389047Y-116252857D01*
X180055714Y-115443333D02*
X180722380Y-115443333D01*
X179674761Y-115681428D02*
X180389047Y-115919523D01*
X180389047Y-115300476D01*
X185697142Y-73172380D02*
X185363809Y-72696190D01*
X185125714Y-73172380D02*
X185125714Y-72172380D01*
X185506666Y-72172380D01*
X185601904Y-72220000D01*
X185649523Y-72267619D01*
X185697142Y-72362857D01*
X185697142Y-72505714D01*
X185649523Y-72600952D01*
X185601904Y-72648571D01*
X185506666Y-72696190D01*
X185125714Y-72696190D01*
X186554285Y-72505714D02*
X186554285Y-73172380D01*
X186316190Y-72124761D02*
X186078095Y-72839047D01*
X186697142Y-72839047D01*
X187030476Y-72267619D02*
X187078095Y-72220000D01*
X187173333Y-72172380D01*
X187411428Y-72172380D01*
X187506666Y-72220000D01*
X187554285Y-72267619D01*
X187601904Y-72362857D01*
X187601904Y-72458095D01*
X187554285Y-72600952D01*
X186982857Y-73172380D01*
X187601904Y-73172380D01*
X185162380Y-116192857D02*
X184686190Y-116526190D01*
X185162380Y-116764285D02*
X184162380Y-116764285D01*
X184162380Y-116383333D01*
X184210000Y-116288095D01*
X184257619Y-116240476D01*
X184352857Y-116192857D01*
X184495714Y-116192857D01*
X184590952Y-116240476D01*
X184638571Y-116288095D01*
X184686190Y-116383333D01*
X184686190Y-116764285D01*
X184495714Y-115335714D02*
X185162380Y-115335714D01*
X184114761Y-115573809D02*
X184829047Y-115811904D01*
X184829047Y-115192857D01*
X184162380Y-114621428D02*
X184162380Y-114526190D01*
X184210000Y-114430952D01*
X184257619Y-114383333D01*
X184352857Y-114335714D01*
X184543333Y-114288095D01*
X184781428Y-114288095D01*
X184971904Y-114335714D01*
X185067142Y-114383333D01*
X185114761Y-114430952D01*
X185162380Y-114526190D01*
X185162380Y-114621428D01*
X185114761Y-114716666D01*
X185067142Y-114764285D01*
X184971904Y-114811904D01*
X184781428Y-114859523D01*
X184543333Y-114859523D01*
X184352857Y-114811904D01*
X184257619Y-114764285D01*
X184210000Y-114716666D01*
X184162380Y-114621428D01*
X177892380Y-128962857D02*
X177416190Y-129296190D01*
X177892380Y-129534285D02*
X176892380Y-129534285D01*
X176892380Y-129153333D01*
X176940000Y-129058095D01*
X176987619Y-129010476D01*
X177082857Y-128962857D01*
X177225714Y-128962857D01*
X177320952Y-129010476D01*
X177368571Y-129058095D01*
X177416190Y-129153333D01*
X177416190Y-129534285D01*
X176892380Y-128629523D02*
X176892380Y-128010476D01*
X177273333Y-128343809D01*
X177273333Y-128200952D01*
X177320952Y-128105714D01*
X177368571Y-128058095D01*
X177463809Y-128010476D01*
X177701904Y-128010476D01*
X177797142Y-128058095D01*
X177844761Y-128105714D01*
X177892380Y-128200952D01*
X177892380Y-128486666D01*
X177844761Y-128581904D01*
X177797142Y-128629523D01*
X177225714Y-127153333D02*
X177892380Y-127153333D01*
X176844761Y-127391428D02*
X177559047Y-127629523D01*
X177559047Y-127010476D01*
X193072380Y-112362857D02*
X192072380Y-112362857D01*
X193072380Y-111791428D01*
X192072380Y-111791428D01*
X192072380Y-111458095D02*
X192072380Y-110886666D01*
X193072380Y-111172380D02*
X192072380Y-111172380D01*
X193072380Y-110029523D02*
X193072380Y-110600952D01*
X193072380Y-110315238D02*
X192072380Y-110315238D01*
X192215238Y-110410476D01*
X192310476Y-110505714D01*
X192358095Y-110600952D01*
X179777142Y-66457142D02*
X179729523Y-66504761D01*
X179586666Y-66552380D01*
X179491428Y-66552380D01*
X179348571Y-66504761D01*
X179253333Y-66409523D01*
X179205714Y-66314285D01*
X179158095Y-66123809D01*
X179158095Y-65980952D01*
X179205714Y-65790476D01*
X179253333Y-65695238D01*
X179348571Y-65600000D01*
X179491428Y-65552380D01*
X179586666Y-65552380D01*
X179729523Y-65600000D01*
X179777142Y-65647619D01*
X180158095Y-65647619D02*
X180205714Y-65600000D01*
X180300952Y-65552380D01*
X180539047Y-65552380D01*
X180634285Y-65600000D01*
X180681904Y-65647619D01*
X180729523Y-65742857D01*
X180729523Y-65838095D01*
X180681904Y-65980952D01*
X180110476Y-66552380D01*
X180729523Y-66552380D01*
X181586666Y-65885714D02*
X181586666Y-66552380D01*
X181348571Y-65504761D02*
X181110476Y-66219047D01*
X181729523Y-66219047D01*
X178827142Y-70502857D02*
X178874761Y-70550476D01*
X178922380Y-70693333D01*
X178922380Y-70788571D01*
X178874761Y-70931428D01*
X178779523Y-71026666D01*
X178684285Y-71074285D01*
X178493809Y-71121904D01*
X178350952Y-71121904D01*
X178160476Y-71074285D01*
X178065238Y-71026666D01*
X177970000Y-70931428D01*
X177922380Y-70788571D01*
X177922380Y-70693333D01*
X177970000Y-70550476D01*
X178017619Y-70502857D01*
X178017619Y-70121904D02*
X177970000Y-70074285D01*
X177922380Y-69979047D01*
X177922380Y-69740952D01*
X177970000Y-69645714D01*
X178017619Y-69598095D01*
X178112857Y-69550476D01*
X178208095Y-69550476D01*
X178350952Y-69598095D01*
X178922380Y-70169523D01*
X178922380Y-69550476D01*
X177922380Y-69217142D02*
X177922380Y-68598095D01*
X178303333Y-68931428D01*
X178303333Y-68788571D01*
X178350952Y-68693333D01*
X178398571Y-68645714D01*
X178493809Y-68598095D01*
X178731904Y-68598095D01*
X178827142Y-68645714D01*
X178874761Y-68693333D01*
X178922380Y-68788571D01*
X178922380Y-69074285D01*
X178874761Y-69169523D01*
X178827142Y-69217142D01*
X176117142Y-117967142D02*
X176069523Y-118014761D01*
X175926666Y-118062380D01*
X175831428Y-118062380D01*
X175688571Y-118014761D01*
X175593333Y-117919523D01*
X175545714Y-117824285D01*
X175498095Y-117633809D01*
X175498095Y-117490952D01*
X175545714Y-117300476D01*
X175593333Y-117205238D01*
X175688571Y-117110000D01*
X175831428Y-117062380D01*
X175926666Y-117062380D01*
X176069523Y-117110000D01*
X176117142Y-117157619D01*
X177069523Y-118062380D02*
X176498095Y-118062380D01*
X176783809Y-118062380D02*
X176783809Y-117062380D01*
X176688571Y-117205238D01*
X176593333Y-117300476D01*
X176498095Y-117348095D01*
X177402857Y-117062380D02*
X178069523Y-117062380D01*
X177640952Y-118062380D01*
X126321333Y-78579380D02*
X125988000Y-78103190D01*
X125749904Y-78579380D02*
X125749904Y-77579380D01*
X126130857Y-77579380D01*
X126226095Y-77627000D01*
X126273714Y-77674619D01*
X126321333Y-77769857D01*
X126321333Y-77912714D01*
X126273714Y-78007952D01*
X126226095Y-78055571D01*
X126130857Y-78103190D01*
X125749904Y-78103190D01*
X127178476Y-77579380D02*
X126988000Y-77579380D01*
X126892761Y-77627000D01*
X126845142Y-77674619D01*
X126749904Y-77817476D01*
X126702285Y-78007952D01*
X126702285Y-78388904D01*
X126749904Y-78484142D01*
X126797523Y-78531761D01*
X126892761Y-78579380D01*
X127083238Y-78579380D01*
X127178476Y-78531761D01*
X127226095Y-78484142D01*
X127273714Y-78388904D01*
X127273714Y-78150809D01*
X127226095Y-78055571D01*
X127178476Y-78007952D01*
X127083238Y-77960333D01*
X126892761Y-77960333D01*
X126797523Y-78007952D01*
X126749904Y-78055571D01*
X126702285Y-78150809D01*
X141581142Y-109862857D02*
X141628761Y-109910476D01*
X141676380Y-110053333D01*
X141676380Y-110148571D01*
X141628761Y-110291428D01*
X141533523Y-110386666D01*
X141438285Y-110434285D01*
X141247809Y-110481904D01*
X141104952Y-110481904D01*
X140914476Y-110434285D01*
X140819238Y-110386666D01*
X140724000Y-110291428D01*
X140676380Y-110148571D01*
X140676380Y-110053333D01*
X140724000Y-109910476D01*
X140771619Y-109862857D01*
X141676380Y-108910476D02*
X141676380Y-109481904D01*
X141676380Y-109196190D02*
X140676380Y-109196190D01*
X140819238Y-109291428D01*
X140914476Y-109386666D01*
X140962095Y-109481904D01*
X140676380Y-108053333D02*
X140676380Y-108243809D01*
X140724000Y-108339047D01*
X140771619Y-108386666D01*
X140914476Y-108481904D01*
X141104952Y-108529523D01*
X141485904Y-108529523D01*
X141581142Y-108481904D01*
X141628761Y-108434285D01*
X141676380Y-108339047D01*
X141676380Y-108148571D01*
X141628761Y-108053333D01*
X141581142Y-108005714D01*
X141485904Y-107958095D01*
X141247809Y-107958095D01*
X141152571Y-108005714D01*
X141104952Y-108053333D01*
X141057333Y-108148571D01*
X141057333Y-108339047D01*
X141104952Y-108434285D01*
X141152571Y-108481904D01*
X141247809Y-108529523D01*
X179812380Y-124321904D02*
X180621904Y-124321904D01*
X180717142Y-124274285D01*
X180764761Y-124226666D01*
X180812380Y-124131428D01*
X180812380Y-123940952D01*
X180764761Y-123845714D01*
X180717142Y-123798095D01*
X180621904Y-123750476D01*
X179812380Y-123750476D01*
X180240952Y-123131428D02*
X180193333Y-123226666D01*
X180145714Y-123274285D01*
X180050476Y-123321904D01*
X180002857Y-123321904D01*
X179907619Y-123274285D01*
X179860000Y-123226666D01*
X179812380Y-123131428D01*
X179812380Y-122940952D01*
X179860000Y-122845714D01*
X179907619Y-122798095D01*
X180002857Y-122750476D01*
X180050476Y-122750476D01*
X180145714Y-122798095D01*
X180193333Y-122845714D01*
X180240952Y-122940952D01*
X180240952Y-123131428D01*
X180288571Y-123226666D01*
X180336190Y-123274285D01*
X180431428Y-123321904D01*
X180621904Y-123321904D01*
X180717142Y-123274285D01*
X180764761Y-123226666D01*
X180812380Y-123131428D01*
X180812380Y-122940952D01*
X180764761Y-122845714D01*
X180717142Y-122798095D01*
X180621904Y-122750476D01*
X180431428Y-122750476D01*
X180336190Y-122798095D01*
X180288571Y-122845714D01*
X180240952Y-122940952D01*
X182542380Y-130142857D02*
X182066190Y-130476190D01*
X182542380Y-130714285D02*
X181542380Y-130714285D01*
X181542380Y-130333333D01*
X181590000Y-130238095D01*
X181637619Y-130190476D01*
X181732857Y-130142857D01*
X181875714Y-130142857D01*
X181970952Y-130190476D01*
X182018571Y-130238095D01*
X182066190Y-130333333D01*
X182066190Y-130714285D01*
X181542380Y-129809523D02*
X181542380Y-129190476D01*
X181923333Y-129523809D01*
X181923333Y-129380952D01*
X181970952Y-129285714D01*
X182018571Y-129238095D01*
X182113809Y-129190476D01*
X182351904Y-129190476D01*
X182447142Y-129238095D01*
X182494761Y-129285714D01*
X182542380Y-129380952D01*
X182542380Y-129666666D01*
X182494761Y-129761904D01*
X182447142Y-129809523D01*
X181542380Y-128857142D02*
X181542380Y-128238095D01*
X181923333Y-128571428D01*
X181923333Y-128428571D01*
X181970952Y-128333333D01*
X182018571Y-128285714D01*
X182113809Y-128238095D01*
X182351904Y-128238095D01*
X182447142Y-128285714D01*
X182494761Y-128333333D01*
X182542380Y-128428571D01*
X182542380Y-128714285D01*
X182494761Y-128809523D01*
X182447142Y-128857142D01*
X127113380Y-102586904D02*
X127922904Y-102586904D01*
X128018142Y-102539285D01*
X128065761Y-102491666D01*
X128113380Y-102396428D01*
X128113380Y-102205952D01*
X128065761Y-102110714D01*
X128018142Y-102063095D01*
X127922904Y-102015476D01*
X127113380Y-102015476D01*
X127113380Y-101634523D02*
X127113380Y-101015476D01*
X127494333Y-101348809D01*
X127494333Y-101205952D01*
X127541952Y-101110714D01*
X127589571Y-101063095D01*
X127684809Y-101015476D01*
X127922904Y-101015476D01*
X128018142Y-101063095D01*
X128065761Y-101110714D01*
X128113380Y-101205952D01*
X128113380Y-101491666D01*
X128065761Y-101586904D01*
X128018142Y-101634523D01*
X155190380Y-74727476D02*
X154190380Y-74727476D01*
X154190380Y-74346523D01*
X154238000Y-74251285D01*
X154285619Y-74203666D01*
X154380857Y-74156047D01*
X154523714Y-74156047D01*
X154618952Y-74203666D01*
X154666571Y-74251285D01*
X154714190Y-74346523D01*
X154714190Y-74727476D01*
X154666571Y-73727476D02*
X154666571Y-73394142D01*
X155190380Y-73251285D02*
X155190380Y-73727476D01*
X154190380Y-73727476D01*
X154190380Y-73251285D01*
X155190380Y-72298904D02*
X155190380Y-72870333D01*
X155190380Y-72584619D02*
X154190380Y-72584619D01*
X154333238Y-72679857D01*
X154428476Y-72775095D01*
X154476095Y-72870333D01*
X145257142Y-109120380D02*
X144923809Y-108644190D01*
X144685714Y-109120380D02*
X144685714Y-108120380D01*
X145066666Y-108120380D01*
X145161904Y-108168000D01*
X145209523Y-108215619D01*
X145257142Y-108310857D01*
X145257142Y-108453714D01*
X145209523Y-108548952D01*
X145161904Y-108596571D01*
X145066666Y-108644190D01*
X144685714Y-108644190D01*
X145638095Y-108215619D02*
X145685714Y-108168000D01*
X145780952Y-108120380D01*
X146019047Y-108120380D01*
X146114285Y-108168000D01*
X146161904Y-108215619D01*
X146209523Y-108310857D01*
X146209523Y-108406095D01*
X146161904Y-108548952D01*
X145590476Y-109120380D01*
X146209523Y-109120380D01*
X146542857Y-108120380D02*
X147161904Y-108120380D01*
X146828571Y-108501333D01*
X146971428Y-108501333D01*
X147066666Y-108548952D01*
X147114285Y-108596571D01*
X147161904Y-108691809D01*
X147161904Y-108929904D01*
X147114285Y-109025142D01*
X147066666Y-109072761D01*
X146971428Y-109120380D01*
X146685714Y-109120380D01*
X146590476Y-109072761D01*
X146542857Y-109025142D01*
X145357142Y-107720380D02*
X145023809Y-107244190D01*
X144785714Y-107720380D02*
X144785714Y-106720380D01*
X145166666Y-106720380D01*
X145261904Y-106768000D01*
X145309523Y-106815619D01*
X145357142Y-106910857D01*
X145357142Y-107053714D01*
X145309523Y-107148952D01*
X145261904Y-107196571D01*
X145166666Y-107244190D01*
X144785714Y-107244190D01*
X145738095Y-106815619D02*
X145785714Y-106768000D01*
X145880952Y-106720380D01*
X146119047Y-106720380D01*
X146214285Y-106768000D01*
X146261904Y-106815619D01*
X146309523Y-106910857D01*
X146309523Y-107006095D01*
X146261904Y-107148952D01*
X145690476Y-107720380D01*
X146309523Y-107720380D01*
X146690476Y-106815619D02*
X146738095Y-106768000D01*
X146833333Y-106720380D01*
X147071428Y-106720380D01*
X147166666Y-106768000D01*
X147214285Y-106815619D01*
X147261904Y-106910857D01*
X147261904Y-107006095D01*
X147214285Y-107148952D01*
X146642857Y-107720380D01*
X147261904Y-107720380D01*
X143462380Y-94085857D02*
X142986190Y-94419190D01*
X143462380Y-94657285D02*
X142462380Y-94657285D01*
X142462380Y-94276333D01*
X142510000Y-94181095D01*
X142557619Y-94133476D01*
X142652857Y-94085857D01*
X142795714Y-94085857D01*
X142890952Y-94133476D01*
X142938571Y-94181095D01*
X142986190Y-94276333D01*
X142986190Y-94657285D01*
X142557619Y-93704904D02*
X142510000Y-93657285D01*
X142462380Y-93562047D01*
X142462380Y-93323952D01*
X142510000Y-93228714D01*
X142557619Y-93181095D01*
X142652857Y-93133476D01*
X142748095Y-93133476D01*
X142890952Y-93181095D01*
X143462380Y-93752523D01*
X143462380Y-93133476D01*
X143462380Y-92181095D02*
X143462380Y-92752523D01*
X143462380Y-92466809D02*
X142462380Y-92466809D01*
X142605238Y-92562047D01*
X142700476Y-92657285D01*
X142748095Y-92752523D01*
X142262380Y-94060857D02*
X141786190Y-94394190D01*
X142262380Y-94632285D02*
X141262380Y-94632285D01*
X141262380Y-94251333D01*
X141310000Y-94156095D01*
X141357619Y-94108476D01*
X141452857Y-94060857D01*
X141595714Y-94060857D01*
X141690952Y-94108476D01*
X141738571Y-94156095D01*
X141786190Y-94251333D01*
X141786190Y-94632285D01*
X141357619Y-93679904D02*
X141310000Y-93632285D01*
X141262380Y-93537047D01*
X141262380Y-93298952D01*
X141310000Y-93203714D01*
X141357619Y-93156095D01*
X141452857Y-93108476D01*
X141548095Y-93108476D01*
X141690952Y-93156095D01*
X142262380Y-93727523D01*
X142262380Y-93108476D01*
X141262380Y-92489428D02*
X141262380Y-92394190D01*
X141310000Y-92298952D01*
X141357619Y-92251333D01*
X141452857Y-92203714D01*
X141643333Y-92156095D01*
X141881428Y-92156095D01*
X142071904Y-92203714D01*
X142167142Y-92251333D01*
X142214761Y-92298952D01*
X142262380Y-92394190D01*
X142262380Y-92489428D01*
X142214761Y-92584666D01*
X142167142Y-92632285D01*
X142071904Y-92679904D01*
X141881428Y-92727523D01*
X141643333Y-92727523D01*
X141452857Y-92679904D01*
X141357619Y-92632285D01*
X141310000Y-92584666D01*
X141262380Y-92489428D01*
X146820142Y-76564380D02*
X146486809Y-76088190D01*
X146248714Y-76564380D02*
X146248714Y-75564380D01*
X146629666Y-75564380D01*
X146724904Y-75612000D01*
X146772523Y-75659619D01*
X146820142Y-75754857D01*
X146820142Y-75897714D01*
X146772523Y-75992952D01*
X146724904Y-76040571D01*
X146629666Y-76088190D01*
X146248714Y-76088190D01*
X147772523Y-76564380D02*
X147201095Y-76564380D01*
X147486809Y-76564380D02*
X147486809Y-75564380D01*
X147391571Y-75707238D01*
X147296333Y-75802476D01*
X147201095Y-75850095D01*
X148724904Y-76564380D02*
X148153476Y-76564380D01*
X148439190Y-76564380D02*
X148439190Y-75564380D01*
X148343952Y-75707238D01*
X148248714Y-75802476D01*
X148153476Y-75850095D01*
X118110095Y-114768380D02*
X118110095Y-115577904D01*
X118157714Y-115673142D01*
X118205333Y-115720761D01*
X118300571Y-115768380D01*
X118491047Y-115768380D01*
X118586285Y-115720761D01*
X118633904Y-115673142D01*
X118681523Y-115577904D01*
X118681523Y-114768380D01*
X119681523Y-115768380D02*
X119110095Y-115768380D01*
X119395809Y-115768380D02*
X119395809Y-114768380D01*
X119300571Y-114911238D01*
X119205333Y-115006476D01*
X119110095Y-115054095D01*
X174491904Y-89888380D02*
X174491904Y-88888380D01*
X174730000Y-88888380D01*
X174872857Y-88936000D01*
X174968095Y-89031238D01*
X175015714Y-89126476D01*
X175063333Y-89316952D01*
X175063333Y-89459809D01*
X175015714Y-89650285D01*
X174968095Y-89745523D01*
X174872857Y-89840761D01*
X174730000Y-89888380D01*
X174491904Y-89888380D01*
X176015714Y-89888380D02*
X175444285Y-89888380D01*
X175730000Y-89888380D02*
X175730000Y-88888380D01*
X175634761Y-89031238D01*
X175539523Y-89126476D01*
X175444285Y-89174095D01*
X185031142Y-135952380D02*
X184697809Y-135476190D01*
X184459714Y-135952380D02*
X184459714Y-134952380D01*
X184840666Y-134952380D01*
X184935904Y-135000000D01*
X184983523Y-135047619D01*
X185031142Y-135142857D01*
X185031142Y-135285714D01*
X184983523Y-135380952D01*
X184935904Y-135428571D01*
X184840666Y-135476190D01*
X184459714Y-135476190D01*
X185888285Y-135285714D02*
X185888285Y-135952380D01*
X185650190Y-134904761D02*
X185412095Y-135619047D01*
X186031142Y-135619047D01*
X186935904Y-135952380D02*
X186364476Y-135952380D01*
X186650190Y-135952380D02*
X186650190Y-134952380D01*
X186554952Y-135095238D01*
X186459714Y-135190476D01*
X186364476Y-135238095D01*
X184857142Y-137452380D02*
X184523809Y-136976190D01*
X184285714Y-137452380D02*
X184285714Y-136452380D01*
X184666666Y-136452380D01*
X184761904Y-136500000D01*
X184809523Y-136547619D01*
X184857142Y-136642857D01*
X184857142Y-136785714D01*
X184809523Y-136880952D01*
X184761904Y-136928571D01*
X184666666Y-136976190D01*
X184285714Y-136976190D01*
X185190476Y-136452380D02*
X185809523Y-136452380D01*
X185476190Y-136833333D01*
X185619047Y-136833333D01*
X185714285Y-136880952D01*
X185761904Y-136928571D01*
X185809523Y-137023809D01*
X185809523Y-137261904D01*
X185761904Y-137357142D01*
X185714285Y-137404761D01*
X185619047Y-137452380D01*
X185333333Y-137452380D01*
X185238095Y-137404761D01*
X185190476Y-137357142D01*
X186285714Y-137452380D02*
X186476190Y-137452380D01*
X186571428Y-137404761D01*
X186619047Y-137357142D01*
X186714285Y-137214285D01*
X186761904Y-137023809D01*
X186761904Y-136642857D01*
X186714285Y-136547619D01*
X186666666Y-136500000D01*
X186571428Y-136452380D01*
X186380952Y-136452380D01*
X186285714Y-136500000D01*
X186238095Y-136547619D01*
X186190476Y-136642857D01*
X186190476Y-136880952D01*
X186238095Y-136976190D01*
X186285714Y-137023809D01*
X186380952Y-137071428D01*
X186571428Y-137071428D01*
X186666666Y-137023809D01*
X186714285Y-136976190D01*
X186761904Y-136880952D01*
X188158380Y-130690857D02*
X187682190Y-131024190D01*
X188158380Y-131262285D02*
X187158380Y-131262285D01*
X187158380Y-130881333D01*
X187206000Y-130786095D01*
X187253619Y-130738476D01*
X187348857Y-130690857D01*
X187491714Y-130690857D01*
X187586952Y-130738476D01*
X187634571Y-130786095D01*
X187682190Y-130881333D01*
X187682190Y-131262285D01*
X187158380Y-130357523D02*
X187158380Y-129738476D01*
X187539333Y-130071809D01*
X187539333Y-129928952D01*
X187586952Y-129833714D01*
X187634571Y-129786095D01*
X187729809Y-129738476D01*
X187967904Y-129738476D01*
X188063142Y-129786095D01*
X188110761Y-129833714D01*
X188158380Y-129928952D01*
X188158380Y-130214666D01*
X188110761Y-130309904D01*
X188063142Y-130357523D01*
X187586952Y-129167047D02*
X187539333Y-129262285D01*
X187491714Y-129309904D01*
X187396476Y-129357523D01*
X187348857Y-129357523D01*
X187253619Y-129309904D01*
X187206000Y-129262285D01*
X187158380Y-129167047D01*
X187158380Y-128976571D01*
X187206000Y-128881333D01*
X187253619Y-128833714D01*
X187348857Y-128786095D01*
X187396476Y-128786095D01*
X187491714Y-128833714D01*
X187539333Y-128881333D01*
X187586952Y-128976571D01*
X187586952Y-129167047D01*
X187634571Y-129262285D01*
X187682190Y-129309904D01*
X187777428Y-129357523D01*
X187967904Y-129357523D01*
X188063142Y-129309904D01*
X188110761Y-129262285D01*
X188158380Y-129167047D01*
X188158380Y-128976571D01*
X188110761Y-128881333D01*
X188063142Y-128833714D01*
X187967904Y-128786095D01*
X187777428Y-128786095D01*
X187682190Y-128833714D01*
X187634571Y-128881333D01*
X187586952Y-128976571D01*
X184722380Y-127906857D02*
X184246190Y-128240190D01*
X184722380Y-128478285D02*
X183722380Y-128478285D01*
X183722380Y-128097333D01*
X183770000Y-128002095D01*
X183817619Y-127954476D01*
X183912857Y-127906857D01*
X184055714Y-127906857D01*
X184150952Y-127954476D01*
X184198571Y-128002095D01*
X184246190Y-128097333D01*
X184246190Y-128478285D01*
X183722380Y-127573523D02*
X183722380Y-126954476D01*
X184103333Y-127287809D01*
X184103333Y-127144952D01*
X184150952Y-127049714D01*
X184198571Y-127002095D01*
X184293809Y-126954476D01*
X184531904Y-126954476D01*
X184627142Y-127002095D01*
X184674761Y-127049714D01*
X184722380Y-127144952D01*
X184722380Y-127430666D01*
X184674761Y-127525904D01*
X184627142Y-127573523D01*
X183722380Y-126097333D02*
X183722380Y-126287809D01*
X183770000Y-126383047D01*
X183817619Y-126430666D01*
X183960476Y-126525904D01*
X184150952Y-126573523D01*
X184531904Y-126573523D01*
X184627142Y-126525904D01*
X184674761Y-126478285D01*
X184722380Y-126383047D01*
X184722380Y-126192571D01*
X184674761Y-126097333D01*
X184627142Y-126049714D01*
X184531904Y-126002095D01*
X184293809Y-126002095D01*
X184198571Y-126049714D01*
X184150952Y-126097333D01*
X184103333Y-126192571D01*
X184103333Y-126383047D01*
X184150952Y-126478285D01*
X184198571Y-126525904D01*
X184293809Y-126573523D01*
X185952380Y-127882857D02*
X185476190Y-128216190D01*
X185952380Y-128454285D02*
X184952380Y-128454285D01*
X184952380Y-128073333D01*
X185000000Y-127978095D01*
X185047619Y-127930476D01*
X185142857Y-127882857D01*
X185285714Y-127882857D01*
X185380952Y-127930476D01*
X185428571Y-127978095D01*
X185476190Y-128073333D01*
X185476190Y-128454285D01*
X184952380Y-127549523D02*
X184952380Y-126930476D01*
X185333333Y-127263809D01*
X185333333Y-127120952D01*
X185380952Y-127025714D01*
X185428571Y-126978095D01*
X185523809Y-126930476D01*
X185761904Y-126930476D01*
X185857142Y-126978095D01*
X185904761Y-127025714D01*
X185952380Y-127120952D01*
X185952380Y-127406666D01*
X185904761Y-127501904D01*
X185857142Y-127549523D01*
X184952380Y-126025714D02*
X184952380Y-126501904D01*
X185428571Y-126549523D01*
X185380952Y-126501904D01*
X185333333Y-126406666D01*
X185333333Y-126168571D01*
X185380952Y-126073333D01*
X185428571Y-126025714D01*
X185523809Y-125978095D01*
X185761904Y-125978095D01*
X185857142Y-126025714D01*
X185904761Y-126073333D01*
X185952380Y-126168571D01*
X185952380Y-126406666D01*
X185904761Y-126501904D01*
X185857142Y-126549523D01*
X119421714Y-103511904D02*
X119155047Y-103130952D01*
X118964571Y-103511904D02*
X118964571Y-102711904D01*
X119269333Y-102711904D01*
X119345523Y-102750000D01*
X119383619Y-102788095D01*
X119421714Y-102864285D01*
X119421714Y-102978571D01*
X119383619Y-103054761D01*
X119345523Y-103092857D01*
X119269333Y-103130952D01*
X118964571Y-103130952D01*
X119726476Y-102788095D02*
X119764571Y-102750000D01*
X119840761Y-102711904D01*
X120031238Y-102711904D01*
X120107428Y-102750000D01*
X120145523Y-102788095D01*
X120183619Y-102864285D01*
X120183619Y-102940476D01*
X120145523Y-103054761D01*
X119688380Y-103511904D01*
X120183619Y-103511904D01*
X120564571Y-103511904D02*
X120716952Y-103511904D01*
X120793142Y-103473809D01*
X120831238Y-103435714D01*
X120907428Y-103321428D01*
X120945523Y-103169047D01*
X120945523Y-102864285D01*
X120907428Y-102788095D01*
X120869333Y-102750000D01*
X120793142Y-102711904D01*
X120640761Y-102711904D01*
X120564571Y-102750000D01*
X120526476Y-102788095D01*
X120488380Y-102864285D01*
X120488380Y-103054761D01*
X120526476Y-103130952D01*
X120564571Y-103169047D01*
X120640761Y-103207142D01*
X120793142Y-103207142D01*
X120869333Y-103169047D01*
X120907428Y-103130952D01*
X120945523Y-103054761D01*
X131561714Y-104241904D02*
X131295047Y-103860952D01*
X131104571Y-104241904D02*
X131104571Y-103441904D01*
X131409333Y-103441904D01*
X131485523Y-103480000D01*
X131523619Y-103518095D01*
X131561714Y-103594285D01*
X131561714Y-103708571D01*
X131523619Y-103784761D01*
X131485523Y-103822857D01*
X131409333Y-103860952D01*
X131104571Y-103860952D01*
X131866476Y-103518095D02*
X131904571Y-103480000D01*
X131980761Y-103441904D01*
X132171238Y-103441904D01*
X132247428Y-103480000D01*
X132285523Y-103518095D01*
X132323619Y-103594285D01*
X132323619Y-103670476D01*
X132285523Y-103784761D01*
X131828380Y-104241904D01*
X132323619Y-104241904D01*
X132590285Y-103441904D02*
X133123619Y-103441904D01*
X132780761Y-104241904D01*
X119546714Y-102461904D02*
X119280047Y-102080952D01*
X119089571Y-102461904D02*
X119089571Y-101661904D01*
X119394333Y-101661904D01*
X119470523Y-101700000D01*
X119508619Y-101738095D01*
X119546714Y-101814285D01*
X119546714Y-101928571D01*
X119508619Y-102004761D01*
X119470523Y-102042857D01*
X119394333Y-102080952D01*
X119089571Y-102080952D01*
X119851476Y-101738095D02*
X119889571Y-101700000D01*
X119965761Y-101661904D01*
X120156238Y-101661904D01*
X120232428Y-101700000D01*
X120270523Y-101738095D01*
X120308619Y-101814285D01*
X120308619Y-101890476D01*
X120270523Y-102004761D01*
X119813380Y-102461904D01*
X120308619Y-102461904D01*
X120994333Y-101661904D02*
X120841952Y-101661904D01*
X120765761Y-101700000D01*
X120727666Y-101738095D01*
X120651476Y-101852380D01*
X120613380Y-102004761D01*
X120613380Y-102309523D01*
X120651476Y-102385714D01*
X120689571Y-102423809D01*
X120765761Y-102461904D01*
X120918142Y-102461904D01*
X120994333Y-102423809D01*
X121032428Y-102385714D01*
X121070523Y-102309523D01*
X121070523Y-102119047D01*
X121032428Y-102042857D01*
X120994333Y-102004761D01*
X120918142Y-101966666D01*
X120765761Y-101966666D01*
X120689571Y-102004761D01*
X120651476Y-102042857D01*
X120613380Y-102119047D01*
X131486714Y-102216904D02*
X131220047Y-101835952D01*
X131029571Y-102216904D02*
X131029571Y-101416904D01*
X131334333Y-101416904D01*
X131410523Y-101455000D01*
X131448619Y-101493095D01*
X131486714Y-101569285D01*
X131486714Y-101683571D01*
X131448619Y-101759761D01*
X131410523Y-101797857D01*
X131334333Y-101835952D01*
X131029571Y-101835952D01*
X131791476Y-101493095D02*
X131829571Y-101455000D01*
X131905761Y-101416904D01*
X132096238Y-101416904D01*
X132172428Y-101455000D01*
X132210523Y-101493095D01*
X132248619Y-101569285D01*
X132248619Y-101645476D01*
X132210523Y-101759761D01*
X131753380Y-102216904D01*
X132248619Y-102216904D01*
X132972428Y-101416904D02*
X132591476Y-101416904D01*
X132553380Y-101797857D01*
X132591476Y-101759761D01*
X132667666Y-101721666D01*
X132858142Y-101721666D01*
X132934333Y-101759761D01*
X132972428Y-101797857D01*
X133010523Y-101874047D01*
X133010523Y-102064523D01*
X132972428Y-102140714D01*
X132934333Y-102178809D01*
X132858142Y-102216904D01*
X132667666Y-102216904D01*
X132591476Y-102178809D01*
X132553380Y-102140714D01*
X131536714Y-103241904D02*
X131270047Y-102860952D01*
X131079571Y-103241904D02*
X131079571Y-102441904D01*
X131384333Y-102441904D01*
X131460523Y-102480000D01*
X131498619Y-102518095D01*
X131536714Y-102594285D01*
X131536714Y-102708571D01*
X131498619Y-102784761D01*
X131460523Y-102822857D01*
X131384333Y-102860952D01*
X131079571Y-102860952D01*
X131841476Y-102518095D02*
X131879571Y-102480000D01*
X131955761Y-102441904D01*
X132146238Y-102441904D01*
X132222428Y-102480000D01*
X132260523Y-102518095D01*
X132298619Y-102594285D01*
X132298619Y-102670476D01*
X132260523Y-102784761D01*
X131803380Y-103241904D01*
X132298619Y-103241904D01*
X132984333Y-102708571D02*
X132984333Y-103241904D01*
X132793857Y-102403809D02*
X132603380Y-102975238D01*
X133098619Y-102975238D01*
X119168142Y-99427380D02*
X118834809Y-98951190D01*
X118596714Y-99427380D02*
X118596714Y-98427380D01*
X118977666Y-98427380D01*
X119072904Y-98475000D01*
X119120523Y-98522619D01*
X119168142Y-98617857D01*
X119168142Y-98760714D01*
X119120523Y-98855952D01*
X119072904Y-98903571D01*
X118977666Y-98951190D01*
X118596714Y-98951190D01*
X120120523Y-99427380D02*
X119549095Y-99427380D01*
X119834809Y-99427380D02*
X119834809Y-98427380D01*
X119739571Y-98570238D01*
X119644333Y-98665476D01*
X119549095Y-98713095D01*
X120596714Y-99427380D02*
X120787190Y-99427380D01*
X120882428Y-99379761D01*
X120930047Y-99332142D01*
X121025285Y-99189285D01*
X121072904Y-98998809D01*
X121072904Y-98617857D01*
X121025285Y-98522619D01*
X120977666Y-98475000D01*
X120882428Y-98427380D01*
X120691952Y-98427380D01*
X120596714Y-98475000D01*
X120549095Y-98522619D01*
X120501476Y-98617857D01*
X120501476Y-98855952D01*
X120549095Y-98951190D01*
X120596714Y-98998809D01*
X120691952Y-99046428D01*
X120882428Y-99046428D01*
X120977666Y-98998809D01*
X121025285Y-98951190D01*
X121072904Y-98855952D01*
X119018142Y-100752380D02*
X118684809Y-100276190D01*
X118446714Y-100752380D02*
X118446714Y-99752380D01*
X118827666Y-99752380D01*
X118922904Y-99800000D01*
X118970523Y-99847619D01*
X119018142Y-99942857D01*
X119018142Y-100085714D01*
X118970523Y-100180952D01*
X118922904Y-100228571D01*
X118827666Y-100276190D01*
X118446714Y-100276190D01*
X119970523Y-100752380D02*
X119399095Y-100752380D01*
X119684809Y-100752380D02*
X119684809Y-99752380D01*
X119589571Y-99895238D01*
X119494333Y-99990476D01*
X119399095Y-100038095D01*
X120541952Y-100180952D02*
X120446714Y-100133333D01*
X120399095Y-100085714D01*
X120351476Y-99990476D01*
X120351476Y-99942857D01*
X120399095Y-99847619D01*
X120446714Y-99800000D01*
X120541952Y-99752380D01*
X120732428Y-99752380D01*
X120827666Y-99800000D01*
X120875285Y-99847619D01*
X120922904Y-99942857D01*
X120922904Y-99990476D01*
X120875285Y-100085714D01*
X120827666Y-100133333D01*
X120732428Y-100180952D01*
X120541952Y-100180952D01*
X120446714Y-100228571D01*
X120399095Y-100276190D01*
X120351476Y-100371428D01*
X120351476Y-100561904D01*
X120399095Y-100657142D01*
X120446714Y-100704761D01*
X120541952Y-100752380D01*
X120732428Y-100752380D01*
X120827666Y-100704761D01*
X120875285Y-100657142D01*
X120922904Y-100561904D01*
X120922904Y-100371428D01*
X120875285Y-100276190D01*
X120827666Y-100228571D01*
X120732428Y-100180952D01*
X139940380Y-141282666D02*
X139464190Y-141616000D01*
X139940380Y-141854095D02*
X138940380Y-141854095D01*
X138940380Y-141473142D01*
X138988000Y-141377904D01*
X139035619Y-141330285D01*
X139130857Y-141282666D01*
X139273714Y-141282666D01*
X139368952Y-141330285D01*
X139416571Y-141377904D01*
X139464190Y-141473142D01*
X139464190Y-141854095D01*
X139940380Y-140330285D02*
X139940380Y-140901714D01*
X139940380Y-140616000D02*
X138940380Y-140616000D01*
X139083238Y-140711238D01*
X139178476Y-140806476D01*
X139226095Y-140901714D01*
X114724380Y-134953333D02*
X115438666Y-134953333D01*
X115581523Y-135000952D01*
X115676761Y-135096190D01*
X115724380Y-135239047D01*
X115724380Y-135334285D01*
X114819619Y-134524761D02*
X114772000Y-134477142D01*
X114724380Y-134381904D01*
X114724380Y-134143809D01*
X114772000Y-134048571D01*
X114819619Y-134000952D01*
X114914857Y-133953333D01*
X115010095Y-133953333D01*
X115152952Y-134000952D01*
X115724380Y-134572380D01*
X115724380Y-133953333D01*
X111426666Y-130052380D02*
X111426666Y-130766666D01*
X111379047Y-130909523D01*
X111283809Y-131004761D01*
X111140952Y-131052380D01*
X111045714Y-131052380D01*
X112426666Y-131052380D02*
X111855238Y-131052380D01*
X112140952Y-131052380D02*
X112140952Y-130052380D01*
X112045714Y-130195238D01*
X111950476Y-130290476D01*
X111855238Y-130338095D01*
X120085142Y-125896666D02*
X120132761Y-125944285D01*
X120180380Y-126087142D01*
X120180380Y-126182380D01*
X120132761Y-126325238D01*
X120037523Y-126420476D01*
X119942285Y-126468095D01*
X119751809Y-126515714D01*
X119608952Y-126515714D01*
X119418476Y-126468095D01*
X119323238Y-126420476D01*
X119228000Y-126325238D01*
X119180380Y-126182380D01*
X119180380Y-126087142D01*
X119228000Y-125944285D01*
X119275619Y-125896666D01*
X120180380Y-124944285D02*
X120180380Y-125515714D01*
X120180380Y-125230000D02*
X119180380Y-125230000D01*
X119323238Y-125325238D01*
X119418476Y-125420476D01*
X119466095Y-125515714D01*
X127820142Y-85318666D02*
X127867761Y-85366285D01*
X127915380Y-85509142D01*
X127915380Y-85604380D01*
X127867761Y-85747238D01*
X127772523Y-85842476D01*
X127677285Y-85890095D01*
X127486809Y-85937714D01*
X127343952Y-85937714D01*
X127153476Y-85890095D01*
X127058238Y-85842476D01*
X126963000Y-85747238D01*
X126915380Y-85604380D01*
X126915380Y-85509142D01*
X126963000Y-85366285D01*
X127010619Y-85318666D01*
X127010619Y-84937714D02*
X126963000Y-84890095D01*
X126915380Y-84794857D01*
X126915380Y-84556761D01*
X126963000Y-84461523D01*
X127010619Y-84413904D01*
X127105857Y-84366285D01*
X127201095Y-84366285D01*
X127343952Y-84413904D01*
X127915380Y-84985333D01*
X127915380Y-84366285D01*
X134571333Y-77119142D02*
X134523714Y-77166761D01*
X134380857Y-77214380D01*
X134285619Y-77214380D01*
X134142761Y-77166761D01*
X134047523Y-77071523D01*
X133999904Y-76976285D01*
X133952285Y-76785809D01*
X133952285Y-76642952D01*
X133999904Y-76452476D01*
X134047523Y-76357238D01*
X134142761Y-76262000D01*
X134285619Y-76214380D01*
X134380857Y-76214380D01*
X134523714Y-76262000D01*
X134571333Y-76309619D01*
X134904666Y-76214380D02*
X135523714Y-76214380D01*
X135190380Y-76595333D01*
X135333238Y-76595333D01*
X135428476Y-76642952D01*
X135476095Y-76690571D01*
X135523714Y-76785809D01*
X135523714Y-77023904D01*
X135476095Y-77119142D01*
X135428476Y-77166761D01*
X135333238Y-77214380D01*
X135047523Y-77214380D01*
X134952285Y-77166761D01*
X134904666Y-77119142D01*
X143871333Y-70219142D02*
X143823714Y-70266761D01*
X143680857Y-70314380D01*
X143585619Y-70314380D01*
X143442761Y-70266761D01*
X143347523Y-70171523D01*
X143299904Y-70076285D01*
X143252285Y-69885809D01*
X143252285Y-69742952D01*
X143299904Y-69552476D01*
X143347523Y-69457238D01*
X143442761Y-69362000D01*
X143585619Y-69314380D01*
X143680857Y-69314380D01*
X143823714Y-69362000D01*
X143871333Y-69409619D01*
X144728476Y-69647714D02*
X144728476Y-70314380D01*
X144490380Y-69266761D02*
X144252285Y-69981047D01*
X144871333Y-69981047D01*
X113233333Y-64927142D02*
X113185714Y-64974761D01*
X113042857Y-65022380D01*
X112947619Y-65022380D01*
X112804761Y-64974761D01*
X112709523Y-64879523D01*
X112661904Y-64784285D01*
X112614285Y-64593809D01*
X112614285Y-64450952D01*
X112661904Y-64260476D01*
X112709523Y-64165238D01*
X112804761Y-64070000D01*
X112947619Y-64022380D01*
X113042857Y-64022380D01*
X113185714Y-64070000D01*
X113233333Y-64117619D01*
X114138095Y-64022380D02*
X113661904Y-64022380D01*
X113614285Y-64498571D01*
X113661904Y-64450952D01*
X113757142Y-64403333D01*
X113995238Y-64403333D01*
X114090476Y-64450952D01*
X114138095Y-64498571D01*
X114185714Y-64593809D01*
X114185714Y-64831904D01*
X114138095Y-64927142D01*
X114090476Y-64974761D01*
X113995238Y-65022380D01*
X113757142Y-65022380D01*
X113661904Y-64974761D01*
X113614285Y-64927142D01*
X118745142Y-69848666D02*
X118792761Y-69896285D01*
X118840380Y-70039142D01*
X118840380Y-70134380D01*
X118792761Y-70277238D01*
X118697523Y-70372476D01*
X118602285Y-70420095D01*
X118411809Y-70467714D01*
X118268952Y-70467714D01*
X118078476Y-70420095D01*
X117983238Y-70372476D01*
X117888000Y-70277238D01*
X117840380Y-70134380D01*
X117840380Y-70039142D01*
X117888000Y-69896285D01*
X117935619Y-69848666D01*
X118268952Y-69277238D02*
X118221333Y-69372476D01*
X118173714Y-69420095D01*
X118078476Y-69467714D01*
X118030857Y-69467714D01*
X117935619Y-69420095D01*
X117888000Y-69372476D01*
X117840380Y-69277238D01*
X117840380Y-69086761D01*
X117888000Y-68991523D01*
X117935619Y-68943904D01*
X118030857Y-68896285D01*
X118078476Y-68896285D01*
X118173714Y-68943904D01*
X118221333Y-68991523D01*
X118268952Y-69086761D01*
X118268952Y-69277238D01*
X118316571Y-69372476D01*
X118364190Y-69420095D01*
X118459428Y-69467714D01*
X118649904Y-69467714D01*
X118745142Y-69420095D01*
X118792761Y-69372476D01*
X118840380Y-69277238D01*
X118840380Y-69086761D01*
X118792761Y-68991523D01*
X118745142Y-68943904D01*
X118649904Y-68896285D01*
X118459428Y-68896285D01*
X118364190Y-68943904D01*
X118316571Y-68991523D01*
X118268952Y-69086761D01*
X124385142Y-66148666D02*
X124432761Y-66196285D01*
X124480380Y-66339142D01*
X124480380Y-66434380D01*
X124432761Y-66577238D01*
X124337523Y-66672476D01*
X124242285Y-66720095D01*
X124051809Y-66767714D01*
X123908952Y-66767714D01*
X123718476Y-66720095D01*
X123623238Y-66672476D01*
X123528000Y-66577238D01*
X123480380Y-66434380D01*
X123480380Y-66339142D01*
X123528000Y-66196285D01*
X123575619Y-66148666D01*
X124480380Y-65672476D02*
X124480380Y-65482000D01*
X124432761Y-65386761D01*
X124385142Y-65339142D01*
X124242285Y-65243904D01*
X124051809Y-65196285D01*
X123670857Y-65196285D01*
X123575619Y-65243904D01*
X123528000Y-65291523D01*
X123480380Y-65386761D01*
X123480380Y-65577238D01*
X123528000Y-65672476D01*
X123575619Y-65720095D01*
X123670857Y-65767714D01*
X123908952Y-65767714D01*
X124004190Y-65720095D01*
X124051809Y-65672476D01*
X124099428Y-65577238D01*
X124099428Y-65386761D01*
X124051809Y-65291523D01*
X124004190Y-65243904D01*
X123908952Y-65196285D01*
X143820142Y-67719142D02*
X143772523Y-67766761D01*
X143629666Y-67814380D01*
X143534428Y-67814380D01*
X143391571Y-67766761D01*
X143296333Y-67671523D01*
X143248714Y-67576285D01*
X143201095Y-67385809D01*
X143201095Y-67242952D01*
X143248714Y-67052476D01*
X143296333Y-66957238D01*
X143391571Y-66862000D01*
X143534428Y-66814380D01*
X143629666Y-66814380D01*
X143772523Y-66862000D01*
X143820142Y-66909619D01*
X144772523Y-67814380D02*
X144201095Y-67814380D01*
X144486809Y-67814380D02*
X144486809Y-66814380D01*
X144391571Y-66957238D01*
X144296333Y-67052476D01*
X144201095Y-67100095D01*
X145391571Y-66814380D02*
X145486809Y-66814380D01*
X145582047Y-66862000D01*
X145629666Y-66909619D01*
X145677285Y-67004857D01*
X145724904Y-67195333D01*
X145724904Y-67433428D01*
X145677285Y-67623904D01*
X145629666Y-67719142D01*
X145582047Y-67766761D01*
X145486809Y-67814380D01*
X145391571Y-67814380D01*
X145296333Y-67766761D01*
X145248714Y-67719142D01*
X145201095Y-67623904D01*
X145153476Y-67433428D01*
X145153476Y-67195333D01*
X145201095Y-67004857D01*
X145248714Y-66909619D01*
X145296333Y-66862000D01*
X145391571Y-66814380D01*
X124305142Y-77014857D02*
X124352761Y-77062476D01*
X124400380Y-77205333D01*
X124400380Y-77300571D01*
X124352761Y-77443428D01*
X124257523Y-77538666D01*
X124162285Y-77586285D01*
X123971809Y-77633904D01*
X123828952Y-77633904D01*
X123638476Y-77586285D01*
X123543238Y-77538666D01*
X123448000Y-77443428D01*
X123400380Y-77300571D01*
X123400380Y-77205333D01*
X123448000Y-77062476D01*
X123495619Y-77014857D01*
X124400380Y-76062476D02*
X124400380Y-76633904D01*
X124400380Y-76348190D02*
X123400380Y-76348190D01*
X123543238Y-76443428D01*
X123638476Y-76538666D01*
X123686095Y-76633904D01*
X124400380Y-75110095D02*
X124400380Y-75681523D01*
X124400380Y-75395809D02*
X123400380Y-75395809D01*
X123543238Y-75491047D01*
X123638476Y-75586285D01*
X123686095Y-75681523D01*
X148090142Y-79064857D02*
X148137761Y-79112476D01*
X148185380Y-79255333D01*
X148185380Y-79350571D01*
X148137761Y-79493428D01*
X148042523Y-79588666D01*
X147947285Y-79636285D01*
X147756809Y-79683904D01*
X147613952Y-79683904D01*
X147423476Y-79636285D01*
X147328238Y-79588666D01*
X147233000Y-79493428D01*
X147185380Y-79350571D01*
X147185380Y-79255333D01*
X147233000Y-79112476D01*
X147280619Y-79064857D01*
X148185380Y-78112476D02*
X148185380Y-78683904D01*
X148185380Y-78398190D02*
X147185380Y-78398190D01*
X147328238Y-78493428D01*
X147423476Y-78588666D01*
X147471095Y-78683904D01*
X147280619Y-77731523D02*
X147233000Y-77683904D01*
X147185380Y-77588666D01*
X147185380Y-77350571D01*
X147233000Y-77255333D01*
X147280619Y-77207714D01*
X147375857Y-77160095D01*
X147471095Y-77160095D01*
X147613952Y-77207714D01*
X148185380Y-77779142D01*
X148185380Y-77160095D01*
X142910142Y-56644142D02*
X142862523Y-56691761D01*
X142719666Y-56739380D01*
X142624428Y-56739380D01*
X142481571Y-56691761D01*
X142386333Y-56596523D01*
X142338714Y-56501285D01*
X142291095Y-56310809D01*
X142291095Y-56167952D01*
X142338714Y-55977476D01*
X142386333Y-55882238D01*
X142481571Y-55787000D01*
X142624428Y-55739380D01*
X142719666Y-55739380D01*
X142862523Y-55787000D01*
X142910142Y-55834619D01*
X143862523Y-56739380D02*
X143291095Y-56739380D01*
X143576809Y-56739380D02*
X143576809Y-55739380D01*
X143481571Y-55882238D01*
X143386333Y-55977476D01*
X143291095Y-56025095D01*
X144195857Y-55739380D02*
X144814904Y-55739380D01*
X144481571Y-56120333D01*
X144624428Y-56120333D01*
X144719666Y-56167952D01*
X144767285Y-56215571D01*
X144814904Y-56310809D01*
X144814904Y-56548904D01*
X144767285Y-56644142D01*
X144719666Y-56691761D01*
X144624428Y-56739380D01*
X144338714Y-56739380D01*
X144243476Y-56691761D01*
X144195857Y-56644142D01*
X143065142Y-86069142D02*
X143017523Y-86116761D01*
X142874666Y-86164380D01*
X142779428Y-86164380D01*
X142636571Y-86116761D01*
X142541333Y-86021523D01*
X142493714Y-85926285D01*
X142446095Y-85735809D01*
X142446095Y-85592952D01*
X142493714Y-85402476D01*
X142541333Y-85307238D01*
X142636571Y-85212000D01*
X142779428Y-85164380D01*
X142874666Y-85164380D01*
X143017523Y-85212000D01*
X143065142Y-85259619D01*
X144017523Y-86164380D02*
X143446095Y-86164380D01*
X143731809Y-86164380D02*
X143731809Y-85164380D01*
X143636571Y-85307238D01*
X143541333Y-85402476D01*
X143446095Y-85450095D01*
X144922285Y-85164380D02*
X144446095Y-85164380D01*
X144398476Y-85640571D01*
X144446095Y-85592952D01*
X144541333Y-85545333D01*
X144779428Y-85545333D01*
X144874666Y-85592952D01*
X144922285Y-85640571D01*
X144969904Y-85735809D01*
X144969904Y-85973904D01*
X144922285Y-86069142D01*
X144874666Y-86116761D01*
X144779428Y-86164380D01*
X144541333Y-86164380D01*
X144446095Y-86116761D01*
X144398476Y-86069142D01*
X174871142Y-133707142D02*
X174823523Y-133754761D01*
X174680666Y-133802380D01*
X174585428Y-133802380D01*
X174442571Y-133754761D01*
X174347333Y-133659523D01*
X174299714Y-133564285D01*
X174252095Y-133373809D01*
X174252095Y-133230952D01*
X174299714Y-133040476D01*
X174347333Y-132945238D01*
X174442571Y-132850000D01*
X174585428Y-132802380D01*
X174680666Y-132802380D01*
X174823523Y-132850000D01*
X174871142Y-132897619D01*
X175823523Y-133802380D02*
X175252095Y-133802380D01*
X175537809Y-133802380D02*
X175537809Y-132802380D01*
X175442571Y-132945238D01*
X175347333Y-133040476D01*
X175252095Y-133088095D01*
X176394952Y-133230952D02*
X176299714Y-133183333D01*
X176252095Y-133135714D01*
X176204476Y-133040476D01*
X176204476Y-132992857D01*
X176252095Y-132897619D01*
X176299714Y-132850000D01*
X176394952Y-132802380D01*
X176585428Y-132802380D01*
X176680666Y-132850000D01*
X176728285Y-132897619D01*
X176775904Y-132992857D01*
X176775904Y-133040476D01*
X176728285Y-133135714D01*
X176680666Y-133183333D01*
X176585428Y-133230952D01*
X176394952Y-133230952D01*
X176299714Y-133278571D01*
X176252095Y-133326190D01*
X176204476Y-133421428D01*
X176204476Y-133611904D01*
X176252095Y-133707142D01*
X176299714Y-133754761D01*
X176394952Y-133802380D01*
X176585428Y-133802380D01*
X176680666Y-133754761D01*
X176728285Y-133707142D01*
X176775904Y-133611904D01*
X176775904Y-133421428D01*
X176728285Y-133326190D01*
X176680666Y-133278571D01*
X176585428Y-133230952D01*
X162987142Y-107892857D02*
X163034761Y-107940476D01*
X163082380Y-108083333D01*
X163082380Y-108178571D01*
X163034761Y-108321428D01*
X162939523Y-108416666D01*
X162844285Y-108464285D01*
X162653809Y-108511904D01*
X162510952Y-108511904D01*
X162320476Y-108464285D01*
X162225238Y-108416666D01*
X162130000Y-108321428D01*
X162082380Y-108178571D01*
X162082380Y-108083333D01*
X162130000Y-107940476D01*
X162177619Y-107892857D01*
X162177619Y-107511904D02*
X162130000Y-107464285D01*
X162082380Y-107369047D01*
X162082380Y-107130952D01*
X162130000Y-107035714D01*
X162177619Y-106988095D01*
X162272857Y-106940476D01*
X162368095Y-106940476D01*
X162510952Y-106988095D01*
X163082380Y-107559523D01*
X163082380Y-106940476D01*
X162082380Y-106321428D02*
X162082380Y-106226190D01*
X162130000Y-106130952D01*
X162177619Y-106083333D01*
X162272857Y-106035714D01*
X162463333Y-105988095D01*
X162701428Y-105988095D01*
X162891904Y-106035714D01*
X162987142Y-106083333D01*
X163034761Y-106130952D01*
X163082380Y-106226190D01*
X163082380Y-106321428D01*
X163034761Y-106416666D01*
X162987142Y-106464285D01*
X162891904Y-106511904D01*
X162701428Y-106559523D01*
X162463333Y-106559523D01*
X162272857Y-106511904D01*
X162177619Y-106464285D01*
X162130000Y-106416666D01*
X162082380Y-106321428D01*
X186297142Y-120834857D02*
X186344761Y-120882476D01*
X186392380Y-121025333D01*
X186392380Y-121120571D01*
X186344761Y-121263428D01*
X186249523Y-121358666D01*
X186154285Y-121406285D01*
X185963809Y-121453904D01*
X185820952Y-121453904D01*
X185630476Y-121406285D01*
X185535238Y-121358666D01*
X185440000Y-121263428D01*
X185392380Y-121120571D01*
X185392380Y-121025333D01*
X185440000Y-120882476D01*
X185487619Y-120834857D01*
X185487619Y-120453904D02*
X185440000Y-120406285D01*
X185392380Y-120311047D01*
X185392380Y-120072952D01*
X185440000Y-119977714D01*
X185487619Y-119930095D01*
X185582857Y-119882476D01*
X185678095Y-119882476D01*
X185820952Y-119930095D01*
X186392380Y-120501523D01*
X186392380Y-119882476D01*
X186392380Y-118930095D02*
X186392380Y-119501523D01*
X186392380Y-119215809D02*
X185392380Y-119215809D01*
X185535238Y-119311047D01*
X185630476Y-119406285D01*
X185678095Y-119501523D01*
X190095142Y-120276857D02*
X190142761Y-120324476D01*
X190190380Y-120467333D01*
X190190380Y-120562571D01*
X190142761Y-120705428D01*
X190047523Y-120800666D01*
X189952285Y-120848285D01*
X189761809Y-120895904D01*
X189618952Y-120895904D01*
X189428476Y-120848285D01*
X189333238Y-120800666D01*
X189238000Y-120705428D01*
X189190380Y-120562571D01*
X189190380Y-120467333D01*
X189238000Y-120324476D01*
X189285619Y-120276857D01*
X189285619Y-119895904D02*
X189238000Y-119848285D01*
X189190380Y-119753047D01*
X189190380Y-119514952D01*
X189238000Y-119419714D01*
X189285619Y-119372095D01*
X189380857Y-119324476D01*
X189476095Y-119324476D01*
X189618952Y-119372095D01*
X190190380Y-119943523D01*
X190190380Y-119324476D01*
X189285619Y-118943523D02*
X189238000Y-118895904D01*
X189190380Y-118800666D01*
X189190380Y-118562571D01*
X189238000Y-118467333D01*
X189285619Y-118419714D01*
X189380857Y-118372095D01*
X189476095Y-118372095D01*
X189618952Y-118419714D01*
X190190380Y-118991142D01*
X190190380Y-118372095D01*
X191739904Y-96204380D02*
X191739904Y-95204380D01*
X191978000Y-95204380D01*
X192120857Y-95252000D01*
X192216095Y-95347238D01*
X192263714Y-95442476D01*
X192311333Y-95632952D01*
X192311333Y-95775809D01*
X192263714Y-95966285D01*
X192216095Y-96061523D01*
X192120857Y-96156761D01*
X191978000Y-96204380D01*
X191739904Y-96204380D01*
X192692285Y-95299619D02*
X192739904Y-95252000D01*
X192835142Y-95204380D01*
X193073238Y-95204380D01*
X193168476Y-95252000D01*
X193216095Y-95299619D01*
X193263714Y-95394857D01*
X193263714Y-95490095D01*
X193216095Y-95632952D01*
X192644666Y-96204380D01*
X193263714Y-96204380D01*
X104238095Y-140952380D02*
X104238095Y-139952380D01*
X104238095Y-140428571D02*
X104809523Y-140428571D01*
X104809523Y-140952380D02*
X104809523Y-139952380D01*
X105809523Y-140952380D02*
X105238095Y-140952380D01*
X105523809Y-140952380D02*
X105523809Y-139952380D01*
X105428571Y-140095238D01*
X105333333Y-140190476D01*
X105238095Y-140238095D01*
X109108095Y-55642380D02*
X109108095Y-54642380D01*
X109108095Y-55118571D02*
X109679523Y-55118571D01*
X109679523Y-55642380D02*
X109679523Y-54642380D01*
X110108095Y-54737619D02*
X110155714Y-54690000D01*
X110250952Y-54642380D01*
X110489047Y-54642380D01*
X110584285Y-54690000D01*
X110631904Y-54737619D01*
X110679523Y-54832857D01*
X110679523Y-54928095D01*
X110631904Y-55070952D01*
X110060476Y-55642380D01*
X110679523Y-55642380D01*
X189248095Y-55712380D02*
X189248095Y-54712380D01*
X189248095Y-55188571D02*
X189819523Y-55188571D01*
X189819523Y-55712380D02*
X189819523Y-54712380D01*
X190200476Y-54712380D02*
X190819523Y-54712380D01*
X190486190Y-55093333D01*
X190629047Y-55093333D01*
X190724285Y-55140952D01*
X190771904Y-55188571D01*
X190819523Y-55283809D01*
X190819523Y-55521904D01*
X190771904Y-55617142D01*
X190724285Y-55664761D01*
X190629047Y-55712380D01*
X190343333Y-55712380D01*
X190248095Y-55664761D01*
X190200476Y-55617142D01*
X194238095Y-140952380D02*
X194238095Y-139952380D01*
X194238095Y-140428571D02*
X194809523Y-140428571D01*
X194809523Y-140952380D02*
X194809523Y-139952380D01*
X195714285Y-140285714D02*
X195714285Y-140952380D01*
X195476190Y-139904761D02*
X195238095Y-140619047D01*
X195857142Y-140619047D01*
X135390380Y-58978666D02*
X135390380Y-59454857D01*
X134390380Y-59454857D01*
X135390380Y-58121523D02*
X135390380Y-58692952D01*
X135390380Y-58407238D02*
X134390380Y-58407238D01*
X134533238Y-58502476D01*
X134628476Y-58597714D01*
X134676095Y-58692952D01*
X144015380Y-81273666D02*
X144015380Y-81749857D01*
X143015380Y-81749857D01*
X143110619Y-80987952D02*
X143063000Y-80940333D01*
X143015380Y-80845095D01*
X143015380Y-80607000D01*
X143063000Y-80511761D01*
X143110619Y-80464142D01*
X143205857Y-80416523D01*
X143301095Y-80416523D01*
X143443952Y-80464142D01*
X144015380Y-81035571D01*
X144015380Y-80416523D01*
X127552380Y-56692857D02*
X126552380Y-56692857D01*
X127552380Y-56121428D01*
X126552380Y-56121428D01*
X126552380Y-55788095D02*
X126552380Y-55216666D01*
X127552380Y-55502380D02*
X126552380Y-55502380D01*
X127457142Y-54311904D02*
X127504761Y-54359523D01*
X127552380Y-54502380D01*
X127552380Y-54597619D01*
X127504761Y-54740476D01*
X127409523Y-54835714D01*
X127314285Y-54883333D01*
X127123809Y-54930952D01*
X126980952Y-54930952D01*
X126790476Y-54883333D01*
X126695238Y-54835714D01*
X126600000Y-54740476D01*
X126552380Y-54597619D01*
X126552380Y-54502380D01*
X126600000Y-54359523D01*
X126647619Y-54311904D01*
X127552380Y-53359523D02*
X127552380Y-53930952D01*
X127552380Y-53645238D02*
X126552380Y-53645238D01*
X126695238Y-53740476D01*
X126790476Y-53835714D01*
X126838095Y-53930952D01*
X172370761Y-115101619D02*
X172275523Y-115054000D01*
X172180285Y-114958761D01*
X172037428Y-114815904D01*
X171942190Y-114768285D01*
X171846952Y-114768285D01*
X171894571Y-115006380D02*
X171799333Y-114958761D01*
X171704095Y-114863523D01*
X171656476Y-114673047D01*
X171656476Y-114339714D01*
X171704095Y-114149238D01*
X171799333Y-114054000D01*
X171894571Y-114006380D01*
X172085047Y-114006380D01*
X172180285Y-114054000D01*
X172275523Y-114149238D01*
X172323142Y-114339714D01*
X172323142Y-114673047D01*
X172275523Y-114863523D01*
X172180285Y-114958761D01*
X172085047Y-115006380D01*
X171894571Y-115006380D01*
X173275523Y-115006380D02*
X172704095Y-115006380D01*
X172989809Y-115006380D02*
X172989809Y-114006380D01*
X172894571Y-114149238D01*
X172799333Y-114244476D01*
X172704095Y-114292095D01*
X124365380Y-82373666D02*
X123889190Y-82707000D01*
X124365380Y-82945095D02*
X123365380Y-82945095D01*
X123365380Y-82564142D01*
X123413000Y-82468904D01*
X123460619Y-82421285D01*
X123555857Y-82373666D01*
X123698714Y-82373666D01*
X123793952Y-82421285D01*
X123841571Y-82468904D01*
X123889190Y-82564142D01*
X123889190Y-82945095D01*
X123365380Y-82040333D02*
X123365380Y-81421285D01*
X123746333Y-81754619D01*
X123746333Y-81611761D01*
X123793952Y-81516523D01*
X123841571Y-81468904D01*
X123936809Y-81421285D01*
X124174904Y-81421285D01*
X124270142Y-81468904D01*
X124317761Y-81516523D01*
X124365380Y-81611761D01*
X124365380Y-81897476D01*
X124317761Y-81992714D01*
X124270142Y-82040333D01*
X131845380Y-84273666D02*
X131369190Y-84607000D01*
X131845380Y-84845095D02*
X130845380Y-84845095D01*
X130845380Y-84464142D01*
X130893000Y-84368904D01*
X130940619Y-84321285D01*
X131035857Y-84273666D01*
X131178714Y-84273666D01*
X131273952Y-84321285D01*
X131321571Y-84368904D01*
X131369190Y-84464142D01*
X131369190Y-84845095D01*
X131178714Y-83416523D02*
X131845380Y-83416523D01*
X130797761Y-83654619D02*
X131512047Y-83892714D01*
X131512047Y-83273666D01*
X130315380Y-84353666D02*
X129839190Y-84687000D01*
X130315380Y-84925095D02*
X129315380Y-84925095D01*
X129315380Y-84544142D01*
X129363000Y-84448904D01*
X129410619Y-84401285D01*
X129505857Y-84353666D01*
X129648714Y-84353666D01*
X129743952Y-84401285D01*
X129791571Y-84448904D01*
X129839190Y-84544142D01*
X129839190Y-84925095D01*
X129315380Y-83448904D02*
X129315380Y-83925095D01*
X129791571Y-83972714D01*
X129743952Y-83925095D01*
X129696333Y-83829857D01*
X129696333Y-83591761D01*
X129743952Y-83496523D01*
X129791571Y-83448904D01*
X129886809Y-83401285D01*
X130124904Y-83401285D01*
X130220142Y-83448904D01*
X130267761Y-83496523D01*
X130315380Y-83591761D01*
X130315380Y-83829857D01*
X130267761Y-83925095D01*
X130220142Y-83972714D01*
X124380380Y-69803666D02*
X123904190Y-70137000D01*
X124380380Y-70375095D02*
X123380380Y-70375095D01*
X123380380Y-69994142D01*
X123428000Y-69898904D01*
X123475619Y-69851285D01*
X123570857Y-69803666D01*
X123713714Y-69803666D01*
X123808952Y-69851285D01*
X123856571Y-69898904D01*
X123904190Y-69994142D01*
X123904190Y-70375095D01*
X123380380Y-69470333D02*
X123380380Y-68803666D01*
X124380380Y-69232238D01*
X119200380Y-73638666D02*
X118724190Y-73972000D01*
X119200380Y-74210095D02*
X118200380Y-74210095D01*
X118200380Y-73829142D01*
X118248000Y-73733904D01*
X118295619Y-73686285D01*
X118390857Y-73638666D01*
X118533714Y-73638666D01*
X118628952Y-73686285D01*
X118676571Y-73733904D01*
X118724190Y-73829142D01*
X118724190Y-74210095D01*
X118628952Y-73067238D02*
X118581333Y-73162476D01*
X118533714Y-73210095D01*
X118438476Y-73257714D01*
X118390857Y-73257714D01*
X118295619Y-73210095D01*
X118248000Y-73162476D01*
X118200380Y-73067238D01*
X118200380Y-72876761D01*
X118248000Y-72781523D01*
X118295619Y-72733904D01*
X118390857Y-72686285D01*
X118438476Y-72686285D01*
X118533714Y-72733904D01*
X118581333Y-72781523D01*
X118628952Y-72876761D01*
X118628952Y-73067238D01*
X118676571Y-73162476D01*
X118724190Y-73210095D01*
X118819428Y-73257714D01*
X119009904Y-73257714D01*
X119105142Y-73210095D01*
X119152761Y-73162476D01*
X119200380Y-73067238D01*
X119200380Y-72876761D01*
X119152761Y-72781523D01*
X119105142Y-72733904D01*
X119009904Y-72686285D01*
X118819428Y-72686285D01*
X118724190Y-72733904D01*
X118676571Y-72781523D01*
X118628952Y-72876761D01*
X146996333Y-72714380D02*
X146663000Y-72238190D01*
X146424904Y-72714380D02*
X146424904Y-71714380D01*
X146805857Y-71714380D01*
X146901095Y-71762000D01*
X146948714Y-71809619D01*
X146996333Y-71904857D01*
X146996333Y-72047714D01*
X146948714Y-72142952D01*
X146901095Y-72190571D01*
X146805857Y-72238190D01*
X146424904Y-72238190D01*
X147472523Y-72714380D02*
X147663000Y-72714380D01*
X147758238Y-72666761D01*
X147805857Y-72619142D01*
X147901095Y-72476285D01*
X147948714Y-72285809D01*
X147948714Y-71904857D01*
X147901095Y-71809619D01*
X147853476Y-71762000D01*
X147758238Y-71714380D01*
X147567761Y-71714380D01*
X147472523Y-71762000D01*
X147424904Y-71809619D01*
X147377285Y-71904857D01*
X147377285Y-72142952D01*
X147424904Y-72238190D01*
X147472523Y-72285809D01*
X147567761Y-72333428D01*
X147758238Y-72333428D01*
X147853476Y-72285809D01*
X147901095Y-72238190D01*
X147948714Y-72142952D01*
X146895142Y-74489380D02*
X146561809Y-74013190D01*
X146323714Y-74489380D02*
X146323714Y-73489380D01*
X146704666Y-73489380D01*
X146799904Y-73537000D01*
X146847523Y-73584619D01*
X146895142Y-73679857D01*
X146895142Y-73822714D01*
X146847523Y-73917952D01*
X146799904Y-73965571D01*
X146704666Y-74013190D01*
X146323714Y-74013190D01*
X147847523Y-74489380D02*
X147276095Y-74489380D01*
X147561809Y-74489380D02*
X147561809Y-73489380D01*
X147466571Y-73632238D01*
X147371333Y-73727476D01*
X147276095Y-73775095D01*
X148466571Y-73489380D02*
X148561809Y-73489380D01*
X148657047Y-73537000D01*
X148704666Y-73584619D01*
X148752285Y-73679857D01*
X148799904Y-73870333D01*
X148799904Y-74108428D01*
X148752285Y-74298904D01*
X148704666Y-74394142D01*
X148657047Y-74441761D01*
X148561809Y-74489380D01*
X148466571Y-74489380D01*
X148371333Y-74441761D01*
X148323714Y-74394142D01*
X148276095Y-74298904D01*
X148228476Y-74108428D01*
X148228476Y-73870333D01*
X148276095Y-73679857D01*
X148323714Y-73584619D01*
X148371333Y-73537000D01*
X148466571Y-73489380D01*
X124300380Y-73664857D02*
X123824190Y-73998190D01*
X124300380Y-74236285D02*
X123300380Y-74236285D01*
X123300380Y-73855333D01*
X123348000Y-73760095D01*
X123395619Y-73712476D01*
X123490857Y-73664857D01*
X123633714Y-73664857D01*
X123728952Y-73712476D01*
X123776571Y-73760095D01*
X123824190Y-73855333D01*
X123824190Y-74236285D01*
X124300380Y-72712476D02*
X124300380Y-73283904D01*
X124300380Y-72998190D02*
X123300380Y-72998190D01*
X123443238Y-73093428D01*
X123538476Y-73188666D01*
X123586095Y-73283904D01*
X123395619Y-72331523D02*
X123348000Y-72283904D01*
X123300380Y-72188666D01*
X123300380Y-71950571D01*
X123348000Y-71855333D01*
X123395619Y-71807714D01*
X123490857Y-71760095D01*
X123586095Y-71760095D01*
X123728952Y-71807714D01*
X124300380Y-72379142D01*
X124300380Y-71760095D01*
D13*
X138152285Y-72658428D02*
X137952285Y-72372714D01*
X137809428Y-72658428D02*
X137809428Y-72058428D01*
X138038000Y-72058428D01*
X138095142Y-72087000D01*
X138123714Y-72115571D01*
X138152285Y-72172714D01*
X138152285Y-72258428D01*
X138123714Y-72315571D01*
X138095142Y-72344142D01*
X138038000Y-72372714D01*
X137809428Y-72372714D01*
X138723714Y-72658428D02*
X138380857Y-72658428D01*
X138552285Y-72658428D02*
X138552285Y-72058428D01*
X138495142Y-72144142D01*
X138438000Y-72201285D01*
X138380857Y-72229857D01*
X138923714Y-72058428D02*
X139295142Y-72058428D01*
X139095142Y-72287000D01*
X139180857Y-72287000D01*
X139238000Y-72315571D01*
X139266571Y-72344142D01*
X139295142Y-72401285D01*
X139295142Y-72544142D01*
X139266571Y-72601285D01*
X139238000Y-72629857D01*
X139180857Y-72658428D01*
X139009428Y-72658428D01*
X138952285Y-72629857D01*
X138923714Y-72601285D01*
X138052285Y-74208428D02*
X137852285Y-73922714D01*
X137709428Y-74208428D02*
X137709428Y-73608428D01*
X137938000Y-73608428D01*
X137995142Y-73637000D01*
X138023714Y-73665571D01*
X138052285Y-73722714D01*
X138052285Y-73808428D01*
X138023714Y-73865571D01*
X137995142Y-73894142D01*
X137938000Y-73922714D01*
X137709428Y-73922714D01*
X138623714Y-74208428D02*
X138280857Y-74208428D01*
X138452285Y-74208428D02*
X138452285Y-73608428D01*
X138395142Y-73694142D01*
X138338000Y-73751285D01*
X138280857Y-73779857D01*
X139138000Y-73808428D02*
X139138000Y-74208428D01*
X138995142Y-73579857D02*
X138852285Y-74008428D01*
X139223714Y-74008428D01*
X140652285Y-77558428D02*
X140452285Y-77272714D01*
X140309428Y-77558428D02*
X140309428Y-76958428D01*
X140538000Y-76958428D01*
X140595142Y-76987000D01*
X140623714Y-77015571D01*
X140652285Y-77072714D01*
X140652285Y-77158428D01*
X140623714Y-77215571D01*
X140595142Y-77244142D01*
X140538000Y-77272714D01*
X140309428Y-77272714D01*
X141223714Y-77558428D02*
X140880857Y-77558428D01*
X141052285Y-77558428D02*
X141052285Y-76958428D01*
X140995142Y-77044142D01*
X140938000Y-77101285D01*
X140880857Y-77129857D01*
X141766571Y-76958428D02*
X141480857Y-76958428D01*
X141452285Y-77244142D01*
X141480857Y-77215571D01*
X141538000Y-77187000D01*
X141680857Y-77187000D01*
X141738000Y-77215571D01*
X141766571Y-77244142D01*
X141795142Y-77301285D01*
X141795142Y-77444142D01*
X141766571Y-77501285D01*
X141738000Y-77529857D01*
X141680857Y-77558428D01*
X141538000Y-77558428D01*
X141480857Y-77529857D01*
X141452285Y-77501285D01*
D11*
X131502380Y-62042857D02*
X131026190Y-62376190D01*
X131502380Y-62614285D02*
X130502380Y-62614285D01*
X130502380Y-62233333D01*
X130550000Y-62138095D01*
X130597619Y-62090476D01*
X130692857Y-62042857D01*
X130835714Y-62042857D01*
X130930952Y-62090476D01*
X130978571Y-62138095D01*
X131026190Y-62233333D01*
X131026190Y-62614285D01*
X131502380Y-61090476D02*
X131502380Y-61661904D01*
X131502380Y-61376190D02*
X130502380Y-61376190D01*
X130645238Y-61471428D01*
X130740476Y-61566666D01*
X130788095Y-61661904D01*
X130502380Y-60233333D02*
X130502380Y-60423809D01*
X130550000Y-60519047D01*
X130597619Y-60566666D01*
X130740476Y-60661904D01*
X130930952Y-60709523D01*
X131311904Y-60709523D01*
X131407142Y-60661904D01*
X131454761Y-60614285D01*
X131502380Y-60519047D01*
X131502380Y-60328571D01*
X131454761Y-60233333D01*
X131407142Y-60185714D01*
X131311904Y-60138095D01*
X131073809Y-60138095D01*
X130978571Y-60185714D01*
X130930952Y-60233333D01*
X130883333Y-60328571D01*
X130883333Y-60519047D01*
X130930952Y-60614285D01*
X130978571Y-60661904D01*
X131073809Y-60709523D01*
X153790380Y-81479857D02*
X153314190Y-81813190D01*
X153790380Y-82051285D02*
X152790380Y-82051285D01*
X152790380Y-81670333D01*
X152838000Y-81575095D01*
X152885619Y-81527476D01*
X152980857Y-81479857D01*
X153123714Y-81479857D01*
X153218952Y-81527476D01*
X153266571Y-81575095D01*
X153314190Y-81670333D01*
X153314190Y-82051285D01*
X153790380Y-80527476D02*
X153790380Y-81098904D01*
X153790380Y-80813190D02*
X152790380Y-80813190D01*
X152933238Y-80908428D01*
X153028476Y-81003666D01*
X153076095Y-81098904D01*
X152790380Y-80194142D02*
X152790380Y-79527476D01*
X153790380Y-79956047D01*
X144962380Y-92910857D02*
X144486190Y-93244190D01*
X144962380Y-93482285D02*
X143962380Y-93482285D01*
X143962380Y-93101333D01*
X144010000Y-93006095D01*
X144057619Y-92958476D01*
X144152857Y-92910857D01*
X144295714Y-92910857D01*
X144390952Y-92958476D01*
X144438571Y-93006095D01*
X144486190Y-93101333D01*
X144486190Y-93482285D01*
X143962380Y-92577523D02*
X143962380Y-91958476D01*
X144343333Y-92291809D01*
X144343333Y-92148952D01*
X144390952Y-92053714D01*
X144438571Y-92006095D01*
X144533809Y-91958476D01*
X144771904Y-91958476D01*
X144867142Y-92006095D01*
X144914761Y-92053714D01*
X144962380Y-92148952D01*
X144962380Y-92434666D01*
X144914761Y-92529904D01*
X144867142Y-92577523D01*
X143962380Y-91339428D02*
X143962380Y-91244190D01*
X144010000Y-91148952D01*
X144057619Y-91101333D01*
X144152857Y-91053714D01*
X144343333Y-91006095D01*
X144581428Y-91006095D01*
X144771904Y-91053714D01*
X144867142Y-91101333D01*
X144914761Y-91148952D01*
X144962380Y-91244190D01*
X144962380Y-91339428D01*
X144914761Y-91434666D01*
X144867142Y-91482285D01*
X144771904Y-91529904D01*
X144581428Y-91577523D01*
X144343333Y-91577523D01*
X144152857Y-91529904D01*
X144057619Y-91482285D01*
X144010000Y-91434666D01*
X143962380Y-91339428D01*
X173642380Y-107542857D02*
X173166190Y-107876190D01*
X173642380Y-108114285D02*
X172642380Y-108114285D01*
X172642380Y-107733333D01*
X172690000Y-107638095D01*
X172737619Y-107590476D01*
X172832857Y-107542857D01*
X172975714Y-107542857D01*
X173070952Y-107590476D01*
X173118571Y-107638095D01*
X173166190Y-107733333D01*
X173166190Y-108114285D01*
X172975714Y-106685714D02*
X173642380Y-106685714D01*
X172594761Y-106923809D02*
X173309047Y-107161904D01*
X173309047Y-106542857D01*
X172642380Y-106257142D02*
X172642380Y-105638095D01*
X173023333Y-105971428D01*
X173023333Y-105828571D01*
X173070952Y-105733333D01*
X173118571Y-105685714D01*
X173213809Y-105638095D01*
X173451904Y-105638095D01*
X173547142Y-105685714D01*
X173594761Y-105733333D01*
X173642380Y-105828571D01*
X173642380Y-106114285D01*
X173594761Y-106209523D01*
X173547142Y-106257142D01*
X189990428Y-137356380D02*
X189657095Y-136880190D01*
X189419000Y-137356380D02*
X189419000Y-136356380D01*
X189799952Y-136356380D01*
X189895190Y-136404000D01*
X189942809Y-136451619D01*
X189990428Y-136546857D01*
X189990428Y-136689714D01*
X189942809Y-136784952D01*
X189895190Y-136832571D01*
X189799952Y-136880190D01*
X189419000Y-136880190D01*
X190180904Y-137451619D02*
X190942809Y-137451619D01*
X191133285Y-137070666D02*
X191609476Y-137070666D01*
X191038047Y-137356380D02*
X191371380Y-136356380D01*
X191704714Y-137356380D01*
X192466619Y-137356380D02*
X192466619Y-136356380D01*
X192466619Y-137308761D02*
X192371380Y-137356380D01*
X192180904Y-137356380D01*
X192085666Y-137308761D01*
X192038047Y-137261142D01*
X191990428Y-137165904D01*
X191990428Y-136880190D01*
X192038047Y-136784952D01*
X192085666Y-136737333D01*
X192180904Y-136689714D01*
X192371380Y-136689714D01*
X192466619Y-136737333D01*
X193371380Y-137356380D02*
X193371380Y-136356380D01*
X193371380Y-137308761D02*
X193276142Y-137356380D01*
X193085666Y-137356380D01*
X192990428Y-137308761D01*
X192942809Y-137261142D01*
X192895190Y-137165904D01*
X192895190Y-136880190D01*
X192942809Y-136784952D01*
X192990428Y-136737333D01*
X193085666Y-136689714D01*
X193276142Y-136689714D01*
X193371380Y-136737333D01*
X193847571Y-137356380D02*
X193847571Y-136689714D01*
X193847571Y-136880190D02*
X193895190Y-136784952D01*
X193942809Y-136737333D01*
X194038047Y-136689714D01*
X194133285Y-136689714D01*
X194847571Y-137308761D02*
X194752333Y-137356380D01*
X194561857Y-137356380D01*
X194466619Y-137308761D01*
X194419000Y-137213523D01*
X194419000Y-136832571D01*
X194466619Y-136737333D01*
X194561857Y-136689714D01*
X194752333Y-136689714D01*
X194847571Y-136737333D01*
X194895190Y-136832571D01*
X194895190Y-136927809D01*
X194419000Y-137023047D01*
X195276142Y-137308761D02*
X195371380Y-137356380D01*
X195561857Y-137356380D01*
X195657095Y-137308761D01*
X195704714Y-137213523D01*
X195704714Y-137165904D01*
X195657095Y-137070666D01*
X195561857Y-137023047D01*
X195419000Y-137023047D01*
X195323761Y-136975428D01*
X195276142Y-136880190D01*
X195276142Y-136832571D01*
X195323761Y-136737333D01*
X195419000Y-136689714D01*
X195561857Y-136689714D01*
X195657095Y-136737333D01*
X196085666Y-137308761D02*
X196180904Y-137356380D01*
X196371380Y-137356380D01*
X196466619Y-137308761D01*
X196514238Y-137213523D01*
X196514238Y-137165904D01*
X196466619Y-137070666D01*
X196371380Y-137023047D01*
X196228523Y-137023047D01*
X196133285Y-136975428D01*
X196085666Y-136880190D01*
X196085666Y-136832571D01*
X196133285Y-136737333D01*
X196228523Y-136689714D01*
X196371380Y-136689714D01*
X196466619Y-136737333D01*
X197466619Y-137356380D02*
X196895190Y-137356380D01*
X197180904Y-137356380D02*
X197180904Y-136356380D01*
X197085666Y-136499238D01*
X196990428Y-136594476D01*
X196895190Y-136642095D01*
X133358095Y-98004380D02*
X133929523Y-98004380D01*
X133643809Y-99004380D02*
X133643809Y-98004380D01*
X134262857Y-99004380D02*
X134262857Y-98004380D01*
X134643809Y-98004380D01*
X134739047Y-98052000D01*
X134786666Y-98099619D01*
X134834285Y-98194857D01*
X134834285Y-98337714D01*
X134786666Y-98432952D01*
X134739047Y-98480571D01*
X134643809Y-98528190D01*
X134262857Y-98528190D01*
X135786666Y-99004380D02*
X135215238Y-99004380D01*
X135500952Y-99004380D02*
X135500952Y-98004380D01*
X135405714Y-98147238D01*
X135310476Y-98242476D01*
X135215238Y-98290095D01*
X131926095Y-75539380D02*
X131926095Y-76348904D01*
X131973714Y-76444142D01*
X132021333Y-76491761D01*
X132116571Y-76539380D01*
X132307047Y-76539380D01*
X132402285Y-76491761D01*
X132449904Y-76444142D01*
X132497523Y-76348904D01*
X132497523Y-75539380D01*
X132926095Y-75634619D02*
X132973714Y-75587000D01*
X133068952Y-75539380D01*
X133307047Y-75539380D01*
X133402285Y-75587000D01*
X133449904Y-75634619D01*
X133497523Y-75729857D01*
X133497523Y-75825095D01*
X133449904Y-75967952D01*
X132878476Y-76539380D01*
X133497523Y-76539380D01*
X138672380Y-103789904D02*
X139481904Y-103789904D01*
X139577142Y-103742285D01*
X139624761Y-103694666D01*
X139672380Y-103599428D01*
X139672380Y-103408952D01*
X139624761Y-103313714D01*
X139577142Y-103266095D01*
X139481904Y-103218476D01*
X138672380Y-103218476D01*
X139005714Y-102313714D02*
X139672380Y-102313714D01*
X138624761Y-102551809D02*
X139339047Y-102789904D01*
X139339047Y-102170857D01*
X186488095Y-133202380D02*
X186488095Y-134011904D01*
X186535714Y-134107142D01*
X186583333Y-134154761D01*
X186678571Y-134202380D01*
X186869047Y-134202380D01*
X186964285Y-134154761D01*
X187011904Y-134107142D01*
X187059523Y-134011904D01*
X187059523Y-133202380D01*
X188011904Y-133202380D02*
X187535714Y-133202380D01*
X187488095Y-133678571D01*
X187535714Y-133630952D01*
X187630952Y-133583333D01*
X187869047Y-133583333D01*
X187964285Y-133630952D01*
X188011904Y-133678571D01*
X188059523Y-133773809D01*
X188059523Y-134011904D01*
X188011904Y-134107142D01*
X187964285Y-134154761D01*
X187869047Y-134202380D01*
X187630952Y-134202380D01*
X187535714Y-134154761D01*
X187488095Y-134107142D01*
X172008380Y-124967904D02*
X172817904Y-124967904D01*
X172913142Y-124920285D01*
X172960761Y-124872666D01*
X173008380Y-124777428D01*
X173008380Y-124586952D01*
X172960761Y-124491714D01*
X172913142Y-124444095D01*
X172817904Y-124396476D01*
X172008380Y-124396476D01*
X172008380Y-123491714D02*
X172008380Y-123682190D01*
X172056000Y-123777428D01*
X172103619Y-123825047D01*
X172246476Y-123920285D01*
X172436952Y-123967904D01*
X172817904Y-123967904D01*
X172913142Y-123920285D01*
X172960761Y-123872666D01*
X173008380Y-123777428D01*
X173008380Y-123586952D01*
X172960761Y-123491714D01*
X172913142Y-123444095D01*
X172817904Y-123396476D01*
X172579809Y-123396476D01*
X172484571Y-123444095D01*
X172436952Y-123491714D01*
X172389333Y-123586952D01*
X172389333Y-123777428D01*
X172436952Y-123872666D01*
X172484571Y-123920285D01*
X172579809Y-123967904D01*
X191438095Y-120872380D02*
X191438095Y-121681904D01*
X191485714Y-121777142D01*
X191533333Y-121824761D01*
X191628571Y-121872380D01*
X191819047Y-121872380D01*
X191914285Y-121824761D01*
X191961904Y-121777142D01*
X192009523Y-121681904D01*
X192009523Y-120872380D01*
X192390476Y-120872380D02*
X193057142Y-120872380D01*
X192628571Y-121872380D01*
X139052380Y-94642857D02*
X138576190Y-94976190D01*
X139052380Y-95214285D02*
X138052380Y-95214285D01*
X138052380Y-94833333D01*
X138100000Y-94738095D01*
X138147619Y-94690476D01*
X138242857Y-94642857D01*
X138385714Y-94642857D01*
X138480952Y-94690476D01*
X138528571Y-94738095D01*
X138576190Y-94833333D01*
X138576190Y-95214285D01*
X138385714Y-93785714D02*
X139052380Y-93785714D01*
X138004761Y-94023809D02*
X138719047Y-94261904D01*
X138719047Y-93642857D01*
X138052380Y-92833333D02*
X138052380Y-93023809D01*
X138100000Y-93119047D01*
X138147619Y-93166666D01*
X138290476Y-93261904D01*
X138480952Y-93309523D01*
X138861904Y-93309523D01*
X138957142Y-93261904D01*
X139004761Y-93214285D01*
X139052380Y-93119047D01*
X139052380Y-92928571D01*
X139004761Y-92833333D01*
X138957142Y-92785714D01*
X138861904Y-92738095D01*
X138623809Y-92738095D01*
X138528571Y-92785714D01*
X138480952Y-92833333D01*
X138433333Y-92928571D01*
X138433333Y-93119047D01*
X138480952Y-93214285D01*
X138528571Y-93261904D01*
X138623809Y-93309523D01*
X140852380Y-94642857D02*
X140376190Y-94976190D01*
X140852380Y-95214285D02*
X139852380Y-95214285D01*
X139852380Y-94833333D01*
X139900000Y-94738095D01*
X139947619Y-94690476D01*
X140042857Y-94642857D01*
X140185714Y-94642857D01*
X140280952Y-94690476D01*
X140328571Y-94738095D01*
X140376190Y-94833333D01*
X140376190Y-95214285D01*
X140185714Y-93785714D02*
X140852380Y-93785714D01*
X139804761Y-94023809D02*
X140519047Y-94261904D01*
X140519047Y-93642857D01*
X139852380Y-93357142D02*
X139852380Y-92690476D01*
X140852380Y-93119047D01*
X164457142Y-117800380D02*
X164123809Y-117324190D01*
X163885714Y-117800380D02*
X163885714Y-116800380D01*
X164266666Y-116800380D01*
X164361904Y-116848000D01*
X164409523Y-116895619D01*
X164457142Y-116990857D01*
X164457142Y-117133714D01*
X164409523Y-117228952D01*
X164361904Y-117276571D01*
X164266666Y-117324190D01*
X163885714Y-117324190D01*
X165314285Y-117133714D02*
X165314285Y-117800380D01*
X165076190Y-116752761D02*
X164838095Y-117467047D01*
X165457142Y-117467047D01*
X165980952Y-117228952D02*
X165885714Y-117181333D01*
X165838095Y-117133714D01*
X165790476Y-117038476D01*
X165790476Y-116990857D01*
X165838095Y-116895619D01*
X165885714Y-116848000D01*
X165980952Y-116800380D01*
X166171428Y-116800380D01*
X166266666Y-116848000D01*
X166314285Y-116895619D01*
X166361904Y-116990857D01*
X166361904Y-117038476D01*
X166314285Y-117133714D01*
X166266666Y-117181333D01*
X166171428Y-117228952D01*
X165980952Y-117228952D01*
X165885714Y-117276571D01*
X165838095Y-117324190D01*
X165790476Y-117419428D01*
X165790476Y-117609904D01*
X165838095Y-117705142D01*
X165885714Y-117752761D01*
X165980952Y-117800380D01*
X166171428Y-117800380D01*
X166266666Y-117752761D01*
X166314285Y-117705142D01*
X166361904Y-117609904D01*
X166361904Y-117419428D01*
X166314285Y-117324190D01*
X166266666Y-117276571D01*
X166171428Y-117228952D01*
X196012380Y-114492857D02*
X195536190Y-114826190D01*
X196012380Y-115064285D02*
X195012380Y-115064285D01*
X195012380Y-114683333D01*
X195060000Y-114588095D01*
X195107619Y-114540476D01*
X195202857Y-114492857D01*
X195345714Y-114492857D01*
X195440952Y-114540476D01*
X195488571Y-114588095D01*
X195536190Y-114683333D01*
X195536190Y-115064285D01*
X195345714Y-113635714D02*
X196012380Y-113635714D01*
X194964761Y-113873809D02*
X195679047Y-114111904D01*
X195679047Y-113492857D01*
X195012380Y-112635714D02*
X195012380Y-113111904D01*
X195488571Y-113159523D01*
X195440952Y-113111904D01*
X195393333Y-113016666D01*
X195393333Y-112778571D01*
X195440952Y-112683333D01*
X195488571Y-112635714D01*
X195583809Y-112588095D01*
X195821904Y-112588095D01*
X195917142Y-112635714D01*
X195964761Y-112683333D01*
X196012380Y-112778571D01*
X196012380Y-113016666D01*
X195964761Y-113111904D01*
X195917142Y-113159523D01*
M02*
