G04 #@! TF.GenerationSoftware,KiCad,Pcbnew,5.1.6-c6e7f7d~87~ubuntu20.04.1*
G04 #@! TF.CreationDate,2020-12-28T10:08:45+02:00*
G04 #@! TF.ProjectId,LED_test_V1.2,4c45445f-7465-4737-945f-56312e322e6b,rev?*
G04 #@! TF.SameCoordinates,Original*
G04 #@! TF.FileFunction,Legend,Top*
G04 #@! TF.FilePolarity,Positive*
%FSLAX46Y46*%
G04 Gerber Fmt 4.6, Leading zero omitted, Abs format (unit mm)*
G04 Created by KiCad (PCBNEW 5.1.6-c6e7f7d~87~ubuntu20.04.1) date 2020-12-28 10:08:45*
%MOMM*%
%LPD*%
G01*
G04 APERTURE LIST*
%ADD10C,0.200000*%
%ADD11C,0.150000*%
%ADD12C,0.120000*%
%ADD13C,0.100000*%
G04 APERTURE END LIST*
D10*
X125952380Y-139369047D02*
X125952380Y-139940476D01*
X125952380Y-139654761D02*
X124952380Y-139654761D01*
X125095238Y-139750000D01*
X125190476Y-139845238D01*
X125238095Y-139940476D01*
X125047619Y-138988095D02*
X125000000Y-138940476D01*
X124952380Y-138845238D01*
X124952380Y-138607142D01*
X125000000Y-138511904D01*
X125047619Y-138464285D01*
X125142857Y-138416666D01*
X125238095Y-138416666D01*
X125380952Y-138464285D01*
X125952380Y-139035714D01*
X125952380Y-138416666D01*
X124952380Y-138130952D02*
X125952380Y-137797619D01*
X124952380Y-137464285D01*
D11*
X105961428Y-76600000D02*
X105961428Y-76885714D01*
X105361428Y-76885714D01*
X105647142Y-76400000D02*
X105647142Y-76200000D01*
X105961428Y-76114285D02*
X105961428Y-76400000D01*
X105361428Y-76400000D01*
X105361428Y-76114285D01*
X105961428Y-75857142D02*
X105361428Y-75857142D01*
X105361428Y-75714285D01*
X105390000Y-75628571D01*
X105447142Y-75571428D01*
X105504285Y-75542857D01*
X105618571Y-75514285D01*
X105704285Y-75514285D01*
X105818571Y-75542857D01*
X105875714Y-75571428D01*
X105932857Y-75628571D01*
X105961428Y-75714285D01*
X105961428Y-75857142D01*
X106018571Y-75400000D02*
X106018571Y-74942857D01*
X105361428Y-74885714D02*
X105361428Y-74542857D01*
X105961428Y-74714285D02*
X105361428Y-74714285D01*
X105647142Y-74342857D02*
X105647142Y-74142857D01*
X105961428Y-74057142D02*
X105961428Y-74342857D01*
X105361428Y-74342857D01*
X105361428Y-74057142D01*
X105932857Y-73828571D02*
X105961428Y-73742857D01*
X105961428Y-73600000D01*
X105932857Y-73542857D01*
X105904285Y-73514285D01*
X105847142Y-73485714D01*
X105790000Y-73485714D01*
X105732857Y-73514285D01*
X105704285Y-73542857D01*
X105675714Y-73600000D01*
X105647142Y-73714285D01*
X105618571Y-73771428D01*
X105590000Y-73800000D01*
X105532857Y-73828571D01*
X105475714Y-73828571D01*
X105418571Y-73800000D01*
X105390000Y-73771428D01*
X105361428Y-73714285D01*
X105361428Y-73571428D01*
X105390000Y-73485714D01*
X105361428Y-73314285D02*
X105361428Y-72971428D01*
X105961428Y-73142857D02*
X105361428Y-73142857D01*
X105361428Y-72400000D02*
X105961428Y-72200000D01*
X105361428Y-72000000D01*
X105961428Y-71485714D02*
X105961428Y-71828571D01*
X105961428Y-71657142D02*
X105361428Y-71657142D01*
X105447142Y-71714285D01*
X105504285Y-71771428D01*
X105532857Y-71828571D01*
X105904285Y-71228571D02*
X105932857Y-71200000D01*
X105961428Y-71228571D01*
X105932857Y-71257142D01*
X105904285Y-71228571D01*
X105961428Y-71228571D01*
X105418571Y-70971428D02*
X105390000Y-70942857D01*
X105361428Y-70885714D01*
X105361428Y-70742857D01*
X105390000Y-70685714D01*
X105418571Y-70657142D01*
X105475714Y-70628571D01*
X105532857Y-70628571D01*
X105618571Y-70657142D01*
X105961428Y-71000000D01*
X105961428Y-70628571D01*
X106190000Y-69742857D02*
X106161428Y-69771428D01*
X106075714Y-69828571D01*
X106018571Y-69857142D01*
X105932857Y-69885714D01*
X105790000Y-69914285D01*
X105675714Y-69914285D01*
X105532857Y-69885714D01*
X105447142Y-69857142D01*
X105390000Y-69828571D01*
X105304285Y-69771428D01*
X105275714Y-69742857D01*
X105961428Y-69514285D02*
X105361428Y-69514285D01*
X105647142Y-69514285D02*
X105647142Y-69171428D01*
X105961428Y-69171428D02*
X105361428Y-69171428D01*
X105675714Y-68771428D02*
X105961428Y-68771428D01*
X105361428Y-68971428D02*
X105675714Y-68771428D01*
X105361428Y-68571428D01*
X105961428Y-68371428D02*
X105361428Y-68371428D01*
X105361428Y-68142857D01*
X105390000Y-68085714D01*
X105418571Y-68057142D01*
X105475714Y-68028571D01*
X105561428Y-68028571D01*
X105618571Y-68057142D01*
X105647142Y-68085714D01*
X105675714Y-68142857D01*
X105675714Y-68371428D01*
X105647142Y-67771428D02*
X105647142Y-67571428D01*
X105961428Y-67485714D02*
X105961428Y-67771428D01*
X105361428Y-67771428D01*
X105361428Y-67485714D01*
X105961428Y-66885714D02*
X105675714Y-67085714D01*
X105961428Y-67228571D02*
X105361428Y-67228571D01*
X105361428Y-67000000D01*
X105390000Y-66942857D01*
X105418571Y-66914285D01*
X105475714Y-66885714D01*
X105561428Y-66885714D01*
X105618571Y-66914285D01*
X105647142Y-66942857D01*
X105675714Y-67000000D01*
X105675714Y-67228571D01*
X105961428Y-66628571D02*
X105361428Y-66628571D01*
X105961428Y-66285714D01*
X105361428Y-66285714D01*
X105647142Y-66000000D02*
X105647142Y-65800000D01*
X105961428Y-65714285D02*
X105961428Y-66000000D01*
X105361428Y-66000000D01*
X105361428Y-65714285D01*
X105361428Y-65542857D02*
X105361428Y-65200000D01*
X105961428Y-65371428D02*
X105361428Y-65371428D01*
X105932857Y-65028571D02*
X105961428Y-64942857D01*
X105961428Y-64800000D01*
X105932857Y-64742857D01*
X105904285Y-64714285D01*
X105847142Y-64685714D01*
X105790000Y-64685714D01*
X105732857Y-64714285D01*
X105704285Y-64742857D01*
X105675714Y-64800000D01*
X105647142Y-64914285D01*
X105618571Y-64971428D01*
X105590000Y-65000000D01*
X105532857Y-65028571D01*
X105475714Y-65028571D01*
X105418571Y-65000000D01*
X105390000Y-64971428D01*
X105361428Y-64914285D01*
X105361428Y-64771428D01*
X105390000Y-64685714D01*
X106190000Y-64485714D02*
X106161428Y-64457142D01*
X106075714Y-64400000D01*
X106018571Y-64371428D01*
X105932857Y-64342857D01*
X105790000Y-64314285D01*
X105675714Y-64314285D01*
X105532857Y-64342857D01*
X105447142Y-64371428D01*
X105390000Y-64400000D01*
X105304285Y-64457142D01*
X105275714Y-64485714D01*
D10*
X140470000Y-138751904D02*
X140422380Y-138847142D01*
X140422380Y-138990000D01*
X140470000Y-139132857D01*
X140565238Y-139228095D01*
X140660476Y-139275714D01*
X140850952Y-139323333D01*
X140993809Y-139323333D01*
X141184285Y-139275714D01*
X141279523Y-139228095D01*
X141374761Y-139132857D01*
X141422380Y-138990000D01*
X141422380Y-138894761D01*
X141374761Y-138751904D01*
X141327142Y-138704285D01*
X140993809Y-138704285D01*
X140993809Y-138894761D01*
X141422380Y-138275714D02*
X140422380Y-138275714D01*
X141422380Y-137704285D01*
X140422380Y-137704285D01*
X141422380Y-137228095D02*
X140422380Y-137228095D01*
X140422380Y-136990000D01*
X140470000Y-136847142D01*
X140565238Y-136751904D01*
X140660476Y-136704285D01*
X140850952Y-136656666D01*
X140993809Y-136656666D01*
X141184285Y-136704285D01*
X141279523Y-136751904D01*
X141374761Y-136847142D01*
X141422380Y-136990000D01*
X141422380Y-137228095D01*
X137452380Y-143726190D02*
X137452380Y-143107142D01*
X137833333Y-143440476D01*
X137833333Y-143297619D01*
X137880952Y-143202380D01*
X137928571Y-143154761D01*
X138023809Y-143107142D01*
X138261904Y-143107142D01*
X138357142Y-143154761D01*
X138404761Y-143202380D01*
X138452380Y-143297619D01*
X138452380Y-143583333D01*
X138404761Y-143678571D01*
X138357142Y-143726190D01*
X138357142Y-142678571D02*
X138404761Y-142630952D01*
X138452380Y-142678571D01*
X138404761Y-142726190D01*
X138357142Y-142678571D01*
X138452380Y-142678571D01*
X137452380Y-142297619D02*
X137452380Y-141678571D01*
X137833333Y-142011904D01*
X137833333Y-141869047D01*
X137880952Y-141773809D01*
X137928571Y-141726190D01*
X138023809Y-141678571D01*
X138261904Y-141678571D01*
X138357142Y-141726190D01*
X138404761Y-141773809D01*
X138452380Y-141869047D01*
X138452380Y-142154761D01*
X138404761Y-142250000D01*
X138357142Y-142297619D01*
X137452380Y-141392857D02*
X138452380Y-141059523D01*
X137452380Y-140726190D01*
X134750000Y-139011904D02*
X134702380Y-139107142D01*
X134702380Y-139250000D01*
X134750000Y-139392857D01*
X134845238Y-139488095D01*
X134940476Y-139535714D01*
X135130952Y-139583333D01*
X135273809Y-139583333D01*
X135464285Y-139535714D01*
X135559523Y-139488095D01*
X135654761Y-139392857D01*
X135702380Y-139250000D01*
X135702380Y-139154761D01*
X135654761Y-139011904D01*
X135607142Y-138964285D01*
X135273809Y-138964285D01*
X135273809Y-139154761D01*
X135702380Y-138535714D02*
X134702380Y-138535714D01*
X135702380Y-137964285D01*
X134702380Y-137964285D01*
X135702380Y-137488095D02*
X134702380Y-137488095D01*
X134702380Y-137250000D01*
X134750000Y-137107142D01*
X134845238Y-137011904D01*
X134940476Y-136964285D01*
X135130952Y-136916666D01*
X135273809Y-136916666D01*
X135464285Y-136964285D01*
X135559523Y-137011904D01*
X135654761Y-137107142D01*
X135702380Y-137250000D01*
X135702380Y-137488095D01*
X132452380Y-138190476D02*
X132452380Y-138666666D01*
X132928571Y-138714285D01*
X132880952Y-138666666D01*
X132833333Y-138571428D01*
X132833333Y-138333333D01*
X132880952Y-138238095D01*
X132928571Y-138190476D01*
X133023809Y-138142857D01*
X133261904Y-138142857D01*
X133357142Y-138190476D01*
X133404761Y-138238095D01*
X133452380Y-138333333D01*
X133452380Y-138571428D01*
X133404761Y-138666666D01*
X133357142Y-138714285D01*
X132452380Y-137857142D02*
X133452380Y-137523809D01*
X132452380Y-137190476D01*
X130000000Y-139261904D02*
X129952380Y-139357142D01*
X129952380Y-139500000D01*
X130000000Y-139642857D01*
X130095238Y-139738095D01*
X130190476Y-139785714D01*
X130380952Y-139833333D01*
X130523809Y-139833333D01*
X130714285Y-139785714D01*
X130809523Y-139738095D01*
X130904761Y-139642857D01*
X130952380Y-139500000D01*
X130952380Y-139404761D01*
X130904761Y-139261904D01*
X130857142Y-139214285D01*
X130523809Y-139214285D01*
X130523809Y-139404761D01*
X130952380Y-138785714D02*
X129952380Y-138785714D01*
X130952380Y-138214285D01*
X129952380Y-138214285D01*
X130952380Y-137738095D02*
X129952380Y-137738095D01*
X129952380Y-137500000D01*
X130000000Y-137357142D01*
X130095238Y-137261904D01*
X130190476Y-137214285D01*
X130380952Y-137166666D01*
X130523809Y-137166666D01*
X130714285Y-137214285D01*
X130809523Y-137261904D01*
X130904761Y-137357142D01*
X130952380Y-137500000D01*
X130952380Y-137738095D01*
X128452380Y-142845238D02*
X128452380Y-143321428D01*
X127452380Y-143321428D01*
X127928571Y-142511904D02*
X127928571Y-142178571D01*
X128452380Y-142035714D02*
X128452380Y-142511904D01*
X127452380Y-142511904D01*
X127452380Y-142035714D01*
X128452380Y-141607142D02*
X127452380Y-141607142D01*
X127452380Y-141369047D01*
X127500000Y-141226190D01*
X127595238Y-141130952D01*
X127690476Y-141083333D01*
X127880952Y-141035714D01*
X128023809Y-141035714D01*
X128214285Y-141083333D01*
X128309523Y-141130952D01*
X128404761Y-141226190D01*
X128452380Y-141369047D01*
X128452380Y-141607142D01*
X128547619Y-140845238D02*
X128547619Y-140083333D01*
X128452380Y-139845238D02*
X127452380Y-139845238D01*
X127452380Y-139464285D01*
X127500000Y-139369047D01*
X127547619Y-139321428D01*
X127642857Y-139273809D01*
X127785714Y-139273809D01*
X127880952Y-139321428D01*
X127928571Y-139369047D01*
X127976190Y-139464285D01*
X127976190Y-139845238D01*
X127452380Y-138940476D02*
X128452380Y-138702380D01*
X127738095Y-138511904D01*
X128452380Y-138321428D01*
X127452380Y-138083333D01*
X128452380Y-137130952D02*
X127976190Y-137464285D01*
X128452380Y-137702380D02*
X127452380Y-137702380D01*
X127452380Y-137321428D01*
X127500000Y-137226190D01*
X127547619Y-137178571D01*
X127642857Y-137130952D01*
X127785714Y-137130952D01*
X127880952Y-137178571D01*
X127928571Y-137226190D01*
X127976190Y-137321428D01*
X127976190Y-137702380D01*
X123202380Y-140250000D02*
X122202380Y-140250000D01*
X122202380Y-140011904D01*
X122250000Y-139869047D01*
X122345238Y-139773809D01*
X122440476Y-139726190D01*
X122630952Y-139678571D01*
X122773809Y-139678571D01*
X122964285Y-139726190D01*
X123059523Y-139773809D01*
X123154761Y-139869047D01*
X123202380Y-140011904D01*
X123202380Y-140250000D01*
X122916666Y-139297619D02*
X122916666Y-138821428D01*
X123202380Y-139392857D02*
X122202380Y-139059523D01*
X123202380Y-138726190D01*
X122202380Y-138535714D02*
X122202380Y-137964285D01*
X123202380Y-138250000D02*
X122202380Y-138250000D01*
X122916666Y-137678571D02*
X122916666Y-137202380D01*
X123202380Y-137773809D02*
X122202380Y-137440476D01*
X123202380Y-137107142D01*
X120607142Y-140869047D02*
X120654761Y-140916666D01*
X120702380Y-141059523D01*
X120702380Y-141154761D01*
X120654761Y-141297619D01*
X120559523Y-141392857D01*
X120464285Y-141440476D01*
X120273809Y-141488095D01*
X120130952Y-141488095D01*
X119940476Y-141440476D01*
X119845238Y-141392857D01*
X119750000Y-141297619D01*
X119702380Y-141154761D01*
X119702380Y-141059523D01*
X119750000Y-140916666D01*
X119797619Y-140869047D01*
X120702380Y-139964285D02*
X120702380Y-140440476D01*
X119702380Y-140440476D01*
X119702380Y-139440476D02*
X119702380Y-139250000D01*
X119750000Y-139154761D01*
X119845238Y-139059523D01*
X120035714Y-139011904D01*
X120369047Y-139011904D01*
X120559523Y-139059523D01*
X120654761Y-139154761D01*
X120702380Y-139250000D01*
X120702380Y-139440476D01*
X120654761Y-139535714D01*
X120559523Y-139630952D01*
X120369047Y-139678571D01*
X120035714Y-139678571D01*
X119845238Y-139630952D01*
X119750000Y-139535714D01*
X119702380Y-139440476D01*
X120607142Y-138011904D02*
X120654761Y-138059523D01*
X120702380Y-138202380D01*
X120702380Y-138297619D01*
X120654761Y-138440476D01*
X120559523Y-138535714D01*
X120464285Y-138583333D01*
X120273809Y-138630952D01*
X120130952Y-138630952D01*
X119940476Y-138583333D01*
X119845238Y-138535714D01*
X119750000Y-138440476D01*
X119702380Y-138297619D01*
X119702380Y-138202380D01*
X119750000Y-138059523D01*
X119797619Y-138011904D01*
X120702380Y-137583333D02*
X119702380Y-137583333D01*
X120702380Y-137011904D02*
X120130952Y-137440476D01*
X119702380Y-137011904D02*
X120273809Y-137583333D01*
X117000000Y-139261904D02*
X116952380Y-139357142D01*
X116952380Y-139500000D01*
X117000000Y-139642857D01*
X117095238Y-139738095D01*
X117190476Y-139785714D01*
X117380952Y-139833333D01*
X117523809Y-139833333D01*
X117714285Y-139785714D01*
X117809523Y-139738095D01*
X117904761Y-139642857D01*
X117952380Y-139500000D01*
X117952380Y-139404761D01*
X117904761Y-139261904D01*
X117857142Y-139214285D01*
X117523809Y-139214285D01*
X117523809Y-139404761D01*
X117952380Y-138785714D02*
X116952380Y-138785714D01*
X117952380Y-138214285D01*
X116952380Y-138214285D01*
X117952380Y-137738095D02*
X116952380Y-137738095D01*
X116952380Y-137500000D01*
X117000000Y-137357142D01*
X117095238Y-137261904D01*
X117190476Y-137214285D01*
X117380952Y-137166666D01*
X117523809Y-137166666D01*
X117714285Y-137214285D01*
X117809523Y-137261904D01*
X117904761Y-137357142D01*
X117952380Y-137500000D01*
X117952380Y-137738095D01*
X108130952Y-110595238D02*
X108083333Y-110690476D01*
X108035714Y-110738095D01*
X107940476Y-110785714D01*
X107892857Y-110785714D01*
X107797619Y-110738095D01*
X107750000Y-110690476D01*
X107702380Y-110595238D01*
X107702380Y-110404761D01*
X107750000Y-110309523D01*
X107797619Y-110261904D01*
X107892857Y-110214285D01*
X107940476Y-110214285D01*
X108035714Y-110261904D01*
X108083333Y-110309523D01*
X108130952Y-110404761D01*
X108130952Y-110595238D01*
X108178571Y-110690476D01*
X108226190Y-110738095D01*
X108321428Y-110785714D01*
X108511904Y-110785714D01*
X108607142Y-110738095D01*
X108654761Y-110690476D01*
X108702380Y-110595238D01*
X108702380Y-110404761D01*
X108654761Y-110309523D01*
X108607142Y-110261904D01*
X108511904Y-110214285D01*
X108321428Y-110214285D01*
X108226190Y-110261904D01*
X108178571Y-110309523D01*
X108130952Y-110404761D01*
X107952380Y-113333333D02*
X107952380Y-112666666D01*
X108952380Y-113095238D01*
X107952380Y-115309523D02*
X107952380Y-115500000D01*
X108000000Y-115595238D01*
X108047619Y-115642857D01*
X108190476Y-115738095D01*
X108380952Y-115785714D01*
X108761904Y-115785714D01*
X108857142Y-115738095D01*
X108904761Y-115690476D01*
X108952380Y-115595238D01*
X108952380Y-115404761D01*
X108904761Y-115309523D01*
X108857142Y-115261904D01*
X108761904Y-115214285D01*
X108523809Y-115214285D01*
X108428571Y-115261904D01*
X108380952Y-115309523D01*
X108333333Y-115404761D01*
X108333333Y-115595238D01*
X108380952Y-115690476D01*
X108428571Y-115738095D01*
X108523809Y-115785714D01*
X107952380Y-118261904D02*
X107952380Y-118738095D01*
X108428571Y-118785714D01*
X108380952Y-118738095D01*
X108333333Y-118642857D01*
X108333333Y-118404761D01*
X108380952Y-118309523D01*
X108428571Y-118261904D01*
X108523809Y-118214285D01*
X108761904Y-118214285D01*
X108857142Y-118261904D01*
X108904761Y-118309523D01*
X108952380Y-118404761D01*
X108952380Y-118642857D01*
X108904761Y-118738095D01*
X108857142Y-118785714D01*
X108285714Y-120809523D02*
X108952380Y-120809523D01*
X107904761Y-121047619D02*
X108619047Y-121285714D01*
X108619047Y-120666666D01*
X107952380Y-123833333D02*
X107952380Y-123214285D01*
X108333333Y-123547619D01*
X108333333Y-123404761D01*
X108380952Y-123309523D01*
X108428571Y-123261904D01*
X108523809Y-123214285D01*
X108761904Y-123214285D01*
X108857142Y-123261904D01*
X108904761Y-123309523D01*
X108952380Y-123404761D01*
X108952380Y-123690476D01*
X108904761Y-123785714D01*
X108857142Y-123833333D01*
X108047619Y-126285714D02*
X108000000Y-126238095D01*
X107952380Y-126142857D01*
X107952380Y-125904761D01*
X108000000Y-125809523D01*
X108047619Y-125761904D01*
X108142857Y-125714285D01*
X108238095Y-125714285D01*
X108380952Y-125761904D01*
X108952380Y-126333333D01*
X108952380Y-125714285D01*
X108952380Y-128214285D02*
X108952380Y-128785714D01*
X108952380Y-128500000D02*
X107952380Y-128500000D01*
X108095238Y-128595238D01*
X108190476Y-128690476D01*
X108238095Y-128785714D01*
D12*
X178840000Y-127060000D02*
X178840000Y-125600000D01*
X182000000Y-127060000D02*
X182000000Y-124900000D01*
X182000000Y-127060000D02*
X181070000Y-127060000D01*
X178840000Y-127060000D02*
X179770000Y-127060000D01*
X133250000Y-89490000D02*
X134750000Y-89490000D01*
X131750000Y-92710000D02*
X134750000Y-92710000D01*
X177146267Y-74815000D02*
X176803733Y-74815000D01*
X177146267Y-75835000D02*
X176803733Y-75835000D01*
X122972000Y-120728000D02*
X123522000Y-120728000D01*
X119302000Y-116508000D02*
X119302000Y-117058000D01*
X119852000Y-116508000D02*
X119302000Y-116508000D01*
X123522000Y-116508000D02*
X123522000Y-117058000D01*
X122972000Y-116508000D02*
X123522000Y-116508000D01*
X119302000Y-120728000D02*
X119302000Y-120178000D01*
X119852000Y-120728000D02*
X119302000Y-120728000D01*
X181900000Y-103314000D02*
X181900000Y-103158000D01*
X181900000Y-105630000D02*
X181900000Y-105474000D01*
X179298870Y-103314163D02*
G75*
G02*
X181380961Y-103314000I1041130J-1079837D01*
G01*
X179298870Y-105473837D02*
G75*
G03*
X181380961Y-105474000I1041130J1079837D01*
G01*
X178667665Y-103315392D02*
G75*
G02*
X181900000Y-103158484I1672335J-1078608D01*
G01*
X178667665Y-105472608D02*
G75*
G03*
X181900000Y-105629516I1672335J1078608D01*
G01*
X190304267Y-115064000D02*
X189961733Y-115064000D01*
X190304267Y-114044000D02*
X189961733Y-114044000D01*
X176786000Y-113620733D02*
X176786000Y-113963267D01*
X175766000Y-113620733D02*
X175766000Y-113963267D01*
X137570000Y-140088733D02*
X137570000Y-140431267D01*
X138590000Y-140088733D02*
X138590000Y-140431267D01*
X116272000Y-135950000D02*
X116272000Y-134620000D01*
X117602000Y-135950000D02*
X116272000Y-135950000D01*
X118872000Y-135950000D02*
X118872000Y-133290000D01*
X118872000Y-133290000D02*
X141792000Y-133290000D01*
X118872000Y-135950000D02*
X141792000Y-135950000D01*
X141792000Y-135950000D02*
X141792000Y-133290000D01*
X113090000Y-129600000D02*
X111760000Y-129600000D01*
X113090000Y-128270000D02*
X113090000Y-129600000D01*
X113090000Y-127000000D02*
X110430000Y-127000000D01*
X110430000Y-127000000D02*
X110430000Y-109160000D01*
X113090000Y-127000000D02*
X113090000Y-109160000D01*
X113090000Y-109160000D02*
X110430000Y-109160000D01*
X121668000Y-125901267D02*
X121668000Y-125558733D01*
X120648000Y-125901267D02*
X120648000Y-125558733D01*
X157865000Y-81288748D02*
X157865000Y-81811252D01*
X159285000Y-81288748D02*
X159285000Y-81811252D01*
X170186252Y-76385000D02*
X169663748Y-76385000D01*
X170186252Y-74965000D02*
X169663748Y-74965000D01*
X173388748Y-68415000D02*
X173911252Y-68415000D01*
X173388748Y-69835000D02*
X173911252Y-69835000D01*
X142270000Y-63290000D02*
X150505000Y-63290000D01*
X150505000Y-63290000D02*
X150505000Y-58770000D01*
X150505000Y-58770000D02*
X142270000Y-58770000D01*
X157465000Y-68438748D02*
X157465000Y-68961252D01*
X158885000Y-68438748D02*
X158885000Y-68961252D01*
X155360000Y-65511252D02*
X155360000Y-64988748D01*
X153940000Y-65511252D02*
X153940000Y-64988748D01*
X173886252Y-67160000D02*
X173363748Y-67160000D01*
X173886252Y-65740000D02*
X173363748Y-65740000D01*
X155435000Y-76161252D02*
X155435000Y-75638748D01*
X154015000Y-76161252D02*
X154015000Y-75638748D01*
X179460000Y-81271252D02*
X179460000Y-80748748D01*
X180880000Y-81271252D02*
X180880000Y-80748748D01*
X171061252Y-56185000D02*
X170538748Y-56185000D01*
X171061252Y-54765000D02*
X170538748Y-54765000D01*
X137788733Y-89820000D02*
X138131267Y-89820000D01*
X137788733Y-90840000D02*
X138131267Y-90840000D01*
X171061252Y-85785000D02*
X170538748Y-85785000D01*
X171061252Y-84365000D02*
X170538748Y-84365000D01*
X143165000Y-107111252D02*
X143165000Y-106588748D01*
X144585000Y-107111252D02*
X144585000Y-106588748D01*
X145190000Y-106588748D02*
X145190000Y-107111252D01*
X146610000Y-106588748D02*
X146610000Y-107111252D01*
X178757733Y-132840000D02*
X179100267Y-132840000D01*
X178757733Y-133860000D02*
X179100267Y-133860000D01*
X174500000Y-119551267D02*
X174500000Y-119208733D01*
X173480000Y-119551267D02*
X173480000Y-119208733D01*
X167990000Y-111835000D02*
X167990000Y-103600000D01*
X163470000Y-111835000D02*
X167990000Y-111835000D01*
X163470000Y-103600000D02*
X163470000Y-111835000D01*
X186450000Y-123068733D02*
X186450000Y-123411267D01*
X185430000Y-123068733D02*
X185430000Y-123411267D01*
X187704000Y-119716733D02*
X187704000Y-120059267D01*
X188724000Y-119716733D02*
X188724000Y-120059267D01*
X190718000Y-103666000D02*
X190718000Y-103822000D01*
X190718000Y-105982000D02*
X190718000Y-106138000D01*
X193950335Y-103823392D02*
G75*
G03*
X190718000Y-103666484I-1672335J-1078608D01*
G01*
X193950335Y-105980608D02*
G75*
G02*
X190718000Y-106137516I-1672335J1078608D01*
G01*
X193319130Y-103822163D02*
G75*
G03*
X191237039Y-103822000I-1041130J-1079837D01*
G01*
X193319130Y-105981837D02*
G75*
G02*
X191237039Y-105982000I-1041130J1079837D01*
G01*
X168410000Y-63520000D02*
X175190000Y-63520000D01*
X168410000Y-63520000D02*
X168410000Y-57050000D01*
X175190000Y-63520000D02*
X175190000Y-57050000D01*
X168385000Y-77055000D02*
X168385000Y-83525000D01*
X175165000Y-77055000D02*
X175165000Y-83525000D01*
X175165000Y-77055000D02*
X168385000Y-77055000D01*
X173854000Y-110454000D02*
X172094000Y-110454000D01*
X172094000Y-113524000D02*
X174524000Y-113524000D01*
X183190000Y-111000000D02*
X182260000Y-111000000D01*
X180030000Y-111000000D02*
X180960000Y-111000000D01*
X180030000Y-111000000D02*
X180030000Y-113160000D01*
X183190000Y-111000000D02*
X183190000Y-112460000D01*
X157260000Y-81203733D02*
X157260000Y-81546267D01*
X156240000Y-81203733D02*
X156240000Y-81546267D01*
X163510000Y-80553733D02*
X163510000Y-80896267D01*
X162490000Y-80553733D02*
X162490000Y-80896267D01*
X160865000Y-80553733D02*
X160865000Y-80896267D01*
X161885000Y-80553733D02*
X161885000Y-80896267D01*
X157528733Y-79135000D02*
X157871267Y-79135000D01*
X157528733Y-78115000D02*
X157871267Y-78115000D01*
X155260000Y-69046267D02*
X155260000Y-68703733D01*
X154240000Y-69046267D02*
X154240000Y-68703733D01*
X158685000Y-72128733D02*
X158685000Y-72471267D01*
X157665000Y-72128733D02*
X157665000Y-72471267D01*
X177146267Y-70990000D02*
X176803733Y-70990000D01*
X177146267Y-72010000D02*
X176803733Y-72010000D01*
X177146267Y-72840000D02*
X176803733Y-72840000D01*
X177146267Y-73860000D02*
X176803733Y-73860000D01*
X155285000Y-72496267D02*
X155285000Y-72153733D01*
X154265000Y-72496267D02*
X154265000Y-72153733D01*
X173403733Y-70990000D02*
X173746267Y-70990000D01*
X173403733Y-72010000D02*
X173746267Y-72010000D01*
X173403733Y-72840000D02*
X173746267Y-72840000D01*
X173403733Y-73860000D02*
X173746267Y-73860000D01*
X173403733Y-74815000D02*
X173746267Y-74815000D01*
X173403733Y-75835000D02*
X173746267Y-75835000D01*
X157080000Y-61518733D02*
X157080000Y-61861267D01*
X158100000Y-61518733D02*
X158100000Y-61861267D01*
X183865000Y-80371267D02*
X183865000Y-80028733D01*
X184885000Y-80371267D02*
X184885000Y-80028733D01*
X148950000Y-93721267D02*
X148950000Y-93378733D01*
X149970000Y-93721267D02*
X149970000Y-93378733D01*
X170859267Y-108968000D02*
X170516733Y-108968000D01*
X170859267Y-107948000D02*
X170516733Y-107948000D01*
X190582733Y-129034000D02*
X190925267Y-129034000D01*
X190582733Y-128014000D02*
X190925267Y-128014000D01*
X143150000Y-102100000D02*
G75*
G03*
X143150000Y-102100000I-1750000J0D01*
G01*
X169035000Y-73410000D02*
X169035000Y-73885000D01*
X169035000Y-73885000D02*
X168560000Y-73885000D01*
X161815000Y-67140000D02*
X161815000Y-66665000D01*
X161815000Y-66665000D02*
X162290000Y-66665000D01*
X161815000Y-73410000D02*
X161815000Y-73885000D01*
X161815000Y-73885000D02*
X162290000Y-73885000D01*
X169035000Y-67140000D02*
X169035000Y-66665000D01*
X145240000Y-101250000D02*
X145240000Y-102750000D01*
X145240000Y-101250000D02*
X145240000Y-99750000D01*
X148460000Y-101250000D02*
X148460000Y-102750000D01*
X148460000Y-101250000D02*
X148460000Y-98325000D01*
X185494000Y-131232000D02*
X182494000Y-131232000D01*
X183994000Y-134452000D02*
X182494000Y-134452000D01*
X176566000Y-124578000D02*
X176566000Y-122818000D01*
X173496000Y-122818000D02*
X173496000Y-125248000D01*
X191123000Y-122350000D02*
X191848000Y-122350000D01*
X191848000Y-122350000D02*
X191848000Y-123075000D01*
X188353000Y-126570000D02*
X187628000Y-126570000D01*
X187628000Y-126570000D02*
X187628000Y-125845000D01*
X191123000Y-126570000D02*
X191848000Y-126570000D01*
X191848000Y-126570000D02*
X191848000Y-125845000D01*
X188353000Y-122350000D02*
X187628000Y-122350000D01*
D11*
X179812380Y-124321904D02*
X180621904Y-124321904D01*
X180717142Y-124274285D01*
X180764761Y-124226666D01*
X180812380Y-124131428D01*
X180812380Y-123940952D01*
X180764761Y-123845714D01*
X180717142Y-123798095D01*
X180621904Y-123750476D01*
X179812380Y-123750476D01*
X180240952Y-123131428D02*
X180193333Y-123226666D01*
X180145714Y-123274285D01*
X180050476Y-123321904D01*
X180002857Y-123321904D01*
X179907619Y-123274285D01*
X179860000Y-123226666D01*
X179812380Y-123131428D01*
X179812380Y-122940952D01*
X179860000Y-122845714D01*
X179907619Y-122798095D01*
X180002857Y-122750476D01*
X180050476Y-122750476D01*
X180145714Y-122798095D01*
X180193333Y-122845714D01*
X180240952Y-122940952D01*
X180240952Y-123131428D01*
X180288571Y-123226666D01*
X180336190Y-123274285D01*
X180431428Y-123321904D01*
X180621904Y-123321904D01*
X180717142Y-123274285D01*
X180764761Y-123226666D01*
X180812380Y-123131428D01*
X180812380Y-122940952D01*
X180764761Y-122845714D01*
X180717142Y-122798095D01*
X180621904Y-122750476D01*
X180431428Y-122750476D01*
X180336190Y-122798095D01*
X180288571Y-122845714D01*
X180240952Y-122940952D01*
X182542380Y-130142857D02*
X182066190Y-130476190D01*
X182542380Y-130714285D02*
X181542380Y-130714285D01*
X181542380Y-130333333D01*
X181590000Y-130238095D01*
X181637619Y-130190476D01*
X181732857Y-130142857D01*
X181875714Y-130142857D01*
X181970952Y-130190476D01*
X182018571Y-130238095D01*
X182066190Y-130333333D01*
X182066190Y-130714285D01*
X181542380Y-129809523D02*
X181542380Y-129190476D01*
X181923333Y-129523809D01*
X181923333Y-129380952D01*
X181970952Y-129285714D01*
X182018571Y-129238095D01*
X182113809Y-129190476D01*
X182351904Y-129190476D01*
X182447142Y-129238095D01*
X182494761Y-129285714D01*
X182542380Y-129380952D01*
X182542380Y-129666666D01*
X182494761Y-129761904D01*
X182447142Y-129809523D01*
X181542380Y-128857142D02*
X181542380Y-128238095D01*
X181923333Y-128571428D01*
X181923333Y-128428571D01*
X181970952Y-128333333D01*
X182018571Y-128285714D01*
X182113809Y-128238095D01*
X182351904Y-128238095D01*
X182447142Y-128285714D01*
X182494761Y-128333333D01*
X182542380Y-128428571D01*
X182542380Y-128714285D01*
X182494761Y-128809523D01*
X182447142Y-128857142D01*
X132363095Y-93077380D02*
X132363095Y-93886904D01*
X132410714Y-93982142D01*
X132458333Y-94029761D01*
X132553571Y-94077380D01*
X132744047Y-94077380D01*
X132839285Y-94029761D01*
X132886904Y-93982142D01*
X132934523Y-93886904D01*
X132934523Y-93077380D01*
X133315476Y-93077380D02*
X133934523Y-93077380D01*
X133601190Y-93458333D01*
X133744047Y-93458333D01*
X133839285Y-93505952D01*
X133886904Y-93553571D01*
X133934523Y-93648809D01*
X133934523Y-93886904D01*
X133886904Y-93982142D01*
X133839285Y-94029761D01*
X133744047Y-94077380D01*
X133458333Y-94077380D01*
X133363095Y-94029761D01*
X133315476Y-93982142D01*
X187702380Y-73965476D02*
X186702380Y-73965476D01*
X186702380Y-73584523D01*
X186750000Y-73489285D01*
X186797619Y-73441666D01*
X186892857Y-73394047D01*
X187035714Y-73394047D01*
X187130952Y-73441666D01*
X187178571Y-73489285D01*
X187226190Y-73584523D01*
X187226190Y-73965476D01*
X187178571Y-72965476D02*
X187178571Y-72632142D01*
X187702380Y-72489285D02*
X187702380Y-72965476D01*
X186702380Y-72965476D01*
X186702380Y-72489285D01*
X187702380Y-71536904D02*
X187702380Y-72108333D01*
X187702380Y-71822619D02*
X186702380Y-71822619D01*
X186845238Y-71917857D01*
X186940476Y-72013095D01*
X186988095Y-72108333D01*
X150337142Y-107342380D02*
X150003809Y-106866190D01*
X149765714Y-107342380D02*
X149765714Y-106342380D01*
X150146666Y-106342380D01*
X150241904Y-106390000D01*
X150289523Y-106437619D01*
X150337142Y-106532857D01*
X150337142Y-106675714D01*
X150289523Y-106770952D01*
X150241904Y-106818571D01*
X150146666Y-106866190D01*
X149765714Y-106866190D01*
X150718095Y-106437619D02*
X150765714Y-106390000D01*
X150860952Y-106342380D01*
X151099047Y-106342380D01*
X151194285Y-106390000D01*
X151241904Y-106437619D01*
X151289523Y-106532857D01*
X151289523Y-106628095D01*
X151241904Y-106770952D01*
X150670476Y-107342380D01*
X151289523Y-107342380D01*
X151622857Y-106342380D02*
X152241904Y-106342380D01*
X151908571Y-106723333D01*
X152051428Y-106723333D01*
X152146666Y-106770952D01*
X152194285Y-106818571D01*
X152241904Y-106913809D01*
X152241904Y-107151904D01*
X152194285Y-107247142D01*
X152146666Y-107294761D01*
X152051428Y-107342380D01*
X151765714Y-107342380D01*
X151670476Y-107294761D01*
X151622857Y-107247142D01*
X150437142Y-105942380D02*
X150103809Y-105466190D01*
X149865714Y-105942380D02*
X149865714Y-104942380D01*
X150246666Y-104942380D01*
X150341904Y-104990000D01*
X150389523Y-105037619D01*
X150437142Y-105132857D01*
X150437142Y-105275714D01*
X150389523Y-105370952D01*
X150341904Y-105418571D01*
X150246666Y-105466190D01*
X149865714Y-105466190D01*
X150818095Y-105037619D02*
X150865714Y-104990000D01*
X150960952Y-104942380D01*
X151199047Y-104942380D01*
X151294285Y-104990000D01*
X151341904Y-105037619D01*
X151389523Y-105132857D01*
X151389523Y-105228095D01*
X151341904Y-105370952D01*
X150770476Y-105942380D01*
X151389523Y-105942380D01*
X151770476Y-105037619D02*
X151818095Y-104990000D01*
X151913333Y-104942380D01*
X152151428Y-104942380D01*
X152246666Y-104990000D01*
X152294285Y-105037619D01*
X152341904Y-105132857D01*
X152341904Y-105228095D01*
X152294285Y-105370952D01*
X151722857Y-105942380D01*
X152341904Y-105942380D01*
X148542380Y-92307857D02*
X148066190Y-92641190D01*
X148542380Y-92879285D02*
X147542380Y-92879285D01*
X147542380Y-92498333D01*
X147590000Y-92403095D01*
X147637619Y-92355476D01*
X147732857Y-92307857D01*
X147875714Y-92307857D01*
X147970952Y-92355476D01*
X148018571Y-92403095D01*
X148066190Y-92498333D01*
X148066190Y-92879285D01*
X147637619Y-91926904D02*
X147590000Y-91879285D01*
X147542380Y-91784047D01*
X147542380Y-91545952D01*
X147590000Y-91450714D01*
X147637619Y-91403095D01*
X147732857Y-91355476D01*
X147828095Y-91355476D01*
X147970952Y-91403095D01*
X148542380Y-91974523D01*
X148542380Y-91355476D01*
X148542380Y-90403095D02*
X148542380Y-90974523D01*
X148542380Y-90688809D02*
X147542380Y-90688809D01*
X147685238Y-90784047D01*
X147780476Y-90879285D01*
X147828095Y-90974523D01*
X147342380Y-92282857D02*
X146866190Y-92616190D01*
X147342380Y-92854285D02*
X146342380Y-92854285D01*
X146342380Y-92473333D01*
X146390000Y-92378095D01*
X146437619Y-92330476D01*
X146532857Y-92282857D01*
X146675714Y-92282857D01*
X146770952Y-92330476D01*
X146818571Y-92378095D01*
X146866190Y-92473333D01*
X146866190Y-92854285D01*
X146437619Y-91901904D02*
X146390000Y-91854285D01*
X146342380Y-91759047D01*
X146342380Y-91520952D01*
X146390000Y-91425714D01*
X146437619Y-91378095D01*
X146532857Y-91330476D01*
X146628095Y-91330476D01*
X146770952Y-91378095D01*
X147342380Y-91949523D01*
X147342380Y-91330476D01*
X146342380Y-90711428D02*
X146342380Y-90616190D01*
X146390000Y-90520952D01*
X146437619Y-90473333D01*
X146532857Y-90425714D01*
X146723333Y-90378095D01*
X146961428Y-90378095D01*
X147151904Y-90425714D01*
X147247142Y-90473333D01*
X147294761Y-90520952D01*
X147342380Y-90616190D01*
X147342380Y-90711428D01*
X147294761Y-90806666D01*
X147247142Y-90854285D01*
X147151904Y-90901904D01*
X146961428Y-90949523D01*
X146723333Y-90949523D01*
X146532857Y-90901904D01*
X146437619Y-90854285D01*
X146390000Y-90806666D01*
X146342380Y-90711428D01*
X179332142Y-75802380D02*
X178998809Y-75326190D01*
X178760714Y-75802380D02*
X178760714Y-74802380D01*
X179141666Y-74802380D01*
X179236904Y-74850000D01*
X179284523Y-74897619D01*
X179332142Y-74992857D01*
X179332142Y-75135714D01*
X179284523Y-75230952D01*
X179236904Y-75278571D01*
X179141666Y-75326190D01*
X178760714Y-75326190D01*
X180284523Y-75802380D02*
X179713095Y-75802380D01*
X179998809Y-75802380D02*
X179998809Y-74802380D01*
X179903571Y-74945238D01*
X179808333Y-75040476D01*
X179713095Y-75088095D01*
X181236904Y-75802380D02*
X180665476Y-75802380D01*
X180951190Y-75802380D02*
X180951190Y-74802380D01*
X180855952Y-74945238D01*
X180760714Y-75040476D01*
X180665476Y-75088095D01*
X118110095Y-114768380D02*
X118110095Y-115577904D01*
X118157714Y-115673142D01*
X118205333Y-115720761D01*
X118300571Y-115768380D01*
X118491047Y-115768380D01*
X118586285Y-115720761D01*
X118633904Y-115673142D01*
X118681523Y-115577904D01*
X118681523Y-114768380D01*
X119681523Y-115768380D02*
X119110095Y-115768380D01*
X119395809Y-115768380D02*
X119395809Y-114768380D01*
X119300571Y-114911238D01*
X119205333Y-115006476D01*
X119110095Y-115054095D01*
X179261904Y-101702380D02*
X179261904Y-100702380D01*
X179500000Y-100702380D01*
X179642857Y-100750000D01*
X179738095Y-100845238D01*
X179785714Y-100940476D01*
X179833333Y-101130952D01*
X179833333Y-101273809D01*
X179785714Y-101464285D01*
X179738095Y-101559523D01*
X179642857Y-101654761D01*
X179500000Y-101702380D01*
X179261904Y-101702380D01*
X180785714Y-101702380D02*
X180214285Y-101702380D01*
X180500000Y-101702380D02*
X180500000Y-100702380D01*
X180404761Y-100845238D01*
X180309523Y-100940476D01*
X180214285Y-100988095D01*
X188079142Y-113736380D02*
X187745809Y-113260190D01*
X187507714Y-113736380D02*
X187507714Y-112736380D01*
X187888666Y-112736380D01*
X187983904Y-112784000D01*
X188031523Y-112831619D01*
X188079142Y-112926857D01*
X188079142Y-113069714D01*
X188031523Y-113164952D01*
X187983904Y-113212571D01*
X187888666Y-113260190D01*
X187507714Y-113260190D01*
X188936285Y-113069714D02*
X188936285Y-113736380D01*
X188698190Y-112688761D02*
X188460095Y-113403047D01*
X189079142Y-113403047D01*
X189936285Y-112736380D02*
X189460095Y-112736380D01*
X189412476Y-113212571D01*
X189460095Y-113164952D01*
X189555333Y-113117333D01*
X189793428Y-113117333D01*
X189888666Y-113164952D01*
X189936285Y-113212571D01*
X189983904Y-113307809D01*
X189983904Y-113545904D01*
X189936285Y-113641142D01*
X189888666Y-113688761D01*
X189793428Y-113736380D01*
X189555333Y-113736380D01*
X189460095Y-113688761D01*
X189412476Y-113641142D01*
X178158380Y-114434857D02*
X177682190Y-114768190D01*
X178158380Y-115006285D02*
X177158380Y-115006285D01*
X177158380Y-114625333D01*
X177206000Y-114530095D01*
X177253619Y-114482476D01*
X177348857Y-114434857D01*
X177491714Y-114434857D01*
X177586952Y-114482476D01*
X177634571Y-114530095D01*
X177682190Y-114625333D01*
X177682190Y-115006285D01*
X177491714Y-113577714D02*
X178158380Y-113577714D01*
X177110761Y-113815809D02*
X177825047Y-114053904D01*
X177825047Y-113434857D01*
X177491714Y-112625333D02*
X178158380Y-112625333D01*
X177110761Y-112863428D02*
X177825047Y-113101523D01*
X177825047Y-112482476D01*
X169107142Y-118452380D02*
X168773809Y-117976190D01*
X168535714Y-118452380D02*
X168535714Y-117452380D01*
X168916666Y-117452380D01*
X169011904Y-117500000D01*
X169059523Y-117547619D01*
X169107142Y-117642857D01*
X169107142Y-117785714D01*
X169059523Y-117880952D01*
X169011904Y-117928571D01*
X168916666Y-117976190D01*
X168535714Y-117976190D01*
X169964285Y-117785714D02*
X169964285Y-118452380D01*
X169726190Y-117404761D02*
X169488095Y-118119047D01*
X170107142Y-118119047D01*
X170440476Y-117547619D02*
X170488095Y-117500000D01*
X170583333Y-117452380D01*
X170821428Y-117452380D01*
X170916666Y-117500000D01*
X170964285Y-117547619D01*
X171011904Y-117642857D01*
X171011904Y-117738095D01*
X170964285Y-117880952D01*
X170392857Y-118452380D01*
X171011904Y-118452380D01*
X185031142Y-135952380D02*
X184697809Y-135476190D01*
X184459714Y-135952380D02*
X184459714Y-134952380D01*
X184840666Y-134952380D01*
X184935904Y-135000000D01*
X184983523Y-135047619D01*
X185031142Y-135142857D01*
X185031142Y-135285714D01*
X184983523Y-135380952D01*
X184935904Y-135428571D01*
X184840666Y-135476190D01*
X184459714Y-135476190D01*
X185888285Y-135285714D02*
X185888285Y-135952380D01*
X185650190Y-134904761D02*
X185412095Y-135619047D01*
X186031142Y-135619047D01*
X186935904Y-135952380D02*
X186364476Y-135952380D01*
X186650190Y-135952380D02*
X186650190Y-134952380D01*
X186554952Y-135095238D01*
X186459714Y-135190476D01*
X186364476Y-135238095D01*
X169107142Y-122202380D02*
X168773809Y-121726190D01*
X168535714Y-122202380D02*
X168535714Y-121202380D01*
X168916666Y-121202380D01*
X169011904Y-121250000D01*
X169059523Y-121297619D01*
X169107142Y-121392857D01*
X169107142Y-121535714D01*
X169059523Y-121630952D01*
X169011904Y-121678571D01*
X168916666Y-121726190D01*
X168535714Y-121726190D01*
X169964285Y-121535714D02*
X169964285Y-122202380D01*
X169726190Y-121154761D02*
X169488095Y-121869047D01*
X170107142Y-121869047D01*
X170678571Y-121202380D02*
X170773809Y-121202380D01*
X170869047Y-121250000D01*
X170916666Y-121297619D01*
X170964285Y-121392857D01*
X171011904Y-121583333D01*
X171011904Y-121821428D01*
X170964285Y-122011904D01*
X170916666Y-122107142D01*
X170869047Y-122154761D01*
X170773809Y-122202380D01*
X170678571Y-122202380D01*
X170583333Y-122154761D01*
X170535714Y-122107142D01*
X170488095Y-122011904D01*
X170440476Y-121821428D01*
X170440476Y-121583333D01*
X170488095Y-121392857D01*
X170535714Y-121297619D01*
X170583333Y-121250000D01*
X170678571Y-121202380D01*
X184857142Y-137452380D02*
X184523809Y-136976190D01*
X184285714Y-137452380D02*
X184285714Y-136452380D01*
X184666666Y-136452380D01*
X184761904Y-136500000D01*
X184809523Y-136547619D01*
X184857142Y-136642857D01*
X184857142Y-136785714D01*
X184809523Y-136880952D01*
X184761904Y-136928571D01*
X184666666Y-136976190D01*
X184285714Y-136976190D01*
X185190476Y-136452380D02*
X185809523Y-136452380D01*
X185476190Y-136833333D01*
X185619047Y-136833333D01*
X185714285Y-136880952D01*
X185761904Y-136928571D01*
X185809523Y-137023809D01*
X185809523Y-137261904D01*
X185761904Y-137357142D01*
X185714285Y-137404761D01*
X185619047Y-137452380D01*
X185333333Y-137452380D01*
X185238095Y-137404761D01*
X185190476Y-137357142D01*
X186285714Y-137452380D02*
X186476190Y-137452380D01*
X186571428Y-137404761D01*
X186619047Y-137357142D01*
X186714285Y-137214285D01*
X186761904Y-137023809D01*
X186761904Y-136642857D01*
X186714285Y-136547619D01*
X186666666Y-136500000D01*
X186571428Y-136452380D01*
X186380952Y-136452380D01*
X186285714Y-136500000D01*
X186238095Y-136547619D01*
X186190476Y-136642857D01*
X186190476Y-136880952D01*
X186238095Y-136976190D01*
X186285714Y-137023809D01*
X186380952Y-137071428D01*
X186571428Y-137071428D01*
X186666666Y-137023809D01*
X186714285Y-136976190D01*
X186761904Y-136880952D01*
X188158380Y-130690857D02*
X187682190Y-131024190D01*
X188158380Y-131262285D02*
X187158380Y-131262285D01*
X187158380Y-130881333D01*
X187206000Y-130786095D01*
X187253619Y-130738476D01*
X187348857Y-130690857D01*
X187491714Y-130690857D01*
X187586952Y-130738476D01*
X187634571Y-130786095D01*
X187682190Y-130881333D01*
X187682190Y-131262285D01*
X187158380Y-130357523D02*
X187158380Y-129738476D01*
X187539333Y-130071809D01*
X187539333Y-129928952D01*
X187586952Y-129833714D01*
X187634571Y-129786095D01*
X187729809Y-129738476D01*
X187967904Y-129738476D01*
X188063142Y-129786095D01*
X188110761Y-129833714D01*
X188158380Y-129928952D01*
X188158380Y-130214666D01*
X188110761Y-130309904D01*
X188063142Y-130357523D01*
X187586952Y-129167047D02*
X187539333Y-129262285D01*
X187491714Y-129309904D01*
X187396476Y-129357523D01*
X187348857Y-129357523D01*
X187253619Y-129309904D01*
X187206000Y-129262285D01*
X187158380Y-129167047D01*
X187158380Y-128976571D01*
X187206000Y-128881333D01*
X187253619Y-128833714D01*
X187348857Y-128786095D01*
X187396476Y-128786095D01*
X187491714Y-128833714D01*
X187539333Y-128881333D01*
X187586952Y-128976571D01*
X187586952Y-129167047D01*
X187634571Y-129262285D01*
X187682190Y-129309904D01*
X187777428Y-129357523D01*
X187967904Y-129357523D01*
X188063142Y-129309904D01*
X188110761Y-129262285D01*
X188158380Y-129167047D01*
X188158380Y-128976571D01*
X188110761Y-128881333D01*
X188063142Y-128833714D01*
X187967904Y-128786095D01*
X187777428Y-128786095D01*
X187682190Y-128833714D01*
X187634571Y-128881333D01*
X187586952Y-128976571D01*
X179107142Y-137952380D02*
X178773809Y-137476190D01*
X178535714Y-137952380D02*
X178535714Y-136952380D01*
X178916666Y-136952380D01*
X179011904Y-137000000D01*
X179059523Y-137047619D01*
X179107142Y-137142857D01*
X179107142Y-137285714D01*
X179059523Y-137380952D01*
X179011904Y-137428571D01*
X178916666Y-137476190D01*
X178535714Y-137476190D01*
X179440476Y-136952380D02*
X180059523Y-136952380D01*
X179726190Y-137333333D01*
X179869047Y-137333333D01*
X179964285Y-137380952D01*
X180011904Y-137428571D01*
X180059523Y-137523809D01*
X180059523Y-137761904D01*
X180011904Y-137857142D01*
X179964285Y-137904761D01*
X179869047Y-137952380D01*
X179583333Y-137952380D01*
X179488095Y-137904761D01*
X179440476Y-137857142D01*
X180392857Y-136952380D02*
X181059523Y-136952380D01*
X180630952Y-137952380D01*
X184722380Y-127906857D02*
X184246190Y-128240190D01*
X184722380Y-128478285D02*
X183722380Y-128478285D01*
X183722380Y-128097333D01*
X183770000Y-128002095D01*
X183817619Y-127954476D01*
X183912857Y-127906857D01*
X184055714Y-127906857D01*
X184150952Y-127954476D01*
X184198571Y-128002095D01*
X184246190Y-128097333D01*
X184246190Y-128478285D01*
X183722380Y-127573523D02*
X183722380Y-126954476D01*
X184103333Y-127287809D01*
X184103333Y-127144952D01*
X184150952Y-127049714D01*
X184198571Y-127002095D01*
X184293809Y-126954476D01*
X184531904Y-126954476D01*
X184627142Y-127002095D01*
X184674761Y-127049714D01*
X184722380Y-127144952D01*
X184722380Y-127430666D01*
X184674761Y-127525904D01*
X184627142Y-127573523D01*
X183722380Y-126097333D02*
X183722380Y-126287809D01*
X183770000Y-126383047D01*
X183817619Y-126430666D01*
X183960476Y-126525904D01*
X184150952Y-126573523D01*
X184531904Y-126573523D01*
X184627142Y-126525904D01*
X184674761Y-126478285D01*
X184722380Y-126383047D01*
X184722380Y-126192571D01*
X184674761Y-126097333D01*
X184627142Y-126049714D01*
X184531904Y-126002095D01*
X184293809Y-126002095D01*
X184198571Y-126049714D01*
X184150952Y-126097333D01*
X184103333Y-126192571D01*
X184103333Y-126383047D01*
X184150952Y-126478285D01*
X184198571Y-126525904D01*
X184293809Y-126573523D01*
X185952380Y-127882857D02*
X185476190Y-128216190D01*
X185952380Y-128454285D02*
X184952380Y-128454285D01*
X184952380Y-128073333D01*
X185000000Y-127978095D01*
X185047619Y-127930476D01*
X185142857Y-127882857D01*
X185285714Y-127882857D01*
X185380952Y-127930476D01*
X185428571Y-127978095D01*
X185476190Y-128073333D01*
X185476190Y-128454285D01*
X184952380Y-127549523D02*
X184952380Y-126930476D01*
X185333333Y-127263809D01*
X185333333Y-127120952D01*
X185380952Y-127025714D01*
X185428571Y-126978095D01*
X185523809Y-126930476D01*
X185761904Y-126930476D01*
X185857142Y-126978095D01*
X185904761Y-127025714D01*
X185952380Y-127120952D01*
X185952380Y-127406666D01*
X185904761Y-127501904D01*
X185857142Y-127549523D01*
X184952380Y-126025714D02*
X184952380Y-126501904D01*
X185428571Y-126549523D01*
X185380952Y-126501904D01*
X185333333Y-126406666D01*
X185333333Y-126168571D01*
X185380952Y-126073333D01*
X185428571Y-126025714D01*
X185523809Y-125978095D01*
X185761904Y-125978095D01*
X185857142Y-126025714D01*
X185904761Y-126073333D01*
X185952380Y-126168571D01*
X185952380Y-126406666D01*
X185904761Y-126501904D01*
X185857142Y-126549523D01*
X177411142Y-135580380D02*
X177077809Y-135104190D01*
X176839714Y-135580380D02*
X176839714Y-134580380D01*
X177220666Y-134580380D01*
X177315904Y-134628000D01*
X177363523Y-134675619D01*
X177411142Y-134770857D01*
X177411142Y-134913714D01*
X177363523Y-135008952D01*
X177315904Y-135056571D01*
X177220666Y-135104190D01*
X176839714Y-135104190D01*
X177744476Y-134580380D02*
X178363523Y-134580380D01*
X178030190Y-134961333D01*
X178173047Y-134961333D01*
X178268285Y-135008952D01*
X178315904Y-135056571D01*
X178363523Y-135151809D01*
X178363523Y-135389904D01*
X178315904Y-135485142D01*
X178268285Y-135532761D01*
X178173047Y-135580380D01*
X177887333Y-135580380D01*
X177792095Y-135532761D01*
X177744476Y-135485142D01*
X179220666Y-134913714D02*
X179220666Y-135580380D01*
X178982571Y-134532761D02*
X178744476Y-135247047D01*
X179363523Y-135247047D01*
X132161904Y-86414285D02*
X131780952Y-86680952D01*
X132161904Y-86871428D02*
X131361904Y-86871428D01*
X131361904Y-86566666D01*
X131400000Y-86490476D01*
X131438095Y-86452380D01*
X131514285Y-86414285D01*
X131628571Y-86414285D01*
X131704761Y-86452380D01*
X131742857Y-86490476D01*
X131780952Y-86566666D01*
X131780952Y-86871428D01*
X131438095Y-86109523D02*
X131400000Y-86071428D01*
X131361904Y-85995238D01*
X131361904Y-85804761D01*
X131400000Y-85728571D01*
X131438095Y-85690476D01*
X131514285Y-85652380D01*
X131590476Y-85652380D01*
X131704761Y-85690476D01*
X132161904Y-86147619D01*
X132161904Y-85652380D01*
X132161904Y-85271428D02*
X132161904Y-85119047D01*
X132123809Y-85042857D01*
X132085714Y-85004761D01*
X131971428Y-84928571D01*
X131819047Y-84890476D01*
X131514285Y-84890476D01*
X131438095Y-84928571D01*
X131400000Y-84966666D01*
X131361904Y-85042857D01*
X131361904Y-85195238D01*
X131400000Y-85271428D01*
X131438095Y-85309523D01*
X131514285Y-85347619D01*
X131704761Y-85347619D01*
X131780952Y-85309523D01*
X131819047Y-85271428D01*
X131857142Y-85195238D01*
X131857142Y-85042857D01*
X131819047Y-84966666D01*
X131780952Y-84928571D01*
X131704761Y-84890476D01*
X134506904Y-98504285D02*
X134125952Y-98770952D01*
X134506904Y-98961428D02*
X133706904Y-98961428D01*
X133706904Y-98656666D01*
X133745000Y-98580476D01*
X133783095Y-98542380D01*
X133859285Y-98504285D01*
X133973571Y-98504285D01*
X134049761Y-98542380D01*
X134087857Y-98580476D01*
X134125952Y-98656666D01*
X134125952Y-98961428D01*
X133783095Y-98199523D02*
X133745000Y-98161428D01*
X133706904Y-98085238D01*
X133706904Y-97894761D01*
X133745000Y-97818571D01*
X133783095Y-97780476D01*
X133859285Y-97742380D01*
X133935476Y-97742380D01*
X134049761Y-97780476D01*
X134506904Y-98237619D01*
X134506904Y-97742380D01*
X134049761Y-97285238D02*
X134011666Y-97361428D01*
X133973571Y-97399523D01*
X133897380Y-97437619D01*
X133859285Y-97437619D01*
X133783095Y-97399523D01*
X133745000Y-97361428D01*
X133706904Y-97285238D01*
X133706904Y-97132857D01*
X133745000Y-97056666D01*
X133783095Y-97018571D01*
X133859285Y-96980476D01*
X133897380Y-96980476D01*
X133973571Y-97018571D01*
X134011666Y-97056666D01*
X134049761Y-97132857D01*
X134049761Y-97285238D01*
X134087857Y-97361428D01*
X134125952Y-97399523D01*
X134202142Y-97437619D01*
X134354523Y-97437619D01*
X134430714Y-97399523D01*
X134468809Y-97361428D01*
X134506904Y-97285238D01*
X134506904Y-97132857D01*
X134468809Y-97056666D01*
X134430714Y-97018571D01*
X134354523Y-96980476D01*
X134202142Y-96980476D01*
X134125952Y-97018571D01*
X134087857Y-97056666D01*
X134049761Y-97132857D01*
X131431904Y-98554285D02*
X131050952Y-98820952D01*
X131431904Y-99011428D02*
X130631904Y-99011428D01*
X130631904Y-98706666D01*
X130670000Y-98630476D01*
X130708095Y-98592380D01*
X130784285Y-98554285D01*
X130898571Y-98554285D01*
X130974761Y-98592380D01*
X131012857Y-98630476D01*
X131050952Y-98706666D01*
X131050952Y-99011428D01*
X130708095Y-98249523D02*
X130670000Y-98211428D01*
X130631904Y-98135238D01*
X130631904Y-97944761D01*
X130670000Y-97868571D01*
X130708095Y-97830476D01*
X130784285Y-97792380D01*
X130860476Y-97792380D01*
X130974761Y-97830476D01*
X131431904Y-98287619D01*
X131431904Y-97792380D01*
X130631904Y-97525714D02*
X130631904Y-96992380D01*
X131431904Y-97335238D01*
X133211904Y-86539285D02*
X132830952Y-86805952D01*
X133211904Y-86996428D02*
X132411904Y-86996428D01*
X132411904Y-86691666D01*
X132450000Y-86615476D01*
X132488095Y-86577380D01*
X132564285Y-86539285D01*
X132678571Y-86539285D01*
X132754761Y-86577380D01*
X132792857Y-86615476D01*
X132830952Y-86691666D01*
X132830952Y-86996428D01*
X132488095Y-86234523D02*
X132450000Y-86196428D01*
X132411904Y-86120238D01*
X132411904Y-85929761D01*
X132450000Y-85853571D01*
X132488095Y-85815476D01*
X132564285Y-85777380D01*
X132640476Y-85777380D01*
X132754761Y-85815476D01*
X133211904Y-86272619D01*
X133211904Y-85777380D01*
X132411904Y-85091666D02*
X132411904Y-85244047D01*
X132450000Y-85320238D01*
X132488095Y-85358333D01*
X132602380Y-85434523D01*
X132754761Y-85472619D01*
X133059523Y-85472619D01*
X133135714Y-85434523D01*
X133173809Y-85396428D01*
X133211904Y-85320238D01*
X133211904Y-85167857D01*
X133173809Y-85091666D01*
X133135714Y-85053571D01*
X133059523Y-85015476D01*
X132869047Y-85015476D01*
X132792857Y-85053571D01*
X132754761Y-85091666D01*
X132716666Y-85167857D01*
X132716666Y-85320238D01*
X132754761Y-85396428D01*
X132792857Y-85434523D01*
X132869047Y-85472619D01*
X133456904Y-98479285D02*
X133075952Y-98745952D01*
X133456904Y-98936428D02*
X132656904Y-98936428D01*
X132656904Y-98631666D01*
X132695000Y-98555476D01*
X132733095Y-98517380D01*
X132809285Y-98479285D01*
X132923571Y-98479285D01*
X132999761Y-98517380D01*
X133037857Y-98555476D01*
X133075952Y-98631666D01*
X133075952Y-98936428D01*
X132733095Y-98174523D02*
X132695000Y-98136428D01*
X132656904Y-98060238D01*
X132656904Y-97869761D01*
X132695000Y-97793571D01*
X132733095Y-97755476D01*
X132809285Y-97717380D01*
X132885476Y-97717380D01*
X132999761Y-97755476D01*
X133456904Y-98212619D01*
X133456904Y-97717380D01*
X132656904Y-96993571D02*
X132656904Y-97374523D01*
X133037857Y-97412619D01*
X132999761Y-97374523D01*
X132961666Y-97298333D01*
X132961666Y-97107857D01*
X132999761Y-97031666D01*
X133037857Y-96993571D01*
X133114047Y-96955476D01*
X133304523Y-96955476D01*
X133380714Y-96993571D01*
X133418809Y-97031666D01*
X133456904Y-97107857D01*
X133456904Y-97298333D01*
X133418809Y-97374523D01*
X133380714Y-97412619D01*
X132431904Y-98529285D02*
X132050952Y-98795952D01*
X132431904Y-98986428D02*
X131631904Y-98986428D01*
X131631904Y-98681666D01*
X131670000Y-98605476D01*
X131708095Y-98567380D01*
X131784285Y-98529285D01*
X131898571Y-98529285D01*
X131974761Y-98567380D01*
X132012857Y-98605476D01*
X132050952Y-98681666D01*
X132050952Y-98986428D01*
X131708095Y-98224523D02*
X131670000Y-98186428D01*
X131631904Y-98110238D01*
X131631904Y-97919761D01*
X131670000Y-97843571D01*
X131708095Y-97805476D01*
X131784285Y-97767380D01*
X131860476Y-97767380D01*
X131974761Y-97805476D01*
X132431904Y-98262619D01*
X132431904Y-97767380D01*
X131898571Y-97081666D02*
X132431904Y-97081666D01*
X131593809Y-97272142D02*
X132165238Y-97462619D01*
X132165238Y-96967380D01*
X136427380Y-86417857D02*
X135951190Y-86751190D01*
X136427380Y-86989285D02*
X135427380Y-86989285D01*
X135427380Y-86608333D01*
X135475000Y-86513095D01*
X135522619Y-86465476D01*
X135617857Y-86417857D01*
X135760714Y-86417857D01*
X135855952Y-86465476D01*
X135903571Y-86513095D01*
X135951190Y-86608333D01*
X135951190Y-86989285D01*
X136427380Y-85465476D02*
X136427380Y-86036904D01*
X136427380Y-85751190D02*
X135427380Y-85751190D01*
X135570238Y-85846428D01*
X135665476Y-85941666D01*
X135713095Y-86036904D01*
X136427380Y-84989285D02*
X136427380Y-84798809D01*
X136379761Y-84703571D01*
X136332142Y-84655952D01*
X136189285Y-84560714D01*
X135998809Y-84513095D01*
X135617857Y-84513095D01*
X135522619Y-84560714D01*
X135475000Y-84608333D01*
X135427380Y-84703571D01*
X135427380Y-84894047D01*
X135475000Y-84989285D01*
X135522619Y-85036904D01*
X135617857Y-85084523D01*
X135855952Y-85084523D01*
X135951190Y-85036904D01*
X135998809Y-84989285D01*
X136046428Y-84894047D01*
X136046428Y-84703571D01*
X135998809Y-84608333D01*
X135951190Y-84560714D01*
X135855952Y-84513095D01*
X135102380Y-86267857D02*
X134626190Y-86601190D01*
X135102380Y-86839285D02*
X134102380Y-86839285D01*
X134102380Y-86458333D01*
X134150000Y-86363095D01*
X134197619Y-86315476D01*
X134292857Y-86267857D01*
X134435714Y-86267857D01*
X134530952Y-86315476D01*
X134578571Y-86363095D01*
X134626190Y-86458333D01*
X134626190Y-86839285D01*
X135102380Y-85315476D02*
X135102380Y-85886904D01*
X135102380Y-85601190D02*
X134102380Y-85601190D01*
X134245238Y-85696428D01*
X134340476Y-85791666D01*
X134388095Y-85886904D01*
X134530952Y-84744047D02*
X134483333Y-84839285D01*
X134435714Y-84886904D01*
X134340476Y-84934523D01*
X134292857Y-84934523D01*
X134197619Y-84886904D01*
X134150000Y-84839285D01*
X134102380Y-84744047D01*
X134102380Y-84553571D01*
X134150000Y-84458333D01*
X134197619Y-84410714D01*
X134292857Y-84363095D01*
X134340476Y-84363095D01*
X134435714Y-84410714D01*
X134483333Y-84458333D01*
X134530952Y-84553571D01*
X134530952Y-84744047D01*
X134578571Y-84839285D01*
X134626190Y-84886904D01*
X134721428Y-84934523D01*
X134911904Y-84934523D01*
X135007142Y-84886904D01*
X135054761Y-84839285D01*
X135102380Y-84744047D01*
X135102380Y-84553571D01*
X135054761Y-84458333D01*
X135007142Y-84410714D01*
X134911904Y-84363095D01*
X134721428Y-84363095D01*
X134626190Y-84410714D01*
X134578571Y-84458333D01*
X134530952Y-84553571D01*
X139940380Y-141282666D02*
X139464190Y-141616000D01*
X139940380Y-141854095D02*
X138940380Y-141854095D01*
X138940380Y-141473142D01*
X138988000Y-141377904D01*
X139035619Y-141330285D01*
X139130857Y-141282666D01*
X139273714Y-141282666D01*
X139368952Y-141330285D01*
X139416571Y-141377904D01*
X139464190Y-141473142D01*
X139464190Y-141854095D01*
X139940380Y-140330285D02*
X139940380Y-140901714D01*
X139940380Y-140616000D02*
X138940380Y-140616000D01*
X139083238Y-140711238D01*
X139178476Y-140806476D01*
X139226095Y-140901714D01*
X114724380Y-134953333D02*
X115438666Y-134953333D01*
X115581523Y-135000952D01*
X115676761Y-135096190D01*
X115724380Y-135239047D01*
X115724380Y-135334285D01*
X114819619Y-134524761D02*
X114772000Y-134477142D01*
X114724380Y-134381904D01*
X114724380Y-134143809D01*
X114772000Y-134048571D01*
X114819619Y-134000952D01*
X114914857Y-133953333D01*
X115010095Y-133953333D01*
X115152952Y-134000952D01*
X115724380Y-134572380D01*
X115724380Y-133953333D01*
X111426666Y-130052380D02*
X111426666Y-130766666D01*
X111379047Y-130909523D01*
X111283809Y-131004761D01*
X111140952Y-131052380D01*
X111045714Y-131052380D01*
X112426666Y-131052380D02*
X111855238Y-131052380D01*
X112140952Y-131052380D02*
X112140952Y-130052380D01*
X112045714Y-130195238D01*
X111950476Y-130290476D01*
X111855238Y-130338095D01*
X120085142Y-125896666D02*
X120132761Y-125944285D01*
X120180380Y-126087142D01*
X120180380Y-126182380D01*
X120132761Y-126325238D01*
X120037523Y-126420476D01*
X119942285Y-126468095D01*
X119751809Y-126515714D01*
X119608952Y-126515714D01*
X119418476Y-126468095D01*
X119323238Y-126420476D01*
X119228000Y-126325238D01*
X119180380Y-126182380D01*
X119180380Y-126087142D01*
X119228000Y-125944285D01*
X119275619Y-125896666D01*
X120180380Y-124944285D02*
X120180380Y-125515714D01*
X120180380Y-125230000D02*
X119180380Y-125230000D01*
X119323238Y-125325238D01*
X119418476Y-125420476D01*
X119466095Y-125515714D01*
X159157142Y-84666666D02*
X159204761Y-84714285D01*
X159252380Y-84857142D01*
X159252380Y-84952380D01*
X159204761Y-85095238D01*
X159109523Y-85190476D01*
X159014285Y-85238095D01*
X158823809Y-85285714D01*
X158680952Y-85285714D01*
X158490476Y-85238095D01*
X158395238Y-85190476D01*
X158300000Y-85095238D01*
X158252380Y-84952380D01*
X158252380Y-84857142D01*
X158300000Y-84714285D01*
X158347619Y-84666666D01*
X158347619Y-84285714D02*
X158300000Y-84238095D01*
X158252380Y-84142857D01*
X158252380Y-83904761D01*
X158300000Y-83809523D01*
X158347619Y-83761904D01*
X158442857Y-83714285D01*
X158538095Y-83714285D01*
X158680952Y-83761904D01*
X159252380Y-84333333D01*
X159252380Y-83714285D01*
X167083333Y-76357142D02*
X167035714Y-76404761D01*
X166892857Y-76452380D01*
X166797619Y-76452380D01*
X166654761Y-76404761D01*
X166559523Y-76309523D01*
X166511904Y-76214285D01*
X166464285Y-76023809D01*
X166464285Y-75880952D01*
X166511904Y-75690476D01*
X166559523Y-75595238D01*
X166654761Y-75500000D01*
X166797619Y-75452380D01*
X166892857Y-75452380D01*
X167035714Y-75500000D01*
X167083333Y-75547619D01*
X167416666Y-75452380D02*
X168035714Y-75452380D01*
X167702380Y-75833333D01*
X167845238Y-75833333D01*
X167940476Y-75880952D01*
X167988095Y-75928571D01*
X168035714Y-76023809D01*
X168035714Y-76261904D01*
X167988095Y-76357142D01*
X167940476Y-76404761D01*
X167845238Y-76452380D01*
X167559523Y-76452380D01*
X167464285Y-76404761D01*
X167416666Y-76357142D01*
X176383333Y-69457142D02*
X176335714Y-69504761D01*
X176192857Y-69552380D01*
X176097619Y-69552380D01*
X175954761Y-69504761D01*
X175859523Y-69409523D01*
X175811904Y-69314285D01*
X175764285Y-69123809D01*
X175764285Y-68980952D01*
X175811904Y-68790476D01*
X175859523Y-68695238D01*
X175954761Y-68600000D01*
X176097619Y-68552380D01*
X176192857Y-68552380D01*
X176335714Y-68600000D01*
X176383333Y-68647619D01*
X177240476Y-68885714D02*
X177240476Y-69552380D01*
X177002380Y-68504761D02*
X176764285Y-69219047D01*
X177383333Y-69219047D01*
X145753333Y-64487142D02*
X145705714Y-64534761D01*
X145562857Y-64582380D01*
X145467619Y-64582380D01*
X145324761Y-64534761D01*
X145229523Y-64439523D01*
X145181904Y-64344285D01*
X145134285Y-64153809D01*
X145134285Y-64010952D01*
X145181904Y-63820476D01*
X145229523Y-63725238D01*
X145324761Y-63630000D01*
X145467619Y-63582380D01*
X145562857Y-63582380D01*
X145705714Y-63630000D01*
X145753333Y-63677619D01*
X146658095Y-63582380D02*
X146181904Y-63582380D01*
X146134285Y-64058571D01*
X146181904Y-64010952D01*
X146277142Y-63963333D01*
X146515238Y-63963333D01*
X146610476Y-64010952D01*
X146658095Y-64058571D01*
X146705714Y-64153809D01*
X146705714Y-64391904D01*
X146658095Y-64487142D01*
X146610476Y-64534761D01*
X146515238Y-64582380D01*
X146277142Y-64582380D01*
X146181904Y-64534761D01*
X146134285Y-64487142D01*
X160287142Y-68696666D02*
X160334761Y-68744285D01*
X160382380Y-68887142D01*
X160382380Y-68982380D01*
X160334761Y-69125238D01*
X160239523Y-69220476D01*
X160144285Y-69268095D01*
X159953809Y-69315714D01*
X159810952Y-69315714D01*
X159620476Y-69268095D01*
X159525238Y-69220476D01*
X159430000Y-69125238D01*
X159382380Y-68982380D01*
X159382380Y-68887142D01*
X159430000Y-68744285D01*
X159477619Y-68696666D01*
X159810952Y-68125238D02*
X159763333Y-68220476D01*
X159715714Y-68268095D01*
X159620476Y-68315714D01*
X159572857Y-68315714D01*
X159477619Y-68268095D01*
X159430000Y-68220476D01*
X159382380Y-68125238D01*
X159382380Y-67934761D01*
X159430000Y-67839523D01*
X159477619Y-67791904D01*
X159572857Y-67744285D01*
X159620476Y-67744285D01*
X159715714Y-67791904D01*
X159763333Y-67839523D01*
X159810952Y-67934761D01*
X159810952Y-68125238D01*
X159858571Y-68220476D01*
X159906190Y-68268095D01*
X160001428Y-68315714D01*
X160191904Y-68315714D01*
X160287142Y-68268095D01*
X160334761Y-68220476D01*
X160382380Y-68125238D01*
X160382380Y-67934761D01*
X160334761Y-67839523D01*
X160287142Y-67791904D01*
X160191904Y-67744285D01*
X160001428Y-67744285D01*
X159906190Y-67791904D01*
X159858571Y-67839523D01*
X159810952Y-67934761D01*
X153357142Y-65416666D02*
X153404761Y-65464285D01*
X153452380Y-65607142D01*
X153452380Y-65702380D01*
X153404761Y-65845238D01*
X153309523Y-65940476D01*
X153214285Y-65988095D01*
X153023809Y-66035714D01*
X152880952Y-66035714D01*
X152690476Y-65988095D01*
X152595238Y-65940476D01*
X152500000Y-65845238D01*
X152452380Y-65702380D01*
X152452380Y-65607142D01*
X152500000Y-65464285D01*
X152547619Y-65416666D01*
X153452380Y-64940476D02*
X153452380Y-64750000D01*
X153404761Y-64654761D01*
X153357142Y-64607142D01*
X153214285Y-64511904D01*
X153023809Y-64464285D01*
X152642857Y-64464285D01*
X152547619Y-64511904D01*
X152500000Y-64559523D01*
X152452380Y-64654761D01*
X152452380Y-64845238D01*
X152500000Y-64940476D01*
X152547619Y-64988095D01*
X152642857Y-65035714D01*
X152880952Y-65035714D01*
X152976190Y-64988095D01*
X153023809Y-64940476D01*
X153071428Y-64845238D01*
X153071428Y-64654761D01*
X153023809Y-64559523D01*
X152976190Y-64511904D01*
X152880952Y-64464285D01*
X176332142Y-66957142D02*
X176284523Y-67004761D01*
X176141666Y-67052380D01*
X176046428Y-67052380D01*
X175903571Y-67004761D01*
X175808333Y-66909523D01*
X175760714Y-66814285D01*
X175713095Y-66623809D01*
X175713095Y-66480952D01*
X175760714Y-66290476D01*
X175808333Y-66195238D01*
X175903571Y-66100000D01*
X176046428Y-66052380D01*
X176141666Y-66052380D01*
X176284523Y-66100000D01*
X176332142Y-66147619D01*
X177284523Y-67052380D02*
X176713095Y-67052380D01*
X176998809Y-67052380D02*
X176998809Y-66052380D01*
X176903571Y-66195238D01*
X176808333Y-66290476D01*
X176713095Y-66338095D01*
X177903571Y-66052380D02*
X177998809Y-66052380D01*
X178094047Y-66100000D01*
X178141666Y-66147619D01*
X178189285Y-66242857D01*
X178236904Y-66433333D01*
X178236904Y-66671428D01*
X178189285Y-66861904D01*
X178141666Y-66957142D01*
X178094047Y-67004761D01*
X177998809Y-67052380D01*
X177903571Y-67052380D01*
X177808333Y-67004761D01*
X177760714Y-66957142D01*
X177713095Y-66861904D01*
X177665476Y-66671428D01*
X177665476Y-66433333D01*
X177713095Y-66242857D01*
X177760714Y-66147619D01*
X177808333Y-66100000D01*
X177903571Y-66052380D01*
X153432142Y-76542857D02*
X153479761Y-76590476D01*
X153527380Y-76733333D01*
X153527380Y-76828571D01*
X153479761Y-76971428D01*
X153384523Y-77066666D01*
X153289285Y-77114285D01*
X153098809Y-77161904D01*
X152955952Y-77161904D01*
X152765476Y-77114285D01*
X152670238Y-77066666D01*
X152575000Y-76971428D01*
X152527380Y-76828571D01*
X152527380Y-76733333D01*
X152575000Y-76590476D01*
X152622619Y-76542857D01*
X153527380Y-75590476D02*
X153527380Y-76161904D01*
X153527380Y-75876190D02*
X152527380Y-75876190D01*
X152670238Y-75971428D01*
X152765476Y-76066666D01*
X152813095Y-76161904D01*
X153527380Y-74638095D02*
X153527380Y-75209523D01*
X153527380Y-74923809D02*
X152527380Y-74923809D01*
X152670238Y-75019047D01*
X152765476Y-75114285D01*
X152813095Y-75209523D01*
X180602142Y-78302857D02*
X180649761Y-78350476D01*
X180697380Y-78493333D01*
X180697380Y-78588571D01*
X180649761Y-78731428D01*
X180554523Y-78826666D01*
X180459285Y-78874285D01*
X180268809Y-78921904D01*
X180125952Y-78921904D01*
X179935476Y-78874285D01*
X179840238Y-78826666D01*
X179745000Y-78731428D01*
X179697380Y-78588571D01*
X179697380Y-78493333D01*
X179745000Y-78350476D01*
X179792619Y-78302857D01*
X180697380Y-77350476D02*
X180697380Y-77921904D01*
X180697380Y-77636190D02*
X179697380Y-77636190D01*
X179840238Y-77731428D01*
X179935476Y-77826666D01*
X179983095Y-77921904D01*
X179792619Y-76969523D02*
X179745000Y-76921904D01*
X179697380Y-76826666D01*
X179697380Y-76588571D01*
X179745000Y-76493333D01*
X179792619Y-76445714D01*
X179887857Y-76398095D01*
X179983095Y-76398095D01*
X180125952Y-76445714D01*
X180697380Y-77017142D01*
X180697380Y-76398095D01*
X166932142Y-55757142D02*
X166884523Y-55804761D01*
X166741666Y-55852380D01*
X166646428Y-55852380D01*
X166503571Y-55804761D01*
X166408333Y-55709523D01*
X166360714Y-55614285D01*
X166313095Y-55423809D01*
X166313095Y-55280952D01*
X166360714Y-55090476D01*
X166408333Y-54995238D01*
X166503571Y-54900000D01*
X166646428Y-54852380D01*
X166741666Y-54852380D01*
X166884523Y-54900000D01*
X166932142Y-54947619D01*
X167884523Y-55852380D02*
X167313095Y-55852380D01*
X167598809Y-55852380D02*
X167598809Y-54852380D01*
X167503571Y-54995238D01*
X167408333Y-55090476D01*
X167313095Y-55138095D01*
X168217857Y-54852380D02*
X168836904Y-54852380D01*
X168503571Y-55233333D01*
X168646428Y-55233333D01*
X168741666Y-55280952D01*
X168789285Y-55328571D01*
X168836904Y-55423809D01*
X168836904Y-55661904D01*
X168789285Y-55757142D01*
X168741666Y-55804761D01*
X168646428Y-55852380D01*
X168360714Y-55852380D01*
X168265476Y-55804761D01*
X168217857Y-55757142D01*
X140392142Y-90662142D02*
X140344523Y-90709761D01*
X140201666Y-90757380D01*
X140106428Y-90757380D01*
X139963571Y-90709761D01*
X139868333Y-90614523D01*
X139820714Y-90519285D01*
X139773095Y-90328809D01*
X139773095Y-90185952D01*
X139820714Y-89995476D01*
X139868333Y-89900238D01*
X139963571Y-89805000D01*
X140106428Y-89757380D01*
X140201666Y-89757380D01*
X140344523Y-89805000D01*
X140392142Y-89852619D01*
X141344523Y-90757380D02*
X140773095Y-90757380D01*
X141058809Y-90757380D02*
X141058809Y-89757380D01*
X140963571Y-89900238D01*
X140868333Y-89995476D01*
X140773095Y-90043095D01*
X142201666Y-90090714D02*
X142201666Y-90757380D01*
X141963571Y-89709761D02*
X141725476Y-90424047D01*
X142344523Y-90424047D01*
X166757142Y-85532142D02*
X166709523Y-85579761D01*
X166566666Y-85627380D01*
X166471428Y-85627380D01*
X166328571Y-85579761D01*
X166233333Y-85484523D01*
X166185714Y-85389285D01*
X166138095Y-85198809D01*
X166138095Y-85055952D01*
X166185714Y-84865476D01*
X166233333Y-84770238D01*
X166328571Y-84675000D01*
X166471428Y-84627380D01*
X166566666Y-84627380D01*
X166709523Y-84675000D01*
X166757142Y-84722619D01*
X167709523Y-85627380D02*
X167138095Y-85627380D01*
X167423809Y-85627380D02*
X167423809Y-84627380D01*
X167328571Y-84770238D01*
X167233333Y-84865476D01*
X167138095Y-84913095D01*
X168614285Y-84627380D02*
X168138095Y-84627380D01*
X168090476Y-85103571D01*
X168138095Y-85055952D01*
X168233333Y-85008333D01*
X168471428Y-85008333D01*
X168566666Y-85055952D01*
X168614285Y-85103571D01*
X168661904Y-85198809D01*
X168661904Y-85436904D01*
X168614285Y-85532142D01*
X168566666Y-85579761D01*
X168471428Y-85627380D01*
X168233333Y-85627380D01*
X168138095Y-85579761D01*
X168090476Y-85532142D01*
X144282142Y-110892857D02*
X144329761Y-110940476D01*
X144377380Y-111083333D01*
X144377380Y-111178571D01*
X144329761Y-111321428D01*
X144234523Y-111416666D01*
X144139285Y-111464285D01*
X143948809Y-111511904D01*
X143805952Y-111511904D01*
X143615476Y-111464285D01*
X143520238Y-111416666D01*
X143425000Y-111321428D01*
X143377380Y-111178571D01*
X143377380Y-111083333D01*
X143425000Y-110940476D01*
X143472619Y-110892857D01*
X144377380Y-109940476D02*
X144377380Y-110511904D01*
X144377380Y-110226190D02*
X143377380Y-110226190D01*
X143520238Y-110321428D01*
X143615476Y-110416666D01*
X143663095Y-110511904D01*
X143377380Y-109083333D02*
X143377380Y-109273809D01*
X143425000Y-109369047D01*
X143472619Y-109416666D01*
X143615476Y-109511904D01*
X143805952Y-109559523D01*
X144186904Y-109559523D01*
X144282142Y-109511904D01*
X144329761Y-109464285D01*
X144377380Y-109369047D01*
X144377380Y-109178571D01*
X144329761Y-109083333D01*
X144282142Y-109035714D01*
X144186904Y-108988095D01*
X143948809Y-108988095D01*
X143853571Y-109035714D01*
X143805952Y-109083333D01*
X143758333Y-109178571D01*
X143758333Y-109369047D01*
X143805952Y-109464285D01*
X143853571Y-109511904D01*
X143948809Y-109559523D01*
X146482142Y-111117857D02*
X146529761Y-111165476D01*
X146577380Y-111308333D01*
X146577380Y-111403571D01*
X146529761Y-111546428D01*
X146434523Y-111641666D01*
X146339285Y-111689285D01*
X146148809Y-111736904D01*
X146005952Y-111736904D01*
X145815476Y-111689285D01*
X145720238Y-111641666D01*
X145625000Y-111546428D01*
X145577380Y-111403571D01*
X145577380Y-111308333D01*
X145625000Y-111165476D01*
X145672619Y-111117857D01*
X146577380Y-110165476D02*
X146577380Y-110736904D01*
X146577380Y-110451190D02*
X145577380Y-110451190D01*
X145720238Y-110546428D01*
X145815476Y-110641666D01*
X145863095Y-110736904D01*
X145577380Y-109832142D02*
X145577380Y-109165476D01*
X146577380Y-109594047D01*
X174871142Y-133707142D02*
X174823523Y-133754761D01*
X174680666Y-133802380D01*
X174585428Y-133802380D01*
X174442571Y-133754761D01*
X174347333Y-133659523D01*
X174299714Y-133564285D01*
X174252095Y-133373809D01*
X174252095Y-133230952D01*
X174299714Y-133040476D01*
X174347333Y-132945238D01*
X174442571Y-132850000D01*
X174585428Y-132802380D01*
X174680666Y-132802380D01*
X174823523Y-132850000D01*
X174871142Y-132897619D01*
X175823523Y-133802380D02*
X175252095Y-133802380D01*
X175537809Y-133802380D02*
X175537809Y-132802380D01*
X175442571Y-132945238D01*
X175347333Y-133040476D01*
X175252095Y-133088095D01*
X176394952Y-133230952D02*
X176299714Y-133183333D01*
X176252095Y-133135714D01*
X176204476Y-133040476D01*
X176204476Y-132992857D01*
X176252095Y-132897619D01*
X176299714Y-132850000D01*
X176394952Y-132802380D01*
X176585428Y-132802380D01*
X176680666Y-132850000D01*
X176728285Y-132897619D01*
X176775904Y-132992857D01*
X176775904Y-133040476D01*
X176728285Y-133135714D01*
X176680666Y-133183333D01*
X176585428Y-133230952D01*
X176394952Y-133230952D01*
X176299714Y-133278571D01*
X176252095Y-133326190D01*
X176204476Y-133421428D01*
X176204476Y-133611904D01*
X176252095Y-133707142D01*
X176299714Y-133754761D01*
X176394952Y-133802380D01*
X176585428Y-133802380D01*
X176680666Y-133754761D01*
X176728285Y-133707142D01*
X176775904Y-133611904D01*
X176775904Y-133421428D01*
X176728285Y-133326190D01*
X176680666Y-133278571D01*
X176585428Y-133230952D01*
X175857142Y-119892857D02*
X175904761Y-119940476D01*
X175952380Y-120083333D01*
X175952380Y-120178571D01*
X175904761Y-120321428D01*
X175809523Y-120416666D01*
X175714285Y-120464285D01*
X175523809Y-120511904D01*
X175380952Y-120511904D01*
X175190476Y-120464285D01*
X175095238Y-120416666D01*
X175000000Y-120321428D01*
X174952380Y-120178571D01*
X174952380Y-120083333D01*
X175000000Y-119940476D01*
X175047619Y-119892857D01*
X175952380Y-118940476D02*
X175952380Y-119511904D01*
X175952380Y-119226190D02*
X174952380Y-119226190D01*
X175095238Y-119321428D01*
X175190476Y-119416666D01*
X175238095Y-119511904D01*
X175952380Y-118464285D02*
X175952380Y-118273809D01*
X175904761Y-118178571D01*
X175857142Y-118130952D01*
X175714285Y-118035714D01*
X175523809Y-117988095D01*
X175142857Y-117988095D01*
X175047619Y-118035714D01*
X175000000Y-118083333D01*
X174952380Y-118178571D01*
X174952380Y-118369047D01*
X175000000Y-118464285D01*
X175047619Y-118511904D01*
X175142857Y-118559523D01*
X175380952Y-118559523D01*
X175476190Y-118511904D01*
X175523809Y-118464285D01*
X175571428Y-118369047D01*
X175571428Y-118178571D01*
X175523809Y-118083333D01*
X175476190Y-118035714D01*
X175380952Y-117988095D01*
X162987142Y-107892857D02*
X163034761Y-107940476D01*
X163082380Y-108083333D01*
X163082380Y-108178571D01*
X163034761Y-108321428D01*
X162939523Y-108416666D01*
X162844285Y-108464285D01*
X162653809Y-108511904D01*
X162510952Y-108511904D01*
X162320476Y-108464285D01*
X162225238Y-108416666D01*
X162130000Y-108321428D01*
X162082380Y-108178571D01*
X162082380Y-108083333D01*
X162130000Y-107940476D01*
X162177619Y-107892857D01*
X162177619Y-107511904D02*
X162130000Y-107464285D01*
X162082380Y-107369047D01*
X162082380Y-107130952D01*
X162130000Y-107035714D01*
X162177619Y-106988095D01*
X162272857Y-106940476D01*
X162368095Y-106940476D01*
X162510952Y-106988095D01*
X163082380Y-107559523D01*
X163082380Y-106940476D01*
X162082380Y-106321428D02*
X162082380Y-106226190D01*
X162130000Y-106130952D01*
X162177619Y-106083333D01*
X162272857Y-106035714D01*
X162463333Y-105988095D01*
X162701428Y-105988095D01*
X162891904Y-106035714D01*
X162987142Y-106083333D01*
X163034761Y-106130952D01*
X163082380Y-106226190D01*
X163082380Y-106321428D01*
X163034761Y-106416666D01*
X162987142Y-106464285D01*
X162891904Y-106511904D01*
X162701428Y-106559523D01*
X162463333Y-106559523D01*
X162272857Y-106511904D01*
X162177619Y-106464285D01*
X162130000Y-106416666D01*
X162082380Y-106321428D01*
X186297142Y-120834857D02*
X186344761Y-120882476D01*
X186392380Y-121025333D01*
X186392380Y-121120571D01*
X186344761Y-121263428D01*
X186249523Y-121358666D01*
X186154285Y-121406285D01*
X185963809Y-121453904D01*
X185820952Y-121453904D01*
X185630476Y-121406285D01*
X185535238Y-121358666D01*
X185440000Y-121263428D01*
X185392380Y-121120571D01*
X185392380Y-121025333D01*
X185440000Y-120882476D01*
X185487619Y-120834857D01*
X185487619Y-120453904D02*
X185440000Y-120406285D01*
X185392380Y-120311047D01*
X185392380Y-120072952D01*
X185440000Y-119977714D01*
X185487619Y-119930095D01*
X185582857Y-119882476D01*
X185678095Y-119882476D01*
X185820952Y-119930095D01*
X186392380Y-120501523D01*
X186392380Y-119882476D01*
X186392380Y-118930095D02*
X186392380Y-119501523D01*
X186392380Y-119215809D02*
X185392380Y-119215809D01*
X185535238Y-119311047D01*
X185630476Y-119406285D01*
X185678095Y-119501523D01*
X190095142Y-120276857D02*
X190142761Y-120324476D01*
X190190380Y-120467333D01*
X190190380Y-120562571D01*
X190142761Y-120705428D01*
X190047523Y-120800666D01*
X189952285Y-120848285D01*
X189761809Y-120895904D01*
X189618952Y-120895904D01*
X189428476Y-120848285D01*
X189333238Y-120800666D01*
X189238000Y-120705428D01*
X189190380Y-120562571D01*
X189190380Y-120467333D01*
X189238000Y-120324476D01*
X189285619Y-120276857D01*
X189285619Y-119895904D02*
X189238000Y-119848285D01*
X189190380Y-119753047D01*
X189190380Y-119514952D01*
X189238000Y-119419714D01*
X189285619Y-119372095D01*
X189380857Y-119324476D01*
X189476095Y-119324476D01*
X189618952Y-119372095D01*
X190190380Y-119943523D01*
X190190380Y-119324476D01*
X189285619Y-118943523D02*
X189238000Y-118895904D01*
X189190380Y-118800666D01*
X189190380Y-118562571D01*
X189238000Y-118467333D01*
X189285619Y-118419714D01*
X189380857Y-118372095D01*
X189476095Y-118372095D01*
X189618952Y-118419714D01*
X190190380Y-118991142D01*
X190190380Y-118372095D01*
X191261904Y-102202380D02*
X191261904Y-101202380D01*
X191500000Y-101202380D01*
X191642857Y-101250000D01*
X191738095Y-101345238D01*
X191785714Y-101440476D01*
X191833333Y-101630952D01*
X191833333Y-101773809D01*
X191785714Y-101964285D01*
X191738095Y-102059523D01*
X191642857Y-102154761D01*
X191500000Y-102202380D01*
X191261904Y-102202380D01*
X192214285Y-101297619D02*
X192261904Y-101250000D01*
X192357142Y-101202380D01*
X192595238Y-101202380D01*
X192690476Y-101250000D01*
X192738095Y-101297619D01*
X192785714Y-101392857D01*
X192785714Y-101488095D01*
X192738095Y-101630952D01*
X192166666Y-102202380D01*
X192785714Y-102202380D01*
X104238095Y-140952380D02*
X104238095Y-139952380D01*
X104238095Y-140428571D02*
X104809523Y-140428571D01*
X104809523Y-140952380D02*
X104809523Y-139952380D01*
X105809523Y-140952380D02*
X105238095Y-140952380D01*
X105523809Y-140952380D02*
X105523809Y-139952380D01*
X105428571Y-140095238D01*
X105333333Y-140190476D01*
X105238095Y-140238095D01*
X104238095Y-50952380D02*
X104238095Y-49952380D01*
X104238095Y-50428571D02*
X104809523Y-50428571D01*
X104809523Y-50952380D02*
X104809523Y-49952380D01*
X105238095Y-50047619D02*
X105285714Y-50000000D01*
X105380952Y-49952380D01*
X105619047Y-49952380D01*
X105714285Y-50000000D01*
X105761904Y-50047619D01*
X105809523Y-50142857D01*
X105809523Y-50238095D01*
X105761904Y-50380952D01*
X105190476Y-50952380D01*
X105809523Y-50952380D01*
X194238095Y-50952380D02*
X194238095Y-49952380D01*
X194238095Y-50428571D02*
X194809523Y-50428571D01*
X194809523Y-50952380D02*
X194809523Y-49952380D01*
X195190476Y-49952380D02*
X195809523Y-49952380D01*
X195476190Y-50333333D01*
X195619047Y-50333333D01*
X195714285Y-50380952D01*
X195761904Y-50428571D01*
X195809523Y-50523809D01*
X195809523Y-50761904D01*
X195761904Y-50857142D01*
X195714285Y-50904761D01*
X195619047Y-50952380D01*
X195333333Y-50952380D01*
X195238095Y-50904761D01*
X195190476Y-50857142D01*
X194238095Y-140952380D02*
X194238095Y-139952380D01*
X194238095Y-140428571D02*
X194809523Y-140428571D01*
X194809523Y-140952380D02*
X194809523Y-139952380D01*
X195714285Y-140285714D02*
X195714285Y-140952380D01*
X195476190Y-139904761D02*
X195238095Y-140619047D01*
X195857142Y-140619047D01*
X167902380Y-58216666D02*
X167902380Y-58692857D01*
X166902380Y-58692857D01*
X167902380Y-57359523D02*
X167902380Y-57930952D01*
X167902380Y-57645238D02*
X166902380Y-57645238D01*
X167045238Y-57740476D01*
X167140476Y-57835714D01*
X167188095Y-57930952D01*
X176527380Y-80511666D02*
X176527380Y-80987857D01*
X175527380Y-80987857D01*
X175622619Y-80225952D02*
X175575000Y-80178333D01*
X175527380Y-80083095D01*
X175527380Y-79845000D01*
X175575000Y-79749761D01*
X175622619Y-79702142D01*
X175717857Y-79654523D01*
X175813095Y-79654523D01*
X175955952Y-79702142D01*
X176527380Y-80273571D01*
X176527380Y-79654523D01*
X160927380Y-57442857D02*
X159927380Y-57442857D01*
X160927380Y-56871428D01*
X159927380Y-56871428D01*
X159927380Y-56538095D02*
X159927380Y-55966666D01*
X160927380Y-56252380D02*
X159927380Y-56252380D01*
X160832142Y-55061904D02*
X160879761Y-55109523D01*
X160927380Y-55252380D01*
X160927380Y-55347619D01*
X160879761Y-55490476D01*
X160784523Y-55585714D01*
X160689285Y-55633333D01*
X160498809Y-55680952D01*
X160355952Y-55680952D01*
X160165476Y-55633333D01*
X160070238Y-55585714D01*
X159975000Y-55490476D01*
X159927380Y-55347619D01*
X159927380Y-55252380D01*
X159975000Y-55109523D01*
X160022619Y-55061904D01*
X160927380Y-54109523D02*
X160927380Y-54680952D01*
X160927380Y-54395238D02*
X159927380Y-54395238D01*
X160070238Y-54490476D01*
X160165476Y-54585714D01*
X160213095Y-54680952D01*
X172370761Y-115101619D02*
X172275523Y-115054000D01*
X172180285Y-114958761D01*
X172037428Y-114815904D01*
X171942190Y-114768285D01*
X171846952Y-114768285D01*
X171894571Y-115006380D02*
X171799333Y-114958761D01*
X171704095Y-114863523D01*
X171656476Y-114673047D01*
X171656476Y-114339714D01*
X171704095Y-114149238D01*
X171799333Y-114054000D01*
X171894571Y-114006380D01*
X172085047Y-114006380D01*
X172180285Y-114054000D01*
X172275523Y-114149238D01*
X172323142Y-114339714D01*
X172323142Y-114673047D01*
X172275523Y-114863523D01*
X172180285Y-114958761D01*
X172085047Y-115006380D01*
X171894571Y-115006380D01*
X173275523Y-115006380D02*
X172704095Y-115006380D01*
X172989809Y-115006380D02*
X172989809Y-114006380D01*
X172894571Y-114149238D01*
X172799333Y-114244476D01*
X172704095Y-114292095D01*
X179657619Y-111855238D02*
X179610000Y-111950476D01*
X179514761Y-112045714D01*
X179371904Y-112188571D01*
X179324285Y-112283809D01*
X179324285Y-112379047D01*
X179562380Y-112331428D02*
X179514761Y-112426666D01*
X179419523Y-112521904D01*
X179229047Y-112569523D01*
X178895714Y-112569523D01*
X178705238Y-112521904D01*
X178610000Y-112426666D01*
X178562380Y-112331428D01*
X178562380Y-112140952D01*
X178610000Y-112045714D01*
X178705238Y-111950476D01*
X178895714Y-111902857D01*
X179229047Y-111902857D01*
X179419523Y-111950476D01*
X179514761Y-112045714D01*
X179562380Y-112140952D01*
X179562380Y-112331428D01*
X178657619Y-111521904D02*
X178610000Y-111474285D01*
X178562380Y-111379047D01*
X178562380Y-111140952D01*
X178610000Y-111045714D01*
X178657619Y-110998095D01*
X178752857Y-110950476D01*
X178848095Y-110950476D01*
X178990952Y-110998095D01*
X179562380Y-111569523D01*
X179562380Y-110950476D01*
X155727380Y-81616666D02*
X155251190Y-81950000D01*
X155727380Y-82188095D02*
X154727380Y-82188095D01*
X154727380Y-81807142D01*
X154775000Y-81711904D01*
X154822619Y-81664285D01*
X154917857Y-81616666D01*
X155060714Y-81616666D01*
X155155952Y-81664285D01*
X155203571Y-81711904D01*
X155251190Y-81807142D01*
X155251190Y-82188095D01*
X154727380Y-81283333D02*
X154727380Y-80664285D01*
X155108333Y-80997619D01*
X155108333Y-80854761D01*
X155155952Y-80759523D01*
X155203571Y-80711904D01*
X155298809Y-80664285D01*
X155536904Y-80664285D01*
X155632142Y-80711904D01*
X155679761Y-80759523D01*
X155727380Y-80854761D01*
X155727380Y-81140476D01*
X155679761Y-81235714D01*
X155632142Y-81283333D01*
X163477380Y-83516666D02*
X163001190Y-83850000D01*
X163477380Y-84088095D02*
X162477380Y-84088095D01*
X162477380Y-83707142D01*
X162525000Y-83611904D01*
X162572619Y-83564285D01*
X162667857Y-83516666D01*
X162810714Y-83516666D01*
X162905952Y-83564285D01*
X162953571Y-83611904D01*
X163001190Y-83707142D01*
X163001190Y-84088095D01*
X162810714Y-82659523D02*
X163477380Y-82659523D01*
X162429761Y-82897619D02*
X163144047Y-83135714D01*
X163144047Y-82516666D01*
X161952380Y-83591666D02*
X161476190Y-83925000D01*
X161952380Y-84163095D02*
X160952380Y-84163095D01*
X160952380Y-83782142D01*
X161000000Y-83686904D01*
X161047619Y-83639285D01*
X161142857Y-83591666D01*
X161285714Y-83591666D01*
X161380952Y-83639285D01*
X161428571Y-83686904D01*
X161476190Y-83782142D01*
X161476190Y-84163095D01*
X160952380Y-82686904D02*
X160952380Y-83163095D01*
X161428571Y-83210714D01*
X161380952Y-83163095D01*
X161333333Y-83067857D01*
X161333333Y-82829761D01*
X161380952Y-82734523D01*
X161428571Y-82686904D01*
X161523809Y-82639285D01*
X161761904Y-82639285D01*
X161857142Y-82686904D01*
X161904761Y-82734523D01*
X161952380Y-82829761D01*
X161952380Y-83067857D01*
X161904761Y-83163095D01*
X161857142Y-83210714D01*
X157583333Y-77772380D02*
X157250000Y-77296190D01*
X157011904Y-77772380D02*
X157011904Y-76772380D01*
X157392857Y-76772380D01*
X157488095Y-76820000D01*
X157535714Y-76867619D01*
X157583333Y-76962857D01*
X157583333Y-77105714D01*
X157535714Y-77200952D01*
X157488095Y-77248571D01*
X157392857Y-77296190D01*
X157011904Y-77296190D01*
X158440476Y-76772380D02*
X158250000Y-76772380D01*
X158154761Y-76820000D01*
X158107142Y-76867619D01*
X158011904Y-77010476D01*
X157964285Y-77200952D01*
X157964285Y-77581904D01*
X158011904Y-77677142D01*
X158059523Y-77724761D01*
X158154761Y-77772380D01*
X158345238Y-77772380D01*
X158440476Y-77724761D01*
X158488095Y-77677142D01*
X158535714Y-77581904D01*
X158535714Y-77343809D01*
X158488095Y-77248571D01*
X158440476Y-77200952D01*
X158345238Y-77153333D01*
X158154761Y-77153333D01*
X158059523Y-77200952D01*
X158011904Y-77248571D01*
X157964285Y-77343809D01*
X153772380Y-69041666D02*
X153296190Y-69375000D01*
X153772380Y-69613095D02*
X152772380Y-69613095D01*
X152772380Y-69232142D01*
X152820000Y-69136904D01*
X152867619Y-69089285D01*
X152962857Y-69041666D01*
X153105714Y-69041666D01*
X153200952Y-69089285D01*
X153248571Y-69136904D01*
X153296190Y-69232142D01*
X153296190Y-69613095D01*
X152772380Y-68708333D02*
X152772380Y-68041666D01*
X153772380Y-68470238D01*
X160057380Y-72466666D02*
X159581190Y-72800000D01*
X160057380Y-73038095D02*
X159057380Y-73038095D01*
X159057380Y-72657142D01*
X159105000Y-72561904D01*
X159152619Y-72514285D01*
X159247857Y-72466666D01*
X159390714Y-72466666D01*
X159485952Y-72514285D01*
X159533571Y-72561904D01*
X159581190Y-72657142D01*
X159581190Y-73038095D01*
X159485952Y-71895238D02*
X159438333Y-71990476D01*
X159390714Y-72038095D01*
X159295476Y-72085714D01*
X159247857Y-72085714D01*
X159152619Y-72038095D01*
X159105000Y-71990476D01*
X159057380Y-71895238D01*
X159057380Y-71704761D01*
X159105000Y-71609523D01*
X159152619Y-71561904D01*
X159247857Y-71514285D01*
X159295476Y-71514285D01*
X159390714Y-71561904D01*
X159438333Y-71609523D01*
X159485952Y-71704761D01*
X159485952Y-71895238D01*
X159533571Y-71990476D01*
X159581190Y-72038095D01*
X159676428Y-72085714D01*
X159866904Y-72085714D01*
X159962142Y-72038095D01*
X160009761Y-71990476D01*
X160057380Y-71895238D01*
X160057380Y-71704761D01*
X160009761Y-71609523D01*
X159962142Y-71561904D01*
X159866904Y-71514285D01*
X159676428Y-71514285D01*
X159581190Y-71561904D01*
X159533571Y-71609523D01*
X159485952Y-71704761D01*
X179508333Y-71952380D02*
X179175000Y-71476190D01*
X178936904Y-71952380D02*
X178936904Y-70952380D01*
X179317857Y-70952380D01*
X179413095Y-71000000D01*
X179460714Y-71047619D01*
X179508333Y-71142857D01*
X179508333Y-71285714D01*
X179460714Y-71380952D01*
X179413095Y-71428571D01*
X179317857Y-71476190D01*
X178936904Y-71476190D01*
X179984523Y-71952380D02*
X180175000Y-71952380D01*
X180270238Y-71904761D01*
X180317857Y-71857142D01*
X180413095Y-71714285D01*
X180460714Y-71523809D01*
X180460714Y-71142857D01*
X180413095Y-71047619D01*
X180365476Y-71000000D01*
X180270238Y-70952380D01*
X180079761Y-70952380D01*
X179984523Y-71000000D01*
X179936904Y-71047619D01*
X179889285Y-71142857D01*
X179889285Y-71380952D01*
X179936904Y-71476190D01*
X179984523Y-71523809D01*
X180079761Y-71571428D01*
X180270238Y-71571428D01*
X180365476Y-71523809D01*
X180413095Y-71476190D01*
X180460714Y-71380952D01*
X179407142Y-73727380D02*
X179073809Y-73251190D01*
X178835714Y-73727380D02*
X178835714Y-72727380D01*
X179216666Y-72727380D01*
X179311904Y-72775000D01*
X179359523Y-72822619D01*
X179407142Y-72917857D01*
X179407142Y-73060714D01*
X179359523Y-73155952D01*
X179311904Y-73203571D01*
X179216666Y-73251190D01*
X178835714Y-73251190D01*
X180359523Y-73727380D02*
X179788095Y-73727380D01*
X180073809Y-73727380D02*
X180073809Y-72727380D01*
X179978571Y-72870238D01*
X179883333Y-72965476D01*
X179788095Y-73013095D01*
X180978571Y-72727380D02*
X181073809Y-72727380D01*
X181169047Y-72775000D01*
X181216666Y-72822619D01*
X181264285Y-72917857D01*
X181311904Y-73108333D01*
X181311904Y-73346428D01*
X181264285Y-73536904D01*
X181216666Y-73632142D01*
X181169047Y-73679761D01*
X181073809Y-73727380D01*
X180978571Y-73727380D01*
X180883333Y-73679761D01*
X180835714Y-73632142D01*
X180788095Y-73536904D01*
X180740476Y-73346428D01*
X180740476Y-73108333D01*
X180788095Y-72917857D01*
X180835714Y-72822619D01*
X180883333Y-72775000D01*
X180978571Y-72727380D01*
X153797380Y-72967857D02*
X153321190Y-73301190D01*
X153797380Y-73539285D02*
X152797380Y-73539285D01*
X152797380Y-73158333D01*
X152845000Y-73063095D01*
X152892619Y-73015476D01*
X152987857Y-72967857D01*
X153130714Y-72967857D01*
X153225952Y-73015476D01*
X153273571Y-73063095D01*
X153321190Y-73158333D01*
X153321190Y-73539285D01*
X153797380Y-72015476D02*
X153797380Y-72586904D01*
X153797380Y-72301190D02*
X152797380Y-72301190D01*
X152940238Y-72396428D01*
X153035476Y-72491666D01*
X153083095Y-72586904D01*
X152892619Y-71634523D02*
X152845000Y-71586904D01*
X152797380Y-71491666D01*
X152797380Y-71253571D01*
X152845000Y-71158333D01*
X152892619Y-71110714D01*
X152987857Y-71063095D01*
X153083095Y-71063095D01*
X153225952Y-71110714D01*
X153797380Y-71682142D01*
X153797380Y-71063095D01*
D13*
X170664285Y-71896428D02*
X170464285Y-71610714D01*
X170321428Y-71896428D02*
X170321428Y-71296428D01*
X170550000Y-71296428D01*
X170607142Y-71325000D01*
X170635714Y-71353571D01*
X170664285Y-71410714D01*
X170664285Y-71496428D01*
X170635714Y-71553571D01*
X170607142Y-71582142D01*
X170550000Y-71610714D01*
X170321428Y-71610714D01*
X171235714Y-71896428D02*
X170892857Y-71896428D01*
X171064285Y-71896428D02*
X171064285Y-71296428D01*
X171007142Y-71382142D01*
X170950000Y-71439285D01*
X170892857Y-71467857D01*
X171435714Y-71296428D02*
X171807142Y-71296428D01*
X171607142Y-71525000D01*
X171692857Y-71525000D01*
X171750000Y-71553571D01*
X171778571Y-71582142D01*
X171807142Y-71639285D01*
X171807142Y-71782142D01*
X171778571Y-71839285D01*
X171750000Y-71867857D01*
X171692857Y-71896428D01*
X171521428Y-71896428D01*
X171464285Y-71867857D01*
X171435714Y-71839285D01*
X170564285Y-73446428D02*
X170364285Y-73160714D01*
X170221428Y-73446428D02*
X170221428Y-72846428D01*
X170450000Y-72846428D01*
X170507142Y-72875000D01*
X170535714Y-72903571D01*
X170564285Y-72960714D01*
X170564285Y-73046428D01*
X170535714Y-73103571D01*
X170507142Y-73132142D01*
X170450000Y-73160714D01*
X170221428Y-73160714D01*
X171135714Y-73446428D02*
X170792857Y-73446428D01*
X170964285Y-73446428D02*
X170964285Y-72846428D01*
X170907142Y-72932142D01*
X170850000Y-72989285D01*
X170792857Y-73017857D01*
X171650000Y-73046428D02*
X171650000Y-73446428D01*
X171507142Y-72817857D02*
X171364285Y-73246428D01*
X171735714Y-73246428D01*
X173164285Y-76796428D02*
X172964285Y-76510714D01*
X172821428Y-76796428D02*
X172821428Y-76196428D01*
X173050000Y-76196428D01*
X173107142Y-76225000D01*
X173135714Y-76253571D01*
X173164285Y-76310714D01*
X173164285Y-76396428D01*
X173135714Y-76453571D01*
X173107142Y-76482142D01*
X173050000Y-76510714D01*
X172821428Y-76510714D01*
X173735714Y-76796428D02*
X173392857Y-76796428D01*
X173564285Y-76796428D02*
X173564285Y-76196428D01*
X173507142Y-76282142D01*
X173450000Y-76339285D01*
X173392857Y-76367857D01*
X174278571Y-76196428D02*
X173992857Y-76196428D01*
X173964285Y-76482142D01*
X173992857Y-76453571D01*
X174050000Y-76425000D01*
X174192857Y-76425000D01*
X174250000Y-76453571D01*
X174278571Y-76482142D01*
X174307142Y-76539285D01*
X174307142Y-76682142D01*
X174278571Y-76739285D01*
X174250000Y-76767857D01*
X174192857Y-76796428D01*
X174050000Y-76796428D01*
X173992857Y-76767857D01*
X173964285Y-76739285D01*
D11*
X156682380Y-62282857D02*
X156206190Y-62616190D01*
X156682380Y-62854285D02*
X155682380Y-62854285D01*
X155682380Y-62473333D01*
X155730000Y-62378095D01*
X155777619Y-62330476D01*
X155872857Y-62282857D01*
X156015714Y-62282857D01*
X156110952Y-62330476D01*
X156158571Y-62378095D01*
X156206190Y-62473333D01*
X156206190Y-62854285D01*
X156682380Y-61330476D02*
X156682380Y-61901904D01*
X156682380Y-61616190D02*
X155682380Y-61616190D01*
X155825238Y-61711428D01*
X155920476Y-61806666D01*
X155968095Y-61901904D01*
X155682380Y-60473333D02*
X155682380Y-60663809D01*
X155730000Y-60759047D01*
X155777619Y-60806666D01*
X155920476Y-60901904D01*
X156110952Y-60949523D01*
X156491904Y-60949523D01*
X156587142Y-60901904D01*
X156634761Y-60854285D01*
X156682380Y-60759047D01*
X156682380Y-60568571D01*
X156634761Y-60473333D01*
X156587142Y-60425714D01*
X156491904Y-60378095D01*
X156253809Y-60378095D01*
X156158571Y-60425714D01*
X156110952Y-60473333D01*
X156063333Y-60568571D01*
X156063333Y-60759047D01*
X156110952Y-60854285D01*
X156158571Y-60901904D01*
X156253809Y-60949523D01*
X186302380Y-80717857D02*
X185826190Y-81051190D01*
X186302380Y-81289285D02*
X185302380Y-81289285D01*
X185302380Y-80908333D01*
X185350000Y-80813095D01*
X185397619Y-80765476D01*
X185492857Y-80717857D01*
X185635714Y-80717857D01*
X185730952Y-80765476D01*
X185778571Y-80813095D01*
X185826190Y-80908333D01*
X185826190Y-81289285D01*
X186302380Y-79765476D02*
X186302380Y-80336904D01*
X186302380Y-80051190D02*
X185302380Y-80051190D01*
X185445238Y-80146428D01*
X185540476Y-80241666D01*
X185588095Y-80336904D01*
X185302380Y-79432142D02*
X185302380Y-78765476D01*
X186302380Y-79194047D01*
X150042380Y-91132857D02*
X149566190Y-91466190D01*
X150042380Y-91704285D02*
X149042380Y-91704285D01*
X149042380Y-91323333D01*
X149090000Y-91228095D01*
X149137619Y-91180476D01*
X149232857Y-91132857D01*
X149375714Y-91132857D01*
X149470952Y-91180476D01*
X149518571Y-91228095D01*
X149566190Y-91323333D01*
X149566190Y-91704285D01*
X149042380Y-90799523D02*
X149042380Y-90180476D01*
X149423333Y-90513809D01*
X149423333Y-90370952D01*
X149470952Y-90275714D01*
X149518571Y-90228095D01*
X149613809Y-90180476D01*
X149851904Y-90180476D01*
X149947142Y-90228095D01*
X149994761Y-90275714D01*
X150042380Y-90370952D01*
X150042380Y-90656666D01*
X149994761Y-90751904D01*
X149947142Y-90799523D01*
X149042380Y-89561428D02*
X149042380Y-89466190D01*
X149090000Y-89370952D01*
X149137619Y-89323333D01*
X149232857Y-89275714D01*
X149423333Y-89228095D01*
X149661428Y-89228095D01*
X149851904Y-89275714D01*
X149947142Y-89323333D01*
X149994761Y-89370952D01*
X150042380Y-89466190D01*
X150042380Y-89561428D01*
X149994761Y-89656666D01*
X149947142Y-89704285D01*
X149851904Y-89751904D01*
X149661428Y-89799523D01*
X149423333Y-89799523D01*
X149232857Y-89751904D01*
X149137619Y-89704285D01*
X149090000Y-89656666D01*
X149042380Y-89561428D01*
X170045142Y-107202380D02*
X169711809Y-106726190D01*
X169473714Y-107202380D02*
X169473714Y-106202380D01*
X169854666Y-106202380D01*
X169949904Y-106250000D01*
X169997523Y-106297619D01*
X170045142Y-106392857D01*
X170045142Y-106535714D01*
X169997523Y-106630952D01*
X169949904Y-106678571D01*
X169854666Y-106726190D01*
X169473714Y-106726190D01*
X170902285Y-106535714D02*
X170902285Y-107202380D01*
X170664190Y-106154761D02*
X170426095Y-106869047D01*
X171045142Y-106869047D01*
X171330857Y-106202380D02*
X171949904Y-106202380D01*
X171616571Y-106583333D01*
X171759428Y-106583333D01*
X171854666Y-106630952D01*
X171902285Y-106678571D01*
X171949904Y-106773809D01*
X171949904Y-107011904D01*
X171902285Y-107107142D01*
X171854666Y-107154761D01*
X171759428Y-107202380D01*
X171473714Y-107202380D01*
X171378476Y-107154761D01*
X171330857Y-107107142D01*
X189724428Y-130500380D02*
X189391095Y-130024190D01*
X189153000Y-130500380D02*
X189153000Y-129500380D01*
X189533952Y-129500380D01*
X189629190Y-129548000D01*
X189676809Y-129595619D01*
X189724428Y-129690857D01*
X189724428Y-129833714D01*
X189676809Y-129928952D01*
X189629190Y-129976571D01*
X189533952Y-130024190D01*
X189153000Y-130024190D01*
X189914904Y-130595619D02*
X190676809Y-130595619D01*
X190867285Y-130214666D02*
X191343476Y-130214666D01*
X190772047Y-130500380D02*
X191105380Y-129500380D01*
X191438714Y-130500380D01*
X192200619Y-130500380D02*
X192200619Y-129500380D01*
X192200619Y-130452761D02*
X192105380Y-130500380D01*
X191914904Y-130500380D01*
X191819666Y-130452761D01*
X191772047Y-130405142D01*
X191724428Y-130309904D01*
X191724428Y-130024190D01*
X191772047Y-129928952D01*
X191819666Y-129881333D01*
X191914904Y-129833714D01*
X192105380Y-129833714D01*
X192200619Y-129881333D01*
X193105380Y-130500380D02*
X193105380Y-129500380D01*
X193105380Y-130452761D02*
X193010142Y-130500380D01*
X192819666Y-130500380D01*
X192724428Y-130452761D01*
X192676809Y-130405142D01*
X192629190Y-130309904D01*
X192629190Y-130024190D01*
X192676809Y-129928952D01*
X192724428Y-129881333D01*
X192819666Y-129833714D01*
X193010142Y-129833714D01*
X193105380Y-129881333D01*
X193581571Y-130500380D02*
X193581571Y-129833714D01*
X193581571Y-130024190D02*
X193629190Y-129928952D01*
X193676809Y-129881333D01*
X193772047Y-129833714D01*
X193867285Y-129833714D01*
X194581571Y-130452761D02*
X194486333Y-130500380D01*
X194295857Y-130500380D01*
X194200619Y-130452761D01*
X194153000Y-130357523D01*
X194153000Y-129976571D01*
X194200619Y-129881333D01*
X194295857Y-129833714D01*
X194486333Y-129833714D01*
X194581571Y-129881333D01*
X194629190Y-129976571D01*
X194629190Y-130071809D01*
X194153000Y-130167047D01*
X195010142Y-130452761D02*
X195105380Y-130500380D01*
X195295857Y-130500380D01*
X195391095Y-130452761D01*
X195438714Y-130357523D01*
X195438714Y-130309904D01*
X195391095Y-130214666D01*
X195295857Y-130167047D01*
X195153000Y-130167047D01*
X195057761Y-130119428D01*
X195010142Y-130024190D01*
X195010142Y-129976571D01*
X195057761Y-129881333D01*
X195153000Y-129833714D01*
X195295857Y-129833714D01*
X195391095Y-129881333D01*
X195819666Y-130452761D02*
X195914904Y-130500380D01*
X196105380Y-130500380D01*
X196200619Y-130452761D01*
X196248238Y-130357523D01*
X196248238Y-130309904D01*
X196200619Y-130214666D01*
X196105380Y-130167047D01*
X195962523Y-130167047D01*
X195867285Y-130119428D01*
X195819666Y-130024190D01*
X195819666Y-129976571D01*
X195867285Y-129881333D01*
X195962523Y-129833714D01*
X196105380Y-129833714D01*
X196200619Y-129881333D01*
X197200619Y-130500380D02*
X196629190Y-130500380D01*
X196914904Y-130500380D02*
X196914904Y-129500380D01*
X196819666Y-129643238D01*
X196724428Y-129738476D01*
X196629190Y-129786095D01*
X137313095Y-103452380D02*
X137884523Y-103452380D01*
X137598809Y-104452380D02*
X137598809Y-103452380D01*
X138217857Y-104452380D02*
X138217857Y-103452380D01*
X138598809Y-103452380D01*
X138694047Y-103500000D01*
X138741666Y-103547619D01*
X138789285Y-103642857D01*
X138789285Y-103785714D01*
X138741666Y-103880952D01*
X138694047Y-103928571D01*
X138598809Y-103976190D01*
X138217857Y-103976190D01*
X139741666Y-104452380D02*
X139170238Y-104452380D01*
X139455952Y-104452380D02*
X139455952Y-103452380D01*
X139360714Y-103595238D01*
X139265476Y-103690476D01*
X139170238Y-103738095D01*
X164438095Y-74777380D02*
X164438095Y-75586904D01*
X164485714Y-75682142D01*
X164533333Y-75729761D01*
X164628571Y-75777380D01*
X164819047Y-75777380D01*
X164914285Y-75729761D01*
X164961904Y-75682142D01*
X165009523Y-75586904D01*
X165009523Y-74777380D01*
X165438095Y-74872619D02*
X165485714Y-74825000D01*
X165580952Y-74777380D01*
X165819047Y-74777380D01*
X165914285Y-74825000D01*
X165961904Y-74872619D01*
X166009523Y-74967857D01*
X166009523Y-75063095D01*
X165961904Y-75205952D01*
X165390476Y-75777380D01*
X166009523Y-75777380D01*
X143752380Y-102011904D02*
X144561904Y-102011904D01*
X144657142Y-101964285D01*
X144704761Y-101916666D01*
X144752380Y-101821428D01*
X144752380Y-101630952D01*
X144704761Y-101535714D01*
X144657142Y-101488095D01*
X144561904Y-101440476D01*
X143752380Y-101440476D01*
X144085714Y-100535714D02*
X144752380Y-100535714D01*
X143704761Y-100773809D02*
X144419047Y-101011904D01*
X144419047Y-100392857D01*
X186488095Y-133202380D02*
X186488095Y-134011904D01*
X186535714Y-134107142D01*
X186583333Y-134154761D01*
X186678571Y-134202380D01*
X186869047Y-134202380D01*
X186964285Y-134154761D01*
X187011904Y-134107142D01*
X187059523Y-134011904D01*
X187059523Y-133202380D01*
X188011904Y-133202380D02*
X187535714Y-133202380D01*
X187488095Y-133678571D01*
X187535714Y-133630952D01*
X187630952Y-133583333D01*
X187869047Y-133583333D01*
X187964285Y-133630952D01*
X188011904Y-133678571D01*
X188059523Y-133773809D01*
X188059523Y-134011904D01*
X188011904Y-134107142D01*
X187964285Y-134154761D01*
X187869047Y-134202380D01*
X187630952Y-134202380D01*
X187535714Y-134154761D01*
X187488095Y-134107142D01*
X172008380Y-124459904D02*
X172817904Y-124459904D01*
X172913142Y-124412285D01*
X172960761Y-124364666D01*
X173008380Y-124269428D01*
X173008380Y-124078952D01*
X172960761Y-123983714D01*
X172913142Y-123936095D01*
X172817904Y-123888476D01*
X172008380Y-123888476D01*
X172008380Y-122983714D02*
X172008380Y-123174190D01*
X172056000Y-123269428D01*
X172103619Y-123317047D01*
X172246476Y-123412285D01*
X172436952Y-123459904D01*
X172817904Y-123459904D01*
X172913142Y-123412285D01*
X172960761Y-123364666D01*
X173008380Y-123269428D01*
X173008380Y-123078952D01*
X172960761Y-122983714D01*
X172913142Y-122936095D01*
X172817904Y-122888476D01*
X172579809Y-122888476D01*
X172484571Y-122936095D01*
X172436952Y-122983714D01*
X172389333Y-123078952D01*
X172389333Y-123269428D01*
X172436952Y-123364666D01*
X172484571Y-123412285D01*
X172579809Y-123459904D01*
X192786095Y-125690380D02*
X192786095Y-126499904D01*
X192833714Y-126595142D01*
X192881333Y-126642761D01*
X192976571Y-126690380D01*
X193167047Y-126690380D01*
X193262285Y-126642761D01*
X193309904Y-126595142D01*
X193357523Y-126499904D01*
X193357523Y-125690380D01*
X193738476Y-125690380D02*
X194405142Y-125690380D01*
X193976571Y-126690380D01*
X185395142Y-116530380D02*
X185395142Y-115530380D01*
X185966571Y-116530380D01*
X185966571Y-115530380D01*
X186299904Y-115530380D02*
X186871333Y-115530380D01*
X186585619Y-116530380D02*
X186585619Y-115530380D01*
X187728476Y-116530380D02*
X187157047Y-116530380D01*
X187442761Y-116530380D02*
X187442761Y-115530380D01*
X187347523Y-115673238D01*
X187252285Y-115768476D01*
X187157047Y-115816095D01*
M02*
