G04 #@! TF.GenerationSoftware,KiCad,Pcbnew,5.1.6-c6e7f7d~87~ubuntu20.04.1*
G04 #@! TF.CreationDate,2021-01-07T23:37:28+02:00*
G04 #@! TF.ProjectId,LED_test_V1.3,4c45445f-7465-4737-945f-56312e332e6b,rev?*
G04 #@! TF.SameCoordinates,Original*
G04 #@! TF.FileFunction,Soldermask,Top*
G04 #@! TF.FilePolarity,Negative*
%FSLAX46Y46*%
G04 Gerber Fmt 4.6, Leading zero omitted, Abs format (unit mm)*
G04 Created by KiCad (PCBNEW 5.1.6-c6e7f7d~87~ubuntu20.04.1) date 2021-01-07 23:37:28*
%MOMM*%
%LPD*%
G01*
G04 APERTURE LIST*
%ADD10R,0.800000X0.900000*%
%ADD11R,1.650000X2.380000*%
%ADD12C,2.750000*%
%ADD13R,2.600000X2.600000*%
%ADD14C,1.800000*%
%ADD15R,1.800000X1.800000*%
%ADD16O,1.700000X1.700000*%
%ADD17R,1.700000X1.700000*%
%ADD18C,7.000000*%
%ADD19R,5.500000X1.430000*%
%ADD20C,1.600000*%
%ADD21R,1.220000X0.650000*%
%ADD22C,2.000000*%
%ADD23R,5.450000X5.450000*%
%ADD24R,0.650000X1.220000*%
%ADD25R,2.500000X2.500000*%
%ADD26C,0.254000*%
G04 APERTURE END LIST*
G36*
G01*
X159300000Y-78907500D02*
X159300000Y-78432500D01*
G75*
G02*
X159537500Y-78195000I237500J0D01*
G01*
X160112500Y-78195000D01*
G75*
G02*
X160350000Y-78432500I0J-237500D01*
G01*
X160350000Y-78907500D01*
G75*
G02*
X160112500Y-79145000I-237500J0D01*
G01*
X159537500Y-79145000D01*
G75*
G02*
X159300000Y-78907500I0J237500D01*
G01*
G37*
G36*
G01*
X157550000Y-78907500D02*
X157550000Y-78432500D01*
G75*
G02*
X157787500Y-78195000I237500J0D01*
G01*
X158362500Y-78195000D01*
G75*
G02*
X158600000Y-78432500I0J-237500D01*
G01*
X158600000Y-78907500D01*
G75*
G02*
X158362500Y-79145000I-237500J0D01*
G01*
X157787500Y-79145000D01*
G75*
G02*
X157550000Y-78907500I0J237500D01*
G01*
G37*
G36*
G01*
X144075999Y-105588000D02*
X144976001Y-105588000D01*
G75*
G02*
X145226000Y-105837999I0J-249999D01*
G01*
X145226000Y-106488001D01*
G75*
G02*
X144976001Y-106738000I-249999J0D01*
G01*
X144075999Y-106738000D01*
G75*
G02*
X143826000Y-106488001I0J249999D01*
G01*
X143826000Y-105837999D01*
G75*
G02*
X144075999Y-105588000I249999J0D01*
G01*
G37*
G36*
G01*
X144075999Y-107638000D02*
X144976001Y-107638000D01*
G75*
G02*
X145226000Y-107887999I0J-249999D01*
G01*
X145226000Y-108538001D01*
G75*
G02*
X144976001Y-108788000I-249999J0D01*
G01*
X144075999Y-108788000D01*
G75*
G02*
X143826000Y-108538001I0J249999D01*
G01*
X143826000Y-107887999D01*
G75*
G02*
X144075999Y-107638000I249999J0D01*
G01*
G37*
D10*
X180420000Y-127300000D03*
X179470000Y-125300000D03*
X181370000Y-125300000D03*
G36*
G01*
X182967500Y-129740000D02*
X183312500Y-129740000D01*
G75*
G02*
X183460000Y-129887500I0J-147500D01*
G01*
X183460000Y-130182500D01*
G75*
G02*
X183312500Y-130330000I-147500J0D01*
G01*
X182967500Y-130330000D01*
G75*
G02*
X182820000Y-130182500I0J147500D01*
G01*
X182820000Y-129887500D01*
G75*
G02*
X182967500Y-129740000I147500J0D01*
G01*
G37*
G36*
G01*
X182967500Y-128770000D02*
X183312500Y-128770000D01*
G75*
G02*
X183460000Y-128917500I0J-147500D01*
G01*
X183460000Y-129212500D01*
G75*
G02*
X183312500Y-129360000I-147500J0D01*
G01*
X182967500Y-129360000D01*
G75*
G02*
X182820000Y-129212500I0J147500D01*
G01*
X182820000Y-128917500D01*
G75*
G02*
X182967500Y-128770000I147500J0D01*
G01*
G37*
G36*
G01*
X131375000Y-90162500D02*
X131375000Y-90037500D01*
G75*
G02*
X131437500Y-89975000I62500J0D01*
G01*
X132162500Y-89975000D01*
G75*
G02*
X132225000Y-90037500I0J-62500D01*
G01*
X132225000Y-90162500D01*
G75*
G02*
X132162500Y-90225000I-62500J0D01*
G01*
X131437500Y-90225000D01*
G75*
G02*
X131375000Y-90162500I0J62500D01*
G01*
G37*
G36*
G01*
X131375000Y-90662500D02*
X131375000Y-90537500D01*
G75*
G02*
X131437500Y-90475000I62500J0D01*
G01*
X132162500Y-90475000D01*
G75*
G02*
X132225000Y-90537500I0J-62500D01*
G01*
X132225000Y-90662500D01*
G75*
G02*
X132162500Y-90725000I-62500J0D01*
G01*
X131437500Y-90725000D01*
G75*
G02*
X131375000Y-90662500I0J62500D01*
G01*
G37*
G36*
G01*
X131375000Y-91162500D02*
X131375000Y-91037500D01*
G75*
G02*
X131437500Y-90975000I62500J0D01*
G01*
X132162500Y-90975000D01*
G75*
G02*
X132225000Y-91037500I0J-62500D01*
G01*
X132225000Y-91162500D01*
G75*
G02*
X132162500Y-91225000I-62500J0D01*
G01*
X131437500Y-91225000D01*
G75*
G02*
X131375000Y-91162500I0J62500D01*
G01*
G37*
G36*
G01*
X131375000Y-91662500D02*
X131375000Y-91537500D01*
G75*
G02*
X131437500Y-91475000I62500J0D01*
G01*
X132162500Y-91475000D01*
G75*
G02*
X132225000Y-91537500I0J-62500D01*
G01*
X132225000Y-91662500D01*
G75*
G02*
X132162500Y-91725000I-62500J0D01*
G01*
X131437500Y-91725000D01*
G75*
G02*
X131375000Y-91662500I0J62500D01*
G01*
G37*
G36*
G01*
X131375000Y-92162500D02*
X131375000Y-92037500D01*
G75*
G02*
X131437500Y-91975000I62500J0D01*
G01*
X132162500Y-91975000D01*
G75*
G02*
X132225000Y-92037500I0J-62500D01*
G01*
X132225000Y-92162500D01*
G75*
G02*
X132162500Y-92225000I-62500J0D01*
G01*
X131437500Y-92225000D01*
G75*
G02*
X131375000Y-92162500I0J62500D01*
G01*
G37*
G36*
G01*
X134275000Y-92162500D02*
X134275000Y-92037500D01*
G75*
G02*
X134337500Y-91975000I62500J0D01*
G01*
X135062500Y-91975000D01*
G75*
G02*
X135125000Y-92037500I0J-62500D01*
G01*
X135125000Y-92162500D01*
G75*
G02*
X135062500Y-92225000I-62500J0D01*
G01*
X134337500Y-92225000D01*
G75*
G02*
X134275000Y-92162500I0J62500D01*
G01*
G37*
G36*
G01*
X134275000Y-91662500D02*
X134275000Y-91537500D01*
G75*
G02*
X134337500Y-91475000I62500J0D01*
G01*
X135062500Y-91475000D01*
G75*
G02*
X135125000Y-91537500I0J-62500D01*
G01*
X135125000Y-91662500D01*
G75*
G02*
X135062500Y-91725000I-62500J0D01*
G01*
X134337500Y-91725000D01*
G75*
G02*
X134275000Y-91662500I0J62500D01*
G01*
G37*
G36*
G01*
X134275000Y-91162500D02*
X134275000Y-91037500D01*
G75*
G02*
X134337500Y-90975000I62500J0D01*
G01*
X135062500Y-90975000D01*
G75*
G02*
X135125000Y-91037500I0J-62500D01*
G01*
X135125000Y-91162500D01*
G75*
G02*
X135062500Y-91225000I-62500J0D01*
G01*
X134337500Y-91225000D01*
G75*
G02*
X134275000Y-91162500I0J62500D01*
G01*
G37*
G36*
G01*
X134275000Y-90662500D02*
X134275000Y-90537500D01*
G75*
G02*
X134337500Y-90475000I62500J0D01*
G01*
X135062500Y-90475000D01*
G75*
G02*
X135125000Y-90537500I0J-62500D01*
G01*
X135125000Y-90662500D01*
G75*
G02*
X135062500Y-90725000I-62500J0D01*
G01*
X134337500Y-90725000D01*
G75*
G02*
X134275000Y-90662500I0J62500D01*
G01*
G37*
G36*
G01*
X134275000Y-90162500D02*
X134275000Y-90037500D01*
G75*
G02*
X134337500Y-89975000I62500J0D01*
G01*
X135062500Y-89975000D01*
G75*
G02*
X135125000Y-90037500I0J-62500D01*
G01*
X135125000Y-90162500D01*
G75*
G02*
X135062500Y-90225000I-62500J0D01*
G01*
X134337500Y-90225000D01*
G75*
G02*
X134275000Y-90162500I0J62500D01*
G01*
G37*
D11*
X133250000Y-91100000D03*
D12*
X184475000Y-70225000D03*
G36*
G01*
X185600001Y-77000000D02*
X183349999Y-77000000D01*
G75*
G02*
X183100000Y-76750001I0J249999D01*
G01*
X183100000Y-74499999D01*
G75*
G02*
X183349999Y-74250000I249999J0D01*
G01*
X185600001Y-74250000D01*
G75*
G02*
X185850000Y-74499999I0J-249999D01*
G01*
X185850000Y-76750001D01*
G75*
G02*
X185600001Y-77000000I-249999J0D01*
G01*
G37*
G36*
G01*
X148770000Y-106937500D02*
X148770000Y-106592500D01*
G75*
G02*
X148917500Y-106445000I147500J0D01*
G01*
X149212500Y-106445000D01*
G75*
G02*
X149360000Y-106592500I0J-147500D01*
G01*
X149360000Y-106937500D01*
G75*
G02*
X149212500Y-107085000I-147500J0D01*
G01*
X148917500Y-107085000D01*
G75*
G02*
X148770000Y-106937500I0J147500D01*
G01*
G37*
G36*
G01*
X147800000Y-106937500D02*
X147800000Y-106592500D01*
G75*
G02*
X147947500Y-106445000I147500J0D01*
G01*
X148242500Y-106445000D01*
G75*
G02*
X148390000Y-106592500I0J-147500D01*
G01*
X148390000Y-106937500D01*
G75*
G02*
X148242500Y-107085000I-147500J0D01*
G01*
X147947500Y-107085000D01*
G75*
G02*
X147800000Y-106937500I0J147500D01*
G01*
G37*
G36*
G01*
X148770000Y-105912500D02*
X148770000Y-105567500D01*
G75*
G02*
X148917500Y-105420000I147500J0D01*
G01*
X149212500Y-105420000D01*
G75*
G02*
X149360000Y-105567500I0J-147500D01*
G01*
X149360000Y-105912500D01*
G75*
G02*
X149212500Y-106060000I-147500J0D01*
G01*
X148917500Y-106060000D01*
G75*
G02*
X148770000Y-105912500I0J147500D01*
G01*
G37*
G36*
G01*
X147800000Y-105912500D02*
X147800000Y-105567500D01*
G75*
G02*
X147947500Y-105420000I147500J0D01*
G01*
X148242500Y-105420000D01*
G75*
G02*
X148390000Y-105567500I0J-147500D01*
G01*
X148390000Y-105912500D01*
G75*
G02*
X148242500Y-106060000I-147500J0D01*
G01*
X147947500Y-106060000D01*
G75*
G02*
X147800000Y-105912500I0J147500D01*
G01*
G37*
G36*
G01*
X147692500Y-94305000D02*
X148037500Y-94305000D01*
G75*
G02*
X148185000Y-94452500I0J-147500D01*
G01*
X148185000Y-94747500D01*
G75*
G02*
X148037500Y-94895000I-147500J0D01*
G01*
X147692500Y-94895000D01*
G75*
G02*
X147545000Y-94747500I0J147500D01*
G01*
X147545000Y-94452500D01*
G75*
G02*
X147692500Y-94305000I147500J0D01*
G01*
G37*
G36*
G01*
X147692500Y-93335000D02*
X148037500Y-93335000D01*
G75*
G02*
X148185000Y-93482500I0J-147500D01*
G01*
X148185000Y-93777500D01*
G75*
G02*
X148037500Y-93925000I-147500J0D01*
G01*
X147692500Y-93925000D01*
G75*
G02*
X147545000Y-93777500I0J147500D01*
G01*
X147545000Y-93482500D01*
G75*
G02*
X147692500Y-93335000I147500J0D01*
G01*
G37*
G36*
G01*
X146567500Y-94330000D02*
X146912500Y-94330000D01*
G75*
G02*
X147060000Y-94477500I0J-147500D01*
G01*
X147060000Y-94772500D01*
G75*
G02*
X146912500Y-94920000I-147500J0D01*
G01*
X146567500Y-94920000D01*
G75*
G02*
X146420000Y-94772500I0J147500D01*
G01*
X146420000Y-94477500D01*
G75*
G02*
X146567500Y-94330000I147500J0D01*
G01*
G37*
G36*
G01*
X146567500Y-93360000D02*
X146912500Y-93360000D01*
G75*
G02*
X147060000Y-93507500I0J-147500D01*
G01*
X147060000Y-93802500D01*
G75*
G02*
X146912500Y-93950000I-147500J0D01*
G01*
X146567500Y-93950000D01*
G75*
G02*
X146420000Y-93802500I0J147500D01*
G01*
X146420000Y-93507500D01*
G75*
G02*
X146567500Y-93360000I147500J0D01*
G01*
G37*
G36*
G01*
X176625000Y-75087500D02*
X176625000Y-75562500D01*
G75*
G02*
X176387500Y-75800000I-237500J0D01*
G01*
X175812500Y-75800000D01*
G75*
G02*
X175575000Y-75562500I0J237500D01*
G01*
X175575000Y-75087500D01*
G75*
G02*
X175812500Y-74850000I237500J0D01*
G01*
X176387500Y-74850000D01*
G75*
G02*
X176625000Y-75087500I0J-237500D01*
G01*
G37*
G36*
G01*
X178375000Y-75087500D02*
X178375000Y-75562500D01*
G75*
G02*
X178137500Y-75800000I-237500J0D01*
G01*
X177562500Y-75800000D01*
G75*
G02*
X177325000Y-75562500I0J237500D01*
G01*
X177325000Y-75087500D01*
G75*
G02*
X177562500Y-74850000I237500J0D01*
G01*
X178137500Y-74850000D01*
G75*
G02*
X178375000Y-75087500I0J-237500D01*
G01*
G37*
D13*
X121412000Y-118618000D03*
G36*
G01*
X122712000Y-120168000D02*
X122712000Y-120943000D01*
G75*
G02*
X122662000Y-120993000I-50000J0D01*
G01*
X122562000Y-120993000D01*
G75*
G02*
X122512000Y-120943000I0J50000D01*
G01*
X122512000Y-120168000D01*
G75*
G02*
X122562000Y-120118000I50000J0D01*
G01*
X122662000Y-120118000D01*
G75*
G02*
X122712000Y-120168000I0J-50000D01*
G01*
G37*
G36*
G01*
X122312000Y-120168000D02*
X122312000Y-120943000D01*
G75*
G02*
X122262000Y-120993000I-50000J0D01*
G01*
X122162000Y-120993000D01*
G75*
G02*
X122112000Y-120943000I0J50000D01*
G01*
X122112000Y-120168000D01*
G75*
G02*
X122162000Y-120118000I50000J0D01*
G01*
X122262000Y-120118000D01*
G75*
G02*
X122312000Y-120168000I0J-50000D01*
G01*
G37*
G36*
G01*
X121912000Y-120168000D02*
X121912000Y-120943000D01*
G75*
G02*
X121862000Y-120993000I-50000J0D01*
G01*
X121762000Y-120993000D01*
G75*
G02*
X121712000Y-120943000I0J50000D01*
G01*
X121712000Y-120168000D01*
G75*
G02*
X121762000Y-120118000I50000J0D01*
G01*
X121862000Y-120118000D01*
G75*
G02*
X121912000Y-120168000I0J-50000D01*
G01*
G37*
G36*
G01*
X121512000Y-120168000D02*
X121512000Y-120943000D01*
G75*
G02*
X121462000Y-120993000I-50000J0D01*
G01*
X121362000Y-120993000D01*
G75*
G02*
X121312000Y-120943000I0J50000D01*
G01*
X121312000Y-120168000D01*
G75*
G02*
X121362000Y-120118000I50000J0D01*
G01*
X121462000Y-120118000D01*
G75*
G02*
X121512000Y-120168000I0J-50000D01*
G01*
G37*
G36*
G01*
X121112000Y-120168000D02*
X121112000Y-120943000D01*
G75*
G02*
X121062000Y-120993000I-50000J0D01*
G01*
X120962000Y-120993000D01*
G75*
G02*
X120912000Y-120943000I0J50000D01*
G01*
X120912000Y-120168000D01*
G75*
G02*
X120962000Y-120118000I50000J0D01*
G01*
X121062000Y-120118000D01*
G75*
G02*
X121112000Y-120168000I0J-50000D01*
G01*
G37*
G36*
G01*
X120712000Y-120168000D02*
X120712000Y-120943000D01*
G75*
G02*
X120662000Y-120993000I-50000J0D01*
G01*
X120562000Y-120993000D01*
G75*
G02*
X120512000Y-120943000I0J50000D01*
G01*
X120512000Y-120168000D01*
G75*
G02*
X120562000Y-120118000I50000J0D01*
G01*
X120662000Y-120118000D01*
G75*
G02*
X120712000Y-120168000I0J-50000D01*
G01*
G37*
G36*
G01*
X120312000Y-120168000D02*
X120312000Y-120943000D01*
G75*
G02*
X120262000Y-120993000I-50000J0D01*
G01*
X120162000Y-120993000D01*
G75*
G02*
X120112000Y-120943000I0J50000D01*
G01*
X120112000Y-120168000D01*
G75*
G02*
X120162000Y-120118000I50000J0D01*
G01*
X120262000Y-120118000D01*
G75*
G02*
X120312000Y-120168000I0J-50000D01*
G01*
G37*
G36*
G01*
X119912000Y-119768000D02*
X119912000Y-119868000D01*
G75*
G02*
X119862000Y-119918000I-50000J0D01*
G01*
X119087000Y-119918000D01*
G75*
G02*
X119037000Y-119868000I0J50000D01*
G01*
X119037000Y-119768000D01*
G75*
G02*
X119087000Y-119718000I50000J0D01*
G01*
X119862000Y-119718000D01*
G75*
G02*
X119912000Y-119768000I0J-50000D01*
G01*
G37*
G36*
G01*
X119912000Y-119368000D02*
X119912000Y-119468000D01*
G75*
G02*
X119862000Y-119518000I-50000J0D01*
G01*
X119087000Y-119518000D01*
G75*
G02*
X119037000Y-119468000I0J50000D01*
G01*
X119037000Y-119368000D01*
G75*
G02*
X119087000Y-119318000I50000J0D01*
G01*
X119862000Y-119318000D01*
G75*
G02*
X119912000Y-119368000I0J-50000D01*
G01*
G37*
G36*
G01*
X119912000Y-118968000D02*
X119912000Y-119068000D01*
G75*
G02*
X119862000Y-119118000I-50000J0D01*
G01*
X119087000Y-119118000D01*
G75*
G02*
X119037000Y-119068000I0J50000D01*
G01*
X119037000Y-118968000D01*
G75*
G02*
X119087000Y-118918000I50000J0D01*
G01*
X119862000Y-118918000D01*
G75*
G02*
X119912000Y-118968000I0J-50000D01*
G01*
G37*
G36*
G01*
X119912000Y-118568000D02*
X119912000Y-118668000D01*
G75*
G02*
X119862000Y-118718000I-50000J0D01*
G01*
X119087000Y-118718000D01*
G75*
G02*
X119037000Y-118668000I0J50000D01*
G01*
X119037000Y-118568000D01*
G75*
G02*
X119087000Y-118518000I50000J0D01*
G01*
X119862000Y-118518000D01*
G75*
G02*
X119912000Y-118568000I0J-50000D01*
G01*
G37*
G36*
G01*
X119912000Y-118168000D02*
X119912000Y-118268000D01*
G75*
G02*
X119862000Y-118318000I-50000J0D01*
G01*
X119087000Y-118318000D01*
G75*
G02*
X119037000Y-118268000I0J50000D01*
G01*
X119037000Y-118168000D01*
G75*
G02*
X119087000Y-118118000I50000J0D01*
G01*
X119862000Y-118118000D01*
G75*
G02*
X119912000Y-118168000I0J-50000D01*
G01*
G37*
G36*
G01*
X119912000Y-117768000D02*
X119912000Y-117868000D01*
G75*
G02*
X119862000Y-117918000I-50000J0D01*
G01*
X119087000Y-117918000D01*
G75*
G02*
X119037000Y-117868000I0J50000D01*
G01*
X119037000Y-117768000D01*
G75*
G02*
X119087000Y-117718000I50000J0D01*
G01*
X119862000Y-117718000D01*
G75*
G02*
X119912000Y-117768000I0J-50000D01*
G01*
G37*
G36*
G01*
X119912000Y-117368000D02*
X119912000Y-117468000D01*
G75*
G02*
X119862000Y-117518000I-50000J0D01*
G01*
X119087000Y-117518000D01*
G75*
G02*
X119037000Y-117468000I0J50000D01*
G01*
X119037000Y-117368000D01*
G75*
G02*
X119087000Y-117318000I50000J0D01*
G01*
X119862000Y-117318000D01*
G75*
G02*
X119912000Y-117368000I0J-50000D01*
G01*
G37*
G36*
G01*
X120312000Y-116293000D02*
X120312000Y-117068000D01*
G75*
G02*
X120262000Y-117118000I-50000J0D01*
G01*
X120162000Y-117118000D01*
G75*
G02*
X120112000Y-117068000I0J50000D01*
G01*
X120112000Y-116293000D01*
G75*
G02*
X120162000Y-116243000I50000J0D01*
G01*
X120262000Y-116243000D01*
G75*
G02*
X120312000Y-116293000I0J-50000D01*
G01*
G37*
G36*
G01*
X120712000Y-116293000D02*
X120712000Y-117068000D01*
G75*
G02*
X120662000Y-117118000I-50000J0D01*
G01*
X120562000Y-117118000D01*
G75*
G02*
X120512000Y-117068000I0J50000D01*
G01*
X120512000Y-116293000D01*
G75*
G02*
X120562000Y-116243000I50000J0D01*
G01*
X120662000Y-116243000D01*
G75*
G02*
X120712000Y-116293000I0J-50000D01*
G01*
G37*
G36*
G01*
X121112000Y-116293000D02*
X121112000Y-117068000D01*
G75*
G02*
X121062000Y-117118000I-50000J0D01*
G01*
X120962000Y-117118000D01*
G75*
G02*
X120912000Y-117068000I0J50000D01*
G01*
X120912000Y-116293000D01*
G75*
G02*
X120962000Y-116243000I50000J0D01*
G01*
X121062000Y-116243000D01*
G75*
G02*
X121112000Y-116293000I0J-50000D01*
G01*
G37*
G36*
G01*
X121512000Y-116293000D02*
X121512000Y-117068000D01*
G75*
G02*
X121462000Y-117118000I-50000J0D01*
G01*
X121362000Y-117118000D01*
G75*
G02*
X121312000Y-117068000I0J50000D01*
G01*
X121312000Y-116293000D01*
G75*
G02*
X121362000Y-116243000I50000J0D01*
G01*
X121462000Y-116243000D01*
G75*
G02*
X121512000Y-116293000I0J-50000D01*
G01*
G37*
G36*
G01*
X121912000Y-116293000D02*
X121912000Y-117068000D01*
G75*
G02*
X121862000Y-117118000I-50000J0D01*
G01*
X121762000Y-117118000D01*
G75*
G02*
X121712000Y-117068000I0J50000D01*
G01*
X121712000Y-116293000D01*
G75*
G02*
X121762000Y-116243000I50000J0D01*
G01*
X121862000Y-116243000D01*
G75*
G02*
X121912000Y-116293000I0J-50000D01*
G01*
G37*
G36*
G01*
X122312000Y-116293000D02*
X122312000Y-117068000D01*
G75*
G02*
X122262000Y-117118000I-50000J0D01*
G01*
X122162000Y-117118000D01*
G75*
G02*
X122112000Y-117068000I0J50000D01*
G01*
X122112000Y-116293000D01*
G75*
G02*
X122162000Y-116243000I50000J0D01*
G01*
X122262000Y-116243000D01*
G75*
G02*
X122312000Y-116293000I0J-50000D01*
G01*
G37*
G36*
G01*
X122712000Y-116293000D02*
X122712000Y-117068000D01*
G75*
G02*
X122662000Y-117118000I-50000J0D01*
G01*
X122562000Y-117118000D01*
G75*
G02*
X122512000Y-117068000I0J50000D01*
G01*
X122512000Y-116293000D01*
G75*
G02*
X122562000Y-116243000I50000J0D01*
G01*
X122662000Y-116243000D01*
G75*
G02*
X122712000Y-116293000I0J-50000D01*
G01*
G37*
G36*
G01*
X123787000Y-117368000D02*
X123787000Y-117468000D01*
G75*
G02*
X123737000Y-117518000I-50000J0D01*
G01*
X122962000Y-117518000D01*
G75*
G02*
X122912000Y-117468000I0J50000D01*
G01*
X122912000Y-117368000D01*
G75*
G02*
X122962000Y-117318000I50000J0D01*
G01*
X123737000Y-117318000D01*
G75*
G02*
X123787000Y-117368000I0J-50000D01*
G01*
G37*
G36*
G01*
X123787000Y-117768000D02*
X123787000Y-117868000D01*
G75*
G02*
X123737000Y-117918000I-50000J0D01*
G01*
X122962000Y-117918000D01*
G75*
G02*
X122912000Y-117868000I0J50000D01*
G01*
X122912000Y-117768000D01*
G75*
G02*
X122962000Y-117718000I50000J0D01*
G01*
X123737000Y-117718000D01*
G75*
G02*
X123787000Y-117768000I0J-50000D01*
G01*
G37*
G36*
G01*
X123787000Y-118168000D02*
X123787000Y-118268000D01*
G75*
G02*
X123737000Y-118318000I-50000J0D01*
G01*
X122962000Y-118318000D01*
G75*
G02*
X122912000Y-118268000I0J50000D01*
G01*
X122912000Y-118168000D01*
G75*
G02*
X122962000Y-118118000I50000J0D01*
G01*
X123737000Y-118118000D01*
G75*
G02*
X123787000Y-118168000I0J-50000D01*
G01*
G37*
G36*
G01*
X123787000Y-118568000D02*
X123787000Y-118668000D01*
G75*
G02*
X123737000Y-118718000I-50000J0D01*
G01*
X122962000Y-118718000D01*
G75*
G02*
X122912000Y-118668000I0J50000D01*
G01*
X122912000Y-118568000D01*
G75*
G02*
X122962000Y-118518000I50000J0D01*
G01*
X123737000Y-118518000D01*
G75*
G02*
X123787000Y-118568000I0J-50000D01*
G01*
G37*
G36*
G01*
X123787000Y-118968000D02*
X123787000Y-119068000D01*
G75*
G02*
X123737000Y-119118000I-50000J0D01*
G01*
X122962000Y-119118000D01*
G75*
G02*
X122912000Y-119068000I0J50000D01*
G01*
X122912000Y-118968000D01*
G75*
G02*
X122962000Y-118918000I50000J0D01*
G01*
X123737000Y-118918000D01*
G75*
G02*
X123787000Y-118968000I0J-50000D01*
G01*
G37*
G36*
G01*
X123787000Y-119368000D02*
X123787000Y-119468000D01*
G75*
G02*
X123737000Y-119518000I-50000J0D01*
G01*
X122962000Y-119518000D01*
G75*
G02*
X122912000Y-119468000I0J50000D01*
G01*
X122912000Y-119368000D01*
G75*
G02*
X122962000Y-119318000I50000J0D01*
G01*
X123737000Y-119318000D01*
G75*
G02*
X123787000Y-119368000I0J-50000D01*
G01*
G37*
G36*
G01*
X123787000Y-119768000D02*
X123787000Y-119868000D01*
G75*
G02*
X123737000Y-119918000I-50000J0D01*
G01*
X122962000Y-119918000D01*
G75*
G02*
X122912000Y-119868000I0J50000D01*
G01*
X122912000Y-119768000D01*
G75*
G02*
X122962000Y-119718000I50000J0D01*
G01*
X123737000Y-119718000D01*
G75*
G02*
X123787000Y-119768000I0J-50000D01*
G01*
G37*
D14*
X179070000Y-97282000D03*
D15*
X181610000Y-97282000D03*
G36*
G01*
X176038500Y-114142000D02*
X176513500Y-114142000D01*
G75*
G02*
X176751000Y-114379500I0J-237500D01*
G01*
X176751000Y-114954500D01*
G75*
G02*
X176513500Y-115192000I-237500J0D01*
G01*
X176038500Y-115192000D01*
G75*
G02*
X175801000Y-114954500I0J237500D01*
G01*
X175801000Y-114379500D01*
G75*
G02*
X176038500Y-114142000I237500J0D01*
G01*
G37*
G36*
G01*
X176038500Y-112392000D02*
X176513500Y-112392000D01*
G75*
G02*
X176751000Y-112629500I0J-237500D01*
G01*
X176751000Y-113204500D01*
G75*
G02*
X176513500Y-113442000I-237500J0D01*
G01*
X176038500Y-113442000D01*
G75*
G02*
X175801000Y-113204500I0J237500D01*
G01*
X175801000Y-112629500D01*
G75*
G02*
X176038500Y-112392000I237500J0D01*
G01*
G37*
G36*
G01*
X169862000Y-119298500D02*
X169862000Y-118953500D01*
G75*
G02*
X170009500Y-118806000I147500J0D01*
G01*
X170304500Y-118806000D01*
G75*
G02*
X170452000Y-118953500I0J-147500D01*
G01*
X170452000Y-119298500D01*
G75*
G02*
X170304500Y-119446000I-147500J0D01*
G01*
X170009500Y-119446000D01*
G75*
G02*
X169862000Y-119298500I0J147500D01*
G01*
G37*
G36*
G01*
X168892000Y-119298500D02*
X168892000Y-118953500D01*
G75*
G02*
X169039500Y-118806000I147500J0D01*
G01*
X169334500Y-118806000D01*
G75*
G02*
X169482000Y-118953500I0J-147500D01*
G01*
X169482000Y-119298500D01*
G75*
G02*
X169334500Y-119446000I-147500J0D01*
G01*
X169039500Y-119446000D01*
G75*
G02*
X168892000Y-119298500I0J147500D01*
G01*
G37*
G36*
G01*
X182944000Y-135463500D02*
X182944000Y-135808500D01*
G75*
G02*
X182796500Y-135956000I-147500J0D01*
G01*
X182501500Y-135956000D01*
G75*
G02*
X182354000Y-135808500I0J147500D01*
G01*
X182354000Y-135463500D01*
G75*
G02*
X182501500Y-135316000I147500J0D01*
G01*
X182796500Y-135316000D01*
G75*
G02*
X182944000Y-135463500I0J-147500D01*
G01*
G37*
G36*
G01*
X183914000Y-135463500D02*
X183914000Y-135808500D01*
G75*
G02*
X183766500Y-135956000I-147500J0D01*
G01*
X183471500Y-135956000D01*
G75*
G02*
X183324000Y-135808500I0J147500D01*
G01*
X183324000Y-135463500D01*
G75*
G02*
X183471500Y-135316000I147500J0D01*
G01*
X183766500Y-135316000D01*
G75*
G02*
X183914000Y-135463500I0J-147500D01*
G01*
G37*
G36*
G01*
X169862000Y-120568500D02*
X169862000Y-120223500D01*
G75*
G02*
X170009500Y-120076000I147500J0D01*
G01*
X170304500Y-120076000D01*
G75*
G02*
X170452000Y-120223500I0J-147500D01*
G01*
X170452000Y-120568500D01*
G75*
G02*
X170304500Y-120716000I-147500J0D01*
G01*
X170009500Y-120716000D01*
G75*
G02*
X169862000Y-120568500I0J147500D01*
G01*
G37*
G36*
G01*
X168892000Y-120568500D02*
X168892000Y-120223500D01*
G75*
G02*
X169039500Y-120076000I147500J0D01*
G01*
X169334500Y-120076000D01*
G75*
G02*
X169482000Y-120223500I0J-147500D01*
G01*
X169482000Y-120568500D01*
G75*
G02*
X169334500Y-120716000I-147500J0D01*
G01*
X169039500Y-120716000D01*
G75*
G02*
X168892000Y-120568500I0J147500D01*
G01*
G37*
G36*
G01*
X182944000Y-136479500D02*
X182944000Y-136824500D01*
G75*
G02*
X182796500Y-136972000I-147500J0D01*
G01*
X182501500Y-136972000D01*
G75*
G02*
X182354000Y-136824500I0J147500D01*
G01*
X182354000Y-136479500D01*
G75*
G02*
X182501500Y-136332000I147500J0D01*
G01*
X182796500Y-136332000D01*
G75*
G02*
X182944000Y-136479500I0J-147500D01*
G01*
G37*
G36*
G01*
X183914000Y-136479500D02*
X183914000Y-136824500D01*
G75*
G02*
X183766500Y-136972000I-147500J0D01*
G01*
X183471500Y-136972000D01*
G75*
G02*
X183324000Y-136824500I0J147500D01*
G01*
X183324000Y-136479500D01*
G75*
G02*
X183471500Y-136332000I147500J0D01*
G01*
X183766500Y-136332000D01*
G75*
G02*
X183914000Y-136479500I0J-147500D01*
G01*
G37*
G36*
G01*
X186608500Y-129350000D02*
X186263500Y-129350000D01*
G75*
G02*
X186116000Y-129202500I0J147500D01*
G01*
X186116000Y-128907500D01*
G75*
G02*
X186263500Y-128760000I147500J0D01*
G01*
X186608500Y-128760000D01*
G75*
G02*
X186756000Y-128907500I0J-147500D01*
G01*
X186756000Y-129202500D01*
G75*
G02*
X186608500Y-129350000I-147500J0D01*
G01*
G37*
G36*
G01*
X186608500Y-130320000D02*
X186263500Y-130320000D01*
G75*
G02*
X186116000Y-130172500I0J147500D01*
G01*
X186116000Y-129877500D01*
G75*
G02*
X186263500Y-129730000I147500J0D01*
G01*
X186608500Y-129730000D01*
G75*
G02*
X186756000Y-129877500I0J-147500D01*
G01*
X186756000Y-130172500D01*
G75*
G02*
X186608500Y-130320000I-147500J0D01*
G01*
G37*
G36*
G01*
X180150000Y-135971500D02*
X180150000Y-136316500D01*
G75*
G02*
X180002500Y-136464000I-147500J0D01*
G01*
X179707500Y-136464000D01*
G75*
G02*
X179560000Y-136316500I0J147500D01*
G01*
X179560000Y-135971500D01*
G75*
G02*
X179707500Y-135824000I147500J0D01*
G01*
X180002500Y-135824000D01*
G75*
G02*
X180150000Y-135971500I0J-147500D01*
G01*
G37*
G36*
G01*
X181120000Y-135971500D02*
X181120000Y-136316500D01*
G75*
G02*
X180972500Y-136464000I-147500J0D01*
G01*
X180677500Y-136464000D01*
G75*
G02*
X180530000Y-136316500I0J147500D01*
G01*
X180530000Y-135971500D01*
G75*
G02*
X180677500Y-135824000I147500J0D01*
G01*
X180972500Y-135824000D01*
G75*
G02*
X181120000Y-135971500I0J-147500D01*
G01*
G37*
G36*
G01*
X184097500Y-129740000D02*
X184442500Y-129740000D01*
G75*
G02*
X184590000Y-129887500I0J-147500D01*
G01*
X184590000Y-130182500D01*
G75*
G02*
X184442500Y-130330000I-147500J0D01*
G01*
X184097500Y-130330000D01*
G75*
G02*
X183950000Y-130182500I0J147500D01*
G01*
X183950000Y-129887500D01*
G75*
G02*
X184097500Y-129740000I147500J0D01*
G01*
G37*
G36*
G01*
X184097500Y-128770000D02*
X184442500Y-128770000D01*
G75*
G02*
X184590000Y-128917500I0J-147500D01*
G01*
X184590000Y-129212500D01*
G75*
G02*
X184442500Y-129360000I-147500J0D01*
G01*
X184097500Y-129360000D01*
G75*
G02*
X183950000Y-129212500I0J147500D01*
G01*
X183950000Y-128917500D01*
G75*
G02*
X184097500Y-128770000I147500J0D01*
G01*
G37*
G36*
G01*
X185592500Y-129340000D02*
X185247500Y-129340000D01*
G75*
G02*
X185100000Y-129192500I0J147500D01*
G01*
X185100000Y-128897500D01*
G75*
G02*
X185247500Y-128750000I147500J0D01*
G01*
X185592500Y-128750000D01*
G75*
G02*
X185740000Y-128897500I0J-147500D01*
G01*
X185740000Y-129192500D01*
G75*
G02*
X185592500Y-129340000I-147500J0D01*
G01*
G37*
G36*
G01*
X185592500Y-130310000D02*
X185247500Y-130310000D01*
G75*
G02*
X185100000Y-130162500I0J147500D01*
G01*
X185100000Y-129867500D01*
G75*
G02*
X185247500Y-129720000I147500J0D01*
G01*
X185592500Y-129720000D01*
G75*
G02*
X185740000Y-129867500I0J-147500D01*
G01*
X185740000Y-130162500D01*
G75*
G02*
X185592500Y-130310000I-147500J0D01*
G01*
G37*
G36*
G01*
X180150000Y-134955500D02*
X180150000Y-135300500D01*
G75*
G02*
X180002500Y-135448000I-147500J0D01*
G01*
X179707500Y-135448000D01*
G75*
G02*
X179560000Y-135300500I0J147500D01*
G01*
X179560000Y-134955500D01*
G75*
G02*
X179707500Y-134808000I147500J0D01*
G01*
X180002500Y-134808000D01*
G75*
G02*
X180150000Y-134955500I0J-147500D01*
G01*
G37*
G36*
G01*
X181120000Y-134955500D02*
X181120000Y-135300500D01*
G75*
G02*
X180972500Y-135448000I-147500J0D01*
G01*
X180677500Y-135448000D01*
G75*
G02*
X180530000Y-135300500I0J147500D01*
G01*
X180530000Y-134955500D01*
G75*
G02*
X180677500Y-134808000I147500J0D01*
G01*
X180972500Y-134808000D01*
G75*
G02*
X181120000Y-134955500I0J-147500D01*
G01*
G37*
G36*
G01*
X131972500Y-88010000D02*
X131627500Y-88010000D01*
G75*
G02*
X131480000Y-87862500I0J147500D01*
G01*
X131480000Y-87567500D01*
G75*
G02*
X131627500Y-87420000I147500J0D01*
G01*
X131972500Y-87420000D01*
G75*
G02*
X132120000Y-87567500I0J-147500D01*
G01*
X132120000Y-87862500D01*
G75*
G02*
X131972500Y-88010000I-147500J0D01*
G01*
G37*
G36*
G01*
X131972500Y-88980000D02*
X131627500Y-88980000D01*
G75*
G02*
X131480000Y-88832500I0J147500D01*
G01*
X131480000Y-88537500D01*
G75*
G02*
X131627500Y-88390000I147500J0D01*
G01*
X131972500Y-88390000D01*
G75*
G02*
X132120000Y-88537500I0J-147500D01*
G01*
X132120000Y-88832500D01*
G75*
G02*
X131972500Y-88980000I-147500J0D01*
G01*
G37*
G36*
G01*
X133922500Y-95855000D02*
X134267500Y-95855000D01*
G75*
G02*
X134415000Y-96002500I0J-147500D01*
G01*
X134415000Y-96297500D01*
G75*
G02*
X134267500Y-96445000I-147500J0D01*
G01*
X133922500Y-96445000D01*
G75*
G02*
X133775000Y-96297500I0J147500D01*
G01*
X133775000Y-96002500D01*
G75*
G02*
X133922500Y-95855000I147500J0D01*
G01*
G37*
G36*
G01*
X133922500Y-94885000D02*
X134267500Y-94885000D01*
G75*
G02*
X134415000Y-95032500I0J-147500D01*
G01*
X134415000Y-95327500D01*
G75*
G02*
X134267500Y-95475000I-147500J0D01*
G01*
X133922500Y-95475000D01*
G75*
G02*
X133775000Y-95327500I0J147500D01*
G01*
X133775000Y-95032500D01*
G75*
G02*
X133922500Y-94885000I147500J0D01*
G01*
G37*
G36*
G01*
X130797500Y-95880000D02*
X131142500Y-95880000D01*
G75*
G02*
X131290000Y-96027500I0J-147500D01*
G01*
X131290000Y-96322500D01*
G75*
G02*
X131142500Y-96470000I-147500J0D01*
G01*
X130797500Y-96470000D01*
G75*
G02*
X130650000Y-96322500I0J147500D01*
G01*
X130650000Y-96027500D01*
G75*
G02*
X130797500Y-95880000I147500J0D01*
G01*
G37*
G36*
G01*
X130797500Y-94910000D02*
X131142500Y-94910000D01*
G75*
G02*
X131290000Y-95057500I0J-147500D01*
G01*
X131290000Y-95352500D01*
G75*
G02*
X131142500Y-95500000I-147500J0D01*
G01*
X130797500Y-95500000D01*
G75*
G02*
X130650000Y-95352500I0J147500D01*
G01*
X130650000Y-95057500D01*
G75*
G02*
X130797500Y-94910000I147500J0D01*
G01*
G37*
G36*
G01*
X132997500Y-87985000D02*
X132652500Y-87985000D01*
G75*
G02*
X132505000Y-87837500I0J147500D01*
G01*
X132505000Y-87542500D01*
G75*
G02*
X132652500Y-87395000I147500J0D01*
G01*
X132997500Y-87395000D01*
G75*
G02*
X133145000Y-87542500I0J-147500D01*
G01*
X133145000Y-87837500D01*
G75*
G02*
X132997500Y-87985000I-147500J0D01*
G01*
G37*
G36*
G01*
X132997500Y-88955000D02*
X132652500Y-88955000D01*
G75*
G02*
X132505000Y-88807500I0J147500D01*
G01*
X132505000Y-88512500D01*
G75*
G02*
X132652500Y-88365000I147500J0D01*
G01*
X132997500Y-88365000D01*
G75*
G02*
X133145000Y-88512500I0J-147500D01*
G01*
X133145000Y-88807500D01*
G75*
G02*
X132997500Y-88955000I-147500J0D01*
G01*
G37*
G36*
G01*
X132922500Y-95855000D02*
X133267500Y-95855000D01*
G75*
G02*
X133415000Y-96002500I0J-147500D01*
G01*
X133415000Y-96297500D01*
G75*
G02*
X133267500Y-96445000I-147500J0D01*
G01*
X132922500Y-96445000D01*
G75*
G02*
X132775000Y-96297500I0J147500D01*
G01*
X132775000Y-96002500D01*
G75*
G02*
X132922500Y-95855000I147500J0D01*
G01*
G37*
G36*
G01*
X132922500Y-94885000D02*
X133267500Y-94885000D01*
G75*
G02*
X133415000Y-95032500I0J-147500D01*
G01*
X133415000Y-95327500D01*
G75*
G02*
X133267500Y-95475000I-147500J0D01*
G01*
X132922500Y-95475000D01*
G75*
G02*
X132775000Y-95327500I0J147500D01*
G01*
X132775000Y-95032500D01*
G75*
G02*
X132922500Y-94885000I147500J0D01*
G01*
G37*
G36*
G01*
X131872500Y-95855000D02*
X132217500Y-95855000D01*
G75*
G02*
X132365000Y-96002500I0J-147500D01*
G01*
X132365000Y-96297500D01*
G75*
G02*
X132217500Y-96445000I-147500J0D01*
G01*
X131872500Y-96445000D01*
G75*
G02*
X131725000Y-96297500I0J147500D01*
G01*
X131725000Y-96002500D01*
G75*
G02*
X131872500Y-95855000I147500J0D01*
G01*
G37*
G36*
G01*
X131872500Y-94885000D02*
X132217500Y-94885000D01*
G75*
G02*
X132365000Y-95032500I0J-147500D01*
G01*
X132365000Y-95327500D01*
G75*
G02*
X132217500Y-95475000I-147500J0D01*
G01*
X131872500Y-95475000D01*
G75*
G02*
X131725000Y-95327500I0J147500D01*
G01*
X131725000Y-95032500D01*
G75*
G02*
X131872500Y-94885000I147500J0D01*
G01*
G37*
G36*
G01*
X135947500Y-87935000D02*
X135602500Y-87935000D01*
G75*
G02*
X135455000Y-87787500I0J147500D01*
G01*
X135455000Y-87492500D01*
G75*
G02*
X135602500Y-87345000I147500J0D01*
G01*
X135947500Y-87345000D01*
G75*
G02*
X136095000Y-87492500I0J-147500D01*
G01*
X136095000Y-87787500D01*
G75*
G02*
X135947500Y-87935000I-147500J0D01*
G01*
G37*
G36*
G01*
X135947500Y-88905000D02*
X135602500Y-88905000D01*
G75*
G02*
X135455000Y-88757500I0J147500D01*
G01*
X135455000Y-88462500D01*
G75*
G02*
X135602500Y-88315000I147500J0D01*
G01*
X135947500Y-88315000D01*
G75*
G02*
X136095000Y-88462500I0J-147500D01*
G01*
X136095000Y-88757500D01*
G75*
G02*
X135947500Y-88905000I-147500J0D01*
G01*
G37*
G36*
G01*
X134527500Y-88265000D02*
X134872500Y-88265000D01*
G75*
G02*
X135020000Y-88412500I0J-147500D01*
G01*
X135020000Y-88707500D01*
G75*
G02*
X134872500Y-88855000I-147500J0D01*
G01*
X134527500Y-88855000D01*
G75*
G02*
X134380000Y-88707500I0J147500D01*
G01*
X134380000Y-88412500D01*
G75*
G02*
X134527500Y-88265000I147500J0D01*
G01*
G37*
G36*
G01*
X134527500Y-87295000D02*
X134872500Y-87295000D01*
G75*
G02*
X135020000Y-87442500I0J-147500D01*
G01*
X135020000Y-87737500D01*
G75*
G02*
X134872500Y-87885000I-147500J0D01*
G01*
X134527500Y-87885000D01*
G75*
G02*
X134380000Y-87737500I0J147500D01*
G01*
X134380000Y-87442500D01*
G75*
G02*
X134527500Y-87295000I147500J0D01*
G01*
G37*
G36*
G01*
X137842500Y-140610000D02*
X138317500Y-140610000D01*
G75*
G02*
X138555000Y-140847500I0J-237500D01*
G01*
X138555000Y-141422500D01*
G75*
G02*
X138317500Y-141660000I-237500J0D01*
G01*
X137842500Y-141660000D01*
G75*
G02*
X137605000Y-141422500I0J237500D01*
G01*
X137605000Y-140847500D01*
G75*
G02*
X137842500Y-140610000I237500J0D01*
G01*
G37*
G36*
G01*
X137842500Y-138860000D02*
X138317500Y-138860000D01*
G75*
G02*
X138555000Y-139097500I0J-237500D01*
G01*
X138555000Y-139672500D01*
G75*
G02*
X138317500Y-139910000I-237500J0D01*
G01*
X137842500Y-139910000D01*
G75*
G02*
X137605000Y-139672500I0J237500D01*
G01*
X137605000Y-139097500D01*
G75*
G02*
X137842500Y-138860000I237500J0D01*
G01*
G37*
D16*
X140462000Y-134620000D03*
X137922000Y-134620000D03*
X135382000Y-134620000D03*
X132842000Y-134620000D03*
X130302000Y-134620000D03*
X127762000Y-134620000D03*
X125222000Y-134620000D03*
X122682000Y-134620000D03*
X120142000Y-134620000D03*
D17*
X117602000Y-134620000D03*
D16*
X111760000Y-110490000D03*
X111760000Y-113030000D03*
X111760000Y-115570000D03*
X111760000Y-118110000D03*
X111760000Y-120650000D03*
X111760000Y-123190000D03*
X111760000Y-125730000D03*
D17*
X111760000Y-128270000D03*
G36*
G01*
X121395500Y-125380000D02*
X120920500Y-125380000D01*
G75*
G02*
X120683000Y-125142500I0J237500D01*
G01*
X120683000Y-124567500D01*
G75*
G02*
X120920500Y-124330000I237500J0D01*
G01*
X121395500Y-124330000D01*
G75*
G02*
X121633000Y-124567500I0J-237500D01*
G01*
X121633000Y-125142500D01*
G75*
G02*
X121395500Y-125380000I-237500J0D01*
G01*
G37*
G36*
G01*
X121395500Y-127130000D02*
X120920500Y-127130000D01*
G75*
G02*
X120683000Y-126892500I0J237500D01*
G01*
X120683000Y-126317500D01*
G75*
G02*
X120920500Y-126080000I237500J0D01*
G01*
X121395500Y-126080000D01*
G75*
G02*
X121633000Y-126317500I0J-237500D01*
G01*
X121633000Y-126892500D01*
G75*
G02*
X121395500Y-127130000I-237500J0D01*
G01*
G37*
G36*
G01*
X159299999Y-81890000D02*
X160200001Y-81890000D01*
G75*
G02*
X160450000Y-82139999I0J-249999D01*
G01*
X160450000Y-82790001D01*
G75*
G02*
X160200001Y-83040000I-249999J0D01*
G01*
X159299999Y-83040000D01*
G75*
G02*
X159050000Y-82790001I0J249999D01*
G01*
X159050000Y-82139999D01*
G75*
G02*
X159299999Y-81890000I249999J0D01*
G01*
G37*
G36*
G01*
X159299999Y-79840000D02*
X160200001Y-79840000D01*
G75*
G02*
X160450000Y-80089999I0J-249999D01*
G01*
X160450000Y-80740001D01*
G75*
G02*
X160200001Y-80990000I-249999J0D01*
G01*
X159299999Y-80990000D01*
G75*
G02*
X159050000Y-80740001I0J249999D01*
G01*
X159050000Y-80089999D01*
G75*
G02*
X159299999Y-79840000I249999J0D01*
G01*
G37*
G36*
G01*
X171525000Y-75224999D02*
X171525000Y-76125001D01*
G75*
G02*
X171275001Y-76375000I-249999J0D01*
G01*
X170624999Y-76375000D01*
G75*
G02*
X170375000Y-76125001I0J249999D01*
G01*
X170375000Y-75224999D01*
G75*
G02*
X170624999Y-74975000I249999J0D01*
G01*
X171275001Y-74975000D01*
G75*
G02*
X171525000Y-75224999I0J-249999D01*
G01*
G37*
G36*
G01*
X169475000Y-75224999D02*
X169475000Y-76125001D01*
G75*
G02*
X169225001Y-76375000I-249999J0D01*
G01*
X168574999Y-76375000D01*
G75*
G02*
X168325000Y-76125001I0J249999D01*
G01*
X168325000Y-75224999D01*
G75*
G02*
X168574999Y-74975000I249999J0D01*
G01*
X169225001Y-74975000D01*
G75*
G02*
X169475000Y-75224999I0J-249999D01*
G01*
G37*
G36*
G01*
X172050000Y-69575001D02*
X172050000Y-68674999D01*
G75*
G02*
X172299999Y-68425000I249999J0D01*
G01*
X172950001Y-68425000D01*
G75*
G02*
X173200000Y-68674999I0J-249999D01*
G01*
X173200000Y-69575001D01*
G75*
G02*
X172950001Y-69825000I-249999J0D01*
G01*
X172299999Y-69825000D01*
G75*
G02*
X172050000Y-69575001I0J249999D01*
G01*
G37*
G36*
G01*
X174100000Y-69575001D02*
X174100000Y-68674999D01*
G75*
G02*
X174349999Y-68425000I249999J0D01*
G01*
X175000001Y-68425000D01*
G75*
G02*
X175250000Y-68674999I0J-249999D01*
G01*
X175250000Y-69575001D01*
G75*
G02*
X175000001Y-69825000I-249999J0D01*
G01*
X174349999Y-69825000D01*
G75*
G02*
X174100000Y-69575001I0J249999D01*
G01*
G37*
G36*
G01*
X150245000Y-60004999D02*
X150245000Y-62055001D01*
G75*
G02*
X149995001Y-62305000I-249999J0D01*
G01*
X148244999Y-62305000D01*
G75*
G02*
X147995000Y-62055001I0J249999D01*
G01*
X147995000Y-60004999D01*
G75*
G02*
X148244999Y-59755000I249999J0D01*
G01*
X149995001Y-59755000D01*
G75*
G02*
X150245000Y-60004999I0J-249999D01*
G01*
G37*
G36*
G01*
X143845000Y-60004999D02*
X143845000Y-62055001D01*
G75*
G02*
X143595001Y-62305000I-249999J0D01*
G01*
X141844999Y-62305000D01*
G75*
G02*
X141595000Y-62055001I0J249999D01*
G01*
X141595000Y-60004999D01*
G75*
G02*
X141844999Y-59755000I249999J0D01*
G01*
X143595001Y-59755000D01*
G75*
G02*
X143845000Y-60004999I0J-249999D01*
G01*
G37*
G36*
G01*
X152209999Y-69280000D02*
X153110001Y-69280000D01*
G75*
G02*
X153360000Y-69529999I0J-249999D01*
G01*
X153360000Y-70180001D01*
G75*
G02*
X153110001Y-70430000I-249999J0D01*
G01*
X152209999Y-70430000D01*
G75*
G02*
X151960000Y-70180001I0J249999D01*
G01*
X151960000Y-69529999D01*
G75*
G02*
X152209999Y-69280000I249999J0D01*
G01*
G37*
G36*
G01*
X152209999Y-67230000D02*
X153110001Y-67230000D01*
G75*
G02*
X153360000Y-67479999I0J-249999D01*
G01*
X153360000Y-68130001D01*
G75*
G02*
X153110001Y-68380000I-249999J0D01*
G01*
X152209999Y-68380000D01*
G75*
G02*
X151960000Y-68130001I0J249999D01*
G01*
X151960000Y-67479999D01*
G75*
G02*
X152209999Y-67230000I249999J0D01*
G01*
G37*
G36*
G01*
X155100001Y-64800000D02*
X154199999Y-64800000D01*
G75*
G02*
X153950000Y-64550001I0J249999D01*
G01*
X153950000Y-63899999D01*
G75*
G02*
X154199999Y-63650000I249999J0D01*
G01*
X155100001Y-63650000D01*
G75*
G02*
X155350000Y-63899999I0J-249999D01*
G01*
X155350000Y-64550001D01*
G75*
G02*
X155100001Y-64800000I-249999J0D01*
G01*
G37*
G36*
G01*
X155100001Y-66850000D02*
X154199999Y-66850000D01*
G75*
G02*
X153950000Y-66600001I0J249999D01*
G01*
X153950000Y-65949999D01*
G75*
G02*
X154199999Y-65700000I249999J0D01*
G01*
X155100001Y-65700000D01*
G75*
G02*
X155350000Y-65949999I0J-249999D01*
G01*
X155350000Y-66600001D01*
G75*
G02*
X155100001Y-66850000I-249999J0D01*
G01*
G37*
G36*
G01*
X175225000Y-65999999D02*
X175225000Y-66900001D01*
G75*
G02*
X174975001Y-67150000I-249999J0D01*
G01*
X174324999Y-67150000D01*
G75*
G02*
X174075000Y-66900001I0J249999D01*
G01*
X174075000Y-65999999D01*
G75*
G02*
X174324999Y-65750000I249999J0D01*
G01*
X174975001Y-65750000D01*
G75*
G02*
X175225000Y-65999999I0J-249999D01*
G01*
G37*
G36*
G01*
X173175000Y-65999999D02*
X173175000Y-66900001D01*
G75*
G02*
X172925001Y-67150000I-249999J0D01*
G01*
X172274999Y-67150000D01*
G75*
G02*
X172025000Y-66900001I0J249999D01*
G01*
X172025000Y-65999999D01*
G75*
G02*
X172274999Y-65750000I249999J0D01*
G01*
X172925001Y-65750000D01*
G75*
G02*
X173175000Y-65999999I0J-249999D01*
G01*
G37*
G36*
G01*
X155175001Y-75450000D02*
X154274999Y-75450000D01*
G75*
G02*
X154025000Y-75200001I0J249999D01*
G01*
X154025000Y-74549999D01*
G75*
G02*
X154274999Y-74300000I249999J0D01*
G01*
X155175001Y-74300000D01*
G75*
G02*
X155425000Y-74549999I0J-249999D01*
G01*
X155425000Y-75200001D01*
G75*
G02*
X155175001Y-75450000I-249999J0D01*
G01*
G37*
G36*
G01*
X155175001Y-77500000D02*
X154274999Y-77500000D01*
G75*
G02*
X154025000Y-77250001I0J249999D01*
G01*
X154025000Y-76599999D01*
G75*
G02*
X154274999Y-76350000I249999J0D01*
G01*
X155175001Y-76350000D01*
G75*
G02*
X155425000Y-76599999I0J-249999D01*
G01*
X155425000Y-77250001D01*
G75*
G02*
X155175001Y-77500000I-249999J0D01*
G01*
G37*
G36*
G01*
X180620001Y-82610000D02*
X179719999Y-82610000D01*
G75*
G02*
X179470000Y-82360001I0J249999D01*
G01*
X179470000Y-81709999D01*
G75*
G02*
X179719999Y-81460000I249999J0D01*
G01*
X180620001Y-81460000D01*
G75*
G02*
X180870000Y-81709999I0J-249999D01*
G01*
X180870000Y-82360001D01*
G75*
G02*
X180620001Y-82610000I-249999J0D01*
G01*
G37*
G36*
G01*
X180620001Y-80560000D02*
X179719999Y-80560000D01*
G75*
G02*
X179470000Y-80310001I0J249999D01*
G01*
X179470000Y-79659999D01*
G75*
G02*
X179719999Y-79410000I249999J0D01*
G01*
X180620001Y-79410000D01*
G75*
G02*
X180870000Y-79659999I0J-249999D01*
G01*
X180870000Y-80310001D01*
G75*
G02*
X180620001Y-80560000I-249999J0D01*
G01*
G37*
G36*
G01*
X171240000Y-55900001D02*
X171240000Y-54999999D01*
G75*
G02*
X171489999Y-54750000I249999J0D01*
G01*
X172140001Y-54750000D01*
G75*
G02*
X172390000Y-54999999I0J-249999D01*
G01*
X172390000Y-55900001D01*
G75*
G02*
X172140001Y-56150000I-249999J0D01*
G01*
X171489999Y-56150000D01*
G75*
G02*
X171240000Y-55900001I0J249999D01*
G01*
G37*
G36*
G01*
X173290000Y-55900001D02*
X173290000Y-54999999D01*
G75*
G02*
X173539999Y-54750000I249999J0D01*
G01*
X174190001Y-54750000D01*
G75*
G02*
X174440000Y-54999999I0J-249999D01*
G01*
X174440000Y-55900001D01*
G75*
G02*
X174190001Y-56150000I-249999J0D01*
G01*
X173539999Y-56150000D01*
G75*
G02*
X173290000Y-55900001I0J249999D01*
G01*
G37*
G36*
G01*
X136560000Y-90567500D02*
X136560000Y-90092500D01*
G75*
G02*
X136797500Y-89855000I237500J0D01*
G01*
X137372500Y-89855000D01*
G75*
G02*
X137610000Y-90092500I0J-237500D01*
G01*
X137610000Y-90567500D01*
G75*
G02*
X137372500Y-90805000I-237500J0D01*
G01*
X136797500Y-90805000D01*
G75*
G02*
X136560000Y-90567500I0J237500D01*
G01*
G37*
G36*
G01*
X138310000Y-90567500D02*
X138310000Y-90092500D01*
G75*
G02*
X138547500Y-89855000I237500J0D01*
G01*
X139122500Y-89855000D01*
G75*
G02*
X139360000Y-90092500I0J-237500D01*
G01*
X139360000Y-90567500D01*
G75*
G02*
X139122500Y-90805000I-237500J0D01*
G01*
X138547500Y-90805000D01*
G75*
G02*
X138310000Y-90567500I0J237500D01*
G01*
G37*
G36*
G01*
X171220000Y-85500001D02*
X171220000Y-84599999D01*
G75*
G02*
X171469999Y-84350000I249999J0D01*
G01*
X172120001Y-84350000D01*
G75*
G02*
X172370000Y-84599999I0J-249999D01*
G01*
X172370000Y-85500001D01*
G75*
G02*
X172120001Y-85750000I-249999J0D01*
G01*
X171469999Y-85750000D01*
G75*
G02*
X171220000Y-85500001I0J249999D01*
G01*
G37*
G36*
G01*
X173270000Y-85500001D02*
X173270000Y-84599999D01*
G75*
G02*
X173519999Y-84350000I249999J0D01*
G01*
X174170001Y-84350000D01*
G75*
G02*
X174420000Y-84599999I0J-249999D01*
G01*
X174420000Y-85500001D01*
G75*
G02*
X174170001Y-85750000I-249999J0D01*
G01*
X173519999Y-85750000D01*
G75*
G02*
X173270000Y-85500001I0J249999D01*
G01*
G37*
G36*
G01*
X177529000Y-133587500D02*
X177529000Y-133112500D01*
G75*
G02*
X177766500Y-132875000I237500J0D01*
G01*
X178341500Y-132875000D01*
G75*
G02*
X178579000Y-133112500I0J-237500D01*
G01*
X178579000Y-133587500D01*
G75*
G02*
X178341500Y-133825000I-237500J0D01*
G01*
X177766500Y-133825000D01*
G75*
G02*
X177529000Y-133587500I0J237500D01*
G01*
G37*
G36*
G01*
X179279000Y-133587500D02*
X179279000Y-133112500D01*
G75*
G02*
X179516500Y-132875000I237500J0D01*
G01*
X180091500Y-132875000D01*
G75*
G02*
X180329000Y-133112500I0J-237500D01*
G01*
X180329000Y-133587500D01*
G75*
G02*
X180091500Y-133825000I-237500J0D01*
G01*
X179516500Y-133825000D01*
G75*
G02*
X179279000Y-133587500I0J237500D01*
G01*
G37*
G36*
G01*
X174227500Y-119030000D02*
X173752500Y-119030000D01*
G75*
G02*
X173515000Y-118792500I0J237500D01*
G01*
X173515000Y-118217500D01*
G75*
G02*
X173752500Y-117980000I237500J0D01*
G01*
X174227500Y-117980000D01*
G75*
G02*
X174465000Y-118217500I0J-237500D01*
G01*
X174465000Y-118792500D01*
G75*
G02*
X174227500Y-119030000I-237500J0D01*
G01*
G37*
G36*
G01*
X174227500Y-120780000D02*
X173752500Y-120780000D01*
G75*
G02*
X173515000Y-120542500I0J237500D01*
G01*
X173515000Y-119967500D01*
G75*
G02*
X173752500Y-119730000I237500J0D01*
G01*
X174227500Y-119730000D01*
G75*
G02*
X174465000Y-119967500I0J-237500D01*
G01*
X174465000Y-120542500D01*
G75*
G02*
X174227500Y-120780000I-237500J0D01*
G01*
G37*
G36*
G01*
X166755001Y-105175000D02*
X164704999Y-105175000D01*
G75*
G02*
X164455000Y-104925001I0J249999D01*
G01*
X164455000Y-103174999D01*
G75*
G02*
X164704999Y-102925000I249999J0D01*
G01*
X166755001Y-102925000D01*
G75*
G02*
X167005000Y-103174999I0J-249999D01*
G01*
X167005000Y-104925001D01*
G75*
G02*
X166755001Y-105175000I-249999J0D01*
G01*
G37*
G36*
G01*
X166755001Y-111575000D02*
X164704999Y-111575000D01*
G75*
G02*
X164455000Y-111325001I0J249999D01*
G01*
X164455000Y-109574999D01*
G75*
G02*
X164704999Y-109325000I249999J0D01*
G01*
X166755001Y-109325000D01*
G75*
G02*
X167005000Y-109574999I0J-249999D01*
G01*
X167005000Y-111325001D01*
G75*
G02*
X166755001Y-111575000I-249999J0D01*
G01*
G37*
G36*
G01*
X185702500Y-121840000D02*
X186177500Y-121840000D01*
G75*
G02*
X186415000Y-122077500I0J-237500D01*
G01*
X186415000Y-122652500D01*
G75*
G02*
X186177500Y-122890000I-237500J0D01*
G01*
X185702500Y-122890000D01*
G75*
G02*
X185465000Y-122652500I0J237500D01*
G01*
X185465000Y-122077500D01*
G75*
G02*
X185702500Y-121840000I237500J0D01*
G01*
G37*
G36*
G01*
X185702500Y-123590000D02*
X186177500Y-123590000D01*
G75*
G02*
X186415000Y-123827500I0J-237500D01*
G01*
X186415000Y-124402500D01*
G75*
G02*
X186177500Y-124640000I-237500J0D01*
G01*
X185702500Y-124640000D01*
G75*
G02*
X185465000Y-124402500I0J237500D01*
G01*
X185465000Y-123827500D01*
G75*
G02*
X185702500Y-123590000I237500J0D01*
G01*
G37*
G36*
G01*
X187976500Y-120238000D02*
X188451500Y-120238000D01*
G75*
G02*
X188689000Y-120475500I0J-237500D01*
G01*
X188689000Y-121050500D01*
G75*
G02*
X188451500Y-121288000I-237500J0D01*
G01*
X187976500Y-121288000D01*
G75*
G02*
X187739000Y-121050500I0J237500D01*
G01*
X187739000Y-120475500D01*
G75*
G02*
X187976500Y-120238000I237500J0D01*
G01*
G37*
G36*
G01*
X187976500Y-118488000D02*
X188451500Y-118488000D01*
G75*
G02*
X188689000Y-118725500I0J-237500D01*
G01*
X188689000Y-119300500D01*
G75*
G02*
X188451500Y-119538000I-237500J0D01*
G01*
X187976500Y-119538000D01*
G75*
G02*
X187739000Y-119300500I0J237500D01*
G01*
X187739000Y-118725500D01*
G75*
G02*
X187976500Y-118488000I237500J0D01*
G01*
G37*
D15*
X191008000Y-97282000D03*
D14*
X193548000Y-97282000D03*
D18*
X105000000Y-145000000D03*
X105000000Y-55000000D03*
X195000000Y-55000000D03*
X195000000Y-145000000D03*
D19*
X171800000Y-62250000D03*
X171800000Y-58210000D03*
X171775000Y-82365000D03*
X171775000Y-78325000D03*
G36*
G01*
X160725000Y-63350000D02*
X159625000Y-63350000D01*
G75*
G02*
X159375000Y-63100000I0J250000D01*
G01*
X159375000Y-62000000D01*
G75*
G02*
X159625000Y-61750000I250000J0D01*
G01*
X160725000Y-61750000D01*
G75*
G02*
X160975000Y-62000000I0J-250000D01*
G01*
X160975000Y-63100000D01*
G75*
G02*
X160725000Y-63350000I-250000J0D01*
G01*
G37*
D20*
X160175000Y-58950000D03*
D21*
X174284000Y-112964000D03*
X174284000Y-112014000D03*
X174284000Y-111064000D03*
X171664000Y-111064000D03*
X171664000Y-112014000D03*
X171664000Y-112964000D03*
D10*
X183200000Y-108442000D03*
X185100000Y-108442000D03*
X184150000Y-106442000D03*
G36*
G01*
X157662500Y-79970000D02*
X158137500Y-79970000D01*
G75*
G02*
X158375000Y-80207500I0J-237500D01*
G01*
X158375000Y-80782500D01*
G75*
G02*
X158137500Y-81020000I-237500J0D01*
G01*
X157662500Y-81020000D01*
G75*
G02*
X157425000Y-80782500I0J237500D01*
G01*
X157425000Y-80207500D01*
G75*
G02*
X157662500Y-79970000I237500J0D01*
G01*
G37*
G36*
G01*
X157662500Y-81720000D02*
X158137500Y-81720000D01*
G75*
G02*
X158375000Y-81957500I0J-237500D01*
G01*
X158375000Y-82532500D01*
G75*
G02*
X158137500Y-82770000I-237500J0D01*
G01*
X157662500Y-82770000D01*
G75*
G02*
X157425000Y-82532500I0J237500D01*
G01*
X157425000Y-81957500D01*
G75*
G02*
X157662500Y-81720000I237500J0D01*
G01*
G37*
G36*
G01*
X163642500Y-79320000D02*
X164117500Y-79320000D01*
G75*
G02*
X164355000Y-79557500I0J-237500D01*
G01*
X164355000Y-80132500D01*
G75*
G02*
X164117500Y-80370000I-237500J0D01*
G01*
X163642500Y-80370000D01*
G75*
G02*
X163405000Y-80132500I0J237500D01*
G01*
X163405000Y-79557500D01*
G75*
G02*
X163642500Y-79320000I237500J0D01*
G01*
G37*
G36*
G01*
X163642500Y-81070000D02*
X164117500Y-81070000D01*
G75*
G02*
X164355000Y-81307500I0J-237500D01*
G01*
X164355000Y-81882500D01*
G75*
G02*
X164117500Y-82120000I-237500J0D01*
G01*
X163642500Y-82120000D01*
G75*
G02*
X163405000Y-81882500I0J237500D01*
G01*
X163405000Y-81307500D01*
G75*
G02*
X163642500Y-81070000I237500J0D01*
G01*
G37*
G36*
G01*
X162012500Y-81075000D02*
X162487500Y-81075000D01*
G75*
G02*
X162725000Y-81312500I0J-237500D01*
G01*
X162725000Y-81887500D01*
G75*
G02*
X162487500Y-82125000I-237500J0D01*
G01*
X162012500Y-82125000D01*
G75*
G02*
X161775000Y-81887500I0J237500D01*
G01*
X161775000Y-81312500D01*
G75*
G02*
X162012500Y-81075000I237500J0D01*
G01*
G37*
G36*
G01*
X162012500Y-79325000D02*
X162487500Y-79325000D01*
G75*
G02*
X162725000Y-79562500I0J-237500D01*
G01*
X162725000Y-80137500D01*
G75*
G02*
X162487500Y-80375000I-237500J0D01*
G01*
X162012500Y-80375000D01*
G75*
G02*
X161775000Y-80137500I0J237500D01*
G01*
X161775000Y-79562500D01*
G75*
G02*
X162012500Y-79325000I237500J0D01*
G01*
G37*
G36*
G01*
X154987500Y-68525000D02*
X154512500Y-68525000D01*
G75*
G02*
X154275000Y-68287500I0J237500D01*
G01*
X154275000Y-67712500D01*
G75*
G02*
X154512500Y-67475000I237500J0D01*
G01*
X154987500Y-67475000D01*
G75*
G02*
X155225000Y-67712500I0J-237500D01*
G01*
X155225000Y-68287500D01*
G75*
G02*
X154987500Y-68525000I-237500J0D01*
G01*
G37*
G36*
G01*
X154987500Y-70275000D02*
X154512500Y-70275000D01*
G75*
G02*
X154275000Y-70037500I0J237500D01*
G01*
X154275000Y-69462500D01*
G75*
G02*
X154512500Y-69225000I237500J0D01*
G01*
X154987500Y-69225000D01*
G75*
G02*
X155225000Y-69462500I0J-237500D01*
G01*
X155225000Y-70037500D01*
G75*
G02*
X154987500Y-70275000I-237500J0D01*
G01*
G37*
G36*
G01*
X152462500Y-71210000D02*
X152937500Y-71210000D01*
G75*
G02*
X153175000Y-71447500I0J-237500D01*
G01*
X153175000Y-72022500D01*
G75*
G02*
X152937500Y-72260000I-237500J0D01*
G01*
X152462500Y-72260000D01*
G75*
G02*
X152225000Y-72022500I0J237500D01*
G01*
X152225000Y-71447500D01*
G75*
G02*
X152462500Y-71210000I237500J0D01*
G01*
G37*
G36*
G01*
X152462500Y-72960000D02*
X152937500Y-72960000D01*
G75*
G02*
X153175000Y-73197500I0J-237500D01*
G01*
X153175000Y-73772500D01*
G75*
G02*
X152937500Y-74010000I-237500J0D01*
G01*
X152462500Y-74010000D01*
G75*
G02*
X152225000Y-73772500I0J237500D01*
G01*
X152225000Y-73197500D01*
G75*
G02*
X152462500Y-72960000I237500J0D01*
G01*
G37*
G36*
G01*
X176625000Y-71262500D02*
X176625000Y-71737500D01*
G75*
G02*
X176387500Y-71975000I-237500J0D01*
G01*
X175812500Y-71975000D01*
G75*
G02*
X175575000Y-71737500I0J237500D01*
G01*
X175575000Y-71262500D01*
G75*
G02*
X175812500Y-71025000I237500J0D01*
G01*
X176387500Y-71025000D01*
G75*
G02*
X176625000Y-71262500I0J-237500D01*
G01*
G37*
G36*
G01*
X178375000Y-71262500D02*
X178375000Y-71737500D01*
G75*
G02*
X178137500Y-71975000I-237500J0D01*
G01*
X177562500Y-71975000D01*
G75*
G02*
X177325000Y-71737500I0J237500D01*
G01*
X177325000Y-71262500D01*
G75*
G02*
X177562500Y-71025000I237500J0D01*
G01*
X178137500Y-71025000D01*
G75*
G02*
X178375000Y-71262500I0J-237500D01*
G01*
G37*
G36*
G01*
X176625000Y-73112500D02*
X176625000Y-73587500D01*
G75*
G02*
X176387500Y-73825000I-237500J0D01*
G01*
X175812500Y-73825000D01*
G75*
G02*
X175575000Y-73587500I0J237500D01*
G01*
X175575000Y-73112500D01*
G75*
G02*
X175812500Y-72875000I237500J0D01*
G01*
X176387500Y-72875000D01*
G75*
G02*
X176625000Y-73112500I0J-237500D01*
G01*
G37*
G36*
G01*
X178375000Y-73112500D02*
X178375000Y-73587500D01*
G75*
G02*
X178137500Y-73825000I-237500J0D01*
G01*
X177562500Y-73825000D01*
G75*
G02*
X177325000Y-73587500I0J237500D01*
G01*
X177325000Y-73112500D01*
G75*
G02*
X177562500Y-72875000I237500J0D01*
G01*
X178137500Y-72875000D01*
G75*
G02*
X178375000Y-73112500I0J-237500D01*
G01*
G37*
G36*
G01*
X155012500Y-71975000D02*
X154537500Y-71975000D01*
G75*
G02*
X154300000Y-71737500I0J237500D01*
G01*
X154300000Y-71162500D01*
G75*
G02*
X154537500Y-70925000I237500J0D01*
G01*
X155012500Y-70925000D01*
G75*
G02*
X155250000Y-71162500I0J-237500D01*
G01*
X155250000Y-71737500D01*
G75*
G02*
X155012500Y-71975000I-237500J0D01*
G01*
G37*
G36*
G01*
X155012500Y-73725000D02*
X154537500Y-73725000D01*
G75*
G02*
X154300000Y-73487500I0J237500D01*
G01*
X154300000Y-72912500D01*
G75*
G02*
X154537500Y-72675000I237500J0D01*
G01*
X155012500Y-72675000D01*
G75*
G02*
X155250000Y-72912500I0J-237500D01*
G01*
X155250000Y-73487500D01*
G75*
G02*
X155012500Y-73725000I-237500J0D01*
G01*
G37*
G36*
G01*
X172175000Y-71737500D02*
X172175000Y-71262500D01*
G75*
G02*
X172412500Y-71025000I237500J0D01*
G01*
X172987500Y-71025000D01*
G75*
G02*
X173225000Y-71262500I0J-237500D01*
G01*
X173225000Y-71737500D01*
G75*
G02*
X172987500Y-71975000I-237500J0D01*
G01*
X172412500Y-71975000D01*
G75*
G02*
X172175000Y-71737500I0J237500D01*
G01*
G37*
G36*
G01*
X173925000Y-71737500D02*
X173925000Y-71262500D01*
G75*
G02*
X174162500Y-71025000I237500J0D01*
G01*
X174737500Y-71025000D01*
G75*
G02*
X174975000Y-71262500I0J-237500D01*
G01*
X174975000Y-71737500D01*
G75*
G02*
X174737500Y-71975000I-237500J0D01*
G01*
X174162500Y-71975000D01*
G75*
G02*
X173925000Y-71737500I0J237500D01*
G01*
G37*
G36*
G01*
X172175000Y-73587500D02*
X172175000Y-73112500D01*
G75*
G02*
X172412500Y-72875000I237500J0D01*
G01*
X172987500Y-72875000D01*
G75*
G02*
X173225000Y-73112500I0J-237500D01*
G01*
X173225000Y-73587500D01*
G75*
G02*
X172987500Y-73825000I-237500J0D01*
G01*
X172412500Y-73825000D01*
G75*
G02*
X172175000Y-73587500I0J237500D01*
G01*
G37*
G36*
G01*
X173925000Y-73587500D02*
X173925000Y-73112500D01*
G75*
G02*
X174162500Y-72875000I237500J0D01*
G01*
X174737500Y-72875000D01*
G75*
G02*
X174975000Y-73112500I0J-237500D01*
G01*
X174975000Y-73587500D01*
G75*
G02*
X174737500Y-73825000I-237500J0D01*
G01*
X174162500Y-73825000D01*
G75*
G02*
X173925000Y-73587500I0J237500D01*
G01*
G37*
G36*
G01*
X172175000Y-75562500D02*
X172175000Y-75087500D01*
G75*
G02*
X172412500Y-74850000I237500J0D01*
G01*
X172987500Y-74850000D01*
G75*
G02*
X173225000Y-75087500I0J-237500D01*
G01*
X173225000Y-75562500D01*
G75*
G02*
X172987500Y-75800000I-237500J0D01*
G01*
X172412500Y-75800000D01*
G75*
G02*
X172175000Y-75562500I0J237500D01*
G01*
G37*
G36*
G01*
X173925000Y-75562500D02*
X173925000Y-75087500D01*
G75*
G02*
X174162500Y-74850000I237500J0D01*
G01*
X174737500Y-74850000D01*
G75*
G02*
X174975000Y-75087500I0J-237500D01*
G01*
X174975000Y-75562500D01*
G75*
G02*
X174737500Y-75800000I-237500J0D01*
G01*
X174162500Y-75800000D01*
G75*
G02*
X173925000Y-75562500I0J237500D01*
G01*
G37*
G36*
G01*
X162492500Y-62030000D02*
X162967500Y-62030000D01*
G75*
G02*
X163205000Y-62267500I0J-237500D01*
G01*
X163205000Y-62842500D01*
G75*
G02*
X162967500Y-63080000I-237500J0D01*
G01*
X162492500Y-63080000D01*
G75*
G02*
X162255000Y-62842500I0J237500D01*
G01*
X162255000Y-62267500D01*
G75*
G02*
X162492500Y-62030000I237500J0D01*
G01*
G37*
G36*
G01*
X162492500Y-60280000D02*
X162967500Y-60280000D01*
G75*
G02*
X163205000Y-60517500I0J-237500D01*
G01*
X163205000Y-61092500D01*
G75*
G02*
X162967500Y-61330000I-237500J0D01*
G01*
X162492500Y-61330000D01*
G75*
G02*
X162255000Y-61092500I0J237500D01*
G01*
X162255000Y-60517500D01*
G75*
G02*
X162492500Y-60280000I237500J0D01*
G01*
G37*
G36*
G01*
X184612500Y-81600000D02*
X184137500Y-81600000D01*
G75*
G02*
X183900000Y-81362500I0J237500D01*
G01*
X183900000Y-80787500D01*
G75*
G02*
X184137500Y-80550000I237500J0D01*
G01*
X184612500Y-80550000D01*
G75*
G02*
X184850000Y-80787500I0J-237500D01*
G01*
X184850000Y-81362500D01*
G75*
G02*
X184612500Y-81600000I-237500J0D01*
G01*
G37*
G36*
G01*
X184612500Y-79850000D02*
X184137500Y-79850000D01*
G75*
G02*
X183900000Y-79612500I0J237500D01*
G01*
X183900000Y-79037500D01*
G75*
G02*
X184137500Y-78800000I237500J0D01*
G01*
X184612500Y-78800000D01*
G75*
G02*
X184850000Y-79037500I0J-237500D01*
G01*
X184850000Y-79612500D01*
G75*
G02*
X184612500Y-79850000I-237500J0D01*
G01*
G37*
G36*
G01*
X149697500Y-94950000D02*
X149222500Y-94950000D01*
G75*
G02*
X148985000Y-94712500I0J237500D01*
G01*
X148985000Y-94137500D01*
G75*
G02*
X149222500Y-93900000I237500J0D01*
G01*
X149697500Y-93900000D01*
G75*
G02*
X149935000Y-94137500I0J-237500D01*
G01*
X149935000Y-94712500D01*
G75*
G02*
X149697500Y-94950000I-237500J0D01*
G01*
G37*
G36*
G01*
X149697500Y-93200000D02*
X149222500Y-93200000D01*
G75*
G02*
X148985000Y-92962500I0J237500D01*
G01*
X148985000Y-92387500D01*
G75*
G02*
X149222500Y-92150000I237500J0D01*
G01*
X149697500Y-92150000D01*
G75*
G02*
X149935000Y-92387500I0J-237500D01*
G01*
X149935000Y-92962500D01*
G75*
G02*
X149697500Y-93200000I-237500J0D01*
G01*
G37*
G36*
G01*
X171937500Y-108280000D02*
X171462500Y-108280000D01*
G75*
G02*
X171225000Y-108042500I0J237500D01*
G01*
X171225000Y-107467500D01*
G75*
G02*
X171462500Y-107230000I237500J0D01*
G01*
X171937500Y-107230000D01*
G75*
G02*
X172175000Y-107467500I0J-237500D01*
G01*
X172175000Y-108042500D01*
G75*
G02*
X171937500Y-108280000I-237500J0D01*
G01*
G37*
G36*
G01*
X171937500Y-106530000D02*
X171462500Y-106530000D01*
G75*
G02*
X171225000Y-106292500I0J237500D01*
G01*
X171225000Y-105717500D01*
G75*
G02*
X171462500Y-105480000I237500J0D01*
G01*
X171937500Y-105480000D01*
G75*
G02*
X172175000Y-105717500I0J-237500D01*
G01*
X172175000Y-106292500D01*
G75*
G02*
X171937500Y-106530000I-237500J0D01*
G01*
G37*
G36*
G01*
X191104000Y-128761500D02*
X191104000Y-128286500D01*
G75*
G02*
X191341500Y-128049000I237500J0D01*
G01*
X191916500Y-128049000D01*
G75*
G02*
X192154000Y-128286500I0J-237500D01*
G01*
X192154000Y-128761500D01*
G75*
G02*
X191916500Y-128999000I-237500J0D01*
G01*
X191341500Y-128999000D01*
G75*
G02*
X191104000Y-128761500I0J237500D01*
G01*
G37*
G36*
G01*
X189354000Y-128761500D02*
X189354000Y-128286500D01*
G75*
G02*
X189591500Y-128049000I237500J0D01*
G01*
X190166500Y-128049000D01*
G75*
G02*
X190404000Y-128286500I0J-237500D01*
G01*
X190404000Y-128761500D01*
G75*
G02*
X190166500Y-128999000I-237500J0D01*
G01*
X189591500Y-128999000D01*
G75*
G02*
X189354000Y-128761500I0J237500D01*
G01*
G37*
D22*
X137922000Y-102362000D03*
G36*
G01*
X168112500Y-66400000D02*
X168237500Y-66400000D01*
G75*
G02*
X168300000Y-66462500I0J-62500D01*
G01*
X168300000Y-67187500D01*
G75*
G02*
X168237500Y-67250000I-62500J0D01*
G01*
X168112500Y-67250000D01*
G75*
G02*
X168050000Y-67187500I0J62500D01*
G01*
X168050000Y-66462500D01*
G75*
G02*
X168112500Y-66400000I62500J0D01*
G01*
G37*
G36*
G01*
X167612500Y-66400000D02*
X167737500Y-66400000D01*
G75*
G02*
X167800000Y-66462500I0J-62500D01*
G01*
X167800000Y-67187500D01*
G75*
G02*
X167737500Y-67250000I-62500J0D01*
G01*
X167612500Y-67250000D01*
G75*
G02*
X167550000Y-67187500I0J62500D01*
G01*
X167550000Y-66462500D01*
G75*
G02*
X167612500Y-66400000I62500J0D01*
G01*
G37*
G36*
G01*
X167112500Y-66400000D02*
X167237500Y-66400000D01*
G75*
G02*
X167300000Y-66462500I0J-62500D01*
G01*
X167300000Y-67187500D01*
G75*
G02*
X167237500Y-67250000I-62500J0D01*
G01*
X167112500Y-67250000D01*
G75*
G02*
X167050000Y-67187500I0J62500D01*
G01*
X167050000Y-66462500D01*
G75*
G02*
X167112500Y-66400000I62500J0D01*
G01*
G37*
G36*
G01*
X166612500Y-66400000D02*
X166737500Y-66400000D01*
G75*
G02*
X166800000Y-66462500I0J-62500D01*
G01*
X166800000Y-67187500D01*
G75*
G02*
X166737500Y-67250000I-62500J0D01*
G01*
X166612500Y-67250000D01*
G75*
G02*
X166550000Y-67187500I0J62500D01*
G01*
X166550000Y-66462500D01*
G75*
G02*
X166612500Y-66400000I62500J0D01*
G01*
G37*
G36*
G01*
X166112500Y-66400000D02*
X166237500Y-66400000D01*
G75*
G02*
X166300000Y-66462500I0J-62500D01*
G01*
X166300000Y-67187500D01*
G75*
G02*
X166237500Y-67250000I-62500J0D01*
G01*
X166112500Y-67250000D01*
G75*
G02*
X166050000Y-67187500I0J62500D01*
G01*
X166050000Y-66462500D01*
G75*
G02*
X166112500Y-66400000I62500J0D01*
G01*
G37*
G36*
G01*
X165612500Y-66400000D02*
X165737500Y-66400000D01*
G75*
G02*
X165800000Y-66462500I0J-62500D01*
G01*
X165800000Y-67187500D01*
G75*
G02*
X165737500Y-67250000I-62500J0D01*
G01*
X165612500Y-67250000D01*
G75*
G02*
X165550000Y-67187500I0J62500D01*
G01*
X165550000Y-66462500D01*
G75*
G02*
X165612500Y-66400000I62500J0D01*
G01*
G37*
G36*
G01*
X165112500Y-66400000D02*
X165237500Y-66400000D01*
G75*
G02*
X165300000Y-66462500I0J-62500D01*
G01*
X165300000Y-67187500D01*
G75*
G02*
X165237500Y-67250000I-62500J0D01*
G01*
X165112500Y-67250000D01*
G75*
G02*
X165050000Y-67187500I0J62500D01*
G01*
X165050000Y-66462500D01*
G75*
G02*
X165112500Y-66400000I62500J0D01*
G01*
G37*
G36*
G01*
X164612500Y-66400000D02*
X164737500Y-66400000D01*
G75*
G02*
X164800000Y-66462500I0J-62500D01*
G01*
X164800000Y-67187500D01*
G75*
G02*
X164737500Y-67250000I-62500J0D01*
G01*
X164612500Y-67250000D01*
G75*
G02*
X164550000Y-67187500I0J62500D01*
G01*
X164550000Y-66462500D01*
G75*
G02*
X164612500Y-66400000I62500J0D01*
G01*
G37*
G36*
G01*
X164112500Y-66400000D02*
X164237500Y-66400000D01*
G75*
G02*
X164300000Y-66462500I0J-62500D01*
G01*
X164300000Y-67187500D01*
G75*
G02*
X164237500Y-67250000I-62500J0D01*
G01*
X164112500Y-67250000D01*
G75*
G02*
X164050000Y-67187500I0J62500D01*
G01*
X164050000Y-66462500D01*
G75*
G02*
X164112500Y-66400000I62500J0D01*
G01*
G37*
G36*
G01*
X163612500Y-66400000D02*
X163737500Y-66400000D01*
G75*
G02*
X163800000Y-66462500I0J-62500D01*
G01*
X163800000Y-67187500D01*
G75*
G02*
X163737500Y-67250000I-62500J0D01*
G01*
X163612500Y-67250000D01*
G75*
G02*
X163550000Y-67187500I0J62500D01*
G01*
X163550000Y-66462500D01*
G75*
G02*
X163612500Y-66400000I62500J0D01*
G01*
G37*
G36*
G01*
X163112500Y-66400000D02*
X163237500Y-66400000D01*
G75*
G02*
X163300000Y-66462500I0J-62500D01*
G01*
X163300000Y-67187500D01*
G75*
G02*
X163237500Y-67250000I-62500J0D01*
G01*
X163112500Y-67250000D01*
G75*
G02*
X163050000Y-67187500I0J62500D01*
G01*
X163050000Y-66462500D01*
G75*
G02*
X163112500Y-66400000I62500J0D01*
G01*
G37*
G36*
G01*
X162612500Y-66400000D02*
X162737500Y-66400000D01*
G75*
G02*
X162800000Y-66462500I0J-62500D01*
G01*
X162800000Y-67187500D01*
G75*
G02*
X162737500Y-67250000I-62500J0D01*
G01*
X162612500Y-67250000D01*
G75*
G02*
X162550000Y-67187500I0J62500D01*
G01*
X162550000Y-66462500D01*
G75*
G02*
X162612500Y-66400000I62500J0D01*
G01*
G37*
G36*
G01*
X161612500Y-67400000D02*
X162337500Y-67400000D01*
G75*
G02*
X162400000Y-67462500I0J-62500D01*
G01*
X162400000Y-67587500D01*
G75*
G02*
X162337500Y-67650000I-62500J0D01*
G01*
X161612500Y-67650000D01*
G75*
G02*
X161550000Y-67587500I0J62500D01*
G01*
X161550000Y-67462500D01*
G75*
G02*
X161612500Y-67400000I62500J0D01*
G01*
G37*
G36*
G01*
X161612500Y-67900000D02*
X162337500Y-67900000D01*
G75*
G02*
X162400000Y-67962500I0J-62500D01*
G01*
X162400000Y-68087500D01*
G75*
G02*
X162337500Y-68150000I-62500J0D01*
G01*
X161612500Y-68150000D01*
G75*
G02*
X161550000Y-68087500I0J62500D01*
G01*
X161550000Y-67962500D01*
G75*
G02*
X161612500Y-67900000I62500J0D01*
G01*
G37*
G36*
G01*
X161612500Y-68400000D02*
X162337500Y-68400000D01*
G75*
G02*
X162400000Y-68462500I0J-62500D01*
G01*
X162400000Y-68587500D01*
G75*
G02*
X162337500Y-68650000I-62500J0D01*
G01*
X161612500Y-68650000D01*
G75*
G02*
X161550000Y-68587500I0J62500D01*
G01*
X161550000Y-68462500D01*
G75*
G02*
X161612500Y-68400000I62500J0D01*
G01*
G37*
G36*
G01*
X161612500Y-68900000D02*
X162337500Y-68900000D01*
G75*
G02*
X162400000Y-68962500I0J-62500D01*
G01*
X162400000Y-69087500D01*
G75*
G02*
X162337500Y-69150000I-62500J0D01*
G01*
X161612500Y-69150000D01*
G75*
G02*
X161550000Y-69087500I0J62500D01*
G01*
X161550000Y-68962500D01*
G75*
G02*
X161612500Y-68900000I62500J0D01*
G01*
G37*
G36*
G01*
X161612500Y-69400000D02*
X162337500Y-69400000D01*
G75*
G02*
X162400000Y-69462500I0J-62500D01*
G01*
X162400000Y-69587500D01*
G75*
G02*
X162337500Y-69650000I-62500J0D01*
G01*
X161612500Y-69650000D01*
G75*
G02*
X161550000Y-69587500I0J62500D01*
G01*
X161550000Y-69462500D01*
G75*
G02*
X161612500Y-69400000I62500J0D01*
G01*
G37*
G36*
G01*
X161612500Y-69900000D02*
X162337500Y-69900000D01*
G75*
G02*
X162400000Y-69962500I0J-62500D01*
G01*
X162400000Y-70087500D01*
G75*
G02*
X162337500Y-70150000I-62500J0D01*
G01*
X161612500Y-70150000D01*
G75*
G02*
X161550000Y-70087500I0J62500D01*
G01*
X161550000Y-69962500D01*
G75*
G02*
X161612500Y-69900000I62500J0D01*
G01*
G37*
G36*
G01*
X161612500Y-70400000D02*
X162337500Y-70400000D01*
G75*
G02*
X162400000Y-70462500I0J-62500D01*
G01*
X162400000Y-70587500D01*
G75*
G02*
X162337500Y-70650000I-62500J0D01*
G01*
X161612500Y-70650000D01*
G75*
G02*
X161550000Y-70587500I0J62500D01*
G01*
X161550000Y-70462500D01*
G75*
G02*
X161612500Y-70400000I62500J0D01*
G01*
G37*
G36*
G01*
X161612500Y-70900000D02*
X162337500Y-70900000D01*
G75*
G02*
X162400000Y-70962500I0J-62500D01*
G01*
X162400000Y-71087500D01*
G75*
G02*
X162337500Y-71150000I-62500J0D01*
G01*
X161612500Y-71150000D01*
G75*
G02*
X161550000Y-71087500I0J62500D01*
G01*
X161550000Y-70962500D01*
G75*
G02*
X161612500Y-70900000I62500J0D01*
G01*
G37*
G36*
G01*
X161612500Y-71400000D02*
X162337500Y-71400000D01*
G75*
G02*
X162400000Y-71462500I0J-62500D01*
G01*
X162400000Y-71587500D01*
G75*
G02*
X162337500Y-71650000I-62500J0D01*
G01*
X161612500Y-71650000D01*
G75*
G02*
X161550000Y-71587500I0J62500D01*
G01*
X161550000Y-71462500D01*
G75*
G02*
X161612500Y-71400000I62500J0D01*
G01*
G37*
G36*
G01*
X161612500Y-71900000D02*
X162337500Y-71900000D01*
G75*
G02*
X162400000Y-71962500I0J-62500D01*
G01*
X162400000Y-72087500D01*
G75*
G02*
X162337500Y-72150000I-62500J0D01*
G01*
X161612500Y-72150000D01*
G75*
G02*
X161550000Y-72087500I0J62500D01*
G01*
X161550000Y-71962500D01*
G75*
G02*
X161612500Y-71900000I62500J0D01*
G01*
G37*
G36*
G01*
X161612500Y-72400000D02*
X162337500Y-72400000D01*
G75*
G02*
X162400000Y-72462500I0J-62500D01*
G01*
X162400000Y-72587500D01*
G75*
G02*
X162337500Y-72650000I-62500J0D01*
G01*
X161612500Y-72650000D01*
G75*
G02*
X161550000Y-72587500I0J62500D01*
G01*
X161550000Y-72462500D01*
G75*
G02*
X161612500Y-72400000I62500J0D01*
G01*
G37*
G36*
G01*
X161612500Y-72900000D02*
X162337500Y-72900000D01*
G75*
G02*
X162400000Y-72962500I0J-62500D01*
G01*
X162400000Y-73087500D01*
G75*
G02*
X162337500Y-73150000I-62500J0D01*
G01*
X161612500Y-73150000D01*
G75*
G02*
X161550000Y-73087500I0J62500D01*
G01*
X161550000Y-72962500D01*
G75*
G02*
X161612500Y-72900000I62500J0D01*
G01*
G37*
G36*
G01*
X162612500Y-73300000D02*
X162737500Y-73300000D01*
G75*
G02*
X162800000Y-73362500I0J-62500D01*
G01*
X162800000Y-74087500D01*
G75*
G02*
X162737500Y-74150000I-62500J0D01*
G01*
X162612500Y-74150000D01*
G75*
G02*
X162550000Y-74087500I0J62500D01*
G01*
X162550000Y-73362500D01*
G75*
G02*
X162612500Y-73300000I62500J0D01*
G01*
G37*
G36*
G01*
X163112500Y-73300000D02*
X163237500Y-73300000D01*
G75*
G02*
X163300000Y-73362500I0J-62500D01*
G01*
X163300000Y-74087500D01*
G75*
G02*
X163237500Y-74150000I-62500J0D01*
G01*
X163112500Y-74150000D01*
G75*
G02*
X163050000Y-74087500I0J62500D01*
G01*
X163050000Y-73362500D01*
G75*
G02*
X163112500Y-73300000I62500J0D01*
G01*
G37*
G36*
G01*
X163612500Y-73300000D02*
X163737500Y-73300000D01*
G75*
G02*
X163800000Y-73362500I0J-62500D01*
G01*
X163800000Y-74087500D01*
G75*
G02*
X163737500Y-74150000I-62500J0D01*
G01*
X163612500Y-74150000D01*
G75*
G02*
X163550000Y-74087500I0J62500D01*
G01*
X163550000Y-73362500D01*
G75*
G02*
X163612500Y-73300000I62500J0D01*
G01*
G37*
G36*
G01*
X164112500Y-73300000D02*
X164237500Y-73300000D01*
G75*
G02*
X164300000Y-73362500I0J-62500D01*
G01*
X164300000Y-74087500D01*
G75*
G02*
X164237500Y-74150000I-62500J0D01*
G01*
X164112500Y-74150000D01*
G75*
G02*
X164050000Y-74087500I0J62500D01*
G01*
X164050000Y-73362500D01*
G75*
G02*
X164112500Y-73300000I62500J0D01*
G01*
G37*
G36*
G01*
X164612500Y-73300000D02*
X164737500Y-73300000D01*
G75*
G02*
X164800000Y-73362500I0J-62500D01*
G01*
X164800000Y-74087500D01*
G75*
G02*
X164737500Y-74150000I-62500J0D01*
G01*
X164612500Y-74150000D01*
G75*
G02*
X164550000Y-74087500I0J62500D01*
G01*
X164550000Y-73362500D01*
G75*
G02*
X164612500Y-73300000I62500J0D01*
G01*
G37*
G36*
G01*
X165112500Y-73300000D02*
X165237500Y-73300000D01*
G75*
G02*
X165300000Y-73362500I0J-62500D01*
G01*
X165300000Y-74087500D01*
G75*
G02*
X165237500Y-74150000I-62500J0D01*
G01*
X165112500Y-74150000D01*
G75*
G02*
X165050000Y-74087500I0J62500D01*
G01*
X165050000Y-73362500D01*
G75*
G02*
X165112500Y-73300000I62500J0D01*
G01*
G37*
G36*
G01*
X165612500Y-73300000D02*
X165737500Y-73300000D01*
G75*
G02*
X165800000Y-73362500I0J-62500D01*
G01*
X165800000Y-74087500D01*
G75*
G02*
X165737500Y-74150000I-62500J0D01*
G01*
X165612500Y-74150000D01*
G75*
G02*
X165550000Y-74087500I0J62500D01*
G01*
X165550000Y-73362500D01*
G75*
G02*
X165612500Y-73300000I62500J0D01*
G01*
G37*
G36*
G01*
X166112500Y-73300000D02*
X166237500Y-73300000D01*
G75*
G02*
X166300000Y-73362500I0J-62500D01*
G01*
X166300000Y-74087500D01*
G75*
G02*
X166237500Y-74150000I-62500J0D01*
G01*
X166112500Y-74150000D01*
G75*
G02*
X166050000Y-74087500I0J62500D01*
G01*
X166050000Y-73362500D01*
G75*
G02*
X166112500Y-73300000I62500J0D01*
G01*
G37*
G36*
G01*
X166612500Y-73300000D02*
X166737500Y-73300000D01*
G75*
G02*
X166800000Y-73362500I0J-62500D01*
G01*
X166800000Y-74087500D01*
G75*
G02*
X166737500Y-74150000I-62500J0D01*
G01*
X166612500Y-74150000D01*
G75*
G02*
X166550000Y-74087500I0J62500D01*
G01*
X166550000Y-73362500D01*
G75*
G02*
X166612500Y-73300000I62500J0D01*
G01*
G37*
G36*
G01*
X167112500Y-73300000D02*
X167237500Y-73300000D01*
G75*
G02*
X167300000Y-73362500I0J-62500D01*
G01*
X167300000Y-74087500D01*
G75*
G02*
X167237500Y-74150000I-62500J0D01*
G01*
X167112500Y-74150000D01*
G75*
G02*
X167050000Y-74087500I0J62500D01*
G01*
X167050000Y-73362500D01*
G75*
G02*
X167112500Y-73300000I62500J0D01*
G01*
G37*
G36*
G01*
X167612500Y-73300000D02*
X167737500Y-73300000D01*
G75*
G02*
X167800000Y-73362500I0J-62500D01*
G01*
X167800000Y-74087500D01*
G75*
G02*
X167737500Y-74150000I-62500J0D01*
G01*
X167612500Y-74150000D01*
G75*
G02*
X167550000Y-74087500I0J62500D01*
G01*
X167550000Y-73362500D01*
G75*
G02*
X167612500Y-73300000I62500J0D01*
G01*
G37*
G36*
G01*
X168112500Y-73300000D02*
X168237500Y-73300000D01*
G75*
G02*
X168300000Y-73362500I0J-62500D01*
G01*
X168300000Y-74087500D01*
G75*
G02*
X168237500Y-74150000I-62500J0D01*
G01*
X168112500Y-74150000D01*
G75*
G02*
X168050000Y-74087500I0J62500D01*
G01*
X168050000Y-73362500D01*
G75*
G02*
X168112500Y-73300000I62500J0D01*
G01*
G37*
G36*
G01*
X168512500Y-72900000D02*
X169237500Y-72900000D01*
G75*
G02*
X169300000Y-72962500I0J-62500D01*
G01*
X169300000Y-73087500D01*
G75*
G02*
X169237500Y-73150000I-62500J0D01*
G01*
X168512500Y-73150000D01*
G75*
G02*
X168450000Y-73087500I0J62500D01*
G01*
X168450000Y-72962500D01*
G75*
G02*
X168512500Y-72900000I62500J0D01*
G01*
G37*
G36*
G01*
X168512500Y-72400000D02*
X169237500Y-72400000D01*
G75*
G02*
X169300000Y-72462500I0J-62500D01*
G01*
X169300000Y-72587500D01*
G75*
G02*
X169237500Y-72650000I-62500J0D01*
G01*
X168512500Y-72650000D01*
G75*
G02*
X168450000Y-72587500I0J62500D01*
G01*
X168450000Y-72462500D01*
G75*
G02*
X168512500Y-72400000I62500J0D01*
G01*
G37*
G36*
G01*
X168512500Y-71900000D02*
X169237500Y-71900000D01*
G75*
G02*
X169300000Y-71962500I0J-62500D01*
G01*
X169300000Y-72087500D01*
G75*
G02*
X169237500Y-72150000I-62500J0D01*
G01*
X168512500Y-72150000D01*
G75*
G02*
X168450000Y-72087500I0J62500D01*
G01*
X168450000Y-71962500D01*
G75*
G02*
X168512500Y-71900000I62500J0D01*
G01*
G37*
G36*
G01*
X168512500Y-71400000D02*
X169237500Y-71400000D01*
G75*
G02*
X169300000Y-71462500I0J-62500D01*
G01*
X169300000Y-71587500D01*
G75*
G02*
X169237500Y-71650000I-62500J0D01*
G01*
X168512500Y-71650000D01*
G75*
G02*
X168450000Y-71587500I0J62500D01*
G01*
X168450000Y-71462500D01*
G75*
G02*
X168512500Y-71400000I62500J0D01*
G01*
G37*
G36*
G01*
X168512500Y-70900000D02*
X169237500Y-70900000D01*
G75*
G02*
X169300000Y-70962500I0J-62500D01*
G01*
X169300000Y-71087500D01*
G75*
G02*
X169237500Y-71150000I-62500J0D01*
G01*
X168512500Y-71150000D01*
G75*
G02*
X168450000Y-71087500I0J62500D01*
G01*
X168450000Y-70962500D01*
G75*
G02*
X168512500Y-70900000I62500J0D01*
G01*
G37*
G36*
G01*
X168512500Y-70400000D02*
X169237500Y-70400000D01*
G75*
G02*
X169300000Y-70462500I0J-62500D01*
G01*
X169300000Y-70587500D01*
G75*
G02*
X169237500Y-70650000I-62500J0D01*
G01*
X168512500Y-70650000D01*
G75*
G02*
X168450000Y-70587500I0J62500D01*
G01*
X168450000Y-70462500D01*
G75*
G02*
X168512500Y-70400000I62500J0D01*
G01*
G37*
G36*
G01*
X168512500Y-69900000D02*
X169237500Y-69900000D01*
G75*
G02*
X169300000Y-69962500I0J-62500D01*
G01*
X169300000Y-70087500D01*
G75*
G02*
X169237500Y-70150000I-62500J0D01*
G01*
X168512500Y-70150000D01*
G75*
G02*
X168450000Y-70087500I0J62500D01*
G01*
X168450000Y-69962500D01*
G75*
G02*
X168512500Y-69900000I62500J0D01*
G01*
G37*
G36*
G01*
X168512500Y-69400000D02*
X169237500Y-69400000D01*
G75*
G02*
X169300000Y-69462500I0J-62500D01*
G01*
X169300000Y-69587500D01*
G75*
G02*
X169237500Y-69650000I-62500J0D01*
G01*
X168512500Y-69650000D01*
G75*
G02*
X168450000Y-69587500I0J62500D01*
G01*
X168450000Y-69462500D01*
G75*
G02*
X168512500Y-69400000I62500J0D01*
G01*
G37*
G36*
G01*
X168512500Y-68900000D02*
X169237500Y-68900000D01*
G75*
G02*
X169300000Y-68962500I0J-62500D01*
G01*
X169300000Y-69087500D01*
G75*
G02*
X169237500Y-69150000I-62500J0D01*
G01*
X168512500Y-69150000D01*
G75*
G02*
X168450000Y-69087500I0J62500D01*
G01*
X168450000Y-68962500D01*
G75*
G02*
X168512500Y-68900000I62500J0D01*
G01*
G37*
G36*
G01*
X168512500Y-68400000D02*
X169237500Y-68400000D01*
G75*
G02*
X169300000Y-68462500I0J-62500D01*
G01*
X169300000Y-68587500D01*
G75*
G02*
X169237500Y-68650000I-62500J0D01*
G01*
X168512500Y-68650000D01*
G75*
G02*
X168450000Y-68587500I0J62500D01*
G01*
X168450000Y-68462500D01*
G75*
G02*
X168512500Y-68400000I62500J0D01*
G01*
G37*
G36*
G01*
X168512500Y-67900000D02*
X169237500Y-67900000D01*
G75*
G02*
X169300000Y-67962500I0J-62500D01*
G01*
X169300000Y-68087500D01*
G75*
G02*
X169237500Y-68150000I-62500J0D01*
G01*
X168512500Y-68150000D01*
G75*
G02*
X168450000Y-68087500I0J62500D01*
G01*
X168450000Y-67962500D01*
G75*
G02*
X168512500Y-67900000I62500J0D01*
G01*
G37*
G36*
G01*
X168512500Y-67400000D02*
X169237500Y-67400000D01*
G75*
G02*
X169300000Y-67462500I0J-62500D01*
G01*
X169300000Y-67587500D01*
G75*
G02*
X169237500Y-67650000I-62500J0D01*
G01*
X168512500Y-67650000D01*
G75*
G02*
X168450000Y-67587500I0J62500D01*
G01*
X168450000Y-67462500D01*
G75*
G02*
X168512500Y-67400000I62500J0D01*
G01*
G37*
D23*
X165425000Y-70275000D03*
G36*
G01*
X147725000Y-98325000D02*
X147925000Y-98325000D01*
G75*
G02*
X148025000Y-98425000I0J-100000D01*
G01*
X148025000Y-99850000D01*
G75*
G02*
X147925000Y-99950000I-100000J0D01*
G01*
X147725000Y-99950000D01*
G75*
G02*
X147625000Y-99850000I0J100000D01*
G01*
X147625000Y-98425000D01*
G75*
G02*
X147725000Y-98325000I100000J0D01*
G01*
G37*
G36*
G01*
X147075000Y-98325000D02*
X147275000Y-98325000D01*
G75*
G02*
X147375000Y-98425000I0J-100000D01*
G01*
X147375000Y-99850000D01*
G75*
G02*
X147275000Y-99950000I-100000J0D01*
G01*
X147075000Y-99950000D01*
G75*
G02*
X146975000Y-99850000I0J100000D01*
G01*
X146975000Y-98425000D01*
G75*
G02*
X147075000Y-98325000I100000J0D01*
G01*
G37*
G36*
G01*
X146425000Y-98325000D02*
X146625000Y-98325000D01*
G75*
G02*
X146725000Y-98425000I0J-100000D01*
G01*
X146725000Y-99850000D01*
G75*
G02*
X146625000Y-99950000I-100000J0D01*
G01*
X146425000Y-99950000D01*
G75*
G02*
X146325000Y-99850000I0J100000D01*
G01*
X146325000Y-98425000D01*
G75*
G02*
X146425000Y-98325000I100000J0D01*
G01*
G37*
G36*
G01*
X145775000Y-98325000D02*
X145975000Y-98325000D01*
G75*
G02*
X146075000Y-98425000I0J-100000D01*
G01*
X146075000Y-99850000D01*
G75*
G02*
X145975000Y-99950000I-100000J0D01*
G01*
X145775000Y-99950000D01*
G75*
G02*
X145675000Y-99850000I0J100000D01*
G01*
X145675000Y-98425000D01*
G75*
G02*
X145775000Y-98325000I100000J0D01*
G01*
G37*
G36*
G01*
X145775000Y-102550000D02*
X145975000Y-102550000D01*
G75*
G02*
X146075000Y-102650000I0J-100000D01*
G01*
X146075000Y-104075000D01*
G75*
G02*
X145975000Y-104175000I-100000J0D01*
G01*
X145775000Y-104175000D01*
G75*
G02*
X145675000Y-104075000I0J100000D01*
G01*
X145675000Y-102650000D01*
G75*
G02*
X145775000Y-102550000I100000J0D01*
G01*
G37*
G36*
G01*
X146425000Y-102550000D02*
X146625000Y-102550000D01*
G75*
G02*
X146725000Y-102650000I0J-100000D01*
G01*
X146725000Y-104075000D01*
G75*
G02*
X146625000Y-104175000I-100000J0D01*
G01*
X146425000Y-104175000D01*
G75*
G02*
X146325000Y-104075000I0J100000D01*
G01*
X146325000Y-102650000D01*
G75*
G02*
X146425000Y-102550000I100000J0D01*
G01*
G37*
G36*
G01*
X147075000Y-102550000D02*
X147275000Y-102550000D01*
G75*
G02*
X147375000Y-102650000I0J-100000D01*
G01*
X147375000Y-104075000D01*
G75*
G02*
X147275000Y-104175000I-100000J0D01*
G01*
X147075000Y-104175000D01*
G75*
G02*
X146975000Y-104075000I0J100000D01*
G01*
X146975000Y-102650000D01*
G75*
G02*
X147075000Y-102550000I100000J0D01*
G01*
G37*
G36*
G01*
X147725000Y-102550000D02*
X147925000Y-102550000D01*
G75*
G02*
X148025000Y-102650000I0J-100000D01*
G01*
X148025000Y-104075000D01*
G75*
G02*
X147925000Y-104175000I-100000J0D01*
G01*
X147725000Y-104175000D01*
G75*
G02*
X147625000Y-104075000I0J100000D01*
G01*
X147625000Y-102650000D01*
G75*
G02*
X147725000Y-102550000I100000J0D01*
G01*
G37*
D11*
X183994000Y-132842000D03*
G36*
G01*
X182969000Y-133779500D02*
X182969000Y-133904500D01*
G75*
G02*
X182906500Y-133967000I-62500J0D01*
G01*
X182181500Y-133967000D01*
G75*
G02*
X182119000Y-133904500I0J62500D01*
G01*
X182119000Y-133779500D01*
G75*
G02*
X182181500Y-133717000I62500J0D01*
G01*
X182906500Y-133717000D01*
G75*
G02*
X182969000Y-133779500I0J-62500D01*
G01*
G37*
G36*
G01*
X182969000Y-133279500D02*
X182969000Y-133404500D01*
G75*
G02*
X182906500Y-133467000I-62500J0D01*
G01*
X182181500Y-133467000D01*
G75*
G02*
X182119000Y-133404500I0J62500D01*
G01*
X182119000Y-133279500D01*
G75*
G02*
X182181500Y-133217000I62500J0D01*
G01*
X182906500Y-133217000D01*
G75*
G02*
X182969000Y-133279500I0J-62500D01*
G01*
G37*
G36*
G01*
X182969000Y-132779500D02*
X182969000Y-132904500D01*
G75*
G02*
X182906500Y-132967000I-62500J0D01*
G01*
X182181500Y-132967000D01*
G75*
G02*
X182119000Y-132904500I0J62500D01*
G01*
X182119000Y-132779500D01*
G75*
G02*
X182181500Y-132717000I62500J0D01*
G01*
X182906500Y-132717000D01*
G75*
G02*
X182969000Y-132779500I0J-62500D01*
G01*
G37*
G36*
G01*
X182969000Y-132279500D02*
X182969000Y-132404500D01*
G75*
G02*
X182906500Y-132467000I-62500J0D01*
G01*
X182181500Y-132467000D01*
G75*
G02*
X182119000Y-132404500I0J62500D01*
G01*
X182119000Y-132279500D01*
G75*
G02*
X182181500Y-132217000I62500J0D01*
G01*
X182906500Y-132217000D01*
G75*
G02*
X182969000Y-132279500I0J-62500D01*
G01*
G37*
G36*
G01*
X182969000Y-131779500D02*
X182969000Y-131904500D01*
G75*
G02*
X182906500Y-131967000I-62500J0D01*
G01*
X182181500Y-131967000D01*
G75*
G02*
X182119000Y-131904500I0J62500D01*
G01*
X182119000Y-131779500D01*
G75*
G02*
X182181500Y-131717000I62500J0D01*
G01*
X182906500Y-131717000D01*
G75*
G02*
X182969000Y-131779500I0J-62500D01*
G01*
G37*
G36*
G01*
X185869000Y-131779500D02*
X185869000Y-131904500D01*
G75*
G02*
X185806500Y-131967000I-62500J0D01*
G01*
X185081500Y-131967000D01*
G75*
G02*
X185019000Y-131904500I0J62500D01*
G01*
X185019000Y-131779500D01*
G75*
G02*
X185081500Y-131717000I62500J0D01*
G01*
X185806500Y-131717000D01*
G75*
G02*
X185869000Y-131779500I0J-62500D01*
G01*
G37*
G36*
G01*
X185869000Y-132279500D02*
X185869000Y-132404500D01*
G75*
G02*
X185806500Y-132467000I-62500J0D01*
G01*
X185081500Y-132467000D01*
G75*
G02*
X185019000Y-132404500I0J62500D01*
G01*
X185019000Y-132279500D01*
G75*
G02*
X185081500Y-132217000I62500J0D01*
G01*
X185806500Y-132217000D01*
G75*
G02*
X185869000Y-132279500I0J-62500D01*
G01*
G37*
G36*
G01*
X185869000Y-132779500D02*
X185869000Y-132904500D01*
G75*
G02*
X185806500Y-132967000I-62500J0D01*
G01*
X185081500Y-132967000D01*
G75*
G02*
X185019000Y-132904500I0J62500D01*
G01*
X185019000Y-132779500D01*
G75*
G02*
X185081500Y-132717000I62500J0D01*
G01*
X185806500Y-132717000D01*
G75*
G02*
X185869000Y-132779500I0J-62500D01*
G01*
G37*
G36*
G01*
X185869000Y-133279500D02*
X185869000Y-133404500D01*
G75*
G02*
X185806500Y-133467000I-62500J0D01*
G01*
X185081500Y-133467000D01*
G75*
G02*
X185019000Y-133404500I0J62500D01*
G01*
X185019000Y-133279500D01*
G75*
G02*
X185081500Y-133217000I62500J0D01*
G01*
X185806500Y-133217000D01*
G75*
G02*
X185869000Y-133279500I0J-62500D01*
G01*
G37*
G36*
G01*
X185869000Y-133779500D02*
X185869000Y-133904500D01*
G75*
G02*
X185806500Y-133967000I-62500J0D01*
G01*
X185081500Y-133967000D01*
G75*
G02*
X185019000Y-133904500I0J62500D01*
G01*
X185019000Y-133779500D01*
G75*
G02*
X185081500Y-133717000I62500J0D01*
G01*
X185806500Y-133717000D01*
G75*
G02*
X185869000Y-133779500I0J-62500D01*
G01*
G37*
D24*
X174056000Y-125008000D03*
X175006000Y-125008000D03*
X175956000Y-125008000D03*
X175956000Y-122388000D03*
X174056000Y-122388000D03*
G36*
G01*
X187388000Y-123560000D02*
X187388000Y-123410000D01*
G75*
G02*
X187463000Y-123335000I75000J0D01*
G01*
X188138000Y-123335000D01*
G75*
G02*
X188213000Y-123410000I0J-75000D01*
G01*
X188213000Y-123560000D01*
G75*
G02*
X188138000Y-123635000I-75000J0D01*
G01*
X187463000Y-123635000D01*
G75*
G02*
X187388000Y-123560000I0J75000D01*
G01*
G37*
G36*
G01*
X187388000Y-124210000D02*
X187388000Y-124060000D01*
G75*
G02*
X187463000Y-123985000I75000J0D01*
G01*
X188138000Y-123985000D01*
G75*
G02*
X188213000Y-124060000I0J-75000D01*
G01*
X188213000Y-124210000D01*
G75*
G02*
X188138000Y-124285000I-75000J0D01*
G01*
X187463000Y-124285000D01*
G75*
G02*
X187388000Y-124210000I0J75000D01*
G01*
G37*
G36*
G01*
X187388000Y-124860000D02*
X187388000Y-124710000D01*
G75*
G02*
X187463000Y-124635000I75000J0D01*
G01*
X188138000Y-124635000D01*
G75*
G02*
X188213000Y-124710000I0J-75000D01*
G01*
X188213000Y-124860000D01*
G75*
G02*
X188138000Y-124935000I-75000J0D01*
G01*
X187463000Y-124935000D01*
G75*
G02*
X187388000Y-124860000I0J75000D01*
G01*
G37*
G36*
G01*
X187388000Y-125510000D02*
X187388000Y-125360000D01*
G75*
G02*
X187463000Y-125285000I75000J0D01*
G01*
X188138000Y-125285000D01*
G75*
G02*
X188213000Y-125360000I0J-75000D01*
G01*
X188213000Y-125510000D01*
G75*
G02*
X188138000Y-125585000I-75000J0D01*
G01*
X187463000Y-125585000D01*
G75*
G02*
X187388000Y-125510000I0J75000D01*
G01*
G37*
G36*
G01*
X188613000Y-126735000D02*
X188613000Y-126060000D01*
G75*
G02*
X188688000Y-125985000I75000J0D01*
G01*
X188838000Y-125985000D01*
G75*
G02*
X188913000Y-126060000I0J-75000D01*
G01*
X188913000Y-126735000D01*
G75*
G02*
X188838000Y-126810000I-75000J0D01*
G01*
X188688000Y-126810000D01*
G75*
G02*
X188613000Y-126735000I0J75000D01*
G01*
G37*
G36*
G01*
X189263000Y-126735000D02*
X189263000Y-126060000D01*
G75*
G02*
X189338000Y-125985000I75000J0D01*
G01*
X189488000Y-125985000D01*
G75*
G02*
X189563000Y-126060000I0J-75000D01*
G01*
X189563000Y-126735000D01*
G75*
G02*
X189488000Y-126810000I-75000J0D01*
G01*
X189338000Y-126810000D01*
G75*
G02*
X189263000Y-126735000I0J75000D01*
G01*
G37*
G36*
G01*
X189913000Y-126735000D02*
X189913000Y-126060000D01*
G75*
G02*
X189988000Y-125985000I75000J0D01*
G01*
X190138000Y-125985000D01*
G75*
G02*
X190213000Y-126060000I0J-75000D01*
G01*
X190213000Y-126735000D01*
G75*
G02*
X190138000Y-126810000I-75000J0D01*
G01*
X189988000Y-126810000D01*
G75*
G02*
X189913000Y-126735000I0J75000D01*
G01*
G37*
G36*
G01*
X190563000Y-126735000D02*
X190563000Y-126060000D01*
G75*
G02*
X190638000Y-125985000I75000J0D01*
G01*
X190788000Y-125985000D01*
G75*
G02*
X190863000Y-126060000I0J-75000D01*
G01*
X190863000Y-126735000D01*
G75*
G02*
X190788000Y-126810000I-75000J0D01*
G01*
X190638000Y-126810000D01*
G75*
G02*
X190563000Y-126735000I0J75000D01*
G01*
G37*
G36*
G01*
X191263000Y-125510000D02*
X191263000Y-125360000D01*
G75*
G02*
X191338000Y-125285000I75000J0D01*
G01*
X192013000Y-125285000D01*
G75*
G02*
X192088000Y-125360000I0J-75000D01*
G01*
X192088000Y-125510000D01*
G75*
G02*
X192013000Y-125585000I-75000J0D01*
G01*
X191338000Y-125585000D01*
G75*
G02*
X191263000Y-125510000I0J75000D01*
G01*
G37*
G36*
G01*
X191263000Y-124860000D02*
X191263000Y-124710000D01*
G75*
G02*
X191338000Y-124635000I75000J0D01*
G01*
X192013000Y-124635000D01*
G75*
G02*
X192088000Y-124710000I0J-75000D01*
G01*
X192088000Y-124860000D01*
G75*
G02*
X192013000Y-124935000I-75000J0D01*
G01*
X191338000Y-124935000D01*
G75*
G02*
X191263000Y-124860000I0J75000D01*
G01*
G37*
G36*
G01*
X191263000Y-124210000D02*
X191263000Y-124060000D01*
G75*
G02*
X191338000Y-123985000I75000J0D01*
G01*
X192013000Y-123985000D01*
G75*
G02*
X192088000Y-124060000I0J-75000D01*
G01*
X192088000Y-124210000D01*
G75*
G02*
X192013000Y-124285000I-75000J0D01*
G01*
X191338000Y-124285000D01*
G75*
G02*
X191263000Y-124210000I0J75000D01*
G01*
G37*
G36*
G01*
X191263000Y-123560000D02*
X191263000Y-123410000D01*
G75*
G02*
X191338000Y-123335000I75000J0D01*
G01*
X192013000Y-123335000D01*
G75*
G02*
X192088000Y-123410000I0J-75000D01*
G01*
X192088000Y-123560000D01*
G75*
G02*
X192013000Y-123635000I-75000J0D01*
G01*
X191338000Y-123635000D01*
G75*
G02*
X191263000Y-123560000I0J75000D01*
G01*
G37*
G36*
G01*
X190563000Y-122860000D02*
X190563000Y-122185000D01*
G75*
G02*
X190638000Y-122110000I75000J0D01*
G01*
X190788000Y-122110000D01*
G75*
G02*
X190863000Y-122185000I0J-75000D01*
G01*
X190863000Y-122860000D01*
G75*
G02*
X190788000Y-122935000I-75000J0D01*
G01*
X190638000Y-122935000D01*
G75*
G02*
X190563000Y-122860000I0J75000D01*
G01*
G37*
G36*
G01*
X189913000Y-122860000D02*
X189913000Y-122185000D01*
G75*
G02*
X189988000Y-122110000I75000J0D01*
G01*
X190138000Y-122110000D01*
G75*
G02*
X190213000Y-122185000I0J-75000D01*
G01*
X190213000Y-122860000D01*
G75*
G02*
X190138000Y-122935000I-75000J0D01*
G01*
X189988000Y-122935000D01*
G75*
G02*
X189913000Y-122860000I0J75000D01*
G01*
G37*
G36*
G01*
X189263000Y-122860000D02*
X189263000Y-122185000D01*
G75*
G02*
X189338000Y-122110000I75000J0D01*
G01*
X189488000Y-122110000D01*
G75*
G02*
X189563000Y-122185000I0J-75000D01*
G01*
X189563000Y-122860000D01*
G75*
G02*
X189488000Y-122935000I-75000J0D01*
G01*
X189338000Y-122935000D01*
G75*
G02*
X189263000Y-122860000I0J75000D01*
G01*
G37*
G36*
G01*
X188613000Y-122860000D02*
X188613000Y-122185000D01*
G75*
G02*
X188688000Y-122110000I75000J0D01*
G01*
X188838000Y-122110000D01*
G75*
G02*
X188913000Y-122185000I0J-75000D01*
G01*
X188913000Y-122860000D01*
G75*
G02*
X188838000Y-122935000I-75000J0D01*
G01*
X188688000Y-122935000D01*
G75*
G02*
X188613000Y-122860000I0J75000D01*
G01*
G37*
D25*
X189738000Y-124460000D03*
G36*
G01*
X145115500Y-94932000D02*
X145460500Y-94932000D01*
G75*
G02*
X145608000Y-95079500I0J-147500D01*
G01*
X145608000Y-95374500D01*
G75*
G02*
X145460500Y-95522000I-147500J0D01*
G01*
X145115500Y-95522000D01*
G75*
G02*
X144968000Y-95374500I0J147500D01*
G01*
X144968000Y-95079500D01*
G75*
G02*
X145115500Y-94932000I147500J0D01*
G01*
G37*
G36*
G01*
X145115500Y-93962000D02*
X145460500Y-93962000D01*
G75*
G02*
X145608000Y-94109500I0J-147500D01*
G01*
X145608000Y-94404500D01*
G75*
G02*
X145460500Y-94552000I-147500J0D01*
G01*
X145115500Y-94552000D01*
G75*
G02*
X144968000Y-94404500I0J147500D01*
G01*
X144968000Y-94109500D01*
G75*
G02*
X145115500Y-93962000I147500J0D01*
G01*
G37*
G36*
G01*
X143845500Y-93962000D02*
X144190500Y-93962000D01*
G75*
G02*
X144338000Y-94109500I0J-147500D01*
G01*
X144338000Y-94404500D01*
G75*
G02*
X144190500Y-94552000I-147500J0D01*
G01*
X143845500Y-94552000D01*
G75*
G02*
X143698000Y-94404500I0J147500D01*
G01*
X143698000Y-94109500D01*
G75*
G02*
X143845500Y-93962000I147500J0D01*
G01*
G37*
G36*
G01*
X143845500Y-94932000D02*
X144190500Y-94932000D01*
G75*
G02*
X144338000Y-95079500I0J-147500D01*
G01*
X144338000Y-95374500D01*
G75*
G02*
X144190500Y-95522000I-147500J0D01*
G01*
X143845500Y-95522000D01*
G75*
G02*
X143698000Y-95374500I0J147500D01*
G01*
X143698000Y-95079500D01*
G75*
G02*
X143845500Y-94932000I147500J0D01*
G01*
G37*
G36*
G01*
X163700000Y-116061500D02*
X163700000Y-115586500D01*
G75*
G02*
X163937500Y-115349000I237500J0D01*
G01*
X164512500Y-115349000D01*
G75*
G02*
X164750000Y-115586500I0J-237500D01*
G01*
X164750000Y-116061500D01*
G75*
G02*
X164512500Y-116299000I-237500J0D01*
G01*
X163937500Y-116299000D01*
G75*
G02*
X163700000Y-116061500I0J237500D01*
G01*
G37*
G36*
G01*
X165450000Y-116061500D02*
X165450000Y-115586500D01*
G75*
G02*
X165687500Y-115349000I237500J0D01*
G01*
X166262500Y-115349000D01*
G75*
G02*
X166500000Y-115586500I0J-237500D01*
G01*
X166500000Y-116061500D01*
G75*
G02*
X166262500Y-116299000I-237500J0D01*
G01*
X165687500Y-116299000D01*
G75*
G02*
X165450000Y-116061500I0J237500D01*
G01*
G37*
G36*
G01*
X192060000Y-113955000D02*
X192060000Y-115205000D01*
G75*
G02*
X191810000Y-115455000I-250000J0D01*
G01*
X190885000Y-115455000D01*
G75*
G02*
X190635000Y-115205000I0J250000D01*
G01*
X190635000Y-113955000D01*
G75*
G02*
X190885000Y-113705000I250000J0D01*
G01*
X191810000Y-113705000D01*
G75*
G02*
X192060000Y-113955000I0J-250000D01*
G01*
G37*
G36*
G01*
X189085000Y-113955000D02*
X189085000Y-115205000D01*
G75*
G02*
X188835000Y-115455000I-250000J0D01*
G01*
X187910000Y-115455000D01*
G75*
G02*
X187660000Y-115205000I0J250000D01*
G01*
X187660000Y-113955000D01*
G75*
G02*
X187910000Y-113705000I250000J0D01*
G01*
X188835000Y-113705000D01*
G75*
G02*
X189085000Y-113955000I0J-250000D01*
G01*
G37*
D26*
G36*
X187873000Y-106197394D02*
G01*
X186447394Y-107623000D01*
X186052606Y-107623000D01*
X185127000Y-106697394D01*
X185127000Y-103127000D01*
X187873000Y-103127000D01*
X187873000Y-106197394D01*
G37*
X187873000Y-106197394D02*
X186447394Y-107623000D01*
X186052606Y-107623000D01*
X185127000Y-106697394D01*
X185127000Y-103127000D01*
X187873000Y-103127000D01*
X187873000Y-106197394D01*
G36*
X183123000Y-106707667D02*
G01*
X182398400Y-107673800D01*
X182385486Y-107695085D01*
X182376973Y-107718481D01*
X182373000Y-107750000D01*
X182373000Y-111123000D01*
X180315356Y-111123000D01*
X179122570Y-109453100D01*
X178878643Y-107257757D01*
X179850586Y-103127000D01*
X183123000Y-103127000D01*
X183123000Y-106707667D01*
G37*
X183123000Y-106707667D02*
X182398400Y-107673800D01*
X182385486Y-107695085D01*
X182376973Y-107718481D01*
X182373000Y-107750000D01*
X182373000Y-111123000D01*
X180315356Y-111123000D01*
X179122570Y-109453100D01*
X178878643Y-107257757D01*
X179850586Y-103127000D01*
X183123000Y-103127000D01*
X183123000Y-106707667D01*
G36*
X185643394Y-107623000D02*
G01*
X182804000Y-107623000D01*
X183063500Y-107277000D01*
X185297394Y-107277000D01*
X185643394Y-107623000D01*
G37*
X185643394Y-107623000D02*
X182804000Y-107623000D01*
X183063500Y-107277000D01*
X185297394Y-107277000D01*
X185643394Y-107623000D01*
G36*
X184873000Y-105573000D02*
G01*
X184577000Y-105573000D01*
X184577000Y-103127000D01*
X184873000Y-103127000D01*
X184873000Y-105573000D01*
G37*
X184873000Y-105573000D02*
X184577000Y-105573000D01*
X184577000Y-103127000D01*
X184873000Y-103127000D01*
X184873000Y-105573000D01*
G36*
X183673000Y-105573000D02*
G01*
X183377000Y-105573000D01*
X183377000Y-103127000D01*
X183673000Y-103127000D01*
X183673000Y-105573000D01*
G37*
X183673000Y-105573000D02*
X183377000Y-105573000D01*
X183377000Y-103127000D01*
X183673000Y-103127000D01*
X183673000Y-105573000D01*
G36*
X189649793Y-107313065D02*
G01*
X184581123Y-112040575D01*
X183627000Y-112413927D01*
X183627000Y-109324626D01*
X186152396Y-109276977D01*
X186177122Y-109274070D01*
X186193401Y-109269354D01*
X186743401Y-109069354D01*
X186770447Y-109055670D01*
X187220447Y-108755670D01*
X187237201Y-108742331D01*
X188136350Y-107893135D01*
X189159588Y-106962919D01*
X189649793Y-107313065D01*
G37*
X189649793Y-107313065D02*
X184581123Y-112040575D01*
X183627000Y-112413927D01*
X183627000Y-109324626D01*
X186152396Y-109276977D01*
X186177122Y-109274070D01*
X186193401Y-109269354D01*
X186743401Y-109069354D01*
X186770447Y-109055670D01*
X187220447Y-108755670D01*
X187237201Y-108742331D01*
X188136350Y-107893135D01*
X189159588Y-106962919D01*
X189649793Y-107313065D01*
M02*
