M48
; DRILL file {KiCad 5.1.6-c6e7f7d~87~ubuntu20.04.1} date Thu Aug 13 12:44:25 2020
; FORMAT={-:-/ absolute / inch / decimal}
; #@! TF.CreationDate,2020-08-13T12:44:25+03:00
; #@! TF.GenerationSoftware,Kicad,Pcbnew,5.1.6-c6e7f7d~87~ubuntu20.04.1
; #@! TF.FileFunction,Plated,1,2,PTH
FMAT,2
INCH
T1C0.0079
T2C0.0118
T3C0.0157
T4C0.0197
T5C0.0236
T6C0.0315
T7C0.0689
T8C0.1378
%
G90
G05
T1
X5.0982Y-3.1329
X5.0982Y-3.1816
X5.0982Y-3.2303
X5.0982Y-3.279
X5.0982Y-3.3278
X5.1469Y-3.1329
X5.1469Y-3.1816
X5.1469Y-3.2303
X5.1469Y-3.279
X5.1469Y-3.3278
X5.1957Y-3.1329
X5.1957Y-3.1816
X5.1957Y-3.2303
X5.1957Y-3.279
X5.1957Y-3.3278
X5.2444Y-3.1329
X5.2444Y-3.1816
X5.2444Y-3.2303
X5.2444Y-3.279
X5.2444Y-3.3278
X5.2931Y-3.1329
X5.2931Y-3.1816
X5.2931Y-3.2303
X5.2931Y-3.279
X5.2931Y-3.3278
T2
X4.0992Y-4.5634
X4.11Y-2.47
X4.12Y-1.96
X4.12Y-3.62
X4.1268Y-4.4303
X4.1469Y-3.863
X4.1496Y-4.5252
X4.1764Y-3.9366
X4.18Y-2.1
X4.1988Y-4.7673
X4.2232Y-2.5618
X4.2236Y-4.4492
X4.24Y-1.86
X4.25Y-2.48
X4.2673Y-4.5346
X4.27Y-2.61
X4.2928Y-2.3972
X4.3184Y-2.3684
X4.35Y-2.88
X4.4Y-2.34
X4.45Y-3.45
X4.4598Y-4.2165
X4.46Y-2.4
X4.48Y-2.05
X4.52Y-1.79
X4.52Y-2.13
X4.52Y-2.34
X4.52Y-2.4
X4.5327Y-4.2941
X4.54Y-2.59
X4.57Y-3.1
X4.64Y-2.42
X4.65Y-2.02
X4.69Y-3.53
X4.75Y-2.32
X4.75Y-3.26
X4.78Y-3.12
X4.8Y-2.16
X4.8035Y-4.5634
X4.81Y-2.5
X4.83Y-3.63
X4.85Y-2.87
X4.8717Y-4.5496
X4.89Y-3.47
X4.8969Y-4.4858
X4.9Y-3.0
X4.9331Y-4.9457
X4.94Y-3.59
X4.95Y-2.86
X4.96Y-2.44
X4.9618Y-3.4677
X4.98Y-2.3
X4.9826Y-3.29
X4.99Y-3.37
X5.0Y-3.23
X5.02Y-3.41
X5.03Y-3.05
X5.04Y-3.65
X5.1Y-3.04
X5.12Y-3.42
X5.15Y-3.83
X5.1594Y-2.9933
X5.17Y-3.41
X5.17Y-3.62
X5.2118Y-3.0268
X5.2161Y-3.4114
X5.25Y-3.45
X5.2913Y-3.4374
X5.31Y-3.05
X5.33Y-3.03
X5.36Y-3.44
X5.4026Y-3.1674
X5.41Y-3.09
X5.42Y-2.77
X5.42Y-3.3
X5.43Y-3.38
X5.4391Y-2.6411
X5.45Y-3.56
X5.48Y-3.2
X5.49Y-3.06
X5.5102Y-2.8701
X5.53Y-3.2
X5.5744Y-5.2654
X5.64Y-3.07
X5.66Y-2.8
X5.6774Y-2.95
X5.69Y-3.13
X5.72Y-3.88
X5.76Y-2.92
X5.92Y-3.32
X5.95Y-3.64
X6.0Y-2.51
X6.08Y-2.47
X6.1965Y-5.1783
X6.2972Y-5.185
X6.53Y-3.5
X6.55Y-4.75
X6.5578Y-4.9522
X6.57Y-5.03
X6.5909Y-4.6657
X6.5909Y-5.1177
X6.6283Y-4.9134
X6.69Y-4.38
X6.7272Y-4.7996
X6.81Y-5.1
X6.8185Y-4.7102
X6.83Y-5.0457
X6.8394Y-3.9543
X6.84Y-4.75
X6.8583Y-5.0635
X6.8926Y-5.0674
X6.97Y-4.25
X7.0Y-3.3
X7.03Y-3.61
X7.0827Y-5.024
X7.128Y-4.513
X7.13Y-3.3
X7.13Y-4.35
X7.252Y-5.0449
X7.2704Y-4.4104
X7.35Y-4.7
X7.37Y-3.98
X7.4063Y-5.148
X7.41Y-4.91
X7.422Y-4.6339
X7.4587Y-4.9015
X7.47Y-3.93
X7.5012Y-5.0673
X7.5024Y-4.9953
X7.51Y-4.61
X7.59Y-3.52
T3
X5.2429Y-2.9394
X6.94Y-4.02
X6.97Y-4.47
X7.2006Y-4.8394
T4
X6.31Y-1.67
X6.31Y-1.7487
X6.31Y-1.8275
X6.31Y-1.9062
X6.31Y-1.985
X6.31Y-2.0637
X6.31Y-2.1424
X6.31Y-2.2212
X6.31Y-2.2999
X6.31Y-2.3787
X6.31Y-2.4574
X6.31Y-2.5361
X6.31Y-2.6149
X6.31Y-2.6936
X6.31Y-2.7724
X6.31Y-2.8511
X6.31Y-2.9298
X6.31Y-3.0086
X6.31Y-3.0873
X6.31Y-3.1661
X6.3887Y-1.67
X6.3887Y-1.7487
X6.3887Y-1.8275
X6.3887Y-1.9062
X6.3887Y-1.985
X6.3887Y-2.0637
X6.3887Y-2.1424
X6.3887Y-2.2212
X6.3887Y-2.2999
X6.3887Y-2.3787
X6.3887Y-2.4574
X6.3887Y-2.5361
X6.3887Y-2.6149
X6.3887Y-2.6936
X6.3887Y-2.7724
X6.3887Y-2.8511
X6.3887Y-2.9298
X6.3887Y-3.0086
X6.3887Y-3.0873
X6.3887Y-3.1661
X6.4675Y-1.67
X6.4675Y-1.7487
X6.4675Y-1.8275
X6.4675Y-1.9062
X6.4675Y-1.985
X6.4675Y-2.0637
X6.4675Y-2.1424
X6.4675Y-2.2212
X6.4675Y-2.2999
X6.4675Y-2.3787
X6.4675Y-2.4574
X6.4675Y-2.5361
X6.4675Y-2.6149
X6.4675Y-2.6936
X6.4675Y-2.7724
X6.4675Y-2.8511
X6.4675Y-2.9298
X6.4675Y-3.0086
X6.4675Y-3.0873
X6.4675Y-3.1661
X6.5462Y-1.67
X6.5462Y-1.7487
X6.5462Y-1.8275
X6.5462Y-1.9062
X6.5462Y-1.985
X6.5462Y-2.0637
X6.5462Y-2.1424
X6.5462Y-2.2212
X6.5462Y-2.2999
X6.5462Y-2.3787
X6.5462Y-2.4574
X6.5462Y-2.5361
X6.5462Y-2.6149
X6.5462Y-2.6936
X6.5462Y-2.7724
X6.5462Y-2.8511
X6.5462Y-2.9298
X6.5462Y-3.0086
X6.5462Y-3.0873
X6.5462Y-3.1661
X6.625Y-1.67
X6.625Y-1.7487
X6.625Y-1.8275
X6.625Y-1.9062
X6.625Y-1.985
X6.625Y-2.0637
X6.625Y-2.1424
X6.625Y-2.2212
X6.625Y-2.2999
X6.625Y-2.3787
X6.625Y-2.4574
X6.625Y-2.5361
X6.625Y-2.6149
X6.625Y-2.6936
X6.625Y-2.7724
X6.625Y-2.8511
X6.625Y-2.9298
X6.625Y-3.0086
X6.625Y-3.0873
X6.625Y-3.1661
X6.7037Y-1.67
X6.7037Y-1.7487
X6.7037Y-1.8275
X6.7037Y-1.9062
X6.7037Y-1.985
X6.7037Y-2.0637
X6.7037Y-2.1424
X6.7037Y-2.2212
X6.7037Y-2.2999
X6.7037Y-2.3787
X6.7037Y-2.4574
X6.7037Y-2.5361
X6.7037Y-2.6149
X6.7037Y-2.6936
X6.7037Y-2.7724
X6.7037Y-2.8511
X6.7037Y-2.9298
X6.7037Y-3.0086
X6.7037Y-3.0873
X6.7037Y-3.1661
X6.7824Y-1.67
X6.7824Y-1.7487
X6.7824Y-1.8275
X6.7824Y-1.9062
X6.7824Y-1.985
X6.7824Y-2.0637
X6.7824Y-2.1424
X6.7824Y-2.2212
X6.7824Y-2.2999
X6.7824Y-2.3787
X6.7824Y-2.4574
X6.7824Y-2.5361
X6.7824Y-2.6149
X6.7824Y-2.6936
X6.7824Y-2.7724
X6.7824Y-2.8511
X6.7824Y-2.9298
X6.7824Y-3.0086
X6.7824Y-3.0873
X6.7824Y-3.1661
X6.8612Y-1.67
X6.8612Y-1.7487
X6.8612Y-1.8275
X6.8612Y-1.9062
X6.8612Y-1.985
X6.8612Y-2.0637
X6.8612Y-2.1424
X6.8612Y-2.2212
X6.8612Y-2.2999
X6.8612Y-2.3787
X6.8612Y-2.4574
X6.8612Y-2.5361
X6.8612Y-2.6149
X6.8612Y-2.6936
X6.8612Y-2.7724
X6.8612Y-2.8511
X6.8612Y-2.9298
X6.8612Y-3.0086
X6.8612Y-3.0873
X6.8612Y-3.1661
X7.22Y-1.68
X7.22Y-1.7587
X7.22Y-1.8375
X7.22Y-1.9162
X7.22Y-1.995
X7.22Y-2.0737
X7.22Y-2.1524
X7.22Y-2.2312
X7.22Y-2.3099
X7.22Y-2.3887
X7.22Y-2.4674
X7.22Y-2.5461
X7.22Y-2.6249
X7.22Y-2.7036
X7.22Y-2.7824
X7.22Y-2.8611
X7.22Y-2.9398
X7.22Y-3.0186
X7.22Y-3.0973
X7.22Y-3.1761
X7.2987Y-1.68
X7.2987Y-1.7587
X7.2987Y-1.8375
X7.2987Y-1.9162
X7.2987Y-1.995
X7.2987Y-2.0737
X7.2987Y-2.1524
X7.2987Y-2.2312
X7.2987Y-2.3099
X7.2987Y-2.3887
X7.2987Y-2.4674
X7.2987Y-2.5461
X7.2987Y-2.6249
X7.2987Y-2.7036
X7.2987Y-2.7824
X7.2987Y-2.8611
X7.2987Y-2.9398
X7.2987Y-3.0186
X7.2987Y-3.0973
X7.2987Y-3.1761
X7.3775Y-1.68
X7.3775Y-1.7587
X7.3775Y-1.8375
X7.3775Y-1.9162
X7.3775Y-1.995
X7.3775Y-2.0737
X7.3775Y-2.1524
X7.3775Y-2.2312
X7.3775Y-2.3099
X7.3775Y-2.3887
X7.3775Y-2.4674
X7.3775Y-2.5461
X7.3775Y-2.6249
X7.3775Y-2.7036
X7.3775Y-2.7824
X7.3775Y-2.8611
X7.3775Y-2.9398
X7.3775Y-3.0186
X7.3775Y-3.0973
X7.3775Y-3.1761
X7.4562Y-1.68
X7.4562Y-1.7587
X7.4562Y-1.8375
X7.4562Y-1.9162
X7.4562Y-1.995
X7.4562Y-2.0737
X7.4562Y-2.1524
X7.4562Y-2.2312
X7.4562Y-2.3099
X7.4562Y-2.3887
X7.4562Y-2.4674
X7.4562Y-2.5461
X7.4562Y-2.6249
X7.4562Y-2.7036
X7.4562Y-2.7824
X7.4562Y-2.8611
X7.4562Y-2.9398
X7.4562Y-3.0186
X7.4562Y-3.0973
X7.4562Y-3.1761
X7.535Y-1.68
X7.535Y-1.7587
X7.535Y-1.8375
X7.535Y-1.9162
X7.535Y-1.995
X7.535Y-2.0737
X7.535Y-2.1524
X7.535Y-2.2312
X7.535Y-2.3099
X7.535Y-2.3887
X7.535Y-2.4674
X7.535Y-2.5461
X7.535Y-2.6249
X7.535Y-2.7036
X7.535Y-2.7824
X7.535Y-2.8611
X7.535Y-2.9398
X7.535Y-3.0186
X7.535Y-3.0973
X7.535Y-3.1761
X7.6137Y-1.68
X7.6137Y-1.7587
X7.6137Y-1.8375
X7.6137Y-1.9162
X7.6137Y-1.995
X7.6137Y-2.0737
X7.6137Y-2.1524
X7.6137Y-2.2312
X7.6137Y-2.3099
X7.6137Y-2.3887
X7.6137Y-2.4674
X7.6137Y-2.5461
X7.6137Y-2.6249
X7.6137Y-2.7036
X7.6137Y-2.7824
X7.6137Y-2.8611
X7.6137Y-2.9398
X7.6137Y-3.0186
X7.6137Y-3.0973
X7.6137Y-3.1761
X7.6924Y-1.68
X7.6924Y-1.7587
X7.6924Y-1.8375
X7.6924Y-1.9162
X7.6924Y-1.995
X7.6924Y-2.0737
X7.6924Y-2.1524
X7.6924Y-2.2312
X7.6924Y-2.3099
X7.6924Y-2.3887
X7.6924Y-2.4674
X7.6924Y-2.5461
X7.6924Y-2.6249
X7.6924Y-2.7036
X7.6924Y-2.7824
X7.6924Y-2.8611
X7.6924Y-2.9398
X7.6924Y-3.0186
X7.6924Y-3.0973
X7.6924Y-3.1761
X7.7712Y-1.68
X7.7712Y-1.7587
X7.7712Y-1.8375
X7.7712Y-1.9162
X7.7712Y-1.995
X7.7712Y-2.0737
X7.7712Y-2.1524
X7.7712Y-2.2312
X7.7712Y-2.3099
X7.7712Y-2.3887
X7.7712Y-2.4674
X7.7712Y-2.5461
X7.7712Y-2.6249
X7.7712Y-2.7036
X7.7712Y-2.7824
X7.7712Y-2.8611
X7.7712Y-2.9398
X7.7712Y-3.0186
X7.7712Y-3.0973
X7.7712Y-3.1761
T5
X5.7283Y-2.8
X5.87Y-2.8
T6
X4.0315Y-3.2756
X4.26Y-1.77
X4.4344Y-3.2756
X4.626Y-2.1
X4.76Y-5.13
X4.8387Y-5.13
X4.9175Y-5.13
X4.9962Y-5.13
X5.075Y-5.13
X5.1537Y-5.13
X5.2324Y-5.13
X5.3112Y-5.13
X5.3899Y-5.13
X5.4687Y-5.13
X5.5474Y-5.13
X5.6261Y-5.13
X5.7049Y-5.13
X5.7836Y-5.13
X4.46Y-4.3638
X4.46Y-4.4425
X4.46Y-4.5213
X4.46Y-4.6
X4.46Y-4.6787
X4.46Y-4.7575
X4.46Y-4.8362
X4.46Y-4.915
X7.0113Y-3.39
X7.09Y-3.39
T7
X6.09Y-2.95
X6.09Y-3.1626
T8
X4.1705Y-5.2669
X7.6382Y-5.2945
X5.3421Y-1.8461
T0
M30
